<svg width="480" height="60" viewBox="0 0 480 60" fill="none" xmlns="http://www.w3.org/2000/svg">
<path d="M271.75 9.63435C283.004 12.2562 292.001 -2.39901 306.007 0.343611C306.449 0.435053 306.881 0.543419 307.325 0.672594C318.059 3.91818 321.304 10.5296 326.389 12.7282C325.938 12.7279 326.093 12.7966 326.194 12.8419C326.321 12.8912 326.52 12.9378 326.745 12.9784C327.193 13.0593 327.737 13.1165 328.333 13.1465C329.505 13.2059 330.889 13.1575 332.41 12.9809C341.078 11.977 349.94 13.839 356.879 14.5962C361.69 15.0598 365.635 15.3625 368.456 14.31C376.056 11.6371 375.45 22.0481 385.174 21.5132C390.501 21.2799 394.396 22.0204 397.654 23.3533C400.3 24.4501 402.912 26.0431 406.028 28.0412C408.145 29.3977 411.823 30.8827 416.091 31.9129C425.097 33.8454 436.413 36.1182 442.812 35.0517C444.404 34.9091 445.756 34.8043 446.912 34.6187C453.281 33.6518 458.156 36.937 460.683 39.1735L460.438 39.1331C464.384 41.198 467.548 43.9045 469.812 44.9898C470.11 45.1326 470.387 45.2736 470.645 45.4113L470.561 45.4056C471.189 45.691 471.347 45.914 471.399 46.1973C471.436 46.4923 471.697 46.7457 472.099 46.6828C472.505 46.6376 473.215 46.6601 473.838 46.9033C473.838 46.9035 473.838 46.9036 473.839 46.9038C474.599 47.1932 475.298 47.8884 474.78 48.8205C474.406 49.4916 473.601 50.2681 472.664 50.6397C471.738 51.0253 470.886 51.1167 470.242 51.2576C470.228 51.2552 470.187 51.2556 470.174 51.253C467.063 51.7384 463.587 52.1936 459.854 53.7093C459.257 53.9487 458.703 54.1574 458.183 54.3372C458.135 54.3245 457.988 54.3117 457.941 54.2975C448.309 55.6281 447.398 50.8083 441.458 50.6227C439.853 50.5899 438.151 50.62 436.234 50.7875C427.663 51.5165 421.535 53.7114 414.711 54.336C409.67 54.6497 404.423 54.0262 398.303 51.6089C396.124 50.7431 394.135 50.2203 392.228 49.9246C380.399 48.1742 374.715 56.9314 359.127 48.3835C358.244 47.933 357.384 47.5514 356.548 47.2325C340.42 42.0015 338.402 50.8141 321.222 54.5685C316.084 55.1079 312.592 55.2769 308.58 54.9876C305.367 54.7464 302.337 54.3136 299.32 53.7997C290.662 52.2941 280.959 50.0667 273.523 49.2166C268.39 49.3394 266.867 48.7837 264.678 48.5006C262.695 48.1722 261 47.878 259.449 47.6613C256.356 47.2239 253.827 47.0937 251.829 47.3722C248.296 47.8593 244.686 48.7597 241.713 49.9621C225.275 54.4305 215.509 54.3072 202.621 54.148C199.249 54.0262 195.791 54.1686 192.262 54.4921C180.057 55.6645 165.17 59.4335 150.573 59.5086C147.462 59.4906 144.138 59.441 140.469 59.1576C129.823 58.473 115.895 57.1902 104.003 55.0877C92.2637 53.032 81.4334 51.004 74.6121 49.3793C61.0153 46.1387 57.709 45.4046 44.6273 47.397C41.1392 47.9294 37.0102 47.9809 32.7506 47.4606C27.8045 46.8621 22.6978 45.5075 18.011 43.2581C13.6118 41.1417 14.6194 38.1949 19.0377 36.7849C24.6518 34.9959 29.3973 35.7965 32.7506 33.633C33.2443 33.3033 33.7199 32.9048 34.1701 32.4179C40.8336 25.0577 43.6801 22.2344 52.0907 26.5157C60.5163 30.796 64.4723 21.0582 69.3779 22.1741C74.2792 23.2848 74.2234 29.0505 99.1279 24.5523C100.731 24.257 102.346 23.975 103.844 23.7055C125.01 19.8961 134.893 16.8927 145.476 15.1483C146.239 15.0165 147.074 14.9151 147.979 14.8434C157.22 14.1672 173.803 16.3152 188.575 13.5166C188.965 13.4452 189.352 13.3706 189.733 13.2926C199.927 11.0018 222.98 10.2425 229.47 7.96894C237.612 5.33661 244.272 4.27997 248.77 3.09183C255.886 1.2977 259.467 2.06549 262.306 3.49603C263.718 4.22401 264.95 5.15606 266.195 6.12854C266.824 6.61454 267.432 7.11021 268.005 7.58987C268.532 8.07551 269.176 8.5112 268.913 8.99096C269.818 9.21162 270.755 9.42876 271.75 9.63435Z" fill="#C7EA2C"/>
<path d="M7.76 46.4856V20.9256H2.12V17.0856H17.88V20.9256H12.24V46.4856H7.76ZM34.44 46.4856V25.6856H38.32V46.4856H34.44ZM21.68 46.4856V25.6856H25.56V33.3656H27.2C27.7333 33.3656 28.2667 33.4323 28.8 33.5656C29.36 33.6723 29.8667 33.8723 30.32 34.1656C30.8 34.4589 31.2 34.8323 31.52 35.2856C31.8667 35.7123 32.1467 36.1923 32.36 36.7256C32.5733 37.2323 32.7067 37.7656 32.76 38.3256C32.84 38.8589 32.88 39.3923 32.88 39.9256C32.88 40.4856 32.84 41.0456 32.76 41.6056C32.7067 42.1389 32.5733 42.6589 32.36 43.1656C32.1467 43.6723 31.8667 44.1523 31.52 44.6056C31.2 45.0323 30.8 45.3923 30.32 45.6856C29.8667 45.9789 29.36 46.1923 28.8 46.3256C28.2667 46.4323 27.7333 46.4856 27.2 46.4856H21.68ZM25.56 43.1256H27.2C27.5467 43.1256 27.8533 43.0189 28.12 42.8056C28.3867 42.5656 28.5733 42.2856 28.68 41.9656C28.8133 41.6456 28.8933 41.3123 28.92 40.9656C28.9733 40.6189 29 40.2723 29 39.9256C29 39.5789 28.9733 39.2456 28.92 38.9256C28.8933 38.5789 28.8133 38.2456 28.68 37.9256C28.5733 37.6056 28.3867 37.3256 28.12 37.0856C27.8533 36.8456 27.5467 36.7256 27.2 36.7256H25.56V43.1256ZM65.04 55.0856V54.8056C65.04 54.0323 65.08 53.2589 65.16 52.4856C65.2667 51.7389 65.4533 51.0056 65.72 50.2856L67.64 45.2456L63.68 34.7656C63.3067 33.7789 62.9867 32.7789 62.72 31.7656C62.48 30.7256 62.36 29.6723 62.36 28.6056V25.6856H66.8V28.6056C66.8 29.4589 66.9067 30.2856 67.12 31.0856C67.3333 31.8856 67.5733 32.6723 67.84 33.4456L69.88 39.3656L72.16 33.4056C72.4533 32.6323 72.6933 31.8456 72.88 31.0456C73.0933 30.2456 73.2 29.4323 73.2 28.6056V25.6856H77.64V28.6056C77.64 29.6723 77.5067 30.7256 77.24 31.7656C77 32.7789 76.6933 33.7789 76.32 34.7656L69.88 51.6456C69.6933 52.1523 69.5733 52.6723 69.52 53.2056C69.4933 53.7389 69.48 54.2723 69.48 54.8056V55.0856H65.04ZM88.16 46.4856V38.6856C87.9733 38.4989 87.7867 38.3256 87.6 38.1656C87.4133 37.9789 87.2267 37.7923 87.04 37.6056C86.7467 38.3256 86.4667 39.0456 86.2 39.7656C85.96 40.4856 85.7333 41.2189 85.52 41.9656C85.3067 42.6856 85.12 43.4323 84.96 44.2056C84.8 44.9523 84.72 45.7123 84.72 46.4856H81.04C81.04 45.4456 81.16 44.4189 81.4 43.4056C81.6667 42.3656 81.96 41.3523 82.28 40.3656C82.6 39.3789 82.9467 38.4056 83.32 37.4456C83.72 36.4589 84.1333 35.4856 84.56 34.5256C84.1067 33.8589 83.68 33.1789 83.28 32.4856C82.88 31.7923 82.52 31.0856 82.2 30.3656C81.88 29.6189 81.6 28.8589 81.36 28.0856C81.1467 27.2856 81.04 26.4856 81.04 25.6856H84.72C84.72 26.4323 84.8267 27.1656 85.04 27.8856C85.28 28.6056 85.5467 29.2989 85.84 29.9656C86.16 30.6323 86.5067 31.2856 86.88 31.9256C87.28 32.5656 87.7067 33.1789 88.16 33.7656V25.6856H91.84V33.7656C92.2933 33.1789 92.7067 32.5656 93.08 31.9256C93.48 31.2856 93.8267 30.6323 94.12 29.9656C94.44 29.2989 94.7067 28.6056 94.92 27.8856C95.16 27.1656 95.28 26.4323 95.28 25.6856H98.96C98.96 26.4856 98.84 27.2856 98.6 28.0856C98.3867 28.8589 98.12 29.6189 97.8 30.3656C97.48 31.0856 97.12 31.7923 96.72 32.4856C96.32 33.1789 95.8933 33.8589 95.44 34.5256C95.8667 35.4856 96.2667 36.4589 96.64 37.4456C97.04 38.4056 97.4 39.3789 97.72 40.3656C98.04 41.3523 98.32 42.3656 98.56 43.4056C98.8267 44.4189 98.96 45.4456 98.96 46.4856H95.28C95.28 45.7123 95.2 44.9523 95.04 44.2056C94.88 43.4323 94.6933 42.6856 94.48 41.9656C94.2667 41.2189 94.0267 40.4856 93.76 39.7656C93.52 39.0456 93.2533 38.3256 92.96 37.6056C92.7733 37.7923 92.5867 37.9789 92.4 38.1656C92.2133 38.3256 92.0267 38.4989 91.84 38.6856V46.4856H88.16ZM110 46.8056C109.253 46.8056 108.52 46.7389 107.8 46.6056C107.08 46.4723 106.4 46.2323 105.76 45.8856C105.12 45.5389 104.547 45.0989 104.04 44.5656C103.56 44.0056 103.16 43.3923 102.84 42.7256C102.547 42.0589 102.333 41.3656 102.2 40.6456C102.093 39.9256 102.04 39.2056 102.04 38.4856V33.6856C102.04 32.9656 102.093 32.2456 102.2 31.5256C102.333 30.7789 102.547 30.0856 102.84 29.4456C103.16 28.7789 103.573 28.1789 104.08 27.6456C104.587 27.0856 105.16 26.6323 105.8 26.2856C106.44 25.9389 107.12 25.6989 107.84 25.5656C108.56 25.4323 109.28 25.3656 110 25.3656C110.667 25.3656 111.32 25.4056 111.96 25.4856C112.627 25.5656 113.267 25.7256 113.88 25.9656C114.493 26.2056 115.067 26.5256 115.6 26.9256C116.133 27.3256 116.573 27.7923 116.92 28.3256C117.293 28.8589 117.56 29.4589 117.72 30.1256C117.88 30.7656 117.96 31.4056 117.96 32.0456C117.96 32.7123 117.88 33.3656 117.72 34.0056C117.56 34.6456 117.28 35.2323 116.88 35.7656C116.507 36.2723 116.04 36.7123 115.48 37.0856C114.947 37.4589 114.373 37.7523 113.76 37.9656C113.147 38.1789 112.507 38.3256 111.84 38.4056C111.2 38.4856 110.56 38.5256 109.92 38.5256H106.52C106.52 39.0589 106.573 39.5923 106.68 40.1256C106.787 40.6589 106.987 41.1523 107.28 41.6056C107.573 42.0323 107.96 42.3656 108.44 42.6056C108.947 42.8456 109.467 42.9656 110 42.9656C110.4 42.9656 110.8 42.9256 111.2 42.8456C111.6 42.7656 111.96 42.6189 112.28 42.4056C112.627 42.1656 112.893 41.8589 113.08 41.4856C113.293 41.1123 113.413 40.7256 113.44 40.3256H117.88C117.88 40.9656 117.787 41.5923 117.6 42.2056C117.413 42.8189 117.133 43.3923 116.76 43.9256C116.387 44.4589 115.933 44.9123 115.4 45.2856C114.893 45.6589 114.333 45.9656 113.72 46.2056C113.133 46.4456 112.52 46.6056 111.88 46.6856C111.267 46.7656 110.64 46.8056 110 46.8056ZM106.48 34.6856H109.92C110.347 34.6856 110.76 34.6589 111.16 34.6056C111.587 34.5256 111.973 34.3789 112.32 34.1656C112.693 33.9256 112.987 33.6189 113.2 33.2456C113.413 32.8723 113.52 32.4723 113.52 32.0456C113.52 31.6189 113.427 31.2056 113.24 30.8056C113.053 30.4056 112.787 30.0856 112.44 29.8456C112.093 29.6056 111.707 29.4456 111.28 29.3656C110.853 29.2589 110.44 29.2056 110.04 29.2056C109.48 29.2056 108.947 29.3256 108.44 29.5656C107.96 29.8056 107.56 30.1523 107.24 30.6056C106.947 31.0589 106.747 31.5523 106.64 32.0856C106.533 32.6189 106.48 33.1523 106.48 33.6856V34.6856ZM143.56 46.4856V25.6856H157.88V29.5256H148V46.4856H143.56ZM170 46.8056C169.28 46.8056 168.547 46.7389 167.8 46.6056C167.08 46.4723 166.4 46.2323 165.76 45.8856C165.12 45.5389 164.547 45.0989 164.04 44.5656C163.56 44.0056 163.16 43.4056 162.84 42.7656C162.547 42.0989 162.333 41.4056 162.2 40.6856C162.093 39.9389 162.04 39.2056 162.04 38.4856V33.6856C162.04 32.9656 162.093 32.2456 162.2 31.5256C162.333 30.7789 162.547 30.0856 162.84 29.4456C163.16 28.7789 163.56 28.1789 164.04 27.6456C164.547 27.0856 165.12 26.6323 165.76 26.2856C166.4 25.9389 167.08 25.6989 167.8 25.5656C168.547 25.4323 169.28 25.3656 170 25.3656C170.72 25.3656 171.44 25.4323 172.16 25.5656C172.907 25.6989 173.6 25.9389 174.24 26.2856C174.88 26.6323 175.44 27.0856 175.92 27.6456C176.427 28.1789 176.827 28.7789 177.12 29.4456C177.44 30.0856 177.653 30.7789 177.76 31.5256C177.893 32.2456 177.96 32.9656 177.96 33.6856V38.4856C177.96 39.2056 177.893 39.9389 177.76 40.6856C177.653 41.4056 177.44 42.0989 177.12 42.7656C176.827 43.4056 176.427 44.0056 175.92 44.5656C175.44 45.0989 174.88 45.5389 174.24 45.8856C173.6 46.2323 172.907 46.4723 172.16 46.6056C171.44 46.7389 170.72 46.8056 170 46.8056ZM170 42.9656C170.533 42.9656 171.04 42.8456 171.52 42.6056C172.027 42.3656 172.427 42.0189 172.72 41.5656C173.04 41.1123 173.253 40.6189 173.36 40.0856C173.467 39.5523 173.52 39.0189 173.52 38.4856V33.6856C173.52 33.1523 173.467 32.6189 173.36 32.0856C173.253 31.5523 173.04 31.0589 172.72 30.6056C172.427 30.1523 172.027 29.8056 171.52 29.5656C171.04 29.3256 170.533 29.2056 170 29.2056C169.467 29.2056 168.947 29.3256 168.44 29.5656C167.96 29.8056 167.56 30.1523 167.24 30.6056C166.947 31.0589 166.747 31.5523 166.64 32.0856C166.533 32.6189 166.48 33.1523 166.48 33.6856V38.4856C166.48 39.0189 166.533 39.5523 166.64 40.0856C166.747 40.6189 166.947 41.1123 167.24 41.5656C167.56 42.0189 167.96 42.3656 168.44 42.6056C168.947 42.8456 169.467 42.9656 170 42.9656ZM187.76 46.4856V29.5256H182.12V25.6856H197.88V29.5256H192.24V46.4856H187.76ZM210 46.8056C209.28 46.8056 208.547 46.7389 207.8 46.6056C207.08 46.4723 206.4 46.2323 205.76 45.8856C205.12 45.5389 204.547 45.0989 204.04 44.5656C203.56 44.0056 203.16 43.4056 202.84 42.7656C202.547 42.0989 202.333 41.4056 202.2 40.6856C202.093 39.9389 202.04 39.2056 202.04 38.4856V33.6856C202.04 32.9656 202.093 32.2456 202.2 31.5256C202.333 30.7789 202.547 30.0856 202.84 29.4456C203.16 28.7789 203.56 28.1789 204.04 27.6456C204.547 27.0856 205.12 26.6323 205.76 26.2856C206.4 25.9389 207.08 25.6989 207.8 25.5656C208.547 25.4323 209.28 25.3656 210 25.3656C210.72 25.3656 211.44 25.4323 212.16 25.5656C212.907 25.6989 213.6 25.9389 214.24 26.2856C214.88 26.6323 215.44 27.0856 215.92 27.6456C216.427 28.1789 216.827 28.7789 217.12 29.4456C217.44 30.0856 217.653 30.7789 217.76 31.5256C217.893 32.2456 217.96 32.9656 217.96 33.6856V38.4856C217.96 39.2056 217.893 39.9389 217.76 40.6856C217.653 41.4056 217.44 42.0989 217.12 42.7656C216.827 43.4056 216.427 44.0056 215.92 44.5656C215.44 45.0989 214.88 45.5389 214.24 45.8856C213.6 46.2323 212.907 46.4723 212.16 46.6056C211.44 46.7389 210.72 46.8056 210 46.8056ZM210 42.9656C210.533 42.9656 211.04 42.8456 211.52 42.6056C212.027 42.3656 212.427 42.0189 212.72 41.5656C213.04 41.1123 213.253 40.6189 213.36 40.0856C213.467 39.5523 213.52 39.0189 213.52 38.4856V33.6856C213.52 33.1523 213.467 32.6189 213.36 32.0856C213.253 31.5523 213.04 31.0589 212.72 30.6056C212.427 30.1523 212.027 29.8056 211.52 29.5656C211.04 29.3256 210.533 29.2056 210 29.2056C209.467 29.2056 208.947 29.3256 208.44 29.5656C207.96 29.8056 207.56 30.1523 207.24 30.6056C206.947 31.0589 206.747 31.5523 206.64 32.0856C206.533 32.6189 206.48 33.1523 206.48 33.6856V38.4856C206.48 39.0189 206.533 39.5523 206.64 40.0856C206.747 40.6189 206.947 41.1123 207.24 41.5656C207.56 42.0189 207.96 42.3656 208.44 42.6056C208.947 42.8456 209.467 42.9656 210 42.9656ZM222.36 46.4856V25.6856H230.36C230.947 25.6856 231.52 25.7256 232.08 25.8056C232.64 25.8856 233.187 26.0323 233.72 26.2456C234.253 26.4589 234.747 26.7389 235.2 27.0856C235.653 27.4323 236.027 27.8456 236.32 28.3256C236.64 28.8056 236.867 29.3256 237 29.8856C237.133 30.4456 237.2 31.0056 237.2 31.5656C237.2 31.9656 237.16 32.3656 237.08 32.7656C237.027 33.1656 236.907 33.5389 236.72 33.8856C236.533 34.2323 236.293 34.5523 236 34.8456C235.733 35.1389 235.44 35.3923 235.12 35.6056C235.573 35.7923 236 36.0456 236.4 36.3656C236.827 36.6589 237.187 37.0056 237.48 37.4056C237.773 37.8056 237.973 38.2589 238.08 38.7656C238.213 39.2723 238.28 39.7656 238.28 40.2456C238.28 40.8856 238.187 41.5256 238 42.1656C237.84 42.7789 237.56 43.3389 237.16 43.8456C236.787 44.3256 236.333 44.7523 235.8 45.1256C235.267 45.4723 234.693 45.7523 234.08 45.9656C233.493 46.1523 232.88 46.2856 232.24 46.3656C231.627 46.4456 231 46.4856 230.36 46.4856H222.36ZM226.8 33.8456H230.36C230.68 33.8456 230.987 33.8056 231.28 33.7256C231.573 33.6456 231.84 33.5123 232.08 33.3256C232.32 33.1123 232.493 32.8589 232.6 32.5656C232.707 32.2723 232.76 31.9656 232.76 31.6456C232.76 31.3523 232.693 31.0589 232.56 30.7656C232.453 30.4723 232.28 30.2323 232.04 30.0456C231.827 29.8589 231.573 29.7256 231.28 29.6456C230.987 29.5656 230.68 29.5256 230.36 29.5256H226.8V33.8456ZM226.8 42.6456H230.36C230.76 42.6456 231.16 42.6189 231.56 42.5656C231.96 42.4856 232.333 42.3523 232.68 42.1656C233.027 41.9523 233.307 41.6723 233.52 41.3256C233.733 40.9523 233.84 40.5656 233.84 40.1656C233.84 39.7656 233.733 39.3923 233.52 39.0456C233.307 38.6723 233.027 38.3923 232.68 38.2056C232.333 37.9923 231.96 37.8589 231.56 37.8056C231.16 37.7256 230.76 37.6856 230.36 37.6856H226.8V42.6456ZM262.36 46.4856V25.6856H277.64V46.4856H273.2V29.5256H266.8V46.4856H262.36ZM282.36 55.0856V25.6856H286.8V29.3256C287.013 28.7656 287.28 28.2456 287.6 27.7656C287.92 27.2589 288.307 26.8189 288.76 26.4456C289.213 26.0723 289.733 25.8056 290.32 25.6456C290.907 25.4589 291.493 25.3656 292.08 25.3656C292.72 25.3656 293.347 25.4723 293.96 25.6856C294.573 25.8723 295.12 26.1923 295.6 26.6456C296.08 27.0723 296.467 27.5656 296.76 28.1256C297.08 28.6856 297.32 29.2723 297.48 29.8856C297.667 30.4989 297.787 31.1256 297.84 31.7656C297.92 32.4056 297.96 33.0456 297.96 33.6856V38.4856C297.96 39.1256 297.92 39.7656 297.84 40.4056C297.787 41.0456 297.667 41.6723 297.48 42.2856C297.32 42.8989 297.08 43.4856 296.76 44.0456C296.467 44.6056 296.08 45.1123 295.6 45.5656C295.12 45.9923 294.573 46.2989 293.96 46.4856C293.347 46.6989 292.72 46.8056 292.08 46.8056C291.493 46.8056 290.907 46.7123 290.32 46.5256C289.733 46.3656 289.213 46.0989 288.76 45.7256C288.307 45.3523 287.92 44.9256 287.6 44.4456C287.28 43.9389 287.013 43.4056 286.8 42.8456V55.0856H282.36ZM290.16 42.9656C290.693 42.9656 291.2 42.8456 291.68 42.6056C292.16 42.3389 292.533 41.9789 292.8 41.5256C293.067 41.0723 293.253 40.5923 293.36 40.0856C293.467 39.5523 293.52 39.0189 293.52 38.4856V33.6856C293.52 33.1523 293.467 32.6323 293.36 32.1256C293.253 31.5923 293.067 31.0989 292.8 30.6456C292.533 30.1923 292.16 29.8456 291.68 29.6056C291.2 29.3389 290.693 29.2056 290.16 29.2056C289.627 29.2056 289.12 29.3389 288.64 29.6056C288.16 29.8456 287.787 30.1923 287.52 30.6456C287.253 31.0989 287.067 31.5923 286.96 32.1256C286.853 32.6323 286.8 33.1523 286.8 33.6856V38.4856C286.8 39.0189 286.853 39.5523 286.96 40.0856C287.067 40.5923 287.253 41.0723 287.52 41.5256C287.787 41.9789 288.16 42.3389 288.64 42.6056C289.12 42.8456 289.627 42.9656 290.16 42.9656ZM310 46.8056C309.28 46.8056 308.547 46.7389 307.8 46.6056C307.08 46.4723 306.4 46.2323 305.76 45.8856C305.12 45.5389 304.547 45.0989 304.04 44.5656C303.56 44.0056 303.16 43.4056 302.84 42.7656C302.547 42.0989 302.333 41.4056 302.2 40.6856C302.093 39.9389 302.04 39.2056 302.04 38.4856V33.6856C302.04 32.9656 302.093 32.2456 302.2 31.5256C302.333 30.7789 302.547 30.0856 302.84 29.4456C303.16 28.7789 303.56 28.1789 304.04 27.6456C304.547 27.0856 305.12 26.6323 305.76 26.2856C306.4 25.9389 307.08 25.6989 307.8 25.5656C308.547 25.4323 309.28 25.3656 310 25.3656C310.72 25.3656 311.44 25.4323 312.16 25.5656C312.907 25.6989 313.6 25.9389 314.24 26.2856C314.88 26.6323 315.44 27.0856 315.92 27.6456C316.427 28.1789 316.827 28.7789 317.12 29.4456C317.44 30.0856 317.653 30.7789 317.76 31.5256C317.893 32.2456 317.96 32.9656 317.96 33.6856V38.4856C317.96 39.2056 317.893 39.9389 317.76 40.6856C317.653 41.4056 317.44 42.0989 317.12 42.7656C316.827 43.4056 316.427 44.0056 315.92 44.5656C315.44 45.0989 314.88 45.5389 314.24 45.8856C313.6 46.2323 312.907 46.4723 312.16 46.6056C311.44 46.7389 310.72 46.8056 310 46.8056ZM310 42.9656C310.533 42.9656 311.04 42.8456 311.52 42.6056C312.027 42.3656 312.427 42.0189 312.72 41.5656C313.04 41.1123 313.253 40.6189 313.36 40.0856C313.467 39.5523 313.52 39.0189 313.52 38.4856V33.6856C313.52 33.1523 313.467 32.6189 313.36 32.0856C313.253 31.5523 313.04 31.0589 312.72 30.6056C312.427 30.1523 312.027 29.8056 311.52 29.5656C311.04 29.3256 310.533 29.2056 310 29.2056C309.467 29.2056 308.947 29.3256 308.44 29.5656C307.96 29.8056 307.56 30.1523 307.24 30.6056C306.947 31.0589 306.747 31.5523 306.64 32.0856C306.533 32.6189 306.48 33.1523 306.48 33.6856V38.4856C306.48 39.0189 306.533 39.5523 306.64 40.0856C306.747 40.6189 306.947 41.1123 307.24 41.5656C307.56 42.0189 307.96 42.3656 308.44 42.6056C308.947 42.8456 309.467 42.9656 310 42.9656ZM329.88 46.8056C329.16 46.8056 328.44 46.7389 327.72 46.6056C327 46.4723 326.32 46.2323 325.68 45.8856C325.067 45.5123 324.507 45.0589 324 44.5256C323.52 43.9656 323.12 43.3656 322.8 42.7256C322.507 42.0589 322.307 41.3656 322.2 40.6456C322.093 39.9256 322.04 39.2056 322.04 38.4856V33.6856C322.04 32.9656 322.093 32.2456 322.2 31.5256C322.307 30.8056 322.507 30.1256 322.8 29.4856C323.12 28.8189 323.52 28.2189 324 27.6856C324.507 27.1256 325.067 26.6723 325.68 26.3256C326.32 25.9523 327 25.6989 327.72 25.5656C328.44 25.4323 329.16 25.3656 329.88 25.3656C330.573 25.3656 331.253 25.4323 331.92 25.5656C332.613 25.6723 333.267 25.8856 333.88 26.2056C334.493 26.4989 335.04 26.8856 335.52 27.3656C336.027 27.8456 336.44 28.3923 336.76 29.0056C337.08 29.6189 337.32 30.2589 337.48 30.9256C337.64 31.5923 337.72 32.2723 337.72 32.9656V33.2456H333.28V33.1256C333.28 32.6189 333.213 32.1256 333.08 31.6456C332.947 31.1656 332.733 30.7389 332.44 30.3656C332.147 29.9923 331.76 29.7123 331.28 29.5256C330.827 29.3123 330.36 29.2056 329.88 29.2056C329.347 29.2056 328.84 29.3389 328.36 29.6056C327.88 29.8456 327.493 30.1923 327.2 30.6456C326.933 31.0989 326.747 31.5923 326.64 32.1256C326.533 32.6323 326.48 33.1523 326.48 33.6856V38.4856C326.48 39.0189 326.533 39.5523 326.64 40.0856C326.747 40.5923 326.933 41.0723 327.2 41.5256C327.493 41.9789 327.88 42.3389 328.36 42.6056C328.84 42.8456 329.347 42.9656 329.88 42.9656C330.36 42.9656 330.827 42.8723 331.28 42.6856C331.76 42.4723 332.147 42.1789 332.44 41.8056C332.733 41.4323 332.947 41.0056 333.08 40.5256C333.213 40.0456 333.28 39.5523 333.28 39.0456V38.9256H337.72V39.2056C337.72 39.8989 337.64 40.5789 337.48 41.2456C337.32 41.9123 337.08 42.5523 336.76 43.1656C336.44 43.7789 336.027 44.3256 335.52 44.8056C335.04 45.2856 334.493 45.6856 333.88 46.0056C333.267 46.2989 332.613 46.4989 331.92 46.6056C331.253 46.7389 330.573 46.8056 329.88 46.8056ZM342.36 46.4856V25.6856H346.8V33.8856H353.2V25.6856H357.64V46.4856H353.2V37.7256H346.8V46.4856H342.36ZM365.04 55.0856V54.8056C365.04 54.0323 365.08 53.2589 365.16 52.4856C365.267 51.7389 365.453 51.0056 365.72 50.2856L367.64 45.2456L363.68 34.7656C363.307 33.7789 362.987 32.7789 362.72 31.7656C362.48 30.7256 362.36 29.6723 362.36 28.6056V25.6856H366.8V28.6056C366.8 29.4589 366.907 30.2856 367.12 31.0856C367.333 31.8856 367.573 32.6723 367.84 33.4456L369.88 39.3656L372.16 33.4056C372.453 32.6323 372.693 31.8456 372.88 31.0456C373.093 30.2456 373.2 29.4323 373.2 28.6056V25.6856H377.64V28.6056C377.64 29.6723 377.507 30.7256 377.24 31.7656C377 32.7789 376.693 33.7789 376.32 34.7656L369.88 51.6456C369.693 52.1523 369.573 52.6723 369.52 53.2056C369.493 53.7389 369.48 54.2723 369.48 54.8056V55.0856H365.04ZM387.76 46.4856V29.5256H382.12V25.6856H397.88V29.5256H392.24V46.4856H387.76ZM402.36 46.4856V25.6856H406.8V33.1256H411.2C411.813 33.1256 412.413 33.1789 413 33.2856C413.613 33.3923 414.187 33.5789 414.72 33.8456C415.253 34.1123 415.733 34.4589 416.16 34.8856C416.613 35.3123 416.973 35.7923 417.24 36.3256C417.507 36.8589 417.693 37.4189 417.8 38.0056C417.907 38.5923 417.96 39.1923 417.96 39.8056C417.96 40.4189 417.907 41.0189 417.8 41.6056C417.693 42.1923 417.507 42.7523 417.24 43.2856C416.973 43.8189 416.613 44.2989 416.16 44.7256C415.733 45.1523 415.253 45.4989 414.72 45.7656C414.187 46.0323 413.613 46.2189 413 46.3256C412.413 46.4323 411.813 46.4856 411.2 46.4856H402.36ZM406.8 42.6456H411.2C411.547 42.6456 411.88 42.5789 412.2 42.4456C412.52 42.2856 412.773 42.0723 412.96 41.8056C413.173 41.5123 413.32 41.1923 413.4 40.8456C413.48 40.4989 413.52 40.1523 413.52 39.8056C413.52 39.4589 413.48 39.1123 413.4 38.7656C413.32 38.4189 413.173 38.1123 412.96 37.8456C412.773 37.5523 412.52 37.3389 412.2 37.2056C411.88 37.0456 411.547 36.9656 411.2 36.9656H406.8V42.6456ZM429.88 46.8056C429.16 46.8056 428.44 46.7389 427.72 46.6056C427 46.4723 426.32 46.2323 425.68 45.8856C425.067 45.5123 424.507 45.0589 424 44.5256C423.52 43.9656 423.12 43.3656 422.8 42.7256C422.507 42.0589 422.307 41.3656 422.2 40.6456C422.093 39.9256 422.04 39.2056 422.04 38.4856V33.6856C422.04 32.9656 422.093 32.2456 422.2 31.5256C422.307 30.8056 422.507 30.1256 422.8 29.4856C423.12 28.8189 423.52 28.2189 424 27.6856C424.507 27.1256 425.067 26.6723 425.68 26.3256C426.32 25.9523 427 25.6989 427.72 25.5656C428.44 25.4323 429.16 25.3656 429.88 25.3656C430.573 25.3656 431.253 25.4323 431.92 25.5656C432.613 25.6723 433.267 25.8856 433.88 26.2056C434.493 26.4989 435.04 26.8856 435.52 27.3656C436.027 27.8456 436.44 28.3923 436.76 29.0056C437.08 29.6189 437.32 30.2589 437.48 30.9256C437.64 31.5923 437.72 32.2723 437.72 32.9656V33.2456H433.28V33.1256C433.28 32.6189 433.213 32.1256 433.08 31.6456C432.947 31.1656 432.733 30.7389 432.44 30.3656C432.147 29.9923 431.76 29.7123 431.28 29.5256C430.827 29.3123 430.36 29.2056 429.88 29.2056C429.347 29.2056 428.84 29.3389 428.36 29.6056C427.88 29.8456 427.493 30.1923 427.2 30.6456C426.933 31.0989 426.747 31.5923 426.64 32.1256C426.533 32.6323 426.48 33.1523 426.48 33.6856V38.4856C426.48 39.0189 426.533 39.5523 426.64 40.0856C426.747 40.5923 426.933 41.0723 427.2 41.5256C427.493 41.9789 427.88 42.3389 428.36 42.6056C428.84 42.8456 429.347 42.9656 429.88 42.9656C430.36 42.9656 430.827 42.8723 431.28 42.6856C431.76 42.4723 432.147 42.1789 432.44 41.8056C432.733 41.4323 432.947 41.0056 433.08 40.5256C433.213 40.0456 433.28 39.5523 433.28 39.0456V38.9256H437.72V39.2056C437.72 39.8989 437.64 40.5789 437.48 41.2456C437.32 41.9123 437.08 42.5523 436.76 43.1656C436.44 43.7789 436.027 44.3256 435.52 44.8056C435.04 45.2856 434.493 45.6856 433.88 46.0056C433.267 46.2989 432.613 46.4989 431.92 46.6056C431.253 46.7389 430.573 46.8056 429.88 46.8056ZM442.04 46.4856C442.04 45.7389 442.16 45.0189 442.4 44.3256C442.64 43.6323 442.933 42.9656 443.28 42.3256C443.653 41.6589 444.053 41.0323 444.48 40.4456C444.907 39.8589 445.36 39.2856 445.84 38.7256C445.227 38.4856 444.667 38.1523 444.16 37.7256C443.653 37.2989 443.227 36.8056 442.88 36.2456C442.56 35.6589 442.333 35.0456 442.2 34.4056C442.093 33.7389 442.04 33.0856 442.04 32.4456C442.04 31.8323 442.093 31.2323 442.2 30.6456C442.307 30.0323 442.493 29.4589 442.76 28.9256C443.027 28.3656 443.373 27.8723 443.8 27.4456C444.253 27.0189 444.747 26.6723 445.28 26.4056C445.84 26.1389 446.413 25.9523 447 25.8456C447.613 25.7389 448.227 25.6856 448.84 25.6856H457.64V46.4856H453.2V39.2056H450.96C450.613 39.5256 450.267 39.8723 449.92 40.2456C449.6 40.5923 449.28 40.9523 448.96 41.3256C448.667 41.6989 448.373 42.0856 448.08 42.4856C447.813 42.8856 447.56 43.2989 447.32 43.7256C447.08 44.1523 446.88 44.6056 446.72 45.0856C446.56 45.5389 446.48 46.0056 446.48 46.4856H442.04ZM448.84 35.3656H453.2V29.5256H448.84C448.467 29.5256 448.12 29.6056 447.8 29.7656C447.48 29.9256 447.213 30.1523 447 30.4456C446.813 30.7123 446.68 31.0323 446.6 31.4056C446.52 31.7523 446.48 32.0989 446.48 32.4456C446.48 32.7923 446.52 33.1389 446.6 33.4856C446.68 33.8323 446.813 34.1523 447 34.4456C447.213 34.7389 447.48 34.9656 447.8 35.1256C448.12 35.2856 448.467 35.3656 448.84 35.3656ZM467.76 36.8856C467.76 36.2723 467.773 35.6723 467.8 35.0856C467.853 34.4989 467.96 33.9256 468.12 33.3656C468.28 32.7789 468.493 32.2189 468.76 31.6856C469.027 31.1523 469.333 30.6456 469.68 30.1656C470.053 29.6589 470.44 29.1923 470.84 28.7656C471.24 28.3123 471.613 27.8456 471.96 27.3656C472.307 26.8856 472.6 26.3789 472.84 25.8456C473.08 25.2856 473.2 24.6989 473.2 24.0856C473.2 23.6323 473.133 23.1923 473 22.7656C472.867 22.3389 472.653 21.9523 472.36 21.6056C472.067 21.2589 471.707 21.0056 471.28 20.8456C470.853 20.6856 470.413 20.6056 469.96 20.6056C469.48 20.6056 469.013 20.7123 468.56 20.9256C468.133 21.1123 467.773 21.4056 467.48 21.8056C467.213 22.1789 467.013 22.6056 466.88 23.0856C466.773 23.5389 466.72 23.9923 466.72 24.4456V24.6456H462.28V24.2856C462.28 23.5923 462.347 22.9123 462.48 22.2456C462.64 21.5789 462.88 20.9523 463.2 20.3656C463.52 19.7789 463.92 19.2456 464.4 18.7656C464.88 18.2856 465.413 17.8989 466 17.6056C466.613 17.2856 467.253 17.0723 467.92 16.9656C468.613 16.8323 469.293 16.7656 469.96 16.7656C470.627 16.7656 471.293 16.8189 471.96 16.9256C472.627 17.0323 473.253 17.2323 473.84 17.5256C474.453 17.8189 475 18.2056 475.48 18.6856C475.987 19.1389 476.4 19.6589 476.72 20.2456C477.04 20.8323 477.267 21.4589 477.4 22.1256C477.56 22.7656 477.64 23.4189 477.64 24.0856C477.64 24.6723 477.573 25.2589 477.44 25.8456C477.333 26.4323 477.173 27.0056 476.96 27.5656C476.747 28.1256 476.48 28.6589 476.16 29.1656C475.867 29.6723 475.533 30.1656 475.16 30.6456C474.813 31.0989 474.44 31.5523 474.04 32.0056C473.64 32.4589 473.28 32.9389 472.96 33.4456C472.667 33.9523 472.467 34.4989 472.36 35.0856C472.28 35.6723 472.24 36.2723 472.24 36.8856H467.76ZM470 46.8056C469.52 46.8056 469.053 46.7256 468.6 46.5656C468.147 46.4323 467.747 46.2056 467.4 45.8856C467.08 45.5389 466.84 45.1389 466.68 44.6856C466.547 44.2323 466.48 43.7656 466.48 43.2856C466.48 42.8056 466.547 42.3389 466.68 41.8856C466.84 41.4056 467.08 41.0056 467.4 40.6856C467.747 40.3389 468.147 40.0989 468.6 39.9656C469.053 39.8323 469.52 39.7656 470 39.7656C470.48 39.7656 470.947 39.8323 471.4 39.9656C471.853 40.0989 472.24 40.3389 472.56 40.6856C472.907 41.0056 473.147 41.4056 473.28 41.8856C473.44 42.3389 473.52 42.8056 473.52 43.2856C473.52 43.7656 473.44 44.2323 473.28 44.6856C473.147 45.1389 472.907 45.5389 472.56 45.8856C472.24 46.2056 471.853 46.4323 471.4 46.5656C470.947 46.7256 470.48 46.8056 470 46.8056Z" fill="black"/>
</svg>
