<svg width="481" height="62" viewBox="0 0 481 62" fill="none" xmlns="http://www.w3.org/2000/svg">
<path d="M460.582 14.4952C461.228 14.3628 461.397 16.2579 461.886 16.5097C462.772 16.9751 463.176 17.4352 463.417 17.887C463.638 18.3349 463.754 18.7777 463.48 19.0801L462.739 18.958C463.068 19.1136 463.414 19.2672 463.788 19.4176C466.055 20.3555 472.868 21.1271 472.082 22.9503L471.534 22.9132C471.795 23.3067 470.058 23.4096 466.95 24.7168C463.8 25.9617 460.504 29.0648 459.639 31.2761C457.87 35.8101 460.183 36.7864 462.313 37.7467C462.314 37.7469 462.314 37.747 462.314 37.7471C462.425 37.7904 462.538 37.8328 462.653 37.8744C464.801 38.6345 467.709 38.637 469.777 40.3436C470.787 41.1709 474.655 44.2056 477.604 47.8867C480.672 51.3438 481.582 57.2239 476.574 59.3242C473.389 60.5747 470.372 60.3683 469.503 60.1288C469.42 60.1144 469.166 60.1168 469.083 60.1004C464.952 59.0681 463.115 55.9979 462.262 56.0251C461.575 56.0304 460.515 57.3979 459.695 57.5311C458.583 57.7111 457.78 57.5993 456.994 57.6886C456.896 57.6623 456.593 57.636 456.496 57.6066C454.22 57.4683 452.565 57.6597 450.05 59.4407C449.453 56.9588 449.096 54.5263 448.794 52.1149C447.194 52.6687 446.346 49.359 445.633 49.3247C445.051 49.2943 444.286 50.8902 443.775 50.8419C443.216 50.8023 442.78 48.7663 441.914 48.9212C441.578 48.9845 441.314 49.3225 441.124 49.7995C439.633 51.1666 438.786 53.7682 437.579 54.0701C435.911 54.4829 433.921 51.7421 431.906 53.1011C431.617 53.5687 431.322 54.0355 431.037 54.5037C431.058 55.6455 431.082 56.7879 431.105 57.93C430.129 58.3384 430.029 55.9913 429.211 55.8487C428.248 55.6799 427.506 57.8036 426.869 57.7183C426.352 57.6472 425.848 55.816 425.163 55.8505C424.168 55.893 424.108 58.4453 423.539 58.8625C423.299 59.0153 419.405 60.0419 419.207 60.0528C417.614 60.0146 417.755 56.5357 416.495 56.1355C415.784 55.9137 415.061 55.8468 414.329 55.8896C410.562 55.9998 406.79 57.5734 403.36 57.9908C401.442 58.226 399.531 57.7494 397.775 56.9087C401.945 48.5487 396.92 40.7249 396.963 54.852C395.271 52.5628 393.174 56.0095 391.304 54.9949C390.968 54.8088 390.68 54.5074 390.41 54.1652C389.757 53.3045 389.178 52.1782 388.009 51.9643C385.081 51.435 381.148 56.2023 382.441 46.3308C379.041 47.4015 377.109 43.3858 374.558 51.8404C373.755 52.2399 372.739 46.7814 371.989 45.9549C371.324 45.1403 365.524 42.0697 364.51 41.8958C363.526 41.6778 361.77 41.4184 360.899 42.1473C359.743 43.045 358.865 52.0986 357.26 41.4365C357.009 41.5309 356.776 41.6111 356.557 41.6772C354.631 42.1857 353.708 41.8125 351.67 40.6972C351.25 40.4693 351.219 38.8908 350.974 38.8867C350.472 38.8813 349.593 40.038 348.697 40.1701C347.204 40.3861 346.402 37.0557 346.506 42.1292C345.521 42.968 344.533 43.8065 343.536 44.6443C343.201 43.6611 342.882 42.6781 342.544 41.6947C341.997 42.7545 341.476 43.8145 340.925 44.8739C341.638 37.5441 337.895 41.8226 339.027 46.0504C337.15 44.5047 335.24 42.9558 333.356 41.4013C333.786 33.0698 329.141 40.3485 329.388 44.8876C329.155 44.875 328.927 44.8623 328.703 44.8495C327.855 43.8631 327.02 43.6345 326.088 43.5546C325.64 43.5151 325.124 43.5112 324.574 43.4646C323.94 43.4065 323.545 43.3573 322.071 43.0273C321.668 42.8786 321.277 42.6854 320.9 42.4327C318.22 40.5154 318.782 39.7549 318.668 35.8448C318.053 35.9572 317.459 36.0703 316.864 36.1821C312.055 45.981 315.908 28.1512 309.805 35.2422C309.494 28.4652 305.185 31.2718 302.597 32.9589C302.293 33.1532 302.116 34.424 301.708 34.77C301.53 34.9182 301.319 34.9788 301.088 35.0022C300.029 35.1076 298.576 34.4402 298.28 37.8288C297.642 36.5557 296.99 35.2874 296.318 34.0236C295.607 34.7146 294.916 35.4116 294.222 36.1126C294.126 37.401 294.029 38.6893 293.932 39.9777C293.027 35.4874 290.899 37.0546 289.984 35.9612C289.798 35.7391 289.837 33.9558 289.242 33.4446C288.535 32.8371 287.177 33.3226 286.326 32.7511C285.956 34.7187 285.591 36.6877 285.253 38.6582C283.788 39.7147 283.256 34.5099 282.355 34.1137C282.182 34.0367 279.283 34.484 279.137 34.6101C277.907 35.5539 278.434 39.9293 274.97 39.2403C274.356 39.1197 273.735 37.6361 273.191 37.632C273.066 37.6304 272.907 37.6969 272.751 37.819C269.535 38.8422 266.723 41.7036 266.367 44.5138C264.678 40.4731 261.054 42.0516 260.055 40.8878C259.741 40.5283 259.696 37.9597 258.734 37.413C257.95 36.965 256.038 39.0416 255.121 38.7279C254.132 38.3826 253.696 36.2456 253.244 36.1131C252.819 35.9911 252.523 37.7487 251.977 37.7719C250.273 37.815 248.477 35.1737 247.108 35.2921C245.114 35.4596 244.336 40.8369 243.606 43.3429C243.222 43.0856 242.655 42.082 242.319 42.1547C241.837 42.2545 241.358 42.3525 240.882 42.4504C231.596 44.5551 225.925 43.7976 219.858 43.4627C216.759 43.2342 208.917 36.8246 211.776 48.3081C210.89 50.4282 203.18 46.3043 201.795 46.3467C200.4 46.3875 199.474 48.5624 198.397 48.6823C196.161 48.9302 194.322 48.3939 192.164 48.7387C191.222 48.8925 190.2 49.2341 189.039 49.9227C188.078 50.4964 187.25 53.0732 186.643 53.1069C185.914 53.1414 184.881 50.8383 183.906 50.7876C181.605 50.6836 177.365 51.9277 175.066 51.7448C174.648 51.7061 174.287 49.6268 173.635 49.0316C171.093 46.7063 168.543 47.1735 169.638 53.8212C166.304 50.3067 163.87 54.0179 161.088 54.4572C158.332 54.8862 154.459 54.9338 150.59 55.1399C147.169 55.3147 143.404 55.9863 140.956 57.7505C138.042 59.8464 138.434 62.8567 133.281 60.7356C132.13 60.2629 130.961 59.5853 129.576 59.0079C126.279 57.6517 123.147 52.2689 121.137 59.0955C117.581 57.539 114.874 58.8647 112.204 53.1938C111.947 54.5776 111.684 55.9611 111.416 57.3444C110.991 57.3884 110.578 57.4315 110.166 57.4738C110.01 56.1638 109.856 54.8537 109.702 53.5436C107.921 53.3676 105.951 55.2151 104.035 56.7288C102.826 57.7599 101.647 58.6418 100.67 58.6298C96.6391 58.5878 86.3071 56.5166 82.4953 54.7504C80.4834 53.8131 80.368 56.625 79.2097 50.8468C78.7595 51.2496 78.3079 51.6523 77.8553 52.0551C77.5748 53.3211 77.2956 54.5871 77.0151 55.8531C74.424 55.9073 71.354 53.9449 68.8879 53.9673C64.3986 54.0122 57.645 57.4995 53.143 55.2132C52.0015 54.6367 50.5981 52.0271 49.4858 52.0569C47.8832 52.0978 47.4882 56.4292 45.4373 56.5105C42.1608 56.6339 36.2145 52.2716 32.7506 51.9893C32.4883 51.9687 32.2433 51.9698 32.0163 51.996C31.047 52.1074 30.5539 53.719 29.8894 53.8911C27.0175 54.6301 24.6717 54.4989 21.9295 56.9893C18.9889 52.8387 19.2386 47.4812 18.3273 42.0753C17.6225 37.9952 15.5148 28.5397 15.2105 24.9663C15.0014 22.4557 15.7834 19.2263 15.4926 16.4628C19.0256 14.256 20.4967 16.6854 23.371 20.5728C26.5164 20.4814 29.5931 20.3901 32.7506 20.2987C34.9223 20.2352 37.0857 20.1716 39.2569 20.108C39.7423 21.6164 40.2299 23.1247 40.7041 24.6331C40.7041 24.6364 40.7041 24.6397 40.7041 24.643C42.7543 26.3837 43.6009 22.4989 44.6984 21.6169C55.1944 13.1734 75.8636 19.7698 87.4079 20.6941C89.9036 20.8921 97.9874 18.836 99.695 21.2777C100.131 21.914 100.266 24.2394 100.742 24.3386C101.782 23.9893 102.848 23.6394 103.866 23.2892C106.923 22.2356 109.951 21.1473 112.917 20.0166C121.359 23.3932 129.343 19.7207 137.98 18.2014C141.24 17.6504 144.728 17.0911 148.356 16.6689C161.619 15.0238 174.449 12.5319 188.754 10.8368C195.27 10.0979 201.72 9.58025 208.046 9.24205C212.503 9.00699 217.895 6.82926 221.975 7.52089C223.653 7.80649 224.844 11.4364 226.492 8.40033C226.653 9.39392 226.815 10.3874 226.978 11.3808C228.536 9.93017 229.319 7.46673 230.249 6.99889C230.34 6.94876 230.451 6.89226 230.504 6.85216C233.569 5.75458 238.802 4.66551 240.713 4.74384C241.871 4.7656 241.721 6.68727 242.74 6.53835C244.461 6.26203 247.948 3.31003 250.332 3.18854C252.505 3.05284 256.048 5.1367 257.561 4.82076C259.89 4.33661 262.278 3.53511 264.487 2.81986C265.583 2.46153 266.649 2.12335 267.506 1.84661C267.938 1.70839 268.309 1.58472 268.548 1.48542C268.778 1.38877 268.91 1.304 268.567 1.30984C269.654 1.13863 270.715 1.06909 271.763 1.11937C273.584 1.20586 275.926 3.51889 276.44 3.42764C277.466 3.23617 277.681 0.85874 278.377 0.528625C281.944 -1.15546 287.485 1.69843 290.845 1.97189C295.526 2.3245 300.293 2.6273 305.079 3.09645C311.618 3.71867 318.274 4.78798 323.391 6.01107C324.529 6.28074 325.827 6.532 326.564 6.64467C326.213 6.60556 326.204 6.61273 326.222 6.61575C326.244 6.62024 326.339 6.62946 326.442 6.6382C326.666 6.65687 326.954 6.6765 327.279 6.69639C327.92 6.73567 328.641 6.77364 329.381 6.81398C330.874 6.89483 332.442 6.98549 333.977 7.11298C337.042 7.36729 339.991 7.76899 342.214 8.50111C343.435 8.90186 343.074 11.4922 344.105 11.5052C345.246 11.5189 345.898 9.77365 346.425 9.63821C348.855 9.01842 353.195 8.08308 356.899 8.01965C359.16 7.98843 361.21 8.26292 362.564 8.9531C363.315 9.33597 363.739 11.3986 364.189 11.4196C364.417 11.4342 365.015 10.082 365.753 9.9942C372.21 9.23347 376.777 10.6905 382.602 12.213C387.823 13.5762 393.502 14.543 398.366 15.2032C403.623 15.8799 409.291 16.2968 414.313 17.4671C415.252 17.6851 415.988 18.6467 416.559 19.6286C417.435 20.8161 417.958 22.0399 418.156 22.0315C418.945 22.0062 419.654 19.3428 421.324 18.8085C426.906 17.0451 433.744 20.7986 438.507 20.0367C440.208 19.7607 442.526 18.0907 443.986 16.892C445.542 16.5246 446.922 16.3138 448.07 16.3036C451.708 16.2724 456.741 19.2507 457.927 18.0572C458.736 17.3585 459.876 14.6524 460.582 14.4952ZM386.79 49.3906C388.088 44.8862 383.921 47.959 384.641 50.6843C384.792 51.2951 386.443 50.5576 386.79 49.3906ZM231.157 36.2021C231.388 37.5185 231.62 38.8346 231.854 40.1504C232.296 39.5225 232.731 38.8917 233.172 38.2547C232.747 37.5114 232.314 36.7675 231.913 36.0173C231.663 36.0796 231.411 36.1412 231.157 36.2021Z" fill="#C7EA2C"/>
<path d="M7.76 41.8226V16.2626H2.12V12.4226H17.88V16.2626H12.24V41.8226H7.76ZM34.44 41.8226V21.0226H38.32V41.8226H34.44ZM21.68 41.8226V21.0226H25.56V28.7026H27.2C27.7333 28.7026 28.2667 28.7693 28.8 28.9026C29.36 29.0093 29.8667 29.2093 30.32 29.5026C30.8 29.796 31.2 30.1693 31.52 30.6226C31.8667 31.0493 32.1467 31.5293 32.36 32.0626C32.5733 32.5693 32.7067 33.1026 32.76 33.6626C32.84 34.196 32.88 34.7293 32.88 35.2626C32.88 35.8226 32.84 36.3826 32.76 36.9426C32.7067 37.476 32.5733 37.996 32.36 38.5026C32.1467 39.0093 31.8667 39.4893 31.52 39.9426C31.2 40.3693 30.8 40.7293 30.32 41.0226C29.8667 41.316 29.36 41.5293 28.8 41.6626C28.2667 41.7693 27.7333 41.8226 27.2 41.8226H21.68ZM25.56 38.4626H27.2C27.5467 38.4626 27.8533 38.356 28.12 38.1426C28.3867 37.9026 28.5733 37.6226 28.68 37.3026C28.8133 36.9826 28.8933 36.6493 28.92 36.3026C28.9733 35.956 29 35.6093 29 35.2626C29 34.916 28.9733 34.5826 28.92 34.2626C28.8933 33.916 28.8133 33.5826 28.68 33.2626C28.5733 32.9426 28.3867 32.6626 28.12 32.4226C27.8533 32.1826 27.5467 32.0626 27.2 32.0626H25.56V38.4626ZM65.04 50.4226V50.1426C65.04 49.3693 65.08 48.596 65.16 47.8226C65.2667 47.076 65.4533 46.3426 65.72 45.6226L67.64 40.5826L63.68 30.1026C63.3067 29.116 62.9867 28.116 62.72 27.1026C62.48 26.0626 62.36 25.0093 62.36 23.9426V21.0226H66.8V23.9426C66.8 24.796 66.9067 25.6226 67.12 26.4226C67.3333 27.2226 67.5733 28.0093 67.84 28.7826L69.88 34.7026L72.16 28.7426C72.4533 27.9693 72.6933 27.1826 72.88 26.3826C73.0933 25.5826 73.2 24.7693 73.2 23.9426V21.0226H77.64V23.9426C77.64 25.0093 77.5067 26.0626 77.24 27.1026C77 28.116 76.6933 29.116 76.32 30.1026L69.88 46.9826C69.6933 47.4893 69.5733 48.0093 69.52 48.5426C69.4933 49.076 69.48 49.6093 69.48 50.1426V50.4226H65.04ZM88.16 41.8226V34.0226C87.9733 33.836 87.7867 33.6626 87.6 33.5026C87.4133 33.316 87.2267 33.1293 87.04 32.9426C86.7467 33.6626 86.4667 34.3826 86.2 35.1026C85.96 35.8226 85.7333 36.556 85.52 37.3026C85.3067 38.0226 85.12 38.7693 84.96 39.5426C84.8 40.2893 84.72 41.0493 84.72 41.8226H81.04C81.04 40.7826 81.16 39.756 81.4 38.7426C81.6667 37.7026 81.96 36.6893 82.28 35.7026C82.6 34.716 82.9467 33.7426 83.32 32.7826C83.72 31.796 84.1333 30.8226 84.56 29.8626C84.1067 29.196 83.68 28.516 83.28 27.8226C82.88 27.1293 82.52 26.4226 82.2 25.7026C81.88 24.956 81.6 24.196 81.36 23.4226C81.1467 22.6226 81.04 21.8226 81.04 21.0226H84.72C84.72 21.7693 84.8267 22.5026 85.04 23.2226C85.28 23.9426 85.5467 24.636 85.84 25.3026C86.16 25.9693 86.5067 26.6226 86.88 27.2626C87.28 27.9026 87.7067 28.516 88.16 29.1026V21.0226H91.84V29.1026C92.2933 28.516 92.7067 27.9026 93.08 27.2626C93.48 26.6226 93.8267 25.9693 94.12 25.3026C94.44 24.636 94.7067 23.9426 94.92 23.2226C95.16 22.5026 95.28 21.7693 95.28 21.0226H98.96C98.96 21.8226 98.84 22.6226 98.6 23.4226C98.3867 24.196 98.12 24.956 97.8 25.7026C97.48 26.4226 97.12 27.1293 96.72 27.8226C96.32 28.516 95.8933 29.196 95.44 29.8626C95.8667 30.8226 96.2667 31.796 96.64 32.7826C97.04 33.7426 97.4 34.716 97.72 35.7026C98.04 36.6893 98.32 37.7026 98.56 38.7426C98.8267 39.756 98.96 40.7826 98.96 41.8226H95.28C95.28 41.0493 95.2 40.2893 95.04 39.5426C94.88 38.7693 94.6933 38.0226 94.48 37.3026C94.2667 36.556 94.0267 35.8226 93.76 35.1026C93.52 34.3826 93.2533 33.6626 92.96 32.9426C92.7733 33.1293 92.5867 33.316 92.4 33.5026C92.2133 33.6626 92.0267 33.836 91.84 34.0226V41.8226H88.16ZM110 42.1426C109.253 42.1426 108.52 42.076 107.8 41.9426C107.08 41.8093 106.4 41.5693 105.76 41.2226C105.12 40.876 104.547 40.436 104.04 39.9026C103.56 39.3426 103.16 38.7293 102.84 38.0626C102.547 37.396 102.333 36.7026 102.2 35.9826C102.093 35.2626 102.04 34.5426 102.04 33.8226V29.0226C102.04 28.3026 102.093 27.5826 102.2 26.8626C102.333 26.116 102.547 25.4226 102.84 24.7826C103.16 24.116 103.573 23.516 104.08 22.9826C104.587 22.4226 105.16 21.9693 105.8 21.6226C106.44 21.276 107.12 21.036 107.84 20.9026C108.56 20.7693 109.28 20.7026 110 20.7026C110.667 20.7026 111.32 20.7426 111.96 20.8226C112.627 20.9026 113.267 21.0626 113.88 21.3026C114.493 21.5426 115.067 21.8626 115.6 22.2626C116.133 22.6626 116.573 23.1293 116.92 23.6626C117.293 24.196 117.56 24.796 117.72 25.4626C117.88 26.1026 117.96 26.7426 117.96 27.3826C117.96 28.0493 117.88 28.7026 117.72 29.3426C117.56 29.9826 117.28 30.5693 116.88 31.1026C116.507 31.6093 116.04 32.0493 115.48 32.4226C114.947 32.796 114.373 33.0893 113.76 33.3026C113.147 33.516 112.507 33.6626 111.84 33.7426C111.2 33.8226 110.56 33.8626 109.92 33.8626H106.52C106.52 34.396 106.573 34.9293 106.68 35.4626C106.787 35.996 106.987 36.4893 107.28 36.9426C107.573 37.3693 107.96 37.7026 108.44 37.9426C108.947 38.1826 109.467 38.3026 110 38.3026C110.4 38.3026 110.8 38.2626 111.2 38.1826C111.6 38.1026 111.96 37.956 112.28 37.7426C112.627 37.5026 112.893 37.196 113.08 36.8226C113.293 36.4493 113.413 36.0626 113.44 35.6626H117.88C117.88 36.3026 117.787 36.9293 117.6 37.5426C117.413 38.156 117.133 38.7293 116.76 39.2626C116.387 39.796 115.933 40.2493 115.4 40.6226C114.893 40.996 114.333 41.3026 113.72 41.5426C113.133 41.7826 112.52 41.9426 111.88 42.0226C111.267 42.1026 110.64 42.1426 110 42.1426ZM106.48 30.0226H109.92C110.347 30.0226 110.76 29.996 111.16 29.9426C111.587 29.8626 111.973 29.716 112.32 29.5026C112.693 29.2626 112.987 28.956 113.2 28.5826C113.413 28.2093 113.52 27.8093 113.52 27.3826C113.52 26.956 113.427 26.5426 113.24 26.1426C113.053 25.7426 112.787 25.4226 112.44 25.1826C112.093 24.9426 111.707 24.7826 111.28 24.7026C110.853 24.596 110.44 24.5426 110.04 24.5426C109.48 24.5426 108.947 24.6626 108.44 24.9026C107.96 25.1426 107.56 25.4893 107.24 25.9426C106.947 26.396 106.747 26.8893 106.64 27.4226C106.533 27.956 106.48 28.4893 106.48 29.0226V30.0226ZM143.56 41.8226V21.0226H157.88V24.8626H148V41.8226H143.56ZM170 42.1426C169.28 42.1426 168.547 42.076 167.8 41.9426C167.08 41.8093 166.4 41.5693 165.76 41.2226C165.12 40.876 164.547 40.436 164.04 39.9026C163.56 39.3426 163.16 38.7426 162.84 38.1026C162.547 37.436 162.333 36.7426 162.2 36.0226C162.093 35.276 162.04 34.5426 162.04 33.8226V29.0226C162.04 28.3026 162.093 27.5826 162.2 26.8626C162.333 26.116 162.547 25.4226 162.84 24.7826C163.16 24.116 163.56 23.516 164.04 22.9826C164.547 22.4226 165.12 21.9693 165.76 21.6226C166.4 21.276 167.08 21.036 167.8 20.9026C168.547 20.7693 169.28 20.7026 170 20.7026C170.72 20.7026 171.44 20.7693 172.16 20.9026C172.907 21.036 173.6 21.276 174.24 21.6226C174.88 21.9693 175.44 22.4226 175.92 22.9826C176.427 23.516 176.827 24.116 177.12 24.7826C177.44 25.4226 177.653 26.116 177.76 26.8626C177.893 27.5826 177.96 28.3026 177.96 29.0226V33.8226C177.96 34.5426 177.893 35.276 177.76 36.0226C177.653 36.7426 177.44 37.436 177.12 38.1026C176.827 38.7426 176.427 39.3426 175.92 39.9026C175.44 40.436 174.88 40.876 174.24 41.2226C173.6 41.5693 172.907 41.8093 172.16 41.9426C171.44 42.076 170.72 42.1426 170 42.1426ZM170 38.3026C170.533 38.3026 171.04 38.1826 171.52 37.9426C172.027 37.7026 172.427 37.356 172.72 36.9026C173.04 36.4493 173.253 35.956 173.36 35.4226C173.467 34.8893 173.52 34.356 173.52 33.8226V29.0226C173.52 28.4893 173.467 27.956 173.36 27.4226C173.253 26.8893 173.04 26.396 172.72 25.9426C172.427 25.4893 172.027 25.1426 171.52 24.9026C171.04 24.6626 170.533 24.5426 170 24.5426C169.467 24.5426 168.947 24.6626 168.44 24.9026C167.96 25.1426 167.56 25.4893 167.24 25.9426C166.947 26.396 166.747 26.8893 166.64 27.4226C166.533 27.956 166.48 28.4893 166.48 29.0226V33.8226C166.48 34.356 166.533 34.8893 166.64 35.4226C166.747 35.956 166.947 36.4493 167.24 36.9026C167.56 37.356 167.96 37.7026 168.44 37.9426C168.947 38.1826 169.467 38.3026 170 38.3026ZM187.76 41.8226V24.8626H182.12V21.0226H197.88V24.8626H192.24V41.8226H187.76ZM210 42.1426C209.28 42.1426 208.547 42.076 207.8 41.9426C207.08 41.8093 206.4 41.5693 205.76 41.2226C205.12 40.876 204.547 40.436 204.04 39.9026C203.56 39.3426 203.16 38.7426 202.84 38.1026C202.547 37.436 202.333 36.7426 202.2 36.0226C202.093 35.276 202.04 34.5426 202.04 33.8226V29.0226C202.04 28.3026 202.093 27.5826 202.2 26.8626C202.333 26.116 202.547 25.4226 202.84 24.7826C203.16 24.116 203.56 23.516 204.04 22.9826C204.547 22.4226 205.12 21.9693 205.76 21.6226C206.4 21.276 207.08 21.036 207.8 20.9026C208.547 20.7693 209.28 20.7026 210 20.7026C210.72 20.7026 211.44 20.7693 212.16 20.9026C212.907 21.036 213.6 21.276 214.24 21.6226C214.88 21.9693 215.44 22.4226 215.92 22.9826C216.427 23.516 216.827 24.116 217.12 24.7826C217.44 25.4226 217.653 26.116 217.76 26.8626C217.893 27.5826 217.96 28.3026 217.96 29.0226V33.8226C217.96 34.5426 217.893 35.276 217.76 36.0226C217.653 36.7426 217.44 37.436 217.12 38.1026C216.827 38.7426 216.427 39.3426 215.92 39.9026C215.44 40.436 214.88 40.876 214.24 41.2226C213.6 41.5693 212.907 41.8093 212.16 41.9426C211.44 42.076 210.72 42.1426 210 42.1426ZM210 38.3026C210.533 38.3026 211.04 38.1826 211.52 37.9426C212.027 37.7026 212.427 37.356 212.72 36.9026C213.04 36.4493 213.253 35.956 213.36 35.4226C213.467 34.8893 213.52 34.356 213.52 33.8226V29.0226C213.52 28.4893 213.467 27.956 213.36 27.4226C213.253 26.8893 213.04 26.396 212.72 25.9426C212.427 25.4893 212.027 25.1426 211.52 24.9026C211.04 24.6626 210.533 24.5426 210 24.5426C209.467 24.5426 208.947 24.6626 208.44 24.9026C207.96 25.1426 207.56 25.4893 207.24 25.9426C206.947 26.396 206.747 26.8893 206.64 27.4226C206.533 27.956 206.48 28.4893 206.48 29.0226V33.8226C206.48 34.356 206.533 34.8893 206.64 35.4226C206.747 35.956 206.947 36.4493 207.24 36.9026C207.56 37.356 207.96 37.7026 208.44 37.9426C208.947 38.1826 209.467 38.3026 210 38.3026ZM222.36 41.8226V21.0226H230.36C230.947 21.0226 231.52 21.0626 232.08 21.1426C232.64 21.2226 233.187 21.3693 233.72 21.5826C234.253 21.796 234.747 22.076 235.2 22.4226C235.653 22.7693 236.027 23.1826 236.32 23.6626C236.64 24.1426 236.867 24.6626 237 25.2226C237.133 25.7826 237.2 26.3426 237.2 26.9026C237.2 27.3026 237.16 27.7026 237.08 28.1026C237.027 28.5026 236.907 28.876 236.72 29.2226C236.533 29.5693 236.293 29.8893 236 30.1826C235.733 30.476 235.44 30.7293 235.12 30.9426C235.573 31.1293 236 31.3826 236.4 31.7026C236.827 31.996 237.187 32.3426 237.48 32.7426C237.773 33.1426 237.973 33.596 238.08 34.1026C238.213 34.6093 238.28 35.1026 238.28 35.5826C238.28 36.2226 238.187 36.8626 238 37.5026C237.84 38.116 237.56 38.676 237.16 39.1826C236.787 39.6626 236.333 40.0893 235.8 40.4626C235.267 40.8093 234.693 41.0893 234.08 41.3026C233.493 41.4893 232.88 41.6226 232.24 41.7026C231.627 41.7826 231 41.8226 230.36 41.8226H222.36ZM226.8 29.1826H230.36C230.68 29.1826 230.987 29.1426 231.28 29.0626C231.573 28.9826 231.84 28.8493 232.08 28.6626C232.32 28.4493 232.493 28.196 232.6 27.9026C232.707 27.6093 232.76 27.3026 232.76 26.9826C232.76 26.6893 232.693 26.396 232.56 26.1026C232.453 25.8093 232.28 25.5693 232.04 25.3826C231.827 25.196 231.573 25.0626 231.28 24.9826C230.987 24.9026 230.68 24.8626 230.36 24.8626H226.8V29.1826ZM226.8 37.9826H230.36C230.76 37.9826 231.16 37.956 231.56 37.9026C231.96 37.8226 232.333 37.6893 232.68 37.5026C233.027 37.2893 233.307 37.0093 233.52 36.6626C233.733 36.2893 233.84 35.9026 233.84 35.5026C233.84 35.1026 233.733 34.7293 233.52 34.3826C233.307 34.0093 233.027 33.7293 232.68 33.5426C232.333 33.3293 231.96 33.196 231.56 33.1426C231.16 33.0626 230.76 33.0226 230.36 33.0226H226.8V37.9826ZM262.36 41.8226V21.0226H277.64V41.8226H273.2V24.8626H266.8V41.8226H262.36ZM282.36 50.4226V21.0226H286.8V24.6626C287.013 24.1026 287.28 23.5826 287.6 23.1026C287.92 22.596 288.307 22.156 288.76 21.7826C289.213 21.4093 289.733 21.1426 290.32 20.9826C290.907 20.796 291.493 20.7026 292.08 20.7026C292.72 20.7026 293.347 20.8093 293.96 21.0226C294.573 21.2093 295.12 21.5293 295.6 21.9826C296.08 22.4093 296.467 22.9026 296.76 23.4626C297.08 24.0226 297.32 24.6093 297.48 25.2226C297.667 25.836 297.787 26.4626 297.84 27.1026C297.92 27.7426 297.96 28.3826 297.96 29.0226V33.8226C297.96 34.4626 297.92 35.1026 297.84 35.7426C297.787 36.3826 297.667 37.0093 297.48 37.6226C297.32 38.236 297.08 38.8226 296.76 39.3826C296.467 39.9426 296.08 40.4493 295.6 40.9026C295.12 41.3293 294.573 41.636 293.96 41.8226C293.347 42.036 292.72 42.1426 292.08 42.1426C291.493 42.1426 290.907 42.0493 290.32 41.8626C289.733 41.7026 289.213 41.436 288.76 41.0626C288.307 40.6893 287.92 40.2626 287.6 39.7826C287.28 39.276 287.013 38.7426 286.8 38.1826V50.4226H282.36ZM290.16 38.3026C290.693 38.3026 291.2 38.1826 291.68 37.9426C292.16 37.676 292.533 37.316 292.8 36.8626C293.067 36.4093 293.253 35.9293 293.36 35.4226C293.467 34.8893 293.52 34.356 293.52 33.8226V29.0226C293.52 28.4893 293.467 27.9693 293.36 27.4626C293.253 26.9293 293.067 26.436 292.8 25.9826C292.533 25.5293 292.16 25.1826 291.68 24.9426C291.2 24.676 290.693 24.5426 290.16 24.5426C289.627 24.5426 289.12 24.676 288.64 24.9426C288.16 25.1826 287.787 25.5293 287.52 25.9826C287.253 26.436 287.067 26.9293 286.96 27.4626C286.853 27.9693 286.8 28.4893 286.8 29.0226V33.8226C286.8 34.356 286.853 34.8893 286.96 35.4226C287.067 35.9293 287.253 36.4093 287.52 36.8626C287.787 37.316 288.16 37.676 288.64 37.9426C289.12 38.1826 289.627 38.3026 290.16 38.3026ZM310 42.1426C309.28 42.1426 308.547 42.076 307.8 41.9426C307.08 41.8093 306.4 41.5693 305.76 41.2226C305.12 40.876 304.547 40.436 304.04 39.9026C303.56 39.3426 303.16 38.7426 302.84 38.1026C302.547 37.436 302.333 36.7426 302.2 36.0226C302.093 35.276 302.04 34.5426 302.04 33.8226V29.0226C302.04 28.3026 302.093 27.5826 302.2 26.8626C302.333 26.116 302.547 25.4226 302.84 24.7826C303.16 24.116 303.56 23.516 304.04 22.9826C304.547 22.4226 305.12 21.9693 305.76 21.6226C306.4 21.276 307.08 21.036 307.8 20.9026C308.547 20.7693 309.28 20.7026 310 20.7026C310.72 20.7026 311.44 20.7693 312.16 20.9026C312.907 21.036 313.6 21.276 314.24 21.6226C314.88 21.9693 315.44 22.4226 315.92 22.9826C316.427 23.516 316.827 24.116 317.12 24.7826C317.44 25.4226 317.653 26.116 317.76 26.8626C317.893 27.5826 317.96 28.3026 317.96 29.0226V33.8226C317.96 34.5426 317.893 35.276 317.76 36.0226C317.653 36.7426 317.44 37.436 317.12 38.1026C316.827 38.7426 316.427 39.3426 315.92 39.9026C315.44 40.436 314.88 40.876 314.24 41.2226C313.6 41.5693 312.907 41.8093 312.16 41.9426C311.44 42.076 310.72 42.1426 310 42.1426ZM310 38.3026C310.533 38.3026 311.04 38.1826 311.52 37.9426C312.027 37.7026 312.427 37.356 312.72 36.9026C313.04 36.4493 313.253 35.956 313.36 35.4226C313.467 34.8893 313.52 34.356 313.52 33.8226V29.0226C313.52 28.4893 313.467 27.956 313.36 27.4226C313.253 26.8893 313.04 26.396 312.72 25.9426C312.427 25.4893 312.027 25.1426 311.52 24.9026C311.04 24.6626 310.533 24.5426 310 24.5426C309.467 24.5426 308.947 24.6626 308.44 24.9026C307.96 25.1426 307.56 25.4893 307.24 25.9426C306.947 26.396 306.747 26.8893 306.64 27.4226C306.533 27.956 306.48 28.4893 306.48 29.0226V33.8226C306.48 34.356 306.533 34.8893 306.64 35.4226C306.747 35.956 306.947 36.4493 307.24 36.9026C307.56 37.356 307.96 37.7026 308.44 37.9426C308.947 38.1826 309.467 38.3026 310 38.3026ZM329.88 42.1426C329.16 42.1426 328.44 42.076 327.72 41.9426C327 41.8093 326.32 41.5693 325.68 41.2226C325.067 40.8493 324.507 40.396 324 39.8626C323.52 39.3026 323.12 38.7026 322.8 38.0626C322.507 37.396 322.307 36.7026 322.2 35.9826C322.093 35.2626 322.04 34.5426 322.04 33.8226V29.0226C322.04 28.3026 322.093 27.5826 322.2 26.8626C322.307 26.1426 322.507 25.4626 322.8 24.8226C323.12 24.156 323.52 23.556 324 23.0226C324.507 22.4626 325.067 22.0093 325.68 21.6626C326.32 21.2893 327 21.036 327.72 20.9026C328.44 20.7693 329.16 20.7026 329.88 20.7026C330.573 20.7026 331.253 20.7693 331.92 20.9026C332.613 21.0093 333.267 21.2226 333.88 21.5426C334.493 21.836 335.04 22.2226 335.52 22.7026C336.027 23.1826 336.44 23.7293 336.76 24.3426C337.08 24.956 337.32 25.596 337.48 26.2626C337.64 26.9293 337.72 27.6093 337.72 28.3026V28.5826H333.28V28.4626C333.28 27.956 333.213 27.4626 333.08 26.9826C332.947 26.5026 332.733 26.076 332.44 25.7026C332.147 25.3293 331.76 25.0493 331.28 24.8626C330.827 24.6493 330.36 24.5426 329.88 24.5426C329.347 24.5426 328.84 24.676 328.36 24.9426C327.88 25.1826 327.493 25.5293 327.2 25.9826C326.933 26.436 326.747 26.9293 326.64 27.4626C326.533 27.9693 326.48 28.4893 326.48 29.0226V33.8226C326.48 34.356 326.533 34.8893 326.64 35.4226C326.747 35.9293 326.933 36.4093 327.2 36.8626C327.493 37.316 327.88 37.676 328.36 37.9426C328.84 38.1826 329.347 38.3026 329.88 38.3026C330.36 38.3026 330.827 38.2093 331.28 38.0226C331.76 37.8093 332.147 37.516 332.44 37.1426C332.733 36.7693 332.947 36.3426 333.08 35.8626C333.213 35.3826 333.28 34.8893 333.28 34.3826V34.2626H337.72V34.5426C337.72 35.236 337.64 35.916 337.48 36.5826C337.32 37.2493 337.08 37.8893 336.76 38.5026C336.44 39.116 336.027 39.6626 335.52 40.1426C335.04 40.6226 334.493 41.0226 333.88 41.3426C333.267 41.636 332.613 41.836 331.92 41.9426C331.253 42.076 330.573 42.1426 329.88 42.1426ZM342.36 41.8226V21.0226H346.8V29.2226H353.2V21.0226H357.64V41.8226H353.2V33.0626H346.8V41.8226H342.36ZM365.04 50.4226V50.1426C365.04 49.3693 365.08 48.596 365.16 47.8226C365.267 47.076 365.453 46.3426 365.72 45.6226L367.64 40.5826L363.68 30.1026C363.307 29.116 362.987 28.116 362.72 27.1026C362.48 26.0626 362.36 25.0093 362.36 23.9426V21.0226H366.8V23.9426C366.8 24.796 366.907 25.6226 367.12 26.4226C367.333 27.2226 367.573 28.0093 367.84 28.7826L369.88 34.7026L372.16 28.7426C372.453 27.9693 372.693 27.1826 372.88 26.3826C373.093 25.5826 373.2 24.7693 373.2 23.9426V21.0226H377.64V23.9426C377.64 25.0093 377.507 26.0626 377.24 27.1026C377 28.116 376.693 29.116 376.32 30.1026L369.88 46.9826C369.693 47.4893 369.573 48.0093 369.52 48.5426C369.493 49.076 369.48 49.6093 369.48 50.1426V50.4226H365.04ZM387.76 41.8226V24.8626H382.12V21.0226H397.88V24.8626H392.24V41.8226H387.76ZM402.36 41.8226V21.0226H406.8V28.4626H411.2C411.813 28.4626 412.413 28.516 413 28.6226C413.613 28.7293 414.187 28.916 414.72 29.1826C415.253 29.4493 415.733 29.796 416.16 30.2226C416.613 30.6493 416.973 31.1293 417.24 31.6626C417.507 32.196 417.693 32.756 417.8 33.3426C417.907 33.9293 417.96 34.5293 417.96 35.1426C417.96 35.756 417.907 36.356 417.8 36.9426C417.693 37.5293 417.507 38.0893 417.24 38.6226C416.973 39.156 416.613 39.636 416.16 40.0626C415.733 40.4893 415.253 40.836 414.72 41.1026C414.187 41.3693 413.613 41.556 413 41.6626C412.413 41.7693 411.813 41.8226 411.2 41.8226H402.36ZM406.8 37.9826H411.2C411.547 37.9826 411.88 37.916 412.2 37.7826C412.52 37.6226 412.773 37.4093 412.96 37.1426C413.173 36.8493 413.32 36.5293 413.4 36.1826C413.48 35.836 413.52 35.4893 413.52 35.1426C413.52 34.796 413.48 34.4493 413.4 34.1026C413.32 33.756 413.173 33.4493 412.96 33.1826C412.773 32.8893 412.52 32.676 412.2 32.5426C411.88 32.3826 411.547 32.3026 411.2 32.3026H406.8V37.9826ZM429.88 42.1426C429.16 42.1426 428.44 42.076 427.72 41.9426C427 41.8093 426.32 41.5693 425.68 41.2226C425.067 40.8493 424.507 40.396 424 39.8626C423.52 39.3026 423.12 38.7026 422.8 38.0626C422.507 37.396 422.307 36.7026 422.2 35.9826C422.093 35.2626 422.04 34.5426 422.04 33.8226V29.0226C422.04 28.3026 422.093 27.5826 422.2 26.8626C422.307 26.1426 422.507 25.4626 422.8 24.8226C423.12 24.156 423.52 23.556 424 23.0226C424.507 22.4626 425.067 22.0093 425.68 21.6626C426.32 21.2893 427 21.036 427.72 20.9026C428.44 20.7693 429.16 20.7026 429.88 20.7026C430.573 20.7026 431.253 20.7693 431.92 20.9026C432.613 21.0093 433.267 21.2226 433.88 21.5426C434.493 21.836 435.04 22.2226 435.52 22.7026C436.027 23.1826 436.44 23.7293 436.76 24.3426C437.08 24.956 437.32 25.596 437.48 26.2626C437.64 26.9293 437.72 27.6093 437.72 28.3026V28.5826H433.28V28.4626C433.28 27.956 433.213 27.4626 433.08 26.9826C432.947 26.5026 432.733 26.076 432.44 25.7026C432.147 25.3293 431.76 25.0493 431.28 24.8626C430.827 24.6493 430.36 24.5426 429.88 24.5426C429.347 24.5426 428.84 24.676 428.36 24.9426C427.88 25.1826 427.493 25.5293 427.2 25.9826C426.933 26.436 426.747 26.9293 426.64 27.4626C426.533 27.9693 426.48 28.4893 426.48 29.0226V33.8226C426.48 34.356 426.533 34.8893 426.64 35.4226C426.747 35.9293 426.933 36.4093 427.2 36.8626C427.493 37.316 427.88 37.676 428.36 37.9426C428.84 38.1826 429.347 38.3026 429.88 38.3026C430.36 38.3026 430.827 38.2093 431.28 38.0226C431.76 37.8093 432.147 37.516 432.44 37.1426C432.733 36.7693 432.947 36.3426 433.08 35.8626C433.213 35.3826 433.28 34.8893 433.28 34.3826V34.2626H437.72V34.5426C437.72 35.236 437.64 35.916 437.48 36.5826C437.32 37.2493 437.08 37.8893 436.76 38.5026C436.44 39.116 436.027 39.6626 435.52 40.1426C435.04 40.6226 434.493 41.0226 433.88 41.3426C433.267 41.636 432.613 41.836 431.92 41.9426C431.253 42.076 430.573 42.1426 429.88 42.1426ZM442.04 41.8226C442.04 41.076 442.16 40.356 442.4 39.6626C442.64 38.9693 442.933 38.3026 443.28 37.6626C443.653 36.996 444.053 36.3693 444.48 35.7826C444.907 35.196 445.36 34.6226 445.84 34.0626C445.227 33.8226 444.667 33.4893 444.16 33.0626C443.653 32.636 443.227 32.1426 442.88 31.5826C442.56 30.996 442.333 30.3826 442.2 29.7426C442.093 29.076 442.04 28.4226 442.04 27.7826C442.04 27.1693 442.093 26.5693 442.2 25.9826C442.307 25.3693 442.493 24.796 442.76 24.2626C443.027 23.7026 443.373 23.2093 443.8 22.7826C444.253 22.356 444.747 22.0093 445.28 21.7426C445.84 21.476 446.413 21.2893 447 21.1826C447.613 21.076 448.227 21.0226 448.84 21.0226H457.64V41.8226H453.2V34.5426H450.96C450.613 34.8626 450.267 35.2093 449.92 35.5826C449.6 35.9293 449.28 36.2893 448.96 36.6626C448.667 37.036 448.373 37.4226 448.08 37.8226C447.813 38.2226 447.56 38.636 447.32 39.0626C447.08 39.4893 446.88 39.9426 446.72 40.4226C446.56 40.876 446.48 41.3426 446.48 41.8226H442.04ZM448.84 30.7026H453.2V24.8626H448.84C448.467 24.8626 448.12 24.9426 447.8 25.1026C447.48 25.2626 447.213 25.4893 447 25.7826C446.813 26.0493 446.68 26.3693 446.6 26.7426C446.52 27.0893 446.48 27.436 446.48 27.7826C446.48 28.1293 446.52 28.476 446.6 28.8226C446.68 29.1693 446.813 29.4893 447 29.7826C447.213 30.076 447.48 30.3026 447.8 30.4626C448.12 30.6226 448.467 30.7026 448.84 30.7026ZM467.76 32.2226C467.76 31.6093 467.773 31.0093 467.8 30.4226C467.853 29.836 467.96 29.2626 468.12 28.7026C468.28 28.116 468.493 27.556 468.76 27.0226C469.027 26.4893 469.333 25.9826 469.68 25.5026C470.053 24.996 470.44 24.5293 470.84 24.1026C471.24 23.6493 471.613 23.1826 471.96 22.7026C472.307 22.2226 472.6 21.716 472.84 21.1826C473.08 20.6226 473.2 20.036 473.2 19.4226C473.2 18.9693 473.133 18.5293 473 18.1026C472.867 17.676 472.653 17.2893 472.36 16.9426C472.067 16.596 471.707 16.3426 471.28 16.1826C470.853 16.0226 470.413 15.9426 469.96 15.9426C469.48 15.9426 469.013 16.0493 468.56 16.2626C468.133 16.4493 467.773 16.7426 467.48 17.1426C467.213 17.516 467.013 17.9426 466.88 18.4226C466.773 18.876 466.72 19.3293 466.72 19.7826V19.9826H462.28V19.6226C462.28 18.9293 462.347 18.2493 462.48 17.5826C462.64 16.916 462.88 16.2893 463.2 15.7026C463.52 15.116 463.92 14.5826 464.4 14.1026C464.88 13.6226 465.413 13.236 466 12.9426C466.613 12.6226 467.253 12.4093 467.92 12.3026C468.613 12.1693 469.293 12.1026 469.96 12.1026C470.627 12.1026 471.293 12.156 471.96 12.2626C472.627 12.3693 473.253 12.5693 473.84 12.8626C474.453 13.156 475 13.5426 475.48 14.0226C475.987 14.476 476.4 14.996 476.72 15.5826C477.04 16.1693 477.267 16.796 477.4 17.4626C477.56 18.1026 477.64 18.756 477.64 19.4226C477.64 20.0093 477.573 20.596 477.44 21.1826C477.333 21.7693 477.173 22.3426 476.96 22.9026C476.747 23.4626 476.48 23.996 476.16 24.5026C475.867 25.0093 475.533 25.5026 475.16 25.9826C474.813 26.436 474.44 26.8893 474.04 27.3426C473.64 27.796 473.28 28.276 472.96 28.7826C472.667 29.2893 472.467 29.836 472.36 30.4226C472.28 31.0093 472.24 31.6093 472.24 32.2226H467.76ZM470 42.1426C469.52 42.1426 469.053 42.0626 468.6 41.9026C468.147 41.7693 467.747 41.5426 467.4 41.2226C467.08 40.876 466.84 40.476 466.68 40.0226C466.547 39.5693 466.48 39.1026 466.48 38.6226C466.48 38.1426 466.547 37.676 466.68 37.2226C466.84 36.7426 467.08 36.3426 467.4 36.0226C467.747 35.676 468.147 35.436 468.6 35.3026C469.053 35.1693 469.52 35.1026 470 35.1026C470.48 35.1026 470.947 35.1693 471.4 35.3026C471.853 35.436 472.24 35.676 472.56 36.0226C472.907 36.3426 473.147 36.7426 473.28 37.2226C473.44 37.676 473.52 38.1426 473.52 38.6226C473.52 39.1026 473.44 39.5693 473.28 40.0226C473.147 40.476 472.907 40.876 472.56 41.2226C472.24 41.5426 471.853 41.7693 471.4 41.9026C470.947 42.0626 470.48 42.1426 470 42.1426Z" fill="black"/>
</svg>
