<svg width="339" height="477" viewBox="0 0 339 477" fill="none" xmlns="http://www.w3.org/2000/svg">
<path d="M0.662109 45.2341H104.813V88.8168H326.289V476.918H0.662109V45.2341Z" fill="#373737"/>
<mask id="path-2-outside-1_40_1501" maskUnits="userSpaceOnUse" x="-0.560547" y="46.0227" width="103" height="51" fill="black">
<rect fill="white" x="-0.560547" y="46.0227" width="103" height="51"/>
<path d="M34.6953 56.3574V87.0611H26.1751V64.8777H18.3456V87.0611H9.787V56.3574H34.6953ZM62.8812 78.0035H46.4932V87.0227H37.9345V56.3191H62.8812V78.0035ZM54.361 64.8393H46.4932V69.4449H54.361V64.8393ZM65.858 87.0227V56.3191H92.2632V87.0227H65.858ZM83.7429 78.5024V64.8393H74.3783V78.5024H83.7429Z"/>
</mask>
<path d="M34.6953 56.3574V87.0611H26.1751V64.8777H18.3456V87.0611H9.787V56.3574H34.6953ZM62.8812 78.0035H46.4932V87.0227H37.9345V56.3191H62.8812V78.0035ZM54.361 64.8393H46.4932V69.4449H54.361V64.8393ZM65.858 87.0227V56.3191H92.2632V87.0227H65.858ZM83.7429 78.5024V64.8393H74.3783V78.5024H83.7429Z" fill="white"/>
<path d="M34.6953 56.3574H44.4821V46.5706H34.6953V56.3574ZM34.6953 87.0611V96.8479H44.4821V87.0611H34.6953ZM26.1751 87.0611H16.3883V96.8479H26.1751V87.0611ZM26.1751 64.8777H35.9619V55.0909H26.1751V64.8777ZM18.3456 64.8777V55.0909H8.55885V64.8777H18.3456ZM18.3456 87.0611V96.8479H28.1324V87.0611H18.3456ZM9.787 87.0611H0.000210762V96.8479H9.787V87.0611ZM9.787 56.3574V46.5706H0.000210762V56.3574H9.787ZM34.6953 56.3574H24.9086V87.0611H34.6953H44.4821V56.3574H34.6953ZM34.6953 87.0611V77.2743H26.1751V87.0611V96.8479H34.6953V87.0611ZM26.1751 87.0611H35.9619V64.8777H26.1751H16.3883V87.0611H26.1751ZM26.1751 64.8777V55.0909H18.3456V64.8777V74.6645H26.1751V64.8777ZM18.3456 64.8777H8.55885V87.0611H18.3456H28.1324V64.8777H18.3456ZM18.3456 87.0611V77.2743H9.787V87.0611V96.8479H18.3456V87.0611ZM9.787 87.0611H19.5738V56.3574H9.787H0.000210762V87.0611H9.787ZM9.787 56.3574V66.1442H34.6953V56.3574V46.5706H9.787V56.3574ZM62.8812 78.0035V87.7903H72.668V78.0035H62.8812ZM46.4932 78.0035V68.2167H36.7064V78.0035H46.4932ZM46.4932 87.0227V96.8095H56.2799V87.0227H46.4932ZM37.9345 87.0227H28.1477V96.8095H37.9345V87.0227ZM37.9345 56.3191V46.5323H28.1477V56.3191H37.9345ZM62.8812 56.3191H72.668V46.5323H62.8812V56.3191ZM54.361 64.8393H64.1478V55.0525H54.361V64.8393ZM46.4932 64.8393V55.0525H36.7064V64.8393H46.4932ZM46.4932 69.4449H36.7064V79.2317H46.4932V69.4449ZM54.361 69.4449V79.2317H64.1478V69.4449H54.361ZM62.8812 78.0035V68.2167H46.4932V78.0035V87.7903H62.8812V78.0035ZM46.4932 78.0035H36.7064V87.0227H46.4932H56.2799V78.0035H46.4932ZM46.4932 87.0227V77.2359H37.9345V87.0227V96.8095H46.4932V87.0227ZM37.9345 87.0227H47.7213V56.3191H37.9345H28.1477V87.0227H37.9345ZM37.9345 56.3191V66.1058H62.8812V56.3191V46.5323H37.9345V56.3191ZM62.8812 56.3191H53.0944V78.0035H62.8812H72.668V56.3191H62.8812ZM54.361 64.8393V55.0525H46.4932V64.8393V74.6261H54.361V64.8393ZM46.4932 64.8393H36.7064V69.4449H46.4932H56.2799V64.8393H46.4932ZM46.4932 69.4449V79.2317H54.361V69.4449V59.6581H46.4932V69.4449ZM54.361 69.4449H64.1478V64.8393H54.361H44.5742V69.4449H54.361ZM65.858 87.0227H56.0713V96.8095H65.858V87.0227ZM65.858 56.3191V46.5323H56.0713V56.3191H65.858ZM92.2632 56.3191H102.05V46.5323H92.2632V56.3191ZM92.2632 87.0227V96.8095H102.05V87.0227H92.2632ZM83.7429 78.5024V88.2892H93.5297V78.5024H83.7429ZM83.7429 64.8393H93.5297V55.0525H83.7429V64.8393ZM74.3783 64.8393V55.0525H64.5915V64.8393H74.3783ZM74.3783 78.5024H64.5915V88.2892H74.3783V78.5024ZM65.858 87.0227H75.6448V56.3191H65.858H56.0713V87.0227H65.858ZM65.858 56.3191V66.1058H92.2632V56.3191V46.5323H65.858V56.3191ZM92.2632 56.3191H82.4764V87.0227H92.2632H102.05V56.3191H92.2632ZM92.2632 87.0227V77.2359H65.858V87.0227V96.8095H92.2632V87.0227ZM83.7429 78.5024H93.5297V64.8393H83.7429H73.9561V78.5024H83.7429ZM83.7429 64.8393V55.0525H74.3783V64.8393V74.6261H83.7429V64.8393ZM74.3783 64.8393H64.5915V78.5024H74.3783H84.1651V64.8393H74.3783ZM74.3783 78.5024V88.2892H83.7429V78.5024V68.7157H74.3783V78.5024Z" fill="#373737" mask="url(#path-2-outside-1_40_1501)"/>
<g clip-path="url(#clip0_40_1501)">
<path d="M322.147 155.434H0.662109V476.918H322.147V155.434Z" fill="#373737"/>
<path d="M27.5973 174.723H19.9512V182.369H27.5973V174.723Z" fill="white"/>
<path d="M35.2438 174.723H27.5977V182.369H35.2438V174.723Z" fill="white"/>
<path d="M42.8893 174.723H35.2432V182.369H42.8893V174.723Z" fill="white"/>
<path d="M50.5358 174.723H42.8896V182.369H50.5358V174.723Z" fill="white"/>
<path d="M58.1823 174.723H50.5361V182.369H58.1823V174.723Z" fill="white"/>
<path d="M65.8278 174.723H58.1816V182.369H65.8278V174.723Z" fill="white"/>
<path d="M73.4742 174.723H65.8281V182.369H73.4742V174.723Z" fill="white"/>
<path d="M88.7662 174.723H81.1201V182.369H88.7662V174.723Z" fill="white"/>
<path d="M96.4117 174.723H88.7656V182.369H96.4117V174.723Z" fill="white"/>
<path d="M104.057 174.723H96.4111V182.369H104.057V174.723Z" fill="white"/>
<path d="M111.705 174.723H104.059V182.369H111.705V174.723Z" fill="white"/>
<path d="M119.351 174.723H111.705V182.369H119.351V174.723Z" fill="white"/>
<path d="M134.642 174.723H126.996V182.369H134.642V174.723Z" fill="white"/>
<path d="M149.934 174.723H142.288V182.369H149.934V174.723Z" fill="white"/>
<path d="M157.582 174.723H149.936V182.369H157.582V174.723Z" fill="white"/>
<path d="M172.873 174.723H165.227V182.369H172.873V174.723Z" fill="white"/>
<path d="M180.519 174.723H172.873V182.369H180.519V174.723Z" fill="white"/>
<path d="M188.167 174.723H180.521V182.369H188.167V174.723Z" fill="white"/>
<path d="M195.811 174.723H188.165V182.369H195.811V174.723Z" fill="white"/>
<path d="M203.458 174.723H195.812V182.369H203.458V174.723Z" fill="white"/>
<path d="M211.105 174.723H203.459V182.369H211.105V174.723Z" fill="white"/>
<path d="M256.98 174.723H249.334V182.369H256.98V174.723Z" fill="white"/>
<path d="M264.628 174.723H256.981V182.369H264.628V174.723Z" fill="white"/>
<path d="M272.273 174.723H264.627V182.369H272.273V174.723Z" fill="white"/>
<path d="M279.919 174.723H272.272V182.369H279.919V174.723Z" fill="white"/>
<path d="M287.565 174.723H279.919V182.369H287.565V174.723Z" fill="white"/>
<path d="M295.212 174.723H287.565V182.369H295.212V174.723Z" fill="white"/>
<path d="M302.857 174.723H295.211V182.369H302.857V174.723Z" fill="white"/>
<path d="M27.5973 182.369H19.9512V190.015H27.5973V182.369Z" fill="white"/>
<path d="M73.4742 182.369H65.8281V190.015H73.4742V182.369Z" fill="white"/>
<path d="M88.7662 182.369H81.1201V190.015H88.7662V182.369Z" fill="white"/>
<path d="M96.4117 182.369H88.7656V190.015H96.4117V182.369Z" fill="white"/>
<path d="M119.351 182.369H111.705V190.015H119.351V182.369Z" fill="white"/>
<path d="M126.997 182.369H119.351V190.015H126.997V182.369Z" fill="white"/>
<path d="M134.642 182.369H126.996V190.015H134.642V182.369Z" fill="white"/>
<path d="M142.29 182.369H134.644V190.015H142.29V182.369Z" fill="white"/>
<path d="M157.582 182.369H149.936V190.015H157.582V182.369Z" fill="white"/>
<path d="M172.873 182.369H165.227V190.015H172.873V182.369Z" fill="white"/>
<path d="M211.105 182.369H203.459V190.015H211.105V182.369Z" fill="white"/>
<path d="M218.75 182.369H211.104V190.015H218.75V182.369Z" fill="white"/>
<path d="M226.396 182.369H218.75V190.015H226.396V182.369Z" fill="white"/>
<path d="M234.044 182.369H226.397V190.015H234.044V182.369Z" fill="white"/>
<path d="M241.688 182.369H234.042V190.015H241.688V182.369Z" fill="white"/>
<path d="M256.98 182.369H249.334V190.015H256.98V182.369Z" fill="white"/>
<path d="M302.857 182.369H295.211V190.015H302.857V182.369Z" fill="white"/>
<path d="M27.5973 190.015H19.9512V197.661H27.5973V190.015Z" fill="white"/>
<path d="M42.8893 190.015H35.2432V197.661H42.8893V190.015Z" fill="white"/>
<path d="M50.5358 190.015H42.8896V197.661H50.5358V190.015Z" fill="white"/>
<path d="M58.1823 190.015H50.5361V197.661H58.1823V190.015Z" fill="white"/>
<path d="M73.4742 190.015H65.8281V197.661H73.4742V190.015Z" fill="white"/>
<path d="M88.7662 190.015H81.1201V197.661H88.7662V190.015Z" fill="white"/>
<path d="M104.057 190.015H96.4111V197.661H104.057V190.015Z" fill="white"/>
<path d="M119.351 190.015H111.705V197.661H119.351V190.015Z" fill="white"/>
<path d="M149.934 190.015H142.288V197.661H149.934V190.015Z" fill="white"/>
<path d="M165.228 190.015H157.582V197.661H165.228V190.015Z" fill="white"/>
<path d="M172.873 190.015H165.227V197.661H172.873V190.015Z" fill="white"/>
<path d="M180.519 190.015H172.873V197.661H180.519V190.015Z" fill="white"/>
<path d="M203.458 190.015H195.812V197.661H203.458V190.015Z" fill="white"/>
<path d="M241.688 190.015H234.042V197.661H241.688V190.015Z" fill="white"/>
<path d="M256.98 190.015H249.334V197.661H256.98V190.015Z" fill="white"/>
<path d="M272.273 190.015H264.627V197.661H272.273V190.015Z" fill="white"/>
<path d="M279.919 190.015H272.272V197.661H279.919V190.015Z" fill="white"/>
<path d="M287.565 190.015H279.919V197.661H287.565V190.015Z" fill="white"/>
<path d="M302.857 190.015H295.211V197.661H302.857V190.015Z" fill="white"/>
<path d="M27.5973 197.661H19.9512V205.307H27.5973V197.661Z" fill="white"/>
<path d="M42.8893 197.661H35.2432V205.307H42.8893V197.661Z" fill="white"/>
<path d="M50.5358 197.661H42.8896V205.307H50.5358V197.661Z" fill="white"/>
<path d="M58.1823 197.661H50.5361V205.307H58.1823V197.661Z" fill="white"/>
<path d="M73.4742 197.661H65.8281V205.307H73.4742V197.661Z" fill="white"/>
<path d="M96.4117 197.661H88.7656V205.307H96.4117V197.661Z" fill="white"/>
<path d="M111.705 197.661H104.059V205.307H111.705V197.661Z" fill="white"/>
<path d="M119.351 197.661H111.705V205.307H119.351V197.661Z" fill="white"/>
<path d="M126.997 197.661H119.351V205.307H126.997V197.661Z" fill="white"/>
<path d="M134.642 197.661H126.996V205.307H134.642V197.661Z" fill="white"/>
<path d="M142.29 197.661H134.644V205.307H142.29V197.661Z" fill="white"/>
<path d="M157.582 197.661H149.936V205.307H157.582V197.661Z" fill="white"/>
<path d="M165.228 197.661H157.582V205.307H165.228V197.661Z" fill="white"/>
<path d="M172.873 197.661H165.227V205.307H172.873V197.661Z" fill="white"/>
<path d="M211.105 197.661H203.459V205.307H211.105V197.661Z" fill="white"/>
<path d="M226.396 197.661H218.75V205.307H226.396V197.661Z" fill="white"/>
<path d="M234.044 197.661H226.397V205.307H234.044V197.661Z" fill="white"/>
<path d="M256.98 197.661H249.334V205.307H256.98V197.661Z" fill="white"/>
<path d="M272.273 197.661H264.627V205.307H272.273V197.661Z" fill="white"/>
<path d="M279.919 197.661H272.272V205.307H279.919V197.661Z" fill="white"/>
<path d="M287.565 197.661H279.919V205.307H287.565V197.661Z" fill="white"/>
<path d="M302.857 197.661H295.211V205.307H302.857V197.661Z" fill="white"/>
<path d="M27.5973 205.307H19.9512V212.953H27.5973V205.307Z" fill="white"/>
<path d="M42.8893 205.307H35.2432V212.953H42.8893V205.307Z" fill="white"/>
<path d="M50.5358 205.307H42.8896V212.953H50.5358V205.307Z" fill="white"/>
<path d="M58.1823 205.307H50.5361V212.953H58.1823V205.307Z" fill="white"/>
<path d="M73.4742 205.307H65.8281V212.953H73.4742V205.307Z" fill="white"/>
<path d="M126.997 205.307H119.351V212.953H126.997V205.307Z" fill="white"/>
<path d="M149.934 205.307H142.288V212.953H149.934V205.307Z" fill="white"/>
<path d="M180.519 205.307H172.873V212.953H180.519V205.307Z" fill="white"/>
<path d="M188.167 205.307H180.521V212.953H188.167V205.307Z" fill="white"/>
<path d="M195.811 205.307H188.165V212.953H195.811V205.307Z" fill="white"/>
<path d="M211.105 205.307H203.459V212.953H211.105V205.307Z" fill="white"/>
<path d="M226.396 205.307H218.75V212.953H226.396V205.307Z" fill="white"/>
<path d="M256.98 205.307H249.334V212.953H256.98V205.307Z" fill="white"/>
<path d="M272.273 205.307H264.627V212.953H272.273V205.307Z" fill="white"/>
<path d="M279.919 205.307H272.272V212.953H279.919V205.307Z" fill="white"/>
<path d="M287.565 205.307H279.919V212.953H287.565V205.307Z" fill="white"/>
<path d="M302.857 205.307H295.211V212.953H302.857V205.307Z" fill="white"/>
<path d="M27.5973 212.953H19.9512V220.6H27.5973V212.953Z" fill="white"/>
<path d="M73.4742 212.953H65.8281V220.6H73.4742V212.953Z" fill="white"/>
<path d="M88.7662 212.953H81.1201V220.6H88.7662V212.953Z" fill="white"/>
<path d="M96.4117 212.953H88.7656V220.6H96.4117V212.953Z" fill="white"/>
<path d="M104.057 212.953H96.4111V220.6H104.057V212.953Z" fill="white"/>
<path d="M111.705 212.953H104.059V220.6H111.705V212.953Z" fill="white"/>
<path d="M119.351 212.953H111.705V220.6H119.351V212.953Z" fill="white"/>
<path d="M126.997 212.953H119.351V220.6H126.997V212.953Z" fill="white"/>
<path d="M134.642 212.953H126.996V220.6H134.642V212.953Z" fill="white"/>
<path d="M142.29 212.953H134.644V220.6H142.29V212.953Z" fill="white"/>
<path d="M165.228 212.953H157.582V220.6H165.228V212.953Z" fill="white"/>
<path d="M172.873 212.953H165.227V220.6H172.873V212.953Z" fill="white"/>
<path d="M180.519 212.953H172.873V220.6H180.519V212.953Z" fill="white"/>
<path d="M188.167 212.953H180.521V220.6H188.167V212.953Z" fill="white"/>
<path d="M195.811 212.953H188.165V220.6H195.811V212.953Z" fill="white"/>
<path d="M211.105 212.953H203.459V220.6H211.105V212.953Z" fill="white"/>
<path d="M241.688 212.953H234.042V220.6H241.688V212.953Z" fill="white"/>
<path d="M256.98 212.953H249.334V220.6H256.98V212.953Z" fill="white"/>
<path d="M302.857 212.953H295.211V220.6H302.857V212.953Z" fill="white"/>
<path d="M27.5973 220.6H19.9512V228.246H27.5973V220.6Z" fill="white"/>
<path d="M35.2438 220.6H27.5977V228.246H35.2438V220.6Z" fill="white"/>
<path d="M42.8893 220.6H35.2432V228.246H42.8893V220.6Z" fill="white"/>
<path d="M50.5358 220.6H42.8896V228.246H50.5358V220.6Z" fill="white"/>
<path d="M58.1823 220.6H50.5361V228.246H58.1823V220.6Z" fill="white"/>
<path d="M65.8278 220.6H58.1816V228.246H65.8278V220.6Z" fill="white"/>
<path d="M73.4742 220.6H65.8281V228.246H73.4742V220.6Z" fill="white"/>
<path d="M88.7662 220.6H81.1201V228.246H88.7662V220.6Z" fill="white"/>
<path d="M104.057 220.6H96.4111V228.246H104.057V220.6Z" fill="white"/>
<path d="M119.351 220.6H111.705V228.246H119.351V220.6Z" fill="white"/>
<path d="M134.642 220.6H126.996V228.246H134.642V220.6Z" fill="white"/>
<path d="M149.934 220.6H142.288V228.246H149.934V220.6Z" fill="white"/>
<path d="M165.228 220.6H157.582V228.246H165.228V220.6Z" fill="white"/>
<path d="M180.519 220.6H172.873V228.246H180.519V220.6Z" fill="white"/>
<path d="M195.811 220.6H188.165V228.246H195.811V220.6Z" fill="white"/>
<path d="M211.105 220.6H203.459V228.246H211.105V220.6Z" fill="white"/>
<path d="M226.396 220.6H218.75V228.246H226.396V220.6Z" fill="white"/>
<path d="M241.688 220.6H234.042V228.246H241.688V220.6Z" fill="white"/>
<path d="M256.98 220.6H249.334V228.246H256.98V220.6Z" fill="white"/>
<path d="M264.628 220.6H256.981V228.246H264.628V220.6Z" fill="white"/>
<path d="M272.273 220.6H264.627V228.246H272.273V220.6Z" fill="white"/>
<path d="M279.919 220.6H272.272V228.246H279.919V220.6Z" fill="white"/>
<path d="M287.565 220.6H279.919V228.246H287.565V220.6Z" fill="white"/>
<path d="M295.212 220.6H287.565V228.246H295.212V220.6Z" fill="white"/>
<path d="M302.857 220.6H295.211V228.246H302.857V220.6Z" fill="white"/>
<path d="M88.7662 228.246H81.1201V235.892H88.7662V228.246Z" fill="white"/>
<path d="M96.4117 228.246H88.7656V235.892H96.4117V228.246Z" fill="white"/>
<path d="M104.057 228.246H96.4111V235.892H104.057V228.246Z" fill="white"/>
<path d="M111.705 228.246H104.059V235.892H111.705V228.246Z" fill="white"/>
<path d="M119.351 228.246H111.705V235.892H119.351V228.246Z" fill="white"/>
<path d="M134.642 228.246H126.996V235.892H134.642V228.246Z" fill="white"/>
<path d="M157.582 228.246H149.936V235.892H157.582V228.246Z" fill="white"/>
<path d="M172.873 228.246H165.227V235.892H172.873V228.246Z" fill="white"/>
<path d="M203.458 228.246H195.812V235.892H203.458V228.246Z" fill="white"/>
<path d="M226.396 228.246H218.75V235.892H226.396V228.246Z" fill="white"/>
<path d="M42.8893 235.892H35.2432V243.538H42.8893V235.892Z" fill="white"/>
<path d="M50.5358 235.892H42.8896V243.538H50.5358V235.892Z" fill="white"/>
<path d="M58.1823 235.892H50.5361V243.538H58.1823V235.892Z" fill="white"/>
<path d="M73.4742 235.892H65.8281V243.538H73.4742V235.892Z" fill="white"/>
<path d="M88.7662 235.892H81.1201V243.538H88.7662V235.892Z" fill="white"/>
<path d="M96.4117 235.892H88.7656V243.538H96.4117V235.892Z" fill="white"/>
<path d="M111.705 235.892H104.059V243.538H111.705V235.892Z" fill="white"/>
<path d="M119.351 235.892H111.705V243.538H119.351V235.892Z" fill="white"/>
<path d="M134.642 235.892H126.996V243.538H134.642V235.892Z" fill="white"/>
<path d="M149.934 235.892H142.288V243.538H149.934V235.892Z" fill="white"/>
<path d="M172.873 235.892H165.227V243.538H172.873V235.892Z" fill="white"/>
<path d="M180.519 235.892H172.873V243.538H180.519V235.892Z" fill="white"/>
<path d="M195.811 235.892H188.165V243.538H195.811V235.892Z" fill="white"/>
<path d="M234.044 235.892H226.397V243.538H234.044V235.892Z" fill="white"/>
<path d="M249.335 235.892H241.688V243.538H249.335V235.892Z" fill="white"/>
<path d="M256.98 235.892H249.334V243.538H256.98V235.892Z" fill="white"/>
<path d="M264.628 235.892H256.981V243.538H264.628V235.892Z" fill="white"/>
<path d="M287.565 235.892H279.919V243.538H287.565V235.892Z" fill="white"/>
<path d="M295.212 235.892H287.565V243.538H295.212V235.892Z" fill="white"/>
<path d="M302.857 235.892H295.211V243.538H302.857V235.892Z" fill="white"/>
<path d="M42.8893 243.538H35.2432V251.184H42.8893V243.538Z" fill="white"/>
<path d="M81.1207 243.538H73.4746V251.184H81.1207V243.538Z" fill="white"/>
<path d="M88.7662 243.538H81.1201V251.184H88.7662V243.538Z" fill="white"/>
<path d="M104.057 243.538H96.4111V251.184H104.057V243.538Z" fill="white"/>
<path d="M119.351 243.538H111.705V251.184H119.351V243.538Z" fill="white"/>
<path d="M149.934 243.538H142.288V251.184H149.934V243.538Z" fill="white"/>
<path d="M165.228 243.538H157.582V251.184H165.228V243.538Z" fill="white"/>
<path d="M172.873 243.538H165.227V251.184H172.873V243.538Z" fill="white"/>
<path d="M180.519 243.538H172.873V251.184H180.519V243.538Z" fill="white"/>
<path d="M195.811 243.538H188.165V251.184H195.811V243.538Z" fill="white"/>
<path d="M211.105 243.538H203.459V251.184H211.105V243.538Z" fill="white"/>
<path d="M226.396 243.538H218.75V251.184H226.396V243.538Z" fill="white"/>
<path d="M234.044 243.538H226.397V251.184H234.044V243.538Z" fill="white"/>
<path d="M241.688 243.538H234.042V251.184H241.688V243.538Z" fill="white"/>
<path d="M256.98 243.538H249.334V251.184H256.98V243.538Z" fill="white"/>
<path d="M27.5973 251.184H19.9512V258.83H27.5973V251.184Z" fill="white"/>
<path d="M50.5358 251.184H42.8896V258.83H50.5358V251.184Z" fill="white"/>
<path d="M58.1823 251.184H50.5361V258.83H58.1823V251.184Z" fill="white"/>
<path d="M73.4742 251.184H65.8281V258.83H73.4742V251.184Z" fill="white"/>
<path d="M96.4117 251.184H88.7656V258.83H96.4117V251.184Z" fill="white"/>
<path d="M111.705 251.184H104.059V258.83H111.705V251.184Z" fill="white"/>
<path d="M126.997 251.184H119.351V258.83H126.997V251.184Z" fill="white"/>
<path d="M134.642 251.184H126.996V258.83H134.642V251.184Z" fill="white"/>
<path d="M149.934 251.184H142.288V258.83H149.934V251.184Z" fill="white"/>
<path d="M157.582 251.184H149.936V258.83H157.582V251.184Z" fill="white"/>
<path d="M165.228 251.184H157.582V258.83H165.228V251.184Z" fill="white"/>
<path d="M180.519 251.184H172.873V258.83H180.519V251.184Z" fill="white"/>
<path d="M203.458 251.184H195.812V258.83H203.458V251.184Z" fill="white"/>
<path d="M211.105 251.184H203.459V258.83H211.105V251.184Z" fill="white"/>
<path d="M218.75 251.184H211.104V258.83H218.75V251.184Z" fill="white"/>
<path d="M249.335 251.184H241.688V258.83H249.335V251.184Z" fill="white"/>
<path d="M256.98 251.184H249.334V258.83H256.98V251.184Z" fill="white"/>
<path d="M279.919 251.184H272.272V258.83H279.919V251.184Z" fill="white"/>
<path d="M287.565 251.184H279.919V258.83H287.565V251.184Z" fill="white"/>
<path d="M35.2438 258.83H27.5977V266.476H35.2438V258.83Z" fill="white"/>
<path d="M42.8893 258.83H35.2432V266.476H42.8893V258.83Z" fill="white"/>
<path d="M50.5358 258.83H42.8896V266.476H50.5358V258.83Z" fill="white"/>
<path d="M58.1823 258.83H50.5361V266.476H58.1823V258.83Z" fill="white"/>
<path d="M65.8278 258.83H58.1816V266.476H65.8278V258.83Z" fill="white"/>
<path d="M81.1207 258.83H73.4746V266.476H81.1207V258.83Z" fill="white"/>
<path d="M104.057 258.83H96.4111V266.476H104.057V258.83Z" fill="white"/>
<path d="M126.997 258.83H119.351V266.476H126.997V258.83Z" fill="white"/>
<path d="M134.642 258.83H126.996V266.476H134.642V258.83Z" fill="white"/>
<path d="M142.29 258.83H134.644V266.476H142.29V258.83Z" fill="white"/>
<path d="M165.228 258.83H157.582V266.476H165.228V258.83Z" fill="white"/>
<path d="M172.873 258.83H165.227V266.476H172.873V258.83Z" fill="white"/>
<path d="M180.519 258.83H172.873V266.476H180.519V258.83Z" fill="white"/>
<path d="M188.167 258.83H180.521V266.476H188.167V258.83Z" fill="white"/>
<path d="M203.458 258.83H195.812V266.476H203.458V258.83Z" fill="white"/>
<path d="M218.75 258.83H211.104V266.476H218.75V258.83Z" fill="white"/>
<path d="M241.688 258.83H234.042V266.476H241.688V258.83Z" fill="white"/>
<path d="M249.335 258.83H241.688V266.476H249.335V258.83Z" fill="white"/>
<path d="M279.919 258.83H272.272V266.476H279.919V258.83Z" fill="white"/>
<path d="M287.565 258.83H279.919V266.476H287.565V258.83Z" fill="white"/>
<path d="M295.212 258.83H287.565V266.476H295.212V258.83Z" fill="white"/>
<path d="M42.8893 266.476H35.2432V274.122H42.8893V266.476Z" fill="white"/>
<path d="M50.5358 266.476H42.8896V274.122H50.5358V266.476Z" fill="white"/>
<path d="M58.1823 266.476H50.5361V274.122H58.1823V266.476Z" fill="white"/>
<path d="M65.8278 266.476H58.1816V274.122H65.8278V266.476Z" fill="white"/>
<path d="M73.4742 266.476H65.8281V274.122H73.4742V266.476Z" fill="white"/>
<path d="M88.7662 266.476H81.1201V274.122H88.7662V266.476Z" fill="white"/>
<path d="M104.057 266.476H96.4111V274.122H104.057V266.476Z" fill="white"/>
<path d="M111.705 266.476H104.059V274.122H111.705V266.476Z" fill="white"/>
<path d="M119.351 266.476H111.705V274.122H119.351V266.476Z" fill="white"/>
<path d="M142.29 266.476H134.644V274.122H142.29V266.476Z" fill="white"/>
<path d="M149.934 266.476H142.288V274.122H149.934V266.476Z" fill="white"/>
<path d="M157.582 266.476H149.936V274.122H157.582V266.476Z" fill="white"/>
<path d="M172.873 266.476H165.227V274.122H172.873V266.476Z" fill="white"/>
<path d="M180.519 266.476H172.873V274.122H180.519V266.476Z" fill="white"/>
<path d="M188.167 266.476H180.521V274.122H188.167V266.476Z" fill="white"/>
<path d="M203.458 266.476H195.812V274.122H203.458V266.476Z" fill="white"/>
<path d="M211.105 266.476H203.459V274.122H211.105V266.476Z" fill="white"/>
<path d="M218.75 266.476H211.104V274.122H218.75V266.476Z" fill="white"/>
<path d="M226.396 266.476H218.75V274.122H226.396V266.476Z" fill="white"/>
<path d="M241.688 266.476H234.042V274.122H241.688V266.476Z" fill="white"/>
<path d="M249.335 266.476H241.688V274.122H249.335V266.476Z" fill="white"/>
<path d="M256.98 266.476H249.334V274.122H256.98V266.476Z" fill="white"/>
<path d="M264.628 266.476H256.981V274.122H264.628V266.476Z" fill="white"/>
<path d="M295.212 266.476H287.565V274.122H295.212V266.476Z" fill="white"/>
<path d="M302.857 266.476H295.211V274.122H302.857V266.476Z" fill="white"/>
<path d="M35.2438 274.122H27.5977V281.768H35.2438V274.122Z" fill="white"/>
<path d="M42.8893 274.122H35.2432V281.768H42.8893V274.122Z" fill="white"/>
<path d="M50.5358 274.122H42.8896V281.768H50.5358V274.122Z" fill="white"/>
<path d="M81.1207 274.122H73.4746V281.768H81.1207V274.122Z" fill="white"/>
<path d="M88.7662 274.122H81.1201V281.768H88.7662V274.122Z" fill="white"/>
<path d="M134.642 274.122H126.996V281.768H134.642V274.122Z" fill="white"/>
<path d="M157.582 274.122H149.936V281.768H157.582V274.122Z" fill="white"/>
<path d="M180.519 274.122H172.873V281.768H180.519V274.122Z" fill="white"/>
<path d="M203.458 274.122H195.812V281.768H203.458V274.122Z" fill="white"/>
<path d="M211.105 274.122H203.459V281.768H211.105V274.122Z" fill="white"/>
<path d="M226.396 274.122H218.75V281.768H226.396V274.122Z" fill="white"/>
<path d="M234.044 274.122H226.397V281.768H234.044V274.122Z" fill="white"/>
<path d="M256.98 274.122H249.334V281.768H256.98V274.122Z" fill="white"/>
<path d="M264.628 274.122H256.981V281.768H264.628V274.122Z" fill="white"/>
<path d="M279.919 274.122H272.272V281.768H279.919V274.122Z" fill="white"/>
<path d="M295.212 274.122H287.565V281.768H295.212V274.122Z" fill="white"/>
<path d="M27.5973 281.769H19.9512V289.415H27.5973V281.769Z" fill="white"/>
<path d="M42.8893 281.769H35.2432V289.415H42.8893V281.769Z" fill="white"/>
<path d="M50.5358 281.769H42.8896V289.415H50.5358V281.769Z" fill="white"/>
<path d="M73.4742 281.769H65.8281V289.415H73.4742V281.769Z" fill="white"/>
<path d="M88.7662 281.769H81.1201V289.415H88.7662V281.769Z" fill="white"/>
<path d="M96.4117 281.769H88.7656V289.415H96.4117V281.769Z" fill="white"/>
<path d="M104.057 281.769H96.4111V289.415H104.057V281.769Z" fill="white"/>
<path d="M111.705 281.769H104.059V289.415H111.705V281.769Z" fill="white"/>
<path d="M126.997 281.769H119.351V289.415H126.997V281.769Z" fill="white"/>
<path d="M134.642 281.769H126.996V289.415H134.642V281.769Z" fill="white"/>
<path d="M142.29 281.769H134.644V289.415H142.29V281.769Z" fill="white"/>
<path d="M149.934 281.769H142.288V289.415H149.934V281.769Z" fill="white"/>
<path d="M157.582 281.769H149.936V289.415H157.582V281.769Z" fill="white"/>
<path d="M172.873 281.769H165.227V289.415H172.873V281.769Z" fill="white"/>
<path d="M188.167 281.769H180.521V289.415H188.167V281.769Z" fill="white"/>
<path d="M195.811 281.769H188.165V289.415H195.811V281.769Z" fill="white"/>
<path d="M218.75 281.769H211.104V289.415H218.75V281.769Z" fill="white"/>
<path d="M226.396 281.769H218.75V289.415H226.396V281.769Z" fill="white"/>
<path d="M241.688 281.769H234.042V289.415H241.688V281.769Z" fill="white"/>
<path d="M249.335 281.769H241.688V289.415H249.335V281.769Z" fill="white"/>
<path d="M256.98 281.769H249.334V289.415H256.98V281.769Z" fill="white"/>
<path d="M272.273 281.769H264.627V289.415H272.273V281.769Z" fill="white"/>
<path d="M279.919 281.769H272.272V289.415H279.919V281.769Z" fill="white"/>
<path d="M287.565 281.769H279.919V289.415H287.565V281.769Z" fill="white"/>
<path d="M27.5973 289.415H19.9512V297.061H27.5973V289.415Z" fill="white"/>
<path d="M65.8278 289.415H58.1816V297.061H65.8278V289.415Z" fill="white"/>
<path d="M81.1207 289.415H73.4746V297.061H81.1207V289.415Z" fill="white"/>
<path d="M96.4117 289.415H88.7656V297.061H96.4117V289.415Z" fill="white"/>
<path d="M111.705 289.415H104.059V297.061H111.705V289.415Z" fill="white"/>
<path d="M126.997 289.415H119.351V297.061H126.997V289.415Z" fill="white"/>
<path d="M134.642 289.415H126.996V297.061H134.642V289.415Z" fill="white"/>
<path d="M142.29 289.415H134.644V297.061H142.29V289.415Z" fill="white"/>
<path d="M149.934 289.415H142.288V297.061H149.934V289.415Z" fill="white"/>
<path d="M157.582 289.415H149.936V297.061H157.582V289.415Z" fill="white"/>
<path d="M165.228 289.415H157.582V297.061H165.228V289.415Z" fill="white"/>
<path d="M188.167 289.415H180.521V297.061H188.167V289.415Z" fill="white"/>
<path d="M211.105 289.415H203.459V297.061H211.105V289.415Z" fill="white"/>
<path d="M218.75 289.415H211.104V297.061H218.75V289.415Z" fill="white"/>
<path d="M241.688 289.415H234.042V297.061H241.688V289.415Z" fill="white"/>
<path d="M264.628 289.415H256.981V297.061H264.628V289.415Z" fill="white"/>
<path d="M279.919 289.415H272.272V297.061H279.919V289.415Z" fill="white"/>
<path d="M27.5973 297.061H19.9512V304.707H27.5973V297.061Z" fill="white"/>
<path d="M35.2438 297.061H27.5977V304.707H35.2438V297.061Z" fill="white"/>
<path d="M50.5358 297.061H42.8896V304.707H50.5358V297.061Z" fill="white"/>
<path d="M58.1823 297.061H50.5361V304.707H58.1823V297.061Z" fill="white"/>
<path d="M65.8278 297.061H58.1816V304.707H65.8278V297.061Z" fill="white"/>
<path d="M73.4742 297.061H65.8281V304.707H73.4742V297.061Z" fill="white"/>
<path d="M111.705 297.061H104.059V304.707H111.705V297.061Z" fill="white"/>
<path d="M126.997 297.061H119.351V304.707H126.997V297.061Z" fill="white"/>
<path d="M157.582 297.061H149.936V304.707H157.582V297.061Z" fill="white"/>
<path d="M180.519 297.061H172.873V304.707H180.519V297.061Z" fill="white"/>
<path d="M211.105 297.061H203.459V304.707H211.105V297.061Z" fill="white"/>
<path d="M218.75 297.061H211.104V304.707H218.75V297.061Z" fill="white"/>
<path d="M226.396 297.061H218.75V304.707H226.396V297.061Z" fill="white"/>
<path d="M234.044 297.061H226.397V304.707H234.044V297.061Z" fill="white"/>
<path d="M249.335 297.061H241.688V304.707H249.335V297.061Z" fill="white"/>
<path d="M264.628 297.061H256.981V304.707H264.628V297.061Z" fill="white"/>
<path d="M272.273 297.061H264.627V304.707H272.273V297.061Z" fill="white"/>
<path d="M287.565 297.061H279.919V304.707H287.565V297.061Z" fill="white"/>
<path d="M295.212 297.061H287.565V304.707H295.212V297.061Z" fill="white"/>
<path d="M302.857 297.061H295.211V304.707H302.857V297.061Z" fill="white"/>
<path d="M27.5973 304.707H19.9512V312.353H27.5973V304.707Z" fill="white"/>
<path d="M35.2438 304.707H27.5977V312.353H35.2438V304.707Z" fill="white"/>
<path d="M42.8893 304.707H35.2432V312.353H42.8893V304.707Z" fill="white"/>
<path d="M50.5358 304.707H42.8896V312.353H50.5358V304.707Z" fill="white"/>
<path d="M81.1207 304.707H73.4746V312.353H81.1207V304.707Z" fill="white"/>
<path d="M88.7662 304.707H81.1201V312.353H88.7662V304.707Z" fill="white"/>
<path d="M104.057 304.707H96.4111V312.353H104.057V304.707Z" fill="white"/>
<path d="M111.705 304.707H104.059V312.353H111.705V304.707Z" fill="white"/>
<path d="M134.642 304.707H126.996V312.353H134.642V304.707Z" fill="white"/>
<path d="M149.934 304.707H142.288V312.353H149.934V304.707Z" fill="white"/>
<path d="M165.228 304.707H157.582V312.353H165.228V304.707Z" fill="white"/>
<path d="M226.396 304.707H218.75V312.353H226.396V304.707Z" fill="white"/>
<path d="M234.044 304.707H226.397V312.353H234.044V304.707Z" fill="white"/>
<path d="M249.335 304.707H241.688V312.353H249.335V304.707Z" fill="white"/>
<path d="M256.98 304.707H249.334V312.353H256.98V304.707Z" fill="white"/>
<path d="M264.628 304.707H256.981V312.353H264.628V304.707Z" fill="white"/>
<path d="M272.273 304.707H264.627V312.353H272.273V304.707Z" fill="white"/>
<path d="M279.919 304.707H272.272V312.353H279.919V304.707Z" fill="white"/>
<path d="M302.857 304.707H295.211V312.353H302.857V304.707Z" fill="white"/>
<path d="M35.2438 312.353H27.5977V319.999H35.2438V312.353Z" fill="white"/>
<path d="M42.8893 312.353H35.2432V319.999H42.8893V312.353Z" fill="white"/>
<path d="M50.5358 312.353H42.8896V319.999H50.5358V312.353Z" fill="white"/>
<path d="M73.4742 312.353H65.8281V319.999H73.4742V312.353Z" fill="white"/>
<path d="M81.1207 312.353H73.4746V319.999H81.1207V312.353Z" fill="white"/>
<path d="M96.4117 312.353H88.7656V319.999H96.4117V312.353Z" fill="white"/>
<path d="M111.705 312.353H104.059V319.999H111.705V312.353Z" fill="white"/>
<path d="M119.351 312.353H111.705V319.999H119.351V312.353Z" fill="white"/>
<path d="M126.997 312.353H119.351V319.999H126.997V312.353Z" fill="white"/>
<path d="M134.642 312.353H126.996V319.999H134.642V312.353Z" fill="white"/>
<path d="M172.873 312.353H165.227V319.999H172.873V312.353Z" fill="white"/>
<path d="M195.811 312.353H188.165V319.999H195.811V312.353Z" fill="white"/>
<path d="M226.396 312.353H218.75V319.999H226.396V312.353Z" fill="white"/>
<path d="M234.044 312.353H226.397V319.999H234.044V312.353Z" fill="white"/>
<path d="M241.688 312.353H234.042V319.999H241.688V312.353Z" fill="white"/>
<path d="M249.335 312.353H241.688V319.999H249.335V312.353Z" fill="white"/>
<path d="M256.98 312.353H249.334V319.999H256.98V312.353Z" fill="white"/>
<path d="M272.273 312.353H264.627V319.999H272.273V312.353Z" fill="white"/>
<path d="M279.919 312.353H272.272V319.999H279.919V312.353Z" fill="white"/>
<path d="M287.565 312.353H279.919V319.999H287.565V312.353Z" fill="white"/>
<path d="M295.212 312.353H287.565V319.999H295.212V312.353Z" fill="white"/>
<path d="M302.857 312.353H295.211V319.999H302.857V312.353Z" fill="white"/>
<path d="M42.8893 319.999H35.2432V327.645H42.8893V319.999Z" fill="white"/>
<path d="M58.1823 319.999H50.5361V327.645H58.1823V319.999Z" fill="white"/>
<path d="M65.8278 319.999H58.1816V327.645H65.8278V319.999Z" fill="white"/>
<path d="M81.1207 319.999H73.4746V327.645H81.1207V319.999Z" fill="white"/>
<path d="M111.705 319.999H104.059V327.645H111.705V319.999Z" fill="white"/>
<path d="M119.351 319.999H111.705V327.645H119.351V319.999Z" fill="white"/>
<path d="M142.29 319.999H134.644V327.645H142.29V319.999Z" fill="white"/>
<path d="M157.582 319.999H149.936V327.645H157.582V319.999Z" fill="white"/>
<path d="M188.167 319.999H180.521V327.645H188.167V319.999Z" fill="white"/>
<path d="M211.105 319.999H203.459V327.645H211.105V319.999Z" fill="white"/>
<path d="M218.75 319.999H211.104V327.645H218.75V319.999Z" fill="white"/>
<path d="M226.396 319.999H218.75V327.645H226.396V319.999Z" fill="white"/>
<path d="M241.688 319.999H234.042V327.645H241.688V319.999Z" fill="white"/>
<path d="M264.628 319.999H256.981V327.645H264.628V319.999Z" fill="white"/>
<path d="M287.565 319.999H279.919V327.645H287.565V319.999Z" fill="white"/>
<path d="M27.5973 327.645H19.9512V335.291H27.5973V327.645Z" fill="white"/>
<path d="M50.5358 327.645H42.8896V335.291H50.5358V327.645Z" fill="white"/>
<path d="M73.4742 327.645H65.8281V335.291H73.4742V327.645Z" fill="white"/>
<path d="M88.7662 327.645H81.1201V335.291H88.7662V327.645Z" fill="white"/>
<path d="M96.4117 327.645H88.7656V335.291H96.4117V327.645Z" fill="white"/>
<path d="M111.705 327.645H104.059V335.291H111.705V327.645Z" fill="white"/>
<path d="M119.351 327.645H111.705V335.291H119.351V327.645Z" fill="white"/>
<path d="M126.997 327.645H119.351V335.291H126.997V327.645Z" fill="white"/>
<path d="M134.642 327.645H126.996V335.291H134.642V327.645Z" fill="white"/>
<path d="M142.29 327.645H134.644V335.291H142.29V327.645Z" fill="white"/>
<path d="M149.934 327.645H142.288V335.291H149.934V327.645Z" fill="white"/>
<path d="M180.519 327.645H172.873V335.291H180.519V327.645Z" fill="white"/>
<path d="M203.458 327.645H195.812V335.291H203.458V327.645Z" fill="white"/>
<path d="M218.75 327.645H211.104V335.291H218.75V327.645Z" fill="white"/>
<path d="M226.396 327.645H218.75V335.291H226.396V327.645Z" fill="white"/>
<path d="M234.044 327.645H226.397V335.291H234.044V327.645Z" fill="white"/>
<path d="M241.688 327.645H234.042V335.291H241.688V327.645Z" fill="white"/>
<path d="M249.335 327.645H241.688V335.291H249.335V327.645Z" fill="white"/>
<path d="M279.919 327.645H272.272V335.291H279.919V327.645Z" fill="white"/>
<path d="M287.565 327.645H279.919V335.291H287.565V327.645Z" fill="white"/>
<path d="M35.2438 335.291H27.5977V342.937H35.2438V335.291Z" fill="white"/>
<path d="M42.8893 335.291H35.2432V342.937H42.8893V335.291Z" fill="white"/>
<path d="M50.5358 335.291H42.8896V342.937H50.5358V335.291Z" fill="white"/>
<path d="M58.1823 335.291H50.5361V342.937H58.1823V335.291Z" fill="white"/>
<path d="M119.351 335.291H111.705V342.937H119.351V335.291Z" fill="white"/>
<path d="M134.642 335.291H126.996V342.937H134.642V335.291Z" fill="white"/>
<path d="M149.934 335.291H142.288V342.937H149.934V335.291Z" fill="white"/>
<path d="M172.873 335.291H165.227V342.937H172.873V335.291Z" fill="white"/>
<path d="M195.811 335.291H188.165V342.937H195.811V335.291Z" fill="white"/>
<path d="M211.105 335.291H203.459V342.937H211.105V335.291Z" fill="white"/>
<path d="M218.75 335.291H211.104V342.937H218.75V335.291Z" fill="white"/>
<path d="M226.396 335.291H218.75V342.937H226.396V335.291Z" fill="white"/>
<path d="M264.628 335.291H256.981V342.937H264.628V335.291Z" fill="white"/>
<path d="M295.212 335.291H287.565V342.937H295.212V335.291Z" fill="white"/>
<path d="M302.857 335.291H295.211V342.937H302.857V335.291Z" fill="white"/>
<path d="M42.8893 342.938H35.2432V350.584H42.8893V342.938Z" fill="white"/>
<path d="M65.8278 342.938H58.1816V350.584H65.8278V342.938Z" fill="white"/>
<path d="M73.4742 342.938H65.8281V350.584H73.4742V342.938Z" fill="white"/>
<path d="M81.1207 342.938H73.4746V350.584H81.1207V342.938Z" fill="white"/>
<path d="M96.4117 342.938H88.7656V350.584H96.4117V342.938Z" fill="white"/>
<path d="M104.057 342.938H96.4111V350.584H104.057V342.938Z" fill="white"/>
<path d="M119.351 342.938H111.705V350.584H119.351V342.938Z" fill="white"/>
<path d="M126.997 342.938H119.351V350.584H126.997V342.938Z" fill="white"/>
<path d="M134.642 342.938H126.996V350.584H134.642V342.938Z" fill="white"/>
<path d="M149.934 342.938H142.288V350.584H149.934V342.938Z" fill="white"/>
<path d="M157.582 342.938H149.936V350.584H157.582V342.938Z" fill="white"/>
<path d="M218.75 342.938H211.104V350.584H218.75V342.938Z" fill="white"/>
<path d="M226.396 342.938H218.75V350.584H226.396V342.938Z" fill="white"/>
<path d="M234.044 342.938H226.397V350.584H234.044V342.938Z" fill="white"/>
<path d="M241.688 342.938H234.042V350.584H241.688V342.938Z" fill="white"/>
<path d="M249.335 342.938H241.688V350.584H249.335V342.938Z" fill="white"/>
<path d="M264.628 342.938H256.981V350.584H264.628V342.938Z" fill="white"/>
<path d="M272.273 342.938H264.627V350.584H272.273V342.938Z" fill="white"/>
<path d="M279.919 342.938H272.272V350.584H279.919V342.938Z" fill="white"/>
<path d="M287.565 342.938H279.919V350.584H287.565V342.938Z" fill="white"/>
<path d="M295.212 342.938H287.565V350.584H295.212V342.938Z" fill="white"/>
<path d="M27.5973 350.583H19.9512V358.23H27.5973V350.583Z" fill="white"/>
<path d="M42.8893 350.583H35.2432V358.23H42.8893V350.583Z" fill="white"/>
<path d="M50.5358 350.583H42.8896V358.23H50.5358V350.583Z" fill="white"/>
<path d="M88.7662 350.583H81.1201V358.23H88.7662V350.583Z" fill="white"/>
<path d="M111.705 350.583H104.059V358.23H111.705V350.583Z" fill="white"/>
<path d="M119.351 350.583H111.705V358.23H119.351V350.583Z" fill="white"/>
<path d="M126.997 350.583H119.351V358.23H126.997V350.583Z" fill="white"/>
<path d="M157.582 350.583H149.936V358.23H157.582V350.583Z" fill="white"/>
<path d="M165.228 350.583H157.582V358.23H165.228V350.583Z" fill="white"/>
<path d="M172.873 350.583H165.227V358.23H172.873V350.583Z" fill="white"/>
<path d="M195.811 350.583H188.165V358.23H195.811V350.583Z" fill="white"/>
<path d="M218.75 350.583H211.104V358.23H218.75V350.583Z" fill="white"/>
<path d="M241.688 350.583H234.042V358.23H241.688V350.583Z" fill="white"/>
<path d="M264.628 350.583H256.981V358.23H264.628V350.583Z" fill="white"/>
<path d="M279.919 350.583H272.272V358.23H279.919V350.583Z" fill="white"/>
<path d="M287.565 350.583H279.919V358.23H287.565V350.583Z" fill="white"/>
<path d="M27.5973 358.229H19.9512V365.876H27.5973V358.229Z" fill="white"/>
<path d="M65.8278 358.229H58.1816V365.876H65.8278V358.229Z" fill="white"/>
<path d="M73.4742 358.229H65.8281V365.876H73.4742V358.229Z" fill="white"/>
<path d="M81.1207 358.229H73.4746V365.876H81.1207V358.229Z" fill="white"/>
<path d="M88.7662 358.229H81.1201V365.876H88.7662V358.229Z" fill="white"/>
<path d="M104.057 358.229H96.4111V365.876H104.057V358.229Z" fill="white"/>
<path d="M111.705 358.229H104.059V365.876H111.705V358.229Z" fill="white"/>
<path d="M134.642 358.229H126.996V365.876H134.642V358.229Z" fill="white"/>
<path d="M142.29 358.229H134.644V365.876H142.29V358.229Z" fill="white"/>
<path d="M149.934 358.229H142.288V365.876H149.934V358.229Z" fill="white"/>
<path d="M157.582 358.229H149.936V365.876H157.582V358.229Z" fill="white"/>
<path d="M165.228 358.229H157.582V365.876H165.228V358.229Z" fill="white"/>
<path d="M172.873 358.229H165.227V365.876H172.873V358.229Z" fill="white"/>
<path d="M203.458 358.229H195.812V365.876H203.458V358.229Z" fill="white"/>
<path d="M211.105 358.229H203.459V365.876H211.105V358.229Z" fill="white"/>
<path d="M226.396 358.229H218.75V365.876H226.396V358.229Z" fill="white"/>
<path d="M234.044 358.229H226.397V365.876H234.044V358.229Z" fill="white"/>
<path d="M241.688 358.229H234.042V365.876H241.688V358.229Z" fill="white"/>
<path d="M249.335 358.229H241.688V365.876H249.335V358.229Z" fill="white"/>
<path d="M264.628 358.229H256.981V365.876H264.628V358.229Z" fill="white"/>
<path d="M279.919 358.229H272.272V365.876H279.919V358.229Z" fill="white"/>
<path d="M295.212 358.229H287.565V365.876H295.212V358.229Z" fill="white"/>
<path d="M302.857 358.229H295.211V365.876H302.857V358.229Z" fill="white"/>
<path d="M27.5973 365.876H19.9512V373.522H27.5973V365.876Z" fill="white"/>
<path d="M35.2438 365.876H27.5977V373.522H35.2438V365.876Z" fill="white"/>
<path d="M42.8893 365.876H35.2432V373.522H42.8893V365.876Z" fill="white"/>
<path d="M50.5358 365.876H42.8896V373.522H50.5358V365.876Z" fill="white"/>
<path d="M65.8278 365.876H58.1816V373.522H65.8278V365.876Z" fill="white"/>
<path d="M88.7662 365.876H81.1201V373.522H88.7662V365.876Z" fill="white"/>
<path d="M96.4117 365.876H88.7656V373.522H96.4117V365.876Z" fill="white"/>
<path d="M104.057 365.876H96.4111V373.522H104.057V365.876Z" fill="white"/>
<path d="M119.351 365.876H111.705V373.522H119.351V365.876Z" fill="white"/>
<path d="M126.997 365.876H119.351V373.522H126.997V365.876Z" fill="white"/>
<path d="M134.642 365.876H126.996V373.522H134.642V365.876Z" fill="white"/>
<path d="M149.934 365.876H142.288V373.522H149.934V365.876Z" fill="white"/>
<path d="M172.873 365.876H165.227V373.522H172.873V365.876Z" fill="white"/>
<path d="M180.519 365.876H172.873V373.522H180.519V365.876Z" fill="white"/>
<path d="M234.044 365.876H226.397V373.522H234.044V365.876Z" fill="white"/>
<path d="M256.98 365.876H249.334V373.522H256.98V365.876Z" fill="white"/>
<path d="M272.273 365.876H264.627V373.522H272.273V365.876Z" fill="white"/>
<path d="M295.212 365.876H287.565V373.522H295.212V365.876Z" fill="white"/>
<path d="M302.857 365.876H295.211V373.522H302.857V365.876Z" fill="white"/>
<path d="M27.5973 373.522H19.9512V381.168H27.5973V373.522Z" fill="white"/>
<path d="M50.5358 373.522H42.8896V381.168H50.5358V373.522Z" fill="white"/>
<path d="M73.4742 373.522H65.8281V381.168H73.4742V373.522Z" fill="white"/>
<path d="M88.7662 373.522H81.1201V381.168H88.7662V373.522Z" fill="white"/>
<path d="M96.4117 373.522H88.7656V381.168H96.4117V373.522Z" fill="white"/>
<path d="M111.705 373.522H104.059V381.168H111.705V373.522Z" fill="white"/>
<path d="M119.351 373.522H111.705V381.168H119.351V373.522Z" fill="white"/>
<path d="M134.642 373.522H126.996V381.168H134.642V373.522Z" fill="white"/>
<path d="M142.29 373.522H134.644V381.168H142.29V373.522Z" fill="white"/>
<path d="M165.228 373.522H157.582V381.168H165.228V373.522Z" fill="white"/>
<path d="M172.873 373.522H165.227V381.168H172.873V373.522Z" fill="white"/>
<path d="M188.167 373.522H180.521V381.168H188.167V373.522Z" fill="white"/>
<path d="M203.458 373.522H195.812V381.168H203.458V373.522Z" fill="white"/>
<path d="M211.105 373.522H203.459V381.168H211.105V373.522Z" fill="white"/>
<path d="M218.75 373.522H211.104V381.168H218.75V373.522Z" fill="white"/>
<path d="M234.044 373.522H226.397V381.168H234.044V373.522Z" fill="white"/>
<path d="M241.688 373.522H234.042V381.168H241.688V373.522Z" fill="white"/>
<path d="M249.335 373.522H241.688V381.168H249.335V373.522Z" fill="white"/>
<path d="M256.98 373.522H249.334V381.168H256.98V373.522Z" fill="white"/>
<path d="M264.628 373.522H256.981V381.168H264.628V373.522Z" fill="white"/>
<path d="M272.273 373.522H264.627V381.168H272.273V373.522Z" fill="white"/>
<path d="M279.919 373.522H272.272V381.168H279.919V373.522Z" fill="white"/>
<path d="M287.565 373.522H279.919V381.168H287.565V373.522Z" fill="white"/>
<path d="M295.212 373.522H287.565V381.168H295.212V373.522Z" fill="white"/>
<path d="M302.857 373.522H295.211V381.168H302.857V373.522Z" fill="white"/>
<path d="M27.5973 381.168H19.9512V388.814H27.5973V381.168Z" fill="white"/>
<path d="M42.8893 381.168H35.2432V388.814H42.8893V381.168Z" fill="white"/>
<path d="M50.5358 381.168H42.8896V388.814H50.5358V381.168Z" fill="white"/>
<path d="M58.1823 381.168H50.5361V388.814H58.1823V381.168Z" fill="white"/>
<path d="M111.705 381.168H104.059V388.814H111.705V381.168Z" fill="white"/>
<path d="M119.351 381.168H111.705V388.814H119.351V381.168Z" fill="white"/>
<path d="M142.29 381.168H134.644V388.814H142.29V381.168Z" fill="white"/>
<path d="M172.873 381.168H165.227V388.814H172.873V381.168Z" fill="white"/>
<path d="M188.167 381.168H180.521V388.814H188.167V381.168Z" fill="white"/>
<path d="M203.458 381.168H195.812V388.814H203.458V381.168Z" fill="white"/>
<path d="M218.75 381.168H211.104V388.814H218.75V381.168Z" fill="white"/>
<path d="M234.044 381.168H226.397V388.814H234.044V381.168Z" fill="white"/>
<path d="M249.335 381.168H241.688V388.814H249.335V381.168Z" fill="white"/>
<path d="M264.628 381.168H256.981V388.814H264.628V381.168Z" fill="white"/>
<path d="M287.565 381.168H279.919V388.814H287.565V381.168Z" fill="white"/>
<path d="M295.212 381.168H287.565V388.814H295.212V381.168Z" fill="white"/>
<path d="M27.5973 388.814H19.9512V396.46H27.5973V388.814Z" fill="white"/>
<path d="M42.8893 388.814H35.2432V396.46H42.8893V388.814Z" fill="white"/>
<path d="M50.5358 388.814H42.8896V396.46H50.5358V388.814Z" fill="white"/>
<path d="M58.1823 388.814H50.5361V396.46H58.1823V388.814Z" fill="white"/>
<path d="M65.8278 388.814H58.1816V396.46H65.8278V388.814Z" fill="white"/>
<path d="M73.4742 388.814H65.8281V396.46H73.4742V388.814Z" fill="white"/>
<path d="M81.1207 388.814H73.4746V396.46H81.1207V388.814Z" fill="white"/>
<path d="M96.4117 388.814H88.7656V396.46H96.4117V388.814Z" fill="white"/>
<path d="M111.705 388.814H104.059V396.46H111.705V388.814Z" fill="white"/>
<path d="M142.29 388.814H134.644V396.46H142.29V388.814Z" fill="white"/>
<path d="M149.934 388.814H142.288V396.46H149.934V388.814Z" fill="white"/>
<path d="M165.228 388.814H157.582V396.46H165.228V388.814Z" fill="white"/>
<path d="M180.519 388.814H172.873V396.46H180.519V388.814Z" fill="white"/>
<path d="M195.811 388.814H188.165V396.46H195.811V388.814Z" fill="white"/>
<path d="M203.458 388.814H195.812V396.46H203.458V388.814Z" fill="white"/>
<path d="M218.75 388.814H211.104V396.46H218.75V388.814Z" fill="white"/>
<path d="M226.396 388.814H218.75V396.46H226.396V388.814Z" fill="white"/>
<path d="M234.044 388.814H226.397V396.46H234.044V388.814Z" fill="white"/>
<path d="M241.688 388.814H234.042V396.46H241.688V388.814Z" fill="white"/>
<path d="M249.335 388.814H241.688V396.46H249.335V388.814Z" fill="white"/>
<path d="M256.98 388.814H249.334V396.46H256.98V388.814Z" fill="white"/>
<path d="M264.628 388.814H256.981V396.46H264.628V388.814Z" fill="white"/>
<path d="M272.273 388.814H264.627V396.46H272.273V388.814Z" fill="white"/>
<path d="M279.919 388.814H272.272V396.46H279.919V388.814Z" fill="white"/>
<path d="M295.212 388.814H287.565V396.46H295.212V388.814Z" fill="white"/>
<path d="M302.857 388.814H295.211V396.46H302.857V388.814Z" fill="white"/>
<path d="M88.7662 396.46H81.1201V404.106H88.7662V396.46Z" fill="white"/>
<path d="M96.4117 396.46H88.7656V404.106H96.4117V396.46Z" fill="white"/>
<path d="M104.057 396.46H96.4111V404.106H104.057V396.46Z" fill="white"/>
<path d="M119.351 396.46H111.705V404.106H119.351V396.46Z" fill="white"/>
<path d="M134.642 396.46H126.996V404.106H134.642V396.46Z" fill="white"/>
<path d="M142.29 396.46H134.644V404.106H142.29V396.46Z" fill="white"/>
<path d="M157.582 396.46H149.936V404.106H157.582V396.46Z" fill="white"/>
<path d="M172.873 396.46H165.227V404.106H172.873V396.46Z" fill="white"/>
<path d="M188.167 396.46H180.521V404.106H188.167V396.46Z" fill="white"/>
<path d="M211.105 396.46H203.459V404.106H211.105V396.46Z" fill="white"/>
<path d="M226.396 396.46H218.75V404.106H226.396V396.46Z" fill="white"/>
<path d="M241.688 396.46H234.042V404.106H241.688V396.46Z" fill="white"/>
<path d="M272.273 396.46H264.627V404.106H272.273V396.46Z" fill="white"/>
<path d="M27.5973 404.106H19.9512V411.753H27.5973V404.106Z" fill="white"/>
<path d="M35.2438 404.106H27.5977V411.753H35.2438V404.106Z" fill="white"/>
<path d="M42.8893 404.106H35.2432V411.753H42.8893V404.106Z" fill="white"/>
<path d="M50.5358 404.106H42.8896V411.753H50.5358V404.106Z" fill="white"/>
<path d="M58.1823 404.106H50.5361V411.753H58.1823V404.106Z" fill="white"/>
<path d="M65.8278 404.106H58.1816V411.753H65.8278V404.106Z" fill="white"/>
<path d="M73.4742 404.106H65.8281V411.753H73.4742V404.106Z" fill="white"/>
<path d="M96.4117 404.106H88.7656V411.753H96.4117V404.106Z" fill="white"/>
<path d="M142.29 404.106H134.644V411.753H142.29V404.106Z" fill="white"/>
<path d="M149.934 404.106H142.288V411.753H149.934V404.106Z" fill="white"/>
<path d="M165.228 404.106H157.582V411.753H165.228V404.106Z" fill="white"/>
<path d="M188.167 404.106H180.521V411.753H188.167V404.106Z" fill="white"/>
<path d="M195.811 404.106H188.165V411.753H195.811V404.106Z" fill="white"/>
<path d="M211.105 404.106H203.459V411.753H211.105V404.106Z" fill="white"/>
<path d="M218.75 404.106H211.104V411.753H218.75V404.106Z" fill="white"/>
<path d="M226.396 404.106H218.75V411.753H226.396V404.106Z" fill="white"/>
<path d="M234.044 404.106H226.397V411.753H234.044V404.106Z" fill="white"/>
<path d="M241.688 404.106H234.042V411.753H241.688V404.106Z" fill="white"/>
<path d="M256.98 404.106H249.334V411.753H256.98V404.106Z" fill="white"/>
<path d="M272.273 404.106H264.627V411.753H272.273V404.106Z" fill="white"/>
<path d="M279.919 404.106H272.272V411.753H279.919V404.106Z" fill="white"/>
<path d="M287.565 404.106H279.919V411.753H287.565V404.106Z" fill="white"/>
<path d="M295.212 404.106H287.565V411.753H295.212V404.106Z" fill="white"/>
<path d="M302.857 404.106H295.211V411.753H302.857V404.106Z" fill="white"/>
<path d="M27.5973 411.752H19.9512V419.399H27.5973V411.752Z" fill="white"/>
<path d="M73.4742 411.752H65.8281V419.399H73.4742V411.752Z" fill="white"/>
<path d="M119.351 411.752H111.705V419.399H119.351V411.752Z" fill="white"/>
<path d="M126.997 411.752H119.351V419.399H126.997V411.752Z" fill="white"/>
<path d="M142.29 411.752H134.644V419.399H142.29V411.752Z" fill="white"/>
<path d="M149.934 411.752H142.288V419.399H149.934V411.752Z" fill="white"/>
<path d="M165.228 411.752H157.582V419.399H165.228V411.752Z" fill="white"/>
<path d="M180.519 411.752H172.873V419.399H180.519V411.752Z" fill="white"/>
<path d="M203.458 411.752H195.812V419.399H203.458V411.752Z" fill="white"/>
<path d="M234.044 411.752H226.397V419.399H234.044V411.752Z" fill="white"/>
<path d="M241.688 411.752H234.042V419.399H241.688V411.752Z" fill="white"/>
<path d="M272.273 411.752H264.627V419.399H272.273V411.752Z" fill="white"/>
<path d="M279.919 411.752H272.272V419.399H279.919V411.752Z" fill="white"/>
<path d="M287.565 411.752H279.919V419.399H287.565V411.752Z" fill="white"/>
<path d="M295.212 411.752H287.565V419.399H295.212V411.752Z" fill="white"/>
<path d="M27.5973 419.399H19.9512V427.045H27.5973V419.399Z" fill="white"/>
<path d="M42.8893 419.399H35.2432V427.045H42.8893V419.399Z" fill="white"/>
<path d="M50.5358 419.399H42.8896V427.045H50.5358V419.399Z" fill="white"/>
<path d="M58.1823 419.399H50.5361V427.045H58.1823V419.399Z" fill="white"/>
<path d="M73.4742 419.399H65.8281V427.045H73.4742V419.399Z" fill="white"/>
<path d="M88.7662 419.399H81.1201V427.045H88.7662V419.399Z" fill="white"/>
<path d="M96.4117 419.399H88.7656V427.045H96.4117V419.399Z" fill="white"/>
<path d="M111.705 419.399H104.059V427.045H111.705V419.399Z" fill="white"/>
<path d="M142.29 419.399H134.644V427.045H142.29V419.399Z" fill="white"/>
<path d="M165.228 419.399H157.582V427.045H165.228V419.399Z" fill="white"/>
<path d="M172.873 419.399H165.227V427.045H172.873V419.399Z" fill="white"/>
<path d="M218.75 419.399H211.104V427.045H218.75V419.399Z" fill="white"/>
<path d="M241.688 419.399H234.042V427.045H241.688V419.399Z" fill="white"/>
<path d="M249.335 419.399H241.688V427.045H249.335V419.399Z" fill="white"/>
<path d="M256.98 419.399H249.334V427.045H256.98V419.399Z" fill="white"/>
<path d="M264.628 419.399H256.981V427.045H264.628V419.399Z" fill="white"/>
<path d="M272.273 419.399H264.627V427.045H272.273V419.399Z" fill="white"/>
<path d="M279.919 419.399H272.272V427.045H279.919V419.399Z" fill="white"/>
<path d="M295.212 419.399H287.565V427.045H295.212V419.399Z" fill="white"/>
<path d="M302.857 419.399H295.211V427.045H302.857V419.399Z" fill="white"/>
<path d="M27.5973 427.045H19.9512V434.691H27.5973V427.045Z" fill="white"/>
<path d="M42.8893 427.045H35.2432V434.691H42.8893V427.045Z" fill="white"/>
<path d="M50.5358 427.045H42.8896V434.691H50.5358V427.045Z" fill="white"/>
<path d="M58.1823 427.045H50.5361V434.691H58.1823V427.045Z" fill="white"/>
<path d="M73.4742 427.045H65.8281V434.691H73.4742V427.045Z" fill="white"/>
<path d="M88.7662 427.045H81.1201V434.691H88.7662V427.045Z" fill="white"/>
<path d="M96.4117 427.045H88.7656V434.691H96.4117V427.045Z" fill="white"/>
<path d="M111.705 427.045H104.059V434.691H111.705V427.045Z" fill="white"/>
<path d="M149.934 427.045H142.288V434.691H149.934V427.045Z" fill="white"/>
<path d="M188.167 427.045H180.521V434.691H188.167V427.045Z" fill="white"/>
<path d="M195.811 427.045H188.165V434.691H195.811V427.045Z" fill="white"/>
<path d="M211.105 427.045H203.459V434.691H211.105V427.045Z" fill="white"/>
<path d="M234.044 427.045H226.397V434.691H234.044V427.045Z" fill="white"/>
<path d="M241.688 427.045H234.042V434.691H241.688V427.045Z" fill="white"/>
<path d="M256.98 427.045H249.334V434.691H256.98V427.045Z" fill="white"/>
<path d="M295.212 427.045H287.565V434.691H295.212V427.045Z" fill="white"/>
<path d="M302.857 427.045H295.211V434.691H302.857V427.045Z" fill="white"/>
<path d="M27.5973 434.691H19.9512V442.337H27.5973V434.691Z" fill="white"/>
<path d="M42.8893 434.691H35.2432V442.337H42.8893V434.691Z" fill="white"/>
<path d="M50.5358 434.691H42.8896V442.337H50.5358V434.691Z" fill="white"/>
<path d="M58.1823 434.691H50.5361V442.337H58.1823V434.691Z" fill="white"/>
<path d="M73.4742 434.691H65.8281V442.337H73.4742V434.691Z" fill="white"/>
<path d="M88.7662 434.691H81.1201V442.337H88.7662V434.691Z" fill="white"/>
<path d="M111.705 434.691H104.059V442.337H111.705V434.691Z" fill="white"/>
<path d="M119.351 434.691H111.705V442.337H119.351V434.691Z" fill="white"/>
<path d="M126.997 434.691H119.351V442.337H126.997V434.691Z" fill="white"/>
<path d="M134.642 434.691H126.996V442.337H134.642V434.691Z" fill="white"/>
<path d="M157.582 434.691H149.936V442.337H157.582V434.691Z" fill="white"/>
<path d="M165.228 434.691H157.582V442.337H165.228V434.691Z" fill="white"/>
<path d="M195.811 434.691H188.165V442.337H195.811V434.691Z" fill="white"/>
<path d="M218.75 434.691H211.104V442.337H218.75V434.691Z" fill="white"/>
<path d="M226.396 434.691H218.75V442.337H226.396V434.691Z" fill="white"/>
<path d="M256.98 434.691H249.334V442.337H256.98V434.691Z" fill="white"/>
<path d="M264.628 434.691H256.981V442.337H264.628V434.691Z" fill="white"/>
<path d="M279.919 434.691H272.272V442.337H279.919V434.691Z" fill="white"/>
<path d="M287.565 434.691H279.919V442.337H287.565V434.691Z" fill="white"/>
<path d="M302.857 434.691H295.211V442.337H302.857V434.691Z" fill="white"/>
<path d="M27.5973 442.337H19.9512V449.983H27.5973V442.337Z" fill="white"/>
<path d="M73.4742 442.337H65.8281V449.983H73.4742V442.337Z" fill="white"/>
<path d="M96.4117 442.337H88.7656V449.983H96.4117V442.337Z" fill="white"/>
<path d="M104.057 442.337H96.4111V449.983H104.057V442.337Z" fill="white"/>
<path d="M126.997 442.337H119.351V449.983H126.997V442.337Z" fill="white"/>
<path d="M134.642 442.337H126.996V449.983H134.642V442.337Z" fill="white"/>
<path d="M142.29 442.337H134.644V449.983H142.29V442.337Z" fill="white"/>
<path d="M165.228 442.337H157.582V449.983H165.228V442.337Z" fill="white"/>
<path d="M172.873 442.337H165.227V449.983H172.873V442.337Z" fill="white"/>
<path d="M211.105 442.337H203.459V449.983H211.105V442.337Z" fill="white"/>
<path d="M241.688 442.337H234.042V449.983H241.688V442.337Z" fill="white"/>
<path d="M256.98 442.337H249.334V449.983H256.98V442.337Z" fill="white"/>
<path d="M272.273 442.337H264.627V449.983H272.273V442.337Z" fill="white"/>
<path d="M279.919 442.337H272.272V449.983H279.919V442.337Z" fill="white"/>
<path d="M295.212 442.337H287.565V449.983H295.212V442.337Z" fill="white"/>
<path d="M27.5973 449.983H19.9512V457.629H27.5973V449.983Z" fill="white"/>
<path d="M35.2438 449.983H27.5977V457.629H35.2438V449.983Z" fill="white"/>
<path d="M42.8893 449.983H35.2432V457.629H42.8893V449.983Z" fill="white"/>
<path d="M50.5358 449.983H42.8896V457.629H50.5358V449.983Z" fill="white"/>
<path d="M58.1823 449.983H50.5361V457.629H58.1823V449.983Z" fill="white"/>
<path d="M65.8278 449.983H58.1816V457.629H65.8278V449.983Z" fill="white"/>
<path d="M73.4742 449.983H65.8281V457.629H73.4742V449.983Z" fill="white"/>
<path d="M96.4117 449.983H88.7656V457.629H96.4117V449.983Z" fill="white"/>
<path d="M119.351 449.983H111.705V457.629H119.351V449.983Z" fill="white"/>
<path d="M134.642 449.983H126.996V457.629H134.642V449.983Z" fill="white"/>
<path d="M142.29 449.983H134.644V457.629H142.29V449.983Z" fill="white"/>
<path d="M157.582 449.983H149.936V457.629H157.582V449.983Z" fill="white"/>
<path d="M165.228 449.983H157.582V457.629H165.228V449.983Z" fill="white"/>
<path d="M188.167 449.983H180.521V457.629H188.167V449.983Z" fill="white"/>
<path d="M211.105 449.983H203.459V457.629H211.105V449.983Z" fill="white"/>
<path d="M218.75 449.983H211.104V457.629H218.75V449.983Z" fill="white"/>
<path d="M226.396 449.983H218.75V457.629H226.396V449.983Z" fill="white"/>
<path d="M241.688 449.983H234.042V457.629H241.688V449.983Z" fill="white"/>
<path d="M264.628 449.983H256.981V457.629H264.628V449.983Z" fill="white"/>
<path d="M287.565 449.983H279.919V457.629H287.565V449.983Z" fill="white"/>
<path d="M295.212 449.983H287.565V457.629H295.212V449.983Z" fill="white"/>
<path d="M302.857 449.983H295.211V457.629H302.857V449.983Z" fill="white"/>
</g>
<mask id="path-722-outside-2_40_1501" maskUnits="userSpaceOnUse" x="0.296875" y="89.514" width="324" height="80" fill="black">
<rect fill="white" x="0.296875" y="89.514" width="324" height="80"/>
<path d="M41.3821 139.028C41.3821 143.004 40.866 145.859 39.8338 147.594C38.8015 149.329 37.2312 150.416 35.1228 150.855C33.0363 151.294 29.698 151.514 25.1078 151.514H9.06416V98.1449H36.2429V107.402H22.9665V116.429H25.1078C29.3905 116.429 32.63 116.681 34.8263 117.186C37.0225 117.692 38.6588 118.812 39.7349 120.547C40.8331 122.26 41.3821 124.961 41.3821 128.651V139.028ZM27.4798 137.414V129.705C27.4798 127.465 27.2492 126.103 26.788 125.62C26.3487 125.137 25.0749 124.862 22.9665 124.797V142.323C24.7235 142.323 25.9095 142.103 26.5244 141.664C27.1613 141.203 27.4798 139.786 27.4798 137.414ZM73.766 98.1449L69.9774 133.494C69.3844 139.072 68.7475 142.993 68.0667 145.255C67.3858 147.495 66.0681 149.098 64.1134 150.065C62.1587 151.031 58.9412 151.514 54.4609 151.514H46.3567V144.629H47.1803C49.0031 144.629 50.1232 144.486 50.5405 144.2C50.9798 143.893 51.1994 143.432 51.1994 142.817C51.1994 142.773 50.9359 141.268 50.4088 138.304L43.1282 98.1449H55.1856L59.5672 131.352L61.6756 98.1449H73.766ZM91.8522 128.585C88.9311 128.651 87.4706 129.903 87.4706 132.341V146.375C87.4706 148.242 87.262 149.57 86.8447 150.361C86.4494 151.13 86.1639 151.514 85.9882 151.514H74.5237C75.512 150.086 76.0062 147.967 76.0062 145.156V133.164C76.0062 130.617 76.709 128.673 78.1146 127.333C79.5421 125.993 81.98 125.038 85.4281 124.467V124.401C79.1907 124.072 76.072 121.173 76.072 115.704V104.404C76.072 101.615 75.5779 99.5286 74.5896 98.1449H86.054C86.3835 98.2767 86.7129 98.7599 87.0424 99.5945C87.3718 100.407 87.5365 101.615 87.5365 103.218V116.495C87.5365 118.933 88.9751 120.195 91.8522 120.283V98.1449H105.754V120.283C108.676 120.195 110.136 118.933 110.136 116.495V103.218C110.136 101.373 110.334 100.067 110.729 99.298C111.124 98.5293 111.421 98.1449 111.619 98.1449H123.083C122.095 99.5286 121.601 101.615 121.601 104.404V115.704C121.601 121.173 118.471 124.072 112.212 124.401V124.467C115.66 125.038 118.097 125.993 119.525 127.333C120.953 128.673 121.666 130.617 121.666 133.164V145.156C121.666 147.967 122.161 150.086 123.149 151.514H111.684C111.333 151.36 110.993 150.866 110.663 150.032C110.356 149.197 110.202 147.978 110.202 146.375V132.341C110.202 129.903 108.719 128.651 105.754 128.585V151.514H91.8522V128.585ZM166.141 160.705H156.554V151.514H134.152V160.705H124.598V140.379H127.432C128.925 136.008 130.144 130.265 131.088 123.149C132.055 116.011 132.538 108.215 132.538 99.7592V98.1449H163.307V140.313H166.141V160.705ZM149.405 140.313V108.687H145.287V109.082C145.287 119.295 144.189 129.705 141.993 140.313H149.405ZM170.489 98.1779H193.616V108.852H184.359V118.965H193.023V129.112H184.359V140.84H194.538V151.514H170.489V98.1779ZM230.447 98.1779V151.514H216.578V129.112H212.427V151.514H198.557V98.1779H212.427V117.252H216.578V98.1779H230.447ZM267.015 151.514H255.419V127.234L248.204 151.514H236.048V98.1449H247.644V122.227L255.419 98.1449H267.015V151.514ZM272.549 98.1779H295.676V108.852H286.419V118.965H295.083V129.112H286.419V140.84H296.598V151.514H272.549V98.1779ZM314.849 98.1779L312.675 138.336H302.397L300.222 98.1779H314.849ZM313.762 140.84V151.514H301.309V140.84H313.762Z"/>
</mask>
<path d="M41.3821 139.028C41.3821 143.004 40.866 145.859 39.8338 147.594C38.8015 149.329 37.2312 150.416 35.1228 150.855C33.0363 151.294 29.698 151.514 25.1078 151.514H9.06416V98.1449H36.2429V107.402H22.9665V116.429H25.1078C29.3905 116.429 32.63 116.681 34.8263 117.186C37.0225 117.692 38.6588 118.812 39.7349 120.547C40.8331 122.26 41.3821 124.961 41.3821 128.651V139.028ZM27.4798 137.414V129.705C27.4798 127.465 27.2492 126.103 26.788 125.62C26.3487 125.137 25.0749 124.862 22.9665 124.797V142.323C24.7235 142.323 25.9095 142.103 26.5244 141.664C27.1613 141.203 27.4798 139.786 27.4798 137.414ZM73.766 98.1449L69.9774 133.494C69.3844 139.072 68.7475 142.993 68.0667 145.255C67.3858 147.495 66.0681 149.098 64.1134 150.065C62.1587 151.031 58.9412 151.514 54.4609 151.514H46.3567V144.629H47.1803C49.0031 144.629 50.1232 144.486 50.5405 144.2C50.9798 143.893 51.1994 143.432 51.1994 142.817C51.1994 142.773 50.9359 141.268 50.4088 138.304L43.1282 98.1449H55.1856L59.5672 131.352L61.6756 98.1449H73.766ZM91.8522 128.585C88.9311 128.651 87.4706 129.903 87.4706 132.341V146.375C87.4706 148.242 87.262 149.57 86.8447 150.361C86.4494 151.13 86.1639 151.514 85.9882 151.514H74.5237C75.512 150.086 76.0062 147.967 76.0062 145.156V133.164C76.0062 130.617 76.709 128.673 78.1146 127.333C79.5421 125.993 81.98 125.038 85.4281 124.467V124.401C79.1907 124.072 76.072 121.173 76.072 115.704V104.404C76.072 101.615 75.5779 99.5286 74.5896 98.1449H86.054C86.3835 98.2767 86.7129 98.7599 87.0424 99.5945C87.3718 100.407 87.5365 101.615 87.5365 103.218V116.495C87.5365 118.933 88.9751 120.195 91.8522 120.283V98.1449H105.754V120.283C108.676 120.195 110.136 118.933 110.136 116.495V103.218C110.136 101.373 110.334 100.067 110.729 99.298C111.124 98.5293 111.421 98.1449 111.619 98.1449H123.083C122.095 99.5286 121.601 101.615 121.601 104.404V115.704C121.601 121.173 118.471 124.072 112.212 124.401V124.467C115.66 125.038 118.097 125.993 119.525 127.333C120.953 128.673 121.666 130.617 121.666 133.164V145.156C121.666 147.967 122.161 150.086 123.149 151.514H111.684C111.333 151.36 110.993 150.866 110.663 150.032C110.356 149.197 110.202 147.978 110.202 146.375V132.341C110.202 129.903 108.719 128.651 105.754 128.585V151.514H91.8522V128.585ZM166.141 160.705H156.554V151.514H134.152V160.705H124.598V140.379H127.432C128.925 136.008 130.144 130.265 131.088 123.149C132.055 116.011 132.538 108.215 132.538 99.7592V98.1449H163.307V140.313H166.141V160.705ZM149.405 140.313V108.687H145.287V109.082C145.287 119.295 144.189 129.705 141.993 140.313H149.405ZM170.489 98.1779H193.616V108.852H184.359V118.965H193.023V129.112H184.359V140.84H194.538V151.514H170.489V98.1779ZM230.447 98.1779V151.514H216.578V129.112H212.427V151.514H198.557V98.1779H212.427V117.252H216.578V98.1779H230.447ZM267.015 151.514H255.419V127.234L248.204 151.514H236.048V98.1449H247.644V122.227L255.419 98.1449H267.015V151.514ZM272.549 98.1779H295.676V108.852H286.419V118.965H295.083V129.112H286.419V140.84H296.598V151.514H272.549V98.1779ZM314.849 98.1779L312.675 138.336H302.397L300.222 98.1779H314.849ZM313.762 140.84V151.514H301.309V140.84H313.762Z" fill="#FF6917"/>
<path d="M35.1228 150.855L33.3991 142.581L33.3904 142.583L33.3817 142.585L35.1228 150.855ZM9.06416 151.514H0.612766V159.965H9.06416V151.514ZM9.06416 98.1449V89.6935H0.612766V98.1449H9.06416ZM36.2429 98.1449H44.6943V89.6935H36.2429V98.1449ZM36.2429 107.402V115.854H44.6943V107.402H36.2429ZM22.9665 107.402V98.9508H14.5151V107.402H22.9665ZM22.9665 116.429H14.5151V124.88H22.9665V116.429ZM39.7349 120.547L32.5529 125.001L32.586 125.055L32.6199 125.108L39.7349 120.547ZM26.788 125.62L20.5345 131.305L20.6036 131.381L20.6746 131.456L26.788 125.62ZM22.9665 124.797L23.2305 116.349L14.5151 116.077V124.797H22.9665ZM22.9665 142.323H14.5151V150.774H22.9665V142.323ZM26.5244 141.664L31.4367 148.541L31.459 148.525L31.4813 148.509L26.5244 141.664ZM41.3821 139.028H32.9307C32.9307 140.683 32.8208 141.86 32.6784 142.648C32.5282 143.479 32.3971 143.564 32.5706 143.273L39.8338 147.594L47.0969 151.915C49.354 148.121 49.8335 143.31 49.8335 139.028H41.3821ZM39.8338 147.594L32.5706 143.273C32.638 143.159 32.8035 142.947 33.0712 142.762C33.3275 142.584 33.487 142.563 33.3991 142.581L35.1228 150.855L36.8465 159.129C41.0997 158.243 44.7657 155.833 47.0969 151.915L39.8338 147.594ZM35.1228 150.855L33.3817 142.585C32.2125 142.831 29.6227 143.063 25.1078 143.063V151.514V159.965C29.7733 159.965 33.8602 159.758 36.8639 159.125L35.1228 150.855ZM25.1078 151.514V143.063H9.06416V151.514V159.965H25.1078V151.514ZM9.06416 151.514H17.5156V98.1449H9.06416H0.612766V151.514H9.06416ZM9.06416 98.1449V106.596H36.2429V98.1449V89.6935H9.06416V98.1449ZM36.2429 98.1449H27.7915V107.402H36.2429H44.6943V98.1449H36.2429ZM36.2429 107.402V98.9508H22.9665V107.402V115.854H36.2429V107.402ZM22.9665 107.402H14.5151V116.429H22.9665H31.4179V107.402H22.9665ZM22.9665 116.429V124.88H25.1078V116.429V107.977H22.9665V116.429ZM25.1078 116.429V124.88C29.2144 124.88 31.6858 125.136 32.9319 125.423L34.8263 117.186L36.7206 108.95C33.5742 108.226 29.5667 107.977 25.1078 107.977V116.429ZM34.8263 117.186L32.9319 125.423C33.1392 125.471 33.0918 125.492 32.9266 125.379C32.8488 125.326 32.7687 125.259 32.6955 125.182C32.6229 125.105 32.5767 125.04 32.5529 125.001L39.7349 120.547L46.917 116.092C44.524 112.234 40.8627 109.903 36.7206 108.95L34.8263 117.186ZM39.7349 120.547L32.6199 125.108C32.4446 124.834 32.5526 124.873 32.6883 125.541C32.8197 126.188 32.9307 127.195 32.9307 128.651H41.3821H49.8335C49.8335 124.478 49.2783 119.774 46.85 115.986L39.7349 120.547ZM41.3821 128.651H32.9307V139.028H41.3821H49.8335V128.651H41.3821ZM27.4798 137.414H35.9312V129.705H27.4798H19.0284V137.414H27.4798ZM27.4798 129.705H35.9312C35.9312 128.364 35.867 126.936 35.6396 125.593C35.4874 124.694 35.0095 121.993 32.9013 119.785L26.788 125.62L20.6746 131.456C20.1761 130.933 19.8399 130.432 19.6211 130.051C19.401 129.668 19.2619 129.34 19.1774 129.115C19.0914 128.886 19.0417 128.708 19.0152 128.603C18.988 128.495 18.9765 128.429 18.9741 128.415C18.9708 128.395 18.987 128.489 19.0024 128.73C19.0174 128.964 19.0284 129.284 19.0284 129.705H27.4798ZM26.788 125.62L33.0415 119.935C30.9322 117.615 28.2146 116.991 27.2837 116.79C25.9388 116.5 24.5236 116.39 23.2305 116.349L22.9665 124.797L22.7025 133.244C23.5178 133.269 23.7937 133.329 23.7226 133.314C23.6791 133.304 23.3552 133.235 22.8834 133.026C22.4527 132.835 21.4827 132.348 20.5345 131.305L26.788 125.62ZM22.9665 124.797H14.5151V142.323H22.9665H31.4179V124.797H22.9665ZM22.9665 142.323V150.774C24.1501 150.774 25.4398 150.704 26.7126 150.468C27.877 150.252 29.6996 149.782 31.4367 148.541L26.5244 141.664L21.6122 134.787C22.217 134.355 22.7451 134.128 23.0524 134.015C23.3671 133.9 23.5795 133.858 23.6348 133.848C23.7216 133.832 23.5398 133.871 22.9665 133.871V142.323ZM26.5244 141.664L31.4813 148.509C34.3959 146.398 35.2147 143.319 35.4866 142.109C35.841 140.533 35.9312 138.884 35.9312 137.414H27.4798H19.0284C19.0284 138.316 18.9594 138.562 18.9954 138.402C19.0165 138.308 19.1156 137.885 19.4099 137.306C19.7007 136.735 20.3369 135.71 21.5676 134.819L26.5244 141.664ZM73.766 98.1449L82.1693 99.0456L83.1716 89.6935H73.766V98.1449ZM69.9774 133.494L61.5742 132.593L61.5734 132.6L69.9774 133.494ZM68.0667 145.255L76.1529 147.712L76.1562 147.701L76.1595 147.69L68.0667 145.255ZM46.3567 151.514H37.9053V159.965H46.3567V151.514ZM46.3567 144.629V136.177H37.9053V144.629H46.3567ZM50.5405 144.2L55.3129 151.175L55.3501 151.15L55.3871 151.124L50.5405 144.2ZM50.4088 138.304L58.7297 136.824L58.7272 136.81L58.7246 136.796L50.4088 138.304ZM43.1282 98.1449V89.6935H33.0068L34.8123 99.6526L43.1282 98.1449ZM55.1856 98.1449L63.5644 97.0394L62.5951 89.6935H55.1856V98.1449ZM59.5672 131.352L51.1884 132.458L68.0016 131.888L59.5672 131.352ZM61.6756 98.1449V89.6935H53.7438L53.2412 97.6094L61.6756 98.1449ZM73.766 98.1449L65.3627 97.2443L61.5742 132.593L69.9774 133.494L78.3807 134.394L82.1693 99.0456L73.766 98.1449ZM69.9774 133.494L61.5734 132.6C60.9812 138.172 60.4044 141.389 59.9739 142.819L68.0667 145.255L76.1595 147.69C77.0907 144.596 77.7877 139.973 78.3815 134.387L69.9774 133.494ZM68.0667 145.255L59.9805 142.797C59.9494 142.899 59.9299 142.933 59.9384 142.916C59.9479 142.898 59.979 142.844 60.0387 142.771C60.099 142.698 60.1691 142.629 60.2405 142.573C60.3109 142.518 60.3596 142.493 60.3679 142.488L64.1134 150.065L67.8589 157.641C72.0713 155.558 74.8495 152.001 76.1529 147.712L68.0667 145.255ZM64.1134 150.065L60.3679 142.488C60.4595 142.443 60.1047 142.625 58.9792 142.794C57.9077 142.955 56.4254 143.063 54.4609 143.063V151.514V159.965C59.1493 159.965 64.0491 159.524 67.8589 157.641L64.1134 150.065ZM54.4609 151.514V143.063H46.3567V151.514V159.965H54.4609V151.514ZM46.3567 151.514H54.8081V144.629H46.3567H37.9053V151.514H46.3567ZM46.3567 144.629V153.08H47.1803V144.629V136.177H46.3567V144.629ZM47.1803 144.629V153.08C48.2608 153.08 49.3942 153.041 50.456 152.905C51.0912 152.824 53.2892 152.56 55.3129 151.175L50.5405 144.2L45.7682 137.225C46.2909 136.868 46.7549 136.645 47.0699 136.512C47.3928 136.376 47.6571 136.294 47.8278 136.246C48.0031 136.198 48.134 136.171 48.2054 136.157C48.2434 136.15 48.272 136.145 48.29 136.142C48.3081 136.14 48.318 136.138 48.319 136.138C48.3197 136.138 48.2942 136.141 48.2386 136.146C48.1835 136.15 48.1068 136.156 48.0062 136.161C47.8021 136.17 47.5299 136.177 47.1803 136.177V144.629ZM50.5405 144.2L55.3871 151.124C58.4436 148.985 59.6508 145.722 59.6508 142.817H51.1994H42.748C42.748 142.12 42.8746 141.103 43.4043 139.99C43.9541 138.836 44.7786 137.918 45.694 137.277L50.5405 144.2ZM51.1994 142.817H59.6508C59.6508 142.41 59.6198 142.091 59.6151 142.04C59.6046 141.925 59.5938 141.834 59.588 141.786C59.5761 141.688 59.5648 141.61 59.5597 141.575C59.5484 141.497 59.5373 141.428 59.5309 141.388C59.5166 141.299 59.4992 141.196 59.4816 141.092C59.4451 140.878 59.3929 140.577 59.3264 140.197C59.1927 139.434 58.9935 138.308 58.7297 136.824L50.4088 138.304L42.0878 139.783C42.3511 141.264 42.5472 142.372 42.6771 143.114C42.7424 143.487 42.789 143.755 42.8184 143.928C42.8337 144.018 42.841 144.062 42.8432 144.076C42.845 144.087 42.8401 144.057 42.8329 144.008C42.8299 143.987 42.8202 143.92 42.8093 143.831C42.804 143.787 42.7936 143.699 42.7833 143.588C42.7789 143.539 42.748 143.222 42.748 142.817H51.1994ZM50.4088 138.304L58.7246 136.796L51.444 96.6373L43.1282 98.1449L34.8123 99.6526L42.0929 139.811L50.4088 138.304ZM43.1282 98.1449V106.596H55.1856V98.1449V89.6935H43.1282V98.1449ZM55.1856 98.1449L46.8068 99.2505L51.1884 132.458L59.5672 131.352L67.9459 130.247L63.5644 97.0394L55.1856 98.1449ZM59.5672 131.352L68.0016 131.888L70.11 98.6804L61.6756 98.1449L53.2412 97.6094L51.1327 130.817L59.5672 131.352ZM61.6756 98.1449V106.596H73.766V98.1449V89.6935H61.6756V98.1449ZM91.8522 128.585H100.304V119.941L91.6616 120.136L91.8522 128.585ZM86.8447 150.361L79.3704 146.416L79.3495 146.456L79.329 146.496L86.8447 150.361ZM74.5237 151.514L67.575 146.703L58.3936 159.965H74.5237V151.514ZM78.1146 127.333L72.3312 121.171L72.3073 121.193L72.2836 121.216L78.1146 127.333ZM85.4281 124.467L86.8089 132.805L93.8795 131.634V124.467H85.4281ZM85.4281 124.401H93.8795V116.384L85.8739 115.962L85.4281 124.401ZM74.5896 98.1449V89.6935H58.1669L67.7124 103.057L74.5896 98.1449ZM86.054 98.1449L89.1928 90.298L87.6816 89.6935H86.054V98.1449ZM87.0424 99.5945L79.1813 102.698L79.1955 102.734L79.2101 102.77L87.0424 99.5945ZM91.8522 120.283L91.5942 128.731L100.304 128.997V120.283H91.8522ZM91.8522 98.1449V89.6935H83.4008V98.1449H91.8522ZM105.755 98.1449H114.206V89.6935H105.755V98.1449ZM105.755 120.283H97.3031V128.993L106.009 128.731L105.755 120.283ZM123.083 98.1449L129.96 103.057L139.506 89.6935H123.083V98.1449ZM112.212 124.401L111.767 115.961L103.76 116.383V124.401H112.212ZM112.212 124.467H103.76V131.634L110.831 132.805L112.212 124.467ZM123.149 151.514V159.965H139.279L130.098 146.703L123.149 151.514ZM111.684 151.514L108.297 159.257L109.917 159.965H111.684V151.514ZM110.663 150.032L102.733 152.953L102.766 153.044L102.802 153.135L110.663 150.032ZM105.755 128.585L105.942 120.136L97.3031 119.944V128.585H105.755ZM105.755 151.514V159.965H114.206V151.514H105.755ZM91.8522 151.514H83.4008V159.965H91.8522V151.514ZM91.8522 128.585L91.6616 120.136C89.2177 120.191 85.8763 120.748 83.0659 123.157C79.9826 125.8 79.0192 129.366 79.0192 132.341H87.4706H95.922C95.922 132.56 95.8904 133.118 95.6026 133.845C95.2961 134.62 94.7776 135.38 94.0661 135.99C92.7163 137.147 91.5656 137.045 92.0428 137.034L91.8522 128.585ZM87.4706 132.341H79.0192V146.375H87.4706H95.922V132.341H87.4706ZM87.4706 146.375H79.0192C79.0192 146.687 79.0104 146.934 78.9981 147.123C78.9856 147.314 78.9711 147.422 78.9651 147.46C78.9585 147.502 78.967 147.43 79.0133 147.273C79.0373 147.192 79.0746 147.077 79.1301 146.937C79.1855 146.796 79.2633 146.619 79.3704 146.416L86.8447 150.361L94.319 154.306C95.7663 151.564 95.922 148.43 95.922 146.375H87.4706ZM86.8447 150.361L79.329 146.496C79.2032 146.74 79.2809 146.548 79.5498 146.186C79.6713 146.022 80.0631 145.505 80.7301 144.949C81.21 144.55 83.0725 143.063 85.9882 143.063V151.514V159.965C88.9917 159.965 90.9558 158.431 91.551 157.935C92.3332 157.283 92.8541 156.621 93.1184 156.266C93.6728 155.519 94.0909 154.75 94.3604 154.226L86.8447 150.361ZM85.9882 151.514V143.063H74.5237V151.514V159.965H85.9882V151.514ZM74.5237 151.514L81.4724 156.325C83.8756 152.853 84.4576 148.714 84.4576 145.156H76.0062H67.5548C67.5548 146.092 67.47 146.656 67.4049 146.935C67.3405 147.211 67.3317 147.055 67.575 146.703L74.5237 151.514ZM76.0062 145.156H84.4576V133.164H76.0062H67.5548V145.156H76.0062ZM76.0062 133.164H84.4576C84.4576 132.651 84.5302 132.534 84.4811 132.67C84.4548 132.742 84.4007 132.867 84.3036 133.018C84.2053 133.171 84.0835 133.319 83.9455 133.451L78.1146 127.333L72.2836 121.216C68.727 124.605 67.5548 129.06 67.5548 133.164H76.0062ZM78.1146 127.333L83.898 133.496C83.6129 133.763 83.5605 133.691 84.0973 133.481C84.619 133.276 85.4868 133.024 86.8089 132.805L85.4281 124.467L84.0473 116.129C80.079 116.786 75.608 118.095 72.3312 121.171L78.1146 127.333ZM85.4281 124.467H93.8795V124.401H85.4281H76.9767V124.467H85.4281ZM85.4281 124.401L85.8739 115.962C84.9062 115.91 84.3504 115.772 84.0916 115.683C83.8566 115.602 83.9533 115.593 84.1652 115.79C84.3967 116.005 84.5292 116.247 84.5761 116.372C84.6073 116.456 84.5234 116.283 84.5234 115.704H76.0721H67.6207C67.6207 120.08 68.9203 124.696 72.657 128.17C76.2121 131.475 80.7829 132.619 84.9824 132.841L85.4281 124.401ZM76.0721 115.704H84.5234V104.404H76.0721H67.6207V115.704H76.0721ZM76.0721 104.404H84.5234C84.5234 100.882 83.9473 96.7055 81.4668 93.2327L74.5896 98.1449L67.7124 103.057C67.4272 102.658 67.4195 102.45 67.4775 102.695C67.5361 102.943 67.6207 103.481 67.6207 104.404H76.0721ZM74.5896 98.1449V106.596H86.054V98.1449V89.6935H74.5896V98.1449ZM86.054 98.1449L82.9153 105.992C81.8029 105.547 81.0194 104.941 80.5346 104.488C80.0488 104.035 79.7369 103.619 79.5654 103.367C79.2422 102.893 79.1385 102.589 79.1813 102.698L87.0424 99.5945L94.9035 96.4914C94.6167 95.765 94.1836 94.8024 93.531 93.8452C92.9743 93.0287 91.6316 91.2735 89.1928 90.298L86.054 98.1449ZM87.0424 99.5945L79.2101 102.77C79.1134 102.531 79.0673 102.36 79.0491 102.286C79.0304 102.209 79.0311 102.193 79.0391 102.252C79.0469 102.309 79.0589 102.417 79.0687 102.584C79.0784 102.75 79.0851 102.96 79.0851 103.218H87.5365H95.9879C95.9879 101.277 95.8229 98.7584 94.8746 96.4192L87.0424 99.5945ZM87.5365 103.218H79.0851V116.495H87.5365H95.9879V103.218H87.5365ZM87.5365 116.495H79.0851C79.0851 119.433 80.0174 122.968 83.0399 125.622C85.8181 128.06 89.1432 128.656 91.5942 128.731L91.8522 120.283L92.1101 111.836C91.6841 111.823 92.8513 111.743 94.191 112.919C95.7749 114.309 95.9879 115.995 95.9879 116.495H87.5365ZM91.8522 120.283H100.304V98.1449H91.8522H83.4008V120.283H91.8522ZM91.8522 98.1449V106.596H105.755V98.1449V89.6935H91.8522V98.1449ZM105.755 98.1449H97.3031V120.283H105.755H114.206V98.1449H105.755ZM105.755 120.283L106.009 128.731C108.457 128.657 111.78 128.074 114.568 125.663C117.623 123.022 118.587 119.473 118.587 116.495H110.136H101.685C101.685 116.274 101.717 115.721 102.001 115C102.303 114.234 102.814 113.482 103.513 112.877C104.84 111.729 105.973 111.821 105.5 111.836L105.755 120.283ZM110.136 116.495H118.587V103.218H110.136H101.685V116.495H110.136ZM110.136 103.218H118.587C118.587 102.905 118.596 102.656 118.608 102.465C118.62 102.271 118.634 102.16 118.641 102.119C118.648 102.073 118.64 102.142 118.596 102.297C118.573 102.378 118.537 102.492 118.482 102.634C118.428 102.775 118.352 102.956 118.245 103.163L110.729 99.298L103.213 95.4327C101.824 98.1344 101.685 101.223 101.685 103.218H110.136ZM110.729 99.298L118.245 103.163C118.359 102.941 118.257 103.184 117.94 103.595C117.789 103.79 117.361 104.328 116.64 104.888C116.027 105.365 114.265 106.596 111.619 106.596V98.1449V89.6935C108.873 89.6935 107 90.9729 106.263 91.5459C105.419 92.2021 104.855 92.8838 104.556 93.271C103.942 94.0669 103.495 94.886 103.213 95.4327L110.729 99.298ZM111.619 98.1449V106.596H123.083V98.1449V89.6935H111.619V98.1449ZM123.083 98.1449L116.206 93.2327C113.725 96.7055 113.149 100.882 113.149 104.404H121.601H130.052C130.052 103.481 130.136 102.943 130.195 102.695C130.253 102.45 130.245 102.658 129.96 103.057L123.083 98.1449ZM121.601 104.404H113.149V115.704H121.601H130.052V104.404H121.601ZM121.601 115.704H113.149C113.149 116.28 113.065 116.45 113.098 116.363C113.146 116.234 113.28 115.993 113.51 115.78C113.72 115.585 113.813 115.597 113.571 115.68C113.306 115.771 112.743 115.91 111.767 115.961L112.212 124.401L112.656 132.841C116.86 132.62 121.436 131.479 124.997 128.18C128.744 124.708 130.052 120.089 130.052 115.704H121.601ZM112.212 124.401H103.76V124.467H112.212H120.663V124.401H112.212ZM112.212 124.467L110.831 132.805C112.153 133.024 113.021 133.276 113.542 133.481C114.079 133.691 114.027 133.763 113.742 133.496L119.525 127.333L125.308 121.171C122.032 118.095 117.561 116.786 113.592 116.129L112.212 124.467ZM119.525 127.333L113.742 133.496C113.606 133.369 113.483 133.222 113.383 133.068C113.283 132.915 113.227 132.788 113.198 132.709C113.143 132.561 113.215 132.663 113.215 133.164H121.666H130.118C130.118 129.022 128.912 124.552 125.308 121.171L119.525 127.333ZM121.666 133.164H113.215V145.156H121.666H130.118V133.164H121.666ZM121.666 145.156H113.215C113.215 148.714 113.797 152.853 116.2 156.325L123.149 151.514L130.098 146.703C130.341 147.055 130.332 147.211 130.268 146.935C130.203 146.656 130.118 146.092 130.118 145.156H121.666ZM123.149 151.514V143.063H111.684V151.514V159.965H123.149V151.514ZM111.684 151.514L115.072 143.771C116.936 144.587 117.864 145.855 118.125 146.234C118.45 146.705 118.557 147.012 118.524 146.928L110.663 150.032L102.802 153.135C103.098 153.885 103.541 154.857 104.206 155.823C104.807 156.696 106.081 158.287 108.297 159.257L111.684 151.514ZM110.663 150.032L118.593 147.11C118.666 147.307 118.698 147.439 118.707 147.482C118.717 147.526 118.712 147.515 118.702 147.434C118.681 147.262 118.653 146.923 118.653 146.375H110.202H101.751C101.751 148.308 101.908 150.714 102.733 152.953L110.663 150.032ZM110.202 146.375H118.653V132.341H110.202H101.751V146.375H110.202ZM110.202 132.341H118.653C118.653 129.325 117.657 125.746 114.543 123.116C111.724 120.736 108.384 120.19 105.942 120.136L105.755 128.585L105.567 137.034C106.09 137.046 104.974 137.159 103.637 136.031C102.927 135.43 102.398 134.672 102.082 133.886C101.785 133.146 101.751 132.574 101.751 132.341H110.202ZM105.755 128.585H97.3031V151.514H105.755H114.206V128.585H105.755ZM105.755 151.514V143.063H91.8522V151.514V159.965H105.755V151.514ZM91.8522 151.514H100.304V128.585H91.8522H83.4008V151.514H91.8522ZM166.141 160.705V169.157H174.592V160.705H166.141ZM156.554 160.705H148.103V169.157H156.554V160.705ZM156.554 151.514H165.005V143.063H156.554V151.514ZM134.152 151.514V143.063H125.701V151.514H134.152ZM134.152 160.705V169.157H142.604V160.705H134.152ZM124.598 160.705H116.147V169.157H124.598V160.705ZM124.598 140.379V131.928H116.147V140.379H124.598ZM127.432 140.379V148.83H133.475L135.429 143.112L127.432 140.379ZM131.088 123.149L122.713 122.015L122.712 122.026L122.71 122.037L131.088 123.149ZM132.538 98.1449V89.6935H124.086V98.1449H132.538ZM163.307 98.1449H171.759V89.6935H163.307V98.1449ZM163.307 140.313H154.856V148.765H163.307V140.313ZM166.141 140.313H174.592V131.862H166.141V140.313ZM149.405 140.313V148.765H157.857V140.313H149.405ZM149.405 108.687H157.857V100.236H149.405V108.687ZM145.287 108.687V100.236H136.836V108.687H145.287ZM141.993 140.313L133.717 138.6L131.612 148.765H141.993V140.313ZM166.141 160.705V152.254H156.554V160.705V169.157H166.141V160.705ZM156.554 160.705H165.005V151.514H156.554H148.103V160.705H156.554ZM156.554 151.514V143.063H134.152V151.514V159.965H156.554V151.514ZM134.152 151.514H125.701V160.705H134.152H142.604V151.514H134.152ZM134.152 160.705V152.254H124.598V160.705V169.157H134.152V160.705ZM124.598 160.705H133.05V140.379H124.598H116.147V160.705H124.598ZM124.598 140.379V148.83H127.432V140.379V131.928H124.598V140.379ZM127.432 140.379L135.429 143.112C137.172 138.01 138.484 131.661 139.466 124.261L131.088 123.149L122.71 122.037C121.804 128.869 120.678 134.007 119.434 137.646L127.432 140.379ZM131.088 123.149L139.463 124.283C140.488 116.712 140.989 108.531 140.989 99.7592H132.538H124.086C124.086 107.899 123.621 115.311 122.713 122.015L131.088 123.149ZM132.538 99.7592H140.989V98.1449H132.538H124.086V99.7592H132.538ZM132.538 98.1449V106.596H163.307V98.1449V89.6935H132.538V98.1449ZM163.307 98.1449H154.856V140.313H163.307H171.759V98.1449H163.307ZM163.307 140.313V148.765H166.141V140.313V131.862H163.307V140.313ZM166.141 140.313H157.689V160.705H166.141H174.592V140.313H166.141ZM149.405 140.313H157.857V108.687H149.405H140.954V140.313H149.405ZM149.405 108.687V100.236H145.287V108.687V117.138H149.405V108.687ZM145.287 108.687H136.836V109.082H145.287H153.739V108.687H145.287ZM145.287 109.082H136.836C136.836 118.686 135.803 128.521 133.717 138.6L141.993 140.313L150.269 142.027C152.575 130.889 153.739 119.904 153.739 109.082H145.287ZM141.993 140.313V148.765H149.405V140.313V131.862H141.993V140.313ZM170.489 98.1779V89.7265H162.038V98.1779H170.489ZM193.616 98.1779H202.067V89.7265H193.616V98.1779ZM193.616 108.852V117.303H202.067V108.852H193.616ZM184.359 108.852V100.4H175.907V108.852H184.359ZM184.359 118.965H175.907V127.417H184.359V118.965ZM193.023 118.965H201.474V110.514H193.023V118.965ZM193.023 129.112V137.564H201.474V129.112H193.023ZM184.359 129.112V120.661H175.907V129.112H184.359ZM184.359 140.84H175.907V149.292H184.359V140.84ZM194.538 140.84H202.99V132.389H194.538V140.84ZM194.538 151.514V159.965H202.99V151.514H194.538ZM170.489 151.514H162.038V159.965H170.489V151.514ZM170.489 98.1779V106.629H193.616V98.1779V89.7265H170.489V98.1779ZM193.616 98.1779H185.164V108.852H193.616H202.067V98.1779H193.616ZM193.616 108.852V100.4H184.359V108.852V117.303H193.616V108.852ZM184.359 108.852H175.907V118.965H184.359H192.81V108.852H184.359ZM184.359 118.965V127.417H193.023V118.965V110.514H184.359V118.965ZM193.023 118.965H184.571V129.112H193.023H201.474V118.965H193.023ZM193.023 129.112V120.661H184.359V129.112V137.564H193.023V129.112ZM184.359 129.112H175.907V140.84H184.359H192.81V129.112H184.359ZM184.359 140.84V149.292H194.538V140.84V132.389H184.359V140.84ZM194.538 140.84H186.087V151.514H194.538H202.99V140.84H194.538ZM194.538 151.514V143.063H170.489V151.514V159.965H194.538V151.514ZM170.489 151.514H178.941V98.1779H170.489H162.038V151.514H170.489ZM230.447 98.1779H238.899V89.7265H230.447V98.1779ZM230.447 151.514V159.965H238.899V151.514H230.447ZM216.578 151.514H208.126V159.965H216.578V151.514ZM216.578 129.112H225.029V120.661H216.578V129.112ZM212.427 129.112V120.661H203.975V129.112H212.427ZM212.427 151.514V159.965H220.878V151.514H212.427ZM198.557 151.514H190.106V159.965H198.557V151.514ZM198.557 98.1779V89.7265H190.106V98.1779H198.557ZM212.427 98.1779H220.878V89.7265H212.427V98.1779ZM212.427 117.252H203.975V125.704H212.427V117.252ZM216.578 117.252V125.704H225.029V117.252H216.578ZM216.578 98.1779V89.7265H208.126V98.1779H216.578ZM230.447 98.1779H221.996V151.514H230.447H238.899V98.1779H230.447ZM230.447 151.514V143.063H216.578V151.514V159.965H230.447V151.514ZM216.578 151.514H225.029V129.112H216.578H208.126V151.514H216.578ZM216.578 129.112V120.661H212.427V129.112V137.564H216.578V129.112ZM212.427 129.112H203.975V151.514H212.427H220.878V129.112H212.427ZM212.427 151.514V143.063H198.557V151.514V159.965H212.427V151.514ZM198.557 151.514H207.009V98.1779H198.557H190.106V151.514H198.557ZM198.557 98.1779V106.629H212.427V98.1779V89.7265H198.557V98.1779ZM212.427 98.1779H203.975V117.252H212.427H220.878V98.1779H212.427ZM212.427 117.252V125.704H216.578V117.252V108.801H212.427V117.252ZM216.578 117.252H225.029V98.1779H216.578H208.126V117.252H216.578ZM216.578 98.1779V106.629H230.447V98.1779V89.7265H216.578V98.1779ZM267.015 151.514V159.965H275.466V151.514H267.015ZM255.419 151.514H246.967V159.965H255.419V151.514ZM255.419 127.234H263.87L247.317 124.827L255.419 127.234ZM248.204 151.514V159.965H254.509L256.305 153.921L248.204 151.514ZM236.048 151.514H227.596V159.965H236.048V151.514ZM236.048 98.1449V89.6935H227.596V98.1449H236.048ZM247.644 98.1449H256.095V89.6935H247.644V98.1449ZM247.644 122.227H239.192L255.687 124.823L247.644 122.227ZM255.419 98.1449V89.6935H249.266L247.376 95.5484L255.419 98.1449ZM267.015 98.1449H275.466V89.6935H267.015V98.1449ZM267.015 151.514V143.063H255.419V151.514V159.965H267.015V151.514ZM255.419 151.514H263.87V127.234H255.419H246.967V151.514H255.419ZM255.419 127.234L247.317 124.827L240.103 149.107L248.204 151.514L256.305 153.921L263.52 129.642L255.419 127.234ZM248.204 151.514V143.063H236.048V151.514V159.965H248.204V151.514ZM236.048 151.514H244.499V98.1449H236.048H227.596V151.514H236.048ZM236.048 98.1449V106.596H247.644V98.1449V89.6935H236.048V98.1449ZM247.644 98.1449H239.192V122.227H247.644H256.095V98.1449H247.644ZM247.644 122.227L255.687 124.823L263.461 100.741L255.419 98.1449L247.376 95.5484L239.601 119.63L247.644 122.227ZM255.419 98.1449V106.596H267.015V98.1449V89.6935H255.419V98.1449ZM267.015 98.1449H258.563V151.514H267.015H275.466V98.1449H267.015ZM272.549 98.1779V89.7265H264.098V98.1779H272.549ZM295.676 98.1779H304.127V89.7265H295.676V98.1779ZM295.676 108.852V117.303H304.127V108.852H295.676ZM286.419 108.852V100.4H277.967V108.852H286.419ZM286.419 118.965H277.967V127.417H286.419V118.965ZM295.083 118.965H303.534V110.514H295.083V118.965ZM295.083 129.112V137.564H303.534V129.112H295.083ZM286.419 129.112V120.661H277.967V129.112H286.419ZM286.419 140.84H277.967V149.292H286.419V140.84ZM296.599 140.84H305.05V132.389H296.599V140.84ZM296.599 151.514V159.965H305.05V151.514H296.599ZM272.549 151.514H264.098V159.965H272.549V151.514ZM272.549 98.1779V106.629H295.676V98.1779V89.7265H272.549V98.1779ZM295.676 98.1779H287.225V108.852H295.676H304.127V98.1779H295.676ZM295.676 108.852V100.4H286.419V108.852V117.303H295.676V108.852ZM286.419 108.852H277.967V118.965H286.419H294.87V108.852H286.419ZM286.419 118.965V127.417H295.083V118.965V110.514H286.419V118.965ZM295.083 118.965H286.632V129.112H295.083H303.534V118.965H295.083ZM295.083 129.112V120.661H286.419V129.112V137.564H295.083V129.112ZM286.419 129.112H277.967V140.84H286.419H294.87V129.112H286.419ZM286.419 140.84V149.292H296.599V140.84V132.389H286.419V140.84ZM296.599 140.84H288.147V151.514H296.599H305.05V140.84H296.599ZM296.599 151.514V143.063H272.549V151.514V159.965H296.599V151.514ZM272.549 151.514H281.001V98.1779H272.549H264.098V151.514H272.549ZM314.849 98.1779L323.288 98.6348L323.771 89.7265H314.849V98.1779ZM312.675 138.336V146.788H320.681L321.114 138.793L312.675 138.336ZM302.397 138.336L293.958 138.793L294.39 146.788H302.397V138.336ZM300.222 98.1779V89.7265H291.301L291.783 98.6348L300.222 98.1779ZM313.762 140.84H322.214V132.389H313.762V140.84ZM313.762 151.514V159.965H322.214V151.514H313.762ZM301.309 151.514H292.858V159.965H301.309V151.514ZM301.309 140.84V132.389H292.858V140.84H301.309ZM314.849 98.1779L306.41 97.721L304.236 137.88L312.675 138.336L321.114 138.793L323.288 98.6348L314.849 98.1779ZM312.675 138.336V129.885H302.397V138.336V146.788H312.675V138.336ZM302.397 138.336L310.836 137.88L308.661 97.721L300.222 98.1779L291.783 98.6348L293.958 138.793L302.397 138.336ZM300.222 98.1779V106.629H314.849V98.1779V89.7265H300.222V98.1779ZM313.762 140.84H305.311V151.514H313.762H322.214V140.84H313.762ZM313.762 151.514V143.063H301.309V151.514V159.965H313.762V151.514ZM301.309 151.514H309.761V140.84H301.309H292.858V151.514H301.309ZM301.309 140.84V149.292H313.762V140.84V132.389H301.309V140.84Z" fill="#373737" mask="url(#path-722-outside-2_40_1501)"/>
<path d="M255.97 53.1055L256.005 53.2773L256.111 53.1377L277.267 25.6201L273.13 60.6982L273.108 60.8799L273.257 60.7725L313.708 31.4688L290.141 74.543L290.062 74.6875L290.225 74.6602L318.355 69.9707L296.836 90.46H193.528L172.32 69.8076L200.06 74.1797L200.219 74.2041L200.143 74.0625L183.462 42.8662L183.461 42.8643L176.039 30.1309L217.105 60.7715L217.255 60.8828L217.233 60.6982L212.938 23.6309L235.133 54.1787L235.242 54.3301L235.276 54.1465L245.146 0.418945L255.97 53.1055Z" fill="#B0CA27" stroke="#373737" stroke-width="0.16039"/>
<path d="M274.372 62.9446L289.027 76.9592L298.397 90.4602H193.028L216.477 62.9436L244.421 55.176L274.372 62.9446Z" fill="#FF6917" stroke="#373737" stroke-width="0.16039"/>
<path d="M264.119 71.4491L298.243 90.4598H193.15L225.606 71.4471L243.939 66.9647L264.119 71.4491Z" fill="white" stroke="#373737" stroke-width="0.16039"/>
<path d="M255.209 70.2439L263.593 77.3494L265.659 90.4597H224.304L225.411 82.3064L232.283 70.24L243.459 67.5261L255.209 70.2439Z" fill="#FF6917" stroke="#373737" stroke-width="0.16039"/>
<path d="M115.152 361.404H113.182V363.481H115.152V361.404Z" fill="white"/>
<defs>
<clipPath id="clip0_40_1501">
<rect width="321.484" height="321.484" fill="white" transform="translate(0.662109 155.434)"/>
</clipPath>
</defs>
</svg>
