<svg width="1280" height="167" viewBox="0 0 1280 167" fill="none" xmlns="http://www.w3.org/2000/svg">
<path d="M147.408 166.263H-5V0H168.19L201.097 15.5871H235.735L268.641 8.65952H410.657L459.15 15.5871L587.311 8.65952L618.485 25.9786H656.587L712.008 8.65952L727.595 15.5871H777.82H886.93L907.713 8.65952H961.402L975.257 0H1030.68L1060.12 15.5871H1136.32L1153.64 25.9786H1271.41L1287 15.5871V166.263H1136.32L1096.49 150.676H961.402L925.032 166.263H727.595L673.906 150.676H538.818H459.15L447.027 140.284H386.41L360.432 150.676H223.611L147.408 166.263Z" fill="white"/>
<path d="M57.832 102V66.72H74.344V71.328H63.16V80.304H67.192C68.088 80.304 68.984 80.4 69.88 80.592C70.776 80.784 71.608 81.136 72.376 81.648C73.144 82.128 73.8 82.736 74.344 83.472C74.92 84.208 75.368 84.992 75.688 85.824C76.008 86.656 76.232 87.536 76.36 88.464C76.488 89.36 76.552 90.256 76.552 91.152C76.552 92.048 76.488 92.96 76.36 93.888C76.232 94.784 76.008 95.648 75.688 96.48C75.368 97.312 74.92 98.096 74.344 98.832C73.8 99.568 73.144 100.176 72.376 100.656C71.608 101.136 70.776 101.488 69.88 101.712C68.984 101.904 68.088 102 67.192 102H57.832ZM63.16 97.392H67.192C67.64 97.392 68.088 97.312 68.536 97.152C68.984 96.96 69.368 96.704 69.688 96.384C70.008 96.032 70.264 95.648 70.456 95.232C70.648 94.784 70.792 94.336 70.888 93.888C71.016 93.44 71.096 92.992 71.128 92.544C71.192 92.064 71.224 91.6 71.224 91.152C71.224 90.672 71.192 90.208 71.128 89.76C71.096 89.28 71.016 88.816 70.888 88.368C70.792 87.92 70.648 87.488 70.456 87.072C70.264 86.656 70.008 86.288 69.688 85.968C69.368 85.616 68.984 85.36 68.536 85.2C68.088 85.008 67.64 84.912 67.192 84.912H63.16V97.392ZM81.832 102V66.72H87.16V80.832C87.16 81.76 87.144 82.704 87.112 83.664C87.112 84.592 87.08 85.536 87.016 86.496C86.952 87.424 86.856 88.352 86.728 89.28C86.632 90.208 86.536 91.136 86.44 92.064L94.648 66.72H100.168V102H94.84V87.888C94.84 86.96 94.84 86.032 94.84 85.104C94.872 84.144 94.92 83.2 94.984 82.272C95.048 81.312 95.128 80.368 95.224 79.44C95.352 78.512 95.464 77.584 95.56 76.656L87.352 102H81.832ZM103.72 102V97.392C104.104 97.392 104.472 97.312 104.824 97.152C105.208 96.992 105.512 96.768 105.736 96.48C105.992 96.16 106.184 95.808 106.312 95.424C106.44 95.04 106.552 94.656 106.648 94.272C106.744 93.888 106.824 93.504 106.888 93.12C106.952 92.736 107 92.352 107.032 91.968C107.096 91.552 107.128 91.152 107.128 90.768C107.16 90.384 107.176 90 107.176 89.616C107.208 89.2 107.224 88.8 107.224 88.416C107.224 88.032 107.224 87.632 107.224 87.216V66.72H124.168V102H118.84V71.328H112.552V87.12C112.552 87.952 112.536 88.784 112.504 89.616C112.504 90.448 112.472 91.28 112.408 92.112C112.344 92.944 112.232 93.776 112.072 94.608C111.912 95.408 111.688 96.208 111.4 97.008C111.112 97.776 110.728 98.512 110.248 99.216C109.8 99.888 109.208 100.448 108.472 100.896C107.768 101.312 107 101.6 106.168 101.76C105.368 101.92 104.552 102 103.72 102ZM130.216 102V66.72H148.168V71.328H135.544V81.36H145.432V85.968H135.544V97.392H148.168V102H130.216ZM160.312 102V71.328H153.544V66.72H172.456V71.328H165.688V102H160.312ZM192.328 102V66.72H196.984V102H192.328ZM177.016 102V66.72H181.672V80.592H182.536C183.368 80.592 184.184 80.72 184.984 80.976C185.816 81.2 186.552 81.584 187.192 82.128C187.832 82.672 188.36 83.312 188.776 84.048C189.224 84.784 189.576 85.552 189.832 86.352C190.088 87.152 190.248 87.968 190.312 88.8C190.408 89.632 190.456 90.464 190.456 91.296C190.456 92.128 190.408 92.96 190.312 93.792C190.248 94.624 190.088 95.44 189.832 96.24C189.576 97.04 189.224 97.808 188.776 98.544C188.36 99.28 187.832 99.92 187.192 100.464C186.552 101.008 185.816 101.408 184.984 101.664C184.184 101.888 183.368 102 182.536 102H177.016ZM182.536 97.968C183.016 97.968 183.448 97.84 183.832 97.584C184.216 97.328 184.52 97.008 184.744 96.624C184.968 96.208 185.144 95.792 185.272 95.376C185.432 94.928 185.544 94.48 185.608 94.032C185.672 93.584 185.72 93.136 185.752 92.688C185.784 92.208 185.8 91.744 185.8 91.296C185.8 90.848 185.784 90.4 185.752 89.952C185.72 89.472 185.672 89.008 185.608 88.56C185.544 88.112 185.432 87.68 185.272 87.264C185.144 86.816 184.968 86.4 184.744 86.016C184.52 85.6 184.216 85.264 183.832 85.008C183.448 84.752 183.016 84.624 182.536 84.624H181.672V97.968H182.536Z" fill="#000100"/>
<path d="M265.832 102V66.72H282.344V71.328H271.16V80.304H275.192C276.088 80.304 276.984 80.4 277.88 80.592C278.776 80.784 279.608 81.136 280.376 81.648C281.144 82.128 281.8 82.736 282.344 83.472C282.92 84.208 283.368 84.992 283.688 85.824C284.008 86.656 284.232 87.536 284.36 88.464C284.488 89.36 284.552 90.256 284.552 91.152C284.552 92.048 284.488 92.96 284.36 93.888C284.232 94.784 284.008 95.648 283.688 96.48C283.368 97.312 282.92 98.096 282.344 98.832C281.8 99.568 281.144 100.176 280.376 100.656C279.608 101.136 278.776 101.488 277.88 101.712C276.984 101.904 276.088 102 275.192 102H265.832ZM271.16 97.392H275.192C275.64 97.392 276.088 97.312 276.536 97.152C276.984 96.96 277.368 96.704 277.688 96.384C278.008 96.032 278.264 95.648 278.456 95.232C278.648 94.784 278.792 94.336 278.888 93.888C279.016 93.44 279.096 92.992 279.128 92.544C279.192 92.064 279.224 91.6 279.224 91.152C279.224 90.672 279.192 90.208 279.128 89.76C279.096 89.28 279.016 88.816 278.888 88.368C278.792 87.92 278.648 87.488 278.456 87.072C278.264 86.656 278.008 86.288 277.688 85.968C277.368 85.616 276.984 85.36 276.536 85.2C276.088 85.008 275.64 84.912 275.192 84.912H271.16V97.392ZM289.832 102V66.72H295.16V80.832C295.16 81.76 295.144 82.704 295.112 83.664C295.112 84.592 295.08 85.536 295.016 86.496C294.952 87.424 294.856 88.352 294.728 89.28C294.632 90.208 294.536 91.136 294.44 92.064L302.648 66.72H308.168V102H302.84V87.888C302.84 86.96 302.84 86.032 302.84 85.104C302.872 84.144 302.92 83.2 302.984 82.272C303.048 81.312 303.128 80.368 303.224 79.44C303.352 78.512 303.464 77.584 303.56 76.656L295.352 102H289.832ZM311.72 102V97.392C312.104 97.392 312.472 97.312 312.824 97.152C313.208 96.992 313.512 96.768 313.736 96.48C313.992 96.16 314.184 95.808 314.312 95.424C314.44 95.04 314.552 94.656 314.648 94.272C314.744 93.888 314.824 93.504 314.888 93.12C314.952 92.736 315 92.352 315.032 91.968C315.096 91.552 315.128 91.152 315.128 90.768C315.16 90.384 315.176 90 315.176 89.616C315.208 89.2 315.224 88.8 315.224 88.416C315.224 88.032 315.224 87.632 315.224 87.216V66.72H332.168V102H326.84V71.328H320.552V87.12C320.552 87.952 320.536 88.784 320.504 89.616C320.504 90.448 320.472 91.28 320.408 92.112C320.344 92.944 320.232 93.776 320.072 94.608C319.912 95.408 319.688 96.208 319.4 97.008C319.112 97.776 318.728 98.512 318.248 99.216C317.8 99.888 317.208 100.448 316.472 100.896C315.768 101.312 315 101.6 314.168 101.76C313.368 101.92 312.552 102 311.72 102ZM338.216 102V66.72H356.168V71.328H343.544V81.36H353.432V85.968H343.544V97.392H356.168V102H338.216ZM368.312 102V71.328H361.544V66.72H380.456V71.328H373.688V102H368.312ZM400.328 102V66.72H404.984V102H400.328ZM385.016 102V66.72H389.672V80.592H390.536C391.368 80.592 392.184 80.72 392.984 80.976C393.816 81.2 394.552 81.584 395.192 82.128C395.832 82.672 396.36 83.312 396.776 84.048C397.224 84.784 397.576 85.552 397.832 86.352C398.088 87.152 398.248 87.968 398.312 88.8C398.408 89.632 398.456 90.464 398.456 91.296C398.456 92.128 398.408 92.96 398.312 93.792C398.248 94.624 398.088 95.44 397.832 96.24C397.576 97.04 397.224 97.808 396.776 98.544C396.36 99.28 395.832 99.92 395.192 100.464C394.552 101.008 393.816 101.408 392.984 101.664C392.184 101.888 391.368 102 390.536 102H385.016ZM390.536 97.968C391.016 97.968 391.448 97.84 391.832 97.584C392.216 97.328 392.52 97.008 392.744 96.624C392.968 96.208 393.144 95.792 393.272 95.376C393.432 94.928 393.544 94.48 393.608 94.032C393.672 93.584 393.72 93.136 393.752 92.688C393.784 92.208 393.8 91.744 393.8 91.296C393.8 90.848 393.784 90.4 393.752 89.952C393.72 89.472 393.672 89.008 393.608 88.56C393.544 88.112 393.432 87.68 393.272 87.264C393.144 86.816 392.968 86.4 392.744 86.016C392.52 85.6 392.216 85.264 391.832 85.008C391.448 84.752 391.016 84.624 390.536 84.624H389.672V97.968H390.536Z" fill="#000100"/>
<path d="M473.832 102V66.72H490.344V71.328H479.16V80.304H483.192C484.088 80.304 484.984 80.4 485.88 80.592C486.776 80.784 487.608 81.136 488.376 81.648C489.144 82.128 489.8 82.736 490.344 83.472C490.92 84.208 491.368 84.992 491.688 85.824C492.008 86.656 492.232 87.536 492.36 88.464C492.488 89.36 492.552 90.256 492.552 91.152C492.552 92.048 492.488 92.96 492.36 93.888C492.232 94.784 492.008 95.648 491.688 96.48C491.368 97.312 490.92 98.096 490.344 98.832C489.8 99.568 489.144 100.176 488.376 100.656C487.608 101.136 486.776 101.488 485.88 101.712C484.984 101.904 484.088 102 483.192 102H473.832ZM479.16 97.392H483.192C483.64 97.392 484.088 97.312 484.536 97.152C484.984 96.96 485.368 96.704 485.688 96.384C486.008 96.032 486.264 95.648 486.456 95.232C486.648 94.784 486.792 94.336 486.888 93.888C487.016 93.44 487.096 92.992 487.128 92.544C487.192 92.064 487.224 91.6 487.224 91.152C487.224 90.672 487.192 90.208 487.128 89.76C487.096 89.28 487.016 88.816 486.888 88.368C486.792 87.92 486.648 87.488 486.456 87.072C486.264 86.656 486.008 86.288 485.688 85.968C485.368 85.616 484.984 85.36 484.536 85.2C484.088 85.008 483.64 84.912 483.192 84.912H479.16V97.392ZM497.832 102V66.72H503.16V80.832C503.16 81.76 503.144 82.704 503.112 83.664C503.112 84.592 503.08 85.536 503.016 86.496C502.952 87.424 502.856 88.352 502.728 89.28C502.632 90.208 502.536 91.136 502.44 92.064L510.648 66.72H516.168V102H510.84V87.888C510.84 86.96 510.84 86.032 510.84 85.104C510.872 84.144 510.92 83.2 510.984 82.272C511.048 81.312 511.128 80.368 511.224 79.44C511.352 78.512 511.464 77.584 511.56 76.656L503.352 102H497.832ZM519.72 102V97.392C520.104 97.392 520.472 97.312 520.824 97.152C521.208 96.992 521.512 96.768 521.736 96.48C521.992 96.16 522.184 95.808 522.312 95.424C522.44 95.04 522.552 94.656 522.648 94.272C522.744 93.888 522.824 93.504 522.888 93.12C522.952 92.736 523 92.352 523.032 91.968C523.096 91.552 523.128 91.152 523.128 90.768C523.16 90.384 523.176 90 523.176 89.616C523.208 89.2 523.224 88.8 523.224 88.416C523.224 88.032 523.224 87.632 523.224 87.216V66.72H540.168V102H534.84V71.328H528.552V87.12C528.552 87.952 528.536 88.784 528.504 89.616C528.504 90.448 528.472 91.28 528.408 92.112C528.344 92.944 528.232 93.776 528.072 94.608C527.912 95.408 527.688 96.208 527.4 97.008C527.112 97.776 526.728 98.512 526.248 99.216C525.8 99.888 525.208 100.448 524.472 100.896C523.768 101.312 523 101.6 522.168 101.76C521.368 101.92 520.552 102 519.72 102ZM546.216 102V66.72H564.168V71.328H551.544V81.36H561.432V85.968H551.544V97.392H564.168V102H546.216ZM576.312 102V71.328H569.544V66.72H588.456V71.328H581.688V102H576.312ZM608.328 102V66.72H612.984V102H608.328ZM593.016 102V66.72H597.672V80.592H598.536C599.368 80.592 600.184 80.72 600.984 80.976C601.816 81.2 602.552 81.584 603.192 82.128C603.832 82.672 604.36 83.312 604.776 84.048C605.224 84.784 605.576 85.552 605.832 86.352C606.088 87.152 606.248 87.968 606.312 88.8C606.408 89.632 606.456 90.464 606.456 91.296C606.456 92.128 606.408 92.96 606.312 93.792C606.248 94.624 606.088 95.44 605.832 96.24C605.576 97.04 605.224 97.808 604.776 98.544C604.36 99.28 603.832 99.92 603.192 100.464C602.552 101.008 601.816 101.408 600.984 101.664C600.184 101.888 599.368 102 598.536 102H593.016ZM598.536 97.968C599.016 97.968 599.448 97.84 599.832 97.584C600.216 97.328 600.52 97.008 600.744 96.624C600.968 96.208 601.144 95.792 601.272 95.376C601.432 94.928 601.544 94.48 601.608 94.032C601.672 93.584 601.72 93.136 601.752 92.688C601.784 92.208 601.8 91.744 601.8 91.296C601.8 90.848 601.784 90.4 601.752 89.952C601.72 89.472 601.672 89.008 601.608 88.56C601.544 88.112 601.432 87.68 601.272 87.264C601.144 86.816 600.968 86.4 600.744 86.016C600.52 85.6 600.216 85.264 599.832 85.008C599.448 84.752 599.016 84.624 598.536 84.624H597.672V97.968H598.536Z" fill="#000100"/>
<path d="M681.832 102V66.72H698.344V71.328H687.16V80.304H691.192C692.088 80.304 692.984 80.4 693.88 80.592C694.776 80.784 695.608 81.136 696.376 81.648C697.144 82.128 697.8 82.736 698.344 83.472C698.92 84.208 699.368 84.992 699.688 85.824C700.008 86.656 700.232 87.536 700.36 88.464C700.488 89.36 700.552 90.256 700.552 91.152C700.552 92.048 700.488 92.96 700.36 93.888C700.232 94.784 700.008 95.648 699.688 96.48C699.368 97.312 698.92 98.096 698.344 98.832C697.8 99.568 697.144 100.176 696.376 100.656C695.608 101.136 694.776 101.488 693.88 101.712C692.984 101.904 692.088 102 691.192 102H681.832ZM687.16 97.392H691.192C691.64 97.392 692.088 97.312 692.536 97.152C692.984 96.96 693.368 96.704 693.688 96.384C694.008 96.032 694.264 95.648 694.456 95.232C694.648 94.784 694.792 94.336 694.888 93.888C695.016 93.44 695.096 92.992 695.128 92.544C695.192 92.064 695.224 91.6 695.224 91.152C695.224 90.672 695.192 90.208 695.128 89.76C695.096 89.28 695.016 88.816 694.888 88.368C694.792 87.92 694.648 87.488 694.456 87.072C694.264 86.656 694.008 86.288 693.688 85.968C693.368 85.616 692.984 85.36 692.536 85.2C692.088 85.008 691.64 84.912 691.192 84.912H687.16V97.392ZM705.832 102V66.72H711.16V80.832C711.16 81.76 711.144 82.704 711.112 83.664C711.112 84.592 711.08 85.536 711.016 86.496C710.952 87.424 710.856 88.352 710.728 89.28C710.632 90.208 710.536 91.136 710.44 92.064L718.648 66.72H724.168V102H718.84V87.888C718.84 86.96 718.84 86.032 718.84 85.104C718.872 84.144 718.92 83.2 718.984 82.272C719.048 81.312 719.128 80.368 719.224 79.44C719.352 78.512 719.464 77.584 719.56 76.656L711.352 102H705.832ZM727.72 102V97.392C728.104 97.392 728.472 97.312 728.824 97.152C729.208 96.992 729.512 96.768 729.736 96.48C729.992 96.16 730.184 95.808 730.312 95.424C730.44 95.04 730.552 94.656 730.648 94.272C730.744 93.888 730.824 93.504 730.888 93.12C730.952 92.736 731 92.352 731.032 91.968C731.096 91.552 731.128 91.152 731.128 90.768C731.16 90.384 731.176 90 731.176 89.616C731.208 89.2 731.224 88.8 731.224 88.416C731.224 88.032 731.224 87.632 731.224 87.216V66.72H748.168V102H742.84V71.328H736.552V87.12C736.552 87.952 736.536 88.784 736.504 89.616C736.504 90.448 736.472 91.28 736.408 92.112C736.344 92.944 736.232 93.776 736.072 94.608C735.912 95.408 735.688 96.208 735.4 97.008C735.112 97.776 734.728 98.512 734.248 99.216C733.8 99.888 733.208 100.448 732.472 100.896C731.768 101.312 731 101.6 730.168 101.76C729.368 101.92 728.552 102 727.72 102ZM754.216 102V66.72H772.168V71.328H759.544V81.36H769.432V85.968H759.544V97.392H772.168V102H754.216ZM784.312 102V71.328H777.544V66.72H796.456V71.328H789.688V102H784.312ZM816.328 102V66.72H820.984V102H816.328ZM801.016 102V66.72H805.672V80.592H806.536C807.368 80.592 808.184 80.72 808.984 80.976C809.816 81.2 810.552 81.584 811.192 82.128C811.832 82.672 812.36 83.312 812.776 84.048C813.224 84.784 813.576 85.552 813.832 86.352C814.088 87.152 814.248 87.968 814.312 88.8C814.408 89.632 814.456 90.464 814.456 91.296C814.456 92.128 814.408 92.96 814.312 93.792C814.248 94.624 814.088 95.44 813.832 96.24C813.576 97.04 813.224 97.808 812.776 98.544C812.36 99.28 811.832 99.92 811.192 100.464C810.552 101.008 809.816 101.408 808.984 101.664C808.184 101.888 807.368 102 806.536 102H801.016ZM806.536 97.968C807.016 97.968 807.448 97.84 807.832 97.584C808.216 97.328 808.52 97.008 808.744 96.624C808.968 96.208 809.144 95.792 809.272 95.376C809.432 94.928 809.544 94.48 809.608 94.032C809.672 93.584 809.72 93.136 809.752 92.688C809.784 92.208 809.8 91.744 809.8 91.296C809.8 90.848 809.784 90.4 809.752 89.952C809.72 89.472 809.672 89.008 809.608 88.56C809.544 88.112 809.432 87.68 809.272 87.264C809.144 86.816 808.968 86.4 808.744 86.016C808.52 85.6 808.216 85.264 807.832 85.008C807.448 84.752 807.016 84.624 806.536 84.624H805.672V97.968H806.536Z" fill="#000100"/>
<path d="M889.832 102V66.72H906.344V71.328H895.16V80.304H899.192C900.088 80.304 900.984 80.4 901.88 80.592C902.776 80.784 903.608 81.136 904.376 81.648C905.144 82.128 905.8 82.736 906.344 83.472C906.92 84.208 907.368 84.992 907.688 85.824C908.008 86.656 908.232 87.536 908.36 88.464C908.488 89.36 908.552 90.256 908.552 91.152C908.552 92.048 908.488 92.96 908.36 93.888C908.232 94.784 908.008 95.648 907.688 96.48C907.368 97.312 906.92 98.096 906.344 98.832C905.8 99.568 905.144 100.176 904.376 100.656C903.608 101.136 902.776 101.488 901.88 101.712C900.984 101.904 900.088 102 899.192 102H889.832ZM895.16 97.392H899.192C899.64 97.392 900.088 97.312 900.536 97.152C900.984 96.96 901.368 96.704 901.688 96.384C902.008 96.032 902.264 95.648 902.456 95.232C902.648 94.784 902.792 94.336 902.888 93.888C903.016 93.44 903.096 92.992 903.128 92.544C903.192 92.064 903.224 91.6 903.224 91.152C903.224 90.672 903.192 90.208 903.128 89.76C903.096 89.28 903.016 88.816 902.888 88.368C902.792 87.92 902.648 87.488 902.456 87.072C902.264 86.656 902.008 86.288 901.688 85.968C901.368 85.616 900.984 85.36 900.536 85.2C900.088 85.008 899.64 84.912 899.192 84.912H895.16V97.392ZM913.832 102V66.72H919.16V80.832C919.16 81.76 919.144 82.704 919.112 83.664C919.112 84.592 919.08 85.536 919.016 86.496C918.952 87.424 918.856 88.352 918.728 89.28C918.632 90.208 918.536 91.136 918.44 92.064L926.648 66.72H932.168V102H926.84V87.888C926.84 86.96 926.84 86.032 926.84 85.104C926.872 84.144 926.92 83.2 926.984 82.272C927.048 81.312 927.128 80.368 927.224 79.44C927.352 78.512 927.464 77.584 927.56 76.656L919.352 102H913.832ZM935.72 102V97.392C936.104 97.392 936.472 97.312 936.824 97.152C937.208 96.992 937.512 96.768 937.736 96.48C937.992 96.16 938.184 95.808 938.312 95.424C938.44 95.04 938.552 94.656 938.648 94.272C938.744 93.888 938.824 93.504 938.888 93.12C938.952 92.736 939 92.352 939.032 91.968C939.096 91.552 939.128 91.152 939.128 90.768C939.16 90.384 939.176 90 939.176 89.616C939.208 89.2 939.224 88.8 939.224 88.416C939.224 88.032 939.224 87.632 939.224 87.216V66.72H956.168V102H950.84V71.328H944.552V87.12C944.552 87.952 944.536 88.784 944.504 89.616C944.504 90.448 944.472 91.28 944.408 92.112C944.344 92.944 944.232 93.776 944.072 94.608C943.912 95.408 943.688 96.208 943.4 97.008C943.112 97.776 942.728 98.512 942.248 99.216C941.8 99.888 941.208 100.448 940.472 100.896C939.768 101.312 939 101.6 938.168 101.76C937.368 101.92 936.552 102 935.72 102ZM962.216 102V66.72H980.168V71.328H967.544V81.36H977.432V85.968H967.544V97.392H980.168V102H962.216ZM992.312 102V71.328H985.544V66.72H1004.46V71.328H997.688V102H992.312ZM1024.33 102V66.72H1028.98V102H1024.33ZM1009.02 102V66.72H1013.67V80.592H1014.54C1015.37 80.592 1016.18 80.72 1016.98 80.976C1017.82 81.2 1018.55 81.584 1019.19 82.128C1019.83 82.672 1020.36 83.312 1020.78 84.048C1021.22 84.784 1021.58 85.552 1021.83 86.352C1022.09 87.152 1022.25 87.968 1022.31 88.8C1022.41 89.632 1022.46 90.464 1022.46 91.296C1022.46 92.128 1022.41 92.96 1022.31 93.792C1022.25 94.624 1022.09 95.44 1021.83 96.24C1021.58 97.04 1021.22 97.808 1020.78 98.544C1020.36 99.28 1019.83 99.92 1019.19 100.464C1018.55 101.008 1017.82 101.408 1016.98 101.664C1016.18 101.888 1015.37 102 1014.54 102H1009.02ZM1014.54 97.968C1015.02 97.968 1015.45 97.84 1015.83 97.584C1016.22 97.328 1016.52 97.008 1016.74 96.624C1016.97 96.208 1017.14 95.792 1017.27 95.376C1017.43 94.928 1017.54 94.48 1017.61 94.032C1017.67 93.584 1017.72 93.136 1017.75 92.688C1017.78 92.208 1017.8 91.744 1017.8 91.296C1017.8 90.848 1017.78 90.4 1017.75 89.952C1017.72 89.472 1017.67 89.008 1017.61 88.56C1017.54 88.112 1017.43 87.68 1017.27 87.264C1017.14 86.816 1016.97 86.4 1016.74 86.016C1016.52 85.6 1016.22 85.264 1015.83 85.008C1015.45 84.752 1015.02 84.624 1014.54 84.624H1013.67V97.968H1014.54Z" fill="#000100"/>
<path d="M1097.83 102V66.72H1114.34V71.328H1103.16V80.304H1107.19C1108.09 80.304 1108.98 80.4 1109.88 80.592C1110.78 80.784 1111.61 81.136 1112.38 81.648C1113.14 82.128 1113.8 82.736 1114.34 83.472C1114.92 84.208 1115.37 84.992 1115.69 85.824C1116.01 86.656 1116.23 87.536 1116.36 88.464C1116.49 89.36 1116.55 90.256 1116.55 91.152C1116.55 92.048 1116.49 92.96 1116.36 93.888C1116.23 94.784 1116.01 95.648 1115.69 96.48C1115.37 97.312 1114.92 98.096 1114.34 98.832C1113.8 99.568 1113.14 100.176 1112.38 100.656C1111.61 101.136 1110.78 101.488 1109.88 101.712C1108.98 101.904 1108.09 102 1107.19 102H1097.83ZM1103.16 97.392H1107.19C1107.64 97.392 1108.09 97.312 1108.54 97.152C1108.98 96.96 1109.37 96.704 1109.69 96.384C1110.01 96.032 1110.26 95.648 1110.46 95.232C1110.65 94.784 1110.79 94.336 1110.89 93.888C1111.02 93.44 1111.1 92.992 1111.13 92.544C1111.19 92.064 1111.22 91.6 1111.22 91.152C1111.22 90.672 1111.19 90.208 1111.13 89.76C1111.1 89.28 1111.02 88.816 1110.89 88.368C1110.79 87.92 1110.65 87.488 1110.46 87.072C1110.26 86.656 1110.01 86.288 1109.69 85.968C1109.37 85.616 1108.98 85.36 1108.54 85.2C1108.09 85.008 1107.64 84.912 1107.19 84.912H1103.16V97.392ZM1121.83 102V66.72H1127.16V80.832C1127.16 81.76 1127.14 82.704 1127.11 83.664C1127.11 84.592 1127.08 85.536 1127.02 86.496C1126.95 87.424 1126.86 88.352 1126.73 89.28C1126.63 90.208 1126.54 91.136 1126.44 92.064L1134.65 66.72H1140.17V102H1134.84V87.888C1134.84 86.96 1134.84 86.032 1134.84 85.104C1134.87 84.144 1134.92 83.2 1134.98 82.272C1135.05 81.312 1135.13 80.368 1135.22 79.44C1135.35 78.512 1135.46 77.584 1135.56 76.656L1127.35 102H1121.83ZM1143.72 102V97.392C1144.1 97.392 1144.47 97.312 1144.82 97.152C1145.21 96.992 1145.51 96.768 1145.74 96.48C1145.99 96.16 1146.18 95.808 1146.31 95.424C1146.44 95.04 1146.55 94.656 1146.65 94.272C1146.74 93.888 1146.82 93.504 1146.89 93.12C1146.95 92.736 1147 92.352 1147.03 91.968C1147.1 91.552 1147.13 91.152 1147.13 90.768C1147.16 90.384 1147.18 90 1147.18 89.616C1147.21 89.2 1147.22 88.8 1147.22 88.416C1147.22 88.032 1147.22 87.632 1147.22 87.216V66.72H1164.17V102H1158.84V71.328H1152.55V87.12C1152.55 87.952 1152.54 88.784 1152.5 89.616C1152.5 90.448 1152.47 91.28 1152.41 92.112C1152.34 92.944 1152.23 93.776 1152.07 94.608C1151.91 95.408 1151.69 96.208 1151.4 97.008C1151.11 97.776 1150.73 98.512 1150.25 99.216C1149.8 99.888 1149.21 100.448 1148.47 100.896C1147.77 101.312 1147 101.6 1146.17 101.76C1145.37 101.92 1144.55 102 1143.72 102ZM1170.22 102V66.72H1188.17V71.328H1175.54V81.36H1185.43V85.968H1175.54V97.392H1188.17V102H1170.22ZM1200.31 102V71.328H1193.54V66.72H1212.46V71.328H1205.69V102H1200.31ZM1232.33 102V66.72H1236.98V102H1232.33ZM1217.02 102V66.72H1221.67V80.592H1222.54C1223.37 80.592 1224.18 80.72 1224.98 80.976C1225.82 81.2 1226.55 81.584 1227.19 82.128C1227.83 82.672 1228.36 83.312 1228.78 84.048C1229.22 84.784 1229.58 85.552 1229.83 86.352C1230.09 87.152 1230.25 87.968 1230.31 88.8C1230.41 89.632 1230.46 90.464 1230.46 91.296C1230.46 92.128 1230.41 92.96 1230.31 93.792C1230.25 94.624 1230.09 95.44 1229.83 96.24C1229.58 97.04 1229.22 97.808 1228.78 98.544C1228.36 99.28 1227.83 99.92 1227.19 100.464C1226.55 101.008 1225.82 101.408 1224.98 101.664C1224.18 101.888 1223.37 102 1222.54 102H1217.02ZM1222.54 97.968C1223.02 97.968 1223.45 97.84 1223.83 97.584C1224.22 97.328 1224.52 97.008 1224.74 96.624C1224.97 96.208 1225.14 95.792 1225.27 95.376C1225.43 94.928 1225.54 94.48 1225.61 94.032C1225.67 93.584 1225.72 93.136 1225.75 92.688C1225.78 92.208 1225.8 91.744 1225.8 91.296C1225.8 90.848 1225.78 90.4 1225.75 89.952C1225.72 89.472 1225.67 89.008 1225.61 88.56C1225.54 88.112 1225.43 87.68 1225.27 87.264C1225.14 86.816 1224.97 86.4 1224.74 86.016C1224.52 85.6 1224.22 85.264 1223.83 85.008C1223.45 84.752 1223.02 84.624 1222.54 84.624H1221.67V97.968H1222.54Z" fill="#000100"/>
</svg>
