<svg width="49" height="41" viewBox="0 0 49 41" fill="none" xmlns="http://www.w3.org/2000/svg">
<path fill-rule="evenodd" clip-rule="evenodd" d="M31.2375 0.051451C31.1795 0.0961164 31.1433 0.957762 31.1433 2.29141V4.45872L28.9288 4.45966L26.7144 4.4607V6.67408V8.88757L28.9524 8.91282L31.1904 8.93807V6.72195V4.50583H35.6192H40.0481V6.72026V8.93468H42.2642H44.4803L44.4551 6.6967L44.4298 4.45872L42.2406 4.43346L40.0516 4.40812L40.0262 2.21904L40.001 0.0298718L35.6663 0.00433563C33.2823 -0.00970476 31.2893 0.0114972 31.2375 0.051451ZM8.95192 2.29141V4.50583H6.7375H4.52308V6.72026V8.93468H6.7358H8.94844L8.97378 6.74381L8.99904 4.55295L13.4043 4.52845L17.8096 4.50395V6.71932V8.93468H20.0223H22.2351L22.2603 11.1727L22.2856 13.4106L24.5236 13.4359L26.7615 13.4612V11.1979V8.93468H24.5471H22.3327V6.72026V4.50583H20.1183H17.9038V2.29141V0.0769872H13.4279H8.95192V2.29141ZM0.0645479 8.99584C0.0290228 9.03127 0 11.0462 0 13.4735V17.8866H2.26154H4.52308V20.101V22.3155H6.7375H8.95192V24.5299V26.7443H11.1646H13.3774L13.4026 28.9822C13.4242 30.8925 13.4486 31.2215 13.5692 31.2294C13.647 31.2345 14.6329 31.2451 15.7601 31.2531L17.8096 31.2674V33.4347V35.602H20.0223H22.2351L22.2603 37.84C22.2836 39.9042 22.2984 40.077 22.4505 40.0662C22.5411 40.0597 23.5483 40.0491 24.6885 40.0426L26.7615 40.0308V37.8164V35.602H28.976H31.1904V33.3876V31.1731H33.4048H35.6192V28.9587V26.7443H37.8337H40.0481V24.5299V22.3155H42.2625H44.4769V20.101V17.8866H46.7385H49V13.4089V8.93129L46.762 8.95654L44.524 8.9818L44.4995 13.3871L44.475 17.7924H42.2616H40.0481V20.0539V22.3155H37.8337H35.6192V24.5299V26.7443L33.3813 26.7442L31.1433 26.7441L31.1723 28.742C31.1882 29.8409 31.1768 30.8374 31.1469 30.9566L31.0926 31.1731H28.8768H26.661L26.6709 33.364L26.6808 35.5549L24.5085 35.5801L22.3362 35.6055L22.3108 33.4128L22.2856 31.2203L20.0402 31.195L17.795 31.1697L17.8193 28.9806L17.8437 26.7914L15.6122 26.7662L13.3808 26.7409V24.5282V22.3155H11.1663H8.95192V20.101V17.8866H6.73844H4.52496L4.50046 13.4342L4.47596 8.9818L2.30253 8.95654C1.10712 8.94269 0.0999786 8.96031 0.0645479 8.99584Z" fill="#FF5A00"/>
</svg>
