<svg xmlns="http://www.w3.org/2000/svg" viewBox="0 1554 1280 810" preserveAspectRatio="none" fill="none">


<path d="M75 2249.81V2259.88L84.25 2256.69L87.0625 2264.06L77.8125 2267.94L83.625 2276.19L77.375 2280.81L71.0625 2272.5L64.875 2280.81L58.3125 2276.19L64.1875 2267.62L54.875 2264.06L57.5625 2256.69L67.125 2259.88V2249.81H75Z" fill="black"></path>
<path d="M809.686 1686.08C810.392 1691.32 811.087 1696.45 811.94 1701.48C812.14 1702.7 812.369 1703.84 812.574 1704.58C812.67 1704.94 812.766 1705.2 812.76 1705.23C812.758 1705.28 812.615 1705.06 812.244 1704.79C811.882 1704.51 811.358 1704.32 811.144 1704.3C810.917 1704.28 810.974 1704.34 811.206 1704.36C811.68 1704.41 812.715 1704.3 813.799 1704.09C818.353 1703.16 823.752 1701.25 828.972 1699.38C830.418 1698.85 831.899 1698.3 833.395 1697.73C854.643 1689.62 875.791 1679.89 897.437 1672.23C905.272 1669.47 913.157 1666.75 921.129 1664.18C935.102 1659.71 949.354 1655.56 964.247 1653.17C968.907 1652.43 973.631 1651.9 978.257 1651.5C996.026 1651.01 1015.95 1645.49 1034.33 1658.42C1034.68 1658.67 1035.01 1658.93 1035.32 1659.2C1041.59 1665.63 1042.16 1671.67 1043.99 1677.48C1044.72 1680.42 1043.82 1682.34 1043.21 1683.72C1042.53 1685.12 1041.78 1686.17 1041.01 1687.16C1039.47 1689.12 1037.86 1690.73 1036.22 1692.27C1032.95 1695.32 1029.56 1698.01 1026.13 1700.61C1019.25 1705.79 1012.18 1710.54 1005.06 1715.16C1003.81 1715.98 1002.58 1716.77 1001.31 1717.58C989.983 1724.98 977.073 1730.82 964.845 1735.12C964.381 1735.33 964.003 1735.65 963.009 1736C962.68 1736.11 962.16 1736.23 961.534 1736.06C960.9 1735.88 960.469 1735.45 960.242 1735.14C959.788 1734.48 959.695 1734.03 959.566 1733.57C959.348 1732.68 959.264 1731.9 959.186 1731.1C958.78 1725.67 958.938 1720.44 959.109 1715.14C959.196 1712.86 959.309 1710.59 959.482 1708.32C959.651 1705.51 960.198 1702.68 960.239 1700C960.23 1699.33 960.212 1698.68 960.244 1698.17C960.277 1697.66 960.373 1697.33 960.564 1697.27C960.754 1697.22 961.03 1697.44 961.3 1697.92C961.57 1698.41 961.796 1699.15 961.855 1699.93C961.988 1703.01 961.621 1705.62 961.634 1708.41C961.607 1710.69 961.641 1712.99 961.702 1715.28C961.865 1720.45 962.065 1725.74 962.757 1730.66C962.823 1731.07 962.895 1731.47 962.978 1731.84C962.648 1732.29 962.387 1732.84 962.307 1733.37C962.284 1733.5 962.28 1733.61 962.25 1733.67C962.231 1733.72 962.098 1733.74 962.144 1733.81C962.268 1733.93 962.823 1733.75 963.336 1733.52C963.5 1733.45 963.677 1733.37 963.866 1733.29C964.926 1732.83 966.236 1732.35 967.175 1731.83C968.169 1731.29 968.886 1730.74 969.534 1730.23C970.22 1729.69 970.877 1729.17 971.782 1728.71C973.328 1727.91 974.697 1726.93 976.102 1725.87C976.602 1725.5 977.141 1725.09 977.659 1724.7C982.365 1722.26 986.927 1719.53 991.339 1716.6C993.14 1715.58 994.733 1714.63 996.066 1713.7C996.667 1713.28 997.226 1712.84 997.764 1712.38C998.272 1711.94 998.75 1711.5 999.217 1711.05C999.881 1710.57 1000.56 1710.07 1001.23 1709.57C1005.54 1706.39 1009.82 1703.15 1014.02 1699.82C1017.46 1697.51 1021.1 1695.01 1025.43 1691.45C1027.29 1689.92 1029.13 1688.42 1030.81 1686.93C1033.25 1684.77 1035.5 1682.4 1036.23 1680.54C1036.36 1680.2 1036.45 1679.92 1036.48 1679.75C1036.52 1679.57 1036.5 1679.55 1036.56 1679.67C1036.34 1678.8 1036.13 1677.92 1035.91 1677.05C1035.27 1674.51 1034.53 1672 1033.3 1670.11C1032.53 1668.93 1031.71 1667.99 1030.95 1667.31C1030.19 1666.64 1029.5 1666.26 1029.04 1666.1C1028.44 1665.79 1027.91 1665.49 1027.43 1665.18C1025.06 1663.66 1023.04 1663.04 1021.09 1662.67C1018.76 1662.24 1016.69 1662.15 1014.83 1661.68C1014.54 1661.61 1014.24 1661.53 1013.87 1661.44C1011.94 1660.95 1008.72 1660.26 1003.93 1660.6C1002.23 1660.73 1000.62 1661.02 999.085 1661.33C996.779 1661.79 994.642 1662.26 992.198 1662.29C991.849 1662.29 991.475 1662.22 991.13 1662.17C990.692 1662.09 990.302 1662.03 990.082 1662.13C989.412 1662.43 988.447 1662.78 987.324 1663.17C986.488 1663.46 985.656 1663.77 984.868 1664.08C983.107 1664.29 981.455 1664.5 979.675 1664.73C975.251 1665.29 970.927 1665.97 966.64 1666.83C963.904 1667.38 961.2 1667.99 958.476 1668.66C957.006 1668.62 955.485 1668.65 953.919 1668.78C951.864 1668.96 949.269 1669.53 945.922 1670.34C943.463 1670.94 940.594 1671.66 937.238 1672.47C932.985 1673.48 928.692 1674.85 925.17 1676.12C923.58 1676.69 922.101 1677.26 920.878 1677.76C920.04 1678.1 919.215 1678.44 918.326 1678.81C914.952 1680.22 910.733 1681.98 902.693 1685.23C895.088 1688.31 888.569 1690.84 883.677 1692.74C881.179 1693.71 879.101 1694.52 877.524 1695.16C874.815 1696.27 871.485 1697.61 868.148 1698.95C862.909 1701.06 857.651 1703.19 854.695 1704.47C853.658 1704.92 852.534 1705.42 851.359 1705.94C848.07 1707.39 844.07 1709.16 838.529 1711.41C836.909 1712.06 835.468 1712.63 834.167 1713.13C830.616 1714.48 827.86 1715.42 824.932 1716.29C823.262 1716.79 821.697 1716.98 820.033 1717.14C817.53 1717.32 815.456 1717.77 810.628 1717.96C809.464 1717.95 807.983 1717.88 806.234 1717.27C802.813 1716.17 800.273 1712.77 799.522 1710.58C799.206 1709.77 799.072 1709.1 798.962 1708.47C798.844 1707.78 798.768 1707.16 798.604 1706.47C798.425 1705.72 798.27 1704.99 798.125 1704.27C797.822 1702.78 797.537 1701.34 797.289 1700.02C796.825 1697.55 796.484 1695.48 796.364 1694.19C796.149 1691.88 795.693 1689.4 795.264 1686.88C794.936 1684.96 794.623 1683.01 794.441 1681.12C793.912 1675.73 793.075 1668.35 792.099 1660.88C791.727 1658.08 791.72 1655.64 791.678 1652.61C791.65 1650.73 791.608 1648.57 791.393 1646C791.272 1644.56 790.91 1643.38 790.555 1642.33C790.231 1641.39 789.917 1640.56 789.773 1639.69C789.659 1638.97 789.794 1638.44 789.934 1637.99C790.079 1637.47 790.2 1636.97 789.921 1636.54C789.797 1636.35 789.495 1636.19 789.443 1636.4C789.427 1636.48 789.466 1636.64 789.636 1636.84C789.658 1636.79 789.686 1636.74 789.709 1636.71C789.821 1636.54 790.145 1636.66 790.764 1636.72C790.626 1636.63 790.469 1636.55 790.308 1636.47C790.099 1636.37 789.883 1636.29 789.701 1636.2C789.043 1635.87 787.582 1635.89 786.395 1636.22C785.894 1636.36 785.411 1636.42 784.822 1636.53C784.299 1636.63 783.698 1636.77 782.95 1637.08C782.919 1637.1 782.889 1637.11 782.859 1637.12C782.451 1637.29 782.05 1637.41 781.764 1637.49C781.529 1637.56 781.32 1637.62 781.138 1637.71C780.992 1637.78 780.913 1637.91 780.823 1638.06C780.759 1638.17 780.687 1638.29 780.578 1638.41C780.312 1638.68 779.959 1638.91 779.652 1639.04C779.512 1639.1 779.395 1639.13 779.284 1639.16C779.152 1639.19 779.02 1639.23 778.853 1639.31C778.074 1639.69 777.406 1640.18 776.731 1640.7C775.96 1641.28 775.172 1641.88 774.206 1642.38C773.902 1642.54 773.538 1642.7 773.214 1642.83C772.871 1642.98 772.532 1643.12 772.258 1643.28C771.161 1643.9 770.271 1644.71 769.462 1645.47C768.9 1645.98 768.428 1646.43 767.901 1646.82C766.952 1647.51 766.584 1648.05 766.293 1648.46C766.141 1648.68 766.028 1648.85 765.875 1648.98C765.718 1649.08 765.558 1649.18 765.4 1649.28C765.25 1649.36 765.094 1649.44 764.96 1649.54C764.95 1649.55 764.94 1649.56 764.93 1649.56C764.023 1650.12 763.159 1650.62 762.266 1651.15C760.29 1652.31 758.354 1653.48 756.473 1655C756.074 1655.32 755.716 1655.71 755.346 1656.11C754.891 1656.6 754.426 1657.11 753.882 1657.51C752.561 1658.48 751.168 1659.33 749.777 1660.2C747.71 1661.5 745.662 1662.81 744.132 1664.37C743.623 1664.89 743.146 1665.46 742.699 1666.01C742.446 1666.32 742.19 1666.63 741.924 1666.94C741.906 1666.78 741.863 1666.66 741.823 1666.54C741.74 1666.3 741.67 1666.1 741.858 1665.72C742.298 1664.84 742.757 1663.74 742.409 1663.5C742.315 1663.43 742.257 1663.32 742.2 1663.2C742.057 1662.91 741.914 1662.62 741.153 1663.05C740.653 1663.32 739.373 1664.07 738.79 1664.86C738.662 1665.04 738.635 1665.19 738.602 1665.37C738.543 1665.68 738.475 1666.06 737.828 1666.66C737.719 1666.77 737.599 1666.88 737.474 1666.99C736.976 1667.45 736.421 1667.95 736.317 1668.26C736.194 1668.61 736.387 1668.73 736.612 1668.88C736.905 1669.07 737.254 1669.29 737.032 1670.1C736.987 1670.26 736.808 1670.45 736.673 1670.6C736.577 1670.7 736.504 1670.78 736.514 1670.81C736.526 1670.84 736.604 1670.87 736.702 1670.89C737.049 1671 737.657 1671.18 736.56 1672.13C736.258 1672.39 735.911 1672.65 735.591 1672.89C735.123 1673.25 734.731 1673.54 734.737 1673.65C734.739 1673.69 734.749 1673.73 734.762 1673.77C734.397 1674.07 734.028 1674.37 733.663 1674.67C733.144 1674.98 732.514 1675.53 731.718 1676.23C731.525 1676.41 731.321 1676.59 731.107 1676.77C730.399 1677.36 729.691 1677.95 728.976 1678.55C728.386 1679.01 727.76 1679.47 727.068 1679.93C726.41 1680.37 725.761 1680.76 725.12 1681.12C724.42 1681.52 723.73 1681.87 723.051 1682.23C722.506 1682.51 721.964 1682.79 721.426 1683.09C721.587 1682.92 721.731 1682.77 721.832 1682.64C722.528 1681.75 722.607 1681.18 722.682 1680.64C722.732 1680.29 722.779 1679.96 723.003 1679.57C723.146 1679.32 723.208 1679.14 723.219 1679C723.242 1678.74 723.089 1678.64 722.965 1678.56C722.866 1678.49 722.786 1678.44 722.827 1678.32C722.861 1678.23 722.993 1678.09 723.129 1677.94C723.247 1677.81 723.369 1677.67 723.431 1677.57C724.187 1676.31 723.703 1676.4 722.999 1676.53C722.61 1676.6 722.153 1676.69 721.799 1676.56C721.452 1676.41 721.425 1676.3 721.886 1675.71C721.51 1675.88 721.132 1676.06 720.753 1676.24C720.588 1676.32 720.422 1676.4 720.256 1676.48C720.096 1676.64 720.04 1676.83 719.979 1677.12C719.87 1677.64 718.913 1678.66 718.165 1679.46C717.819 1679.83 717.519 1680.15 717.368 1680.35C716.566 1681.43 717.092 1681.44 717.553 1681.44C717.808 1681.45 718.042 1681.45 718.027 1681.63C718.021 1681.71 718.116 1681.69 718.212 1681.68C718.287 1681.67 718.363 1681.65 718.394 1681.68C718.618 1681.91 718.2 1682.6 717.814 1683.25C717.593 1683.62 717.383 1683.97 717.307 1684.21C717.284 1684.28 717.271 1684.35 717.261 1684.41C717.245 1684.5 717.229 1684.58 717.178 1684.69C717.063 1684.94 716.73 1685.34 716.365 1685.77C716.178 1686 715.983 1686.23 715.805 1686.46C715.574 1686.76 715.561 1686.94 715.546 1687.13C715.535 1687.27 715.522 1687.41 715.435 1687.6C715.275 1687.94 714.796 1688.45 714.353 1688.93C714.159 1689.13 713.973 1689.34 713.822 1689.51C713.761 1689.58 713.742 1689.63 713.755 1689.66C713.043 1690.46 712.369 1691.23 711.715 1691.98C708.442 1695.75 705.644 1699.02 700.893 1703.32C699.997 1704.14 699.09 1705.07 698.203 1706.04C695.178 1708.94 692.183 1711.89 689.269 1714.87C688.499 1715.29 687.643 1715.88 686.706 1716.65C684.943 1718.09 683.362 1719.78 681.543 1721.81C681.247 1722.14 680.947 1722.48 680.643 1722.82C679.513 1724.1 678.287 1725.46 676.857 1726.96C673.769 1730.21 670.667 1733.57 667.338 1737.52C664.025 1741.44 660.352 1746.02 657.907 1749.34C656.578 1751.14 655.02 1752.93 653.65 1754.64C651.973 1756.72 650.573 1758.76 650.248 1760.31C650.198 1760.54 650.164 1760.77 650.148 1760.99C650.102 1761.55 650.19 1762.07 650.268 1762.62C650.329 1763 650.392 1763.37 650.419 1763.73C650.149 1764.59 649.898 1765.46 649.66 1766.36C649.021 1767.88 648.232 1770.35 648.163 1772.86C647.973 1773.8 647.794 1774.75 647.624 1775.67C647.258 1777.67 646.93 1779.64 646.621 1781.63C646.519 1782.28 646.42 1782.94 646.323 1783.6C646.322 1783.61 646.321 1783.61 646.32 1783.62C646.123 1784.95 645.936 1786.29 645.758 1787.61C645.681 1788.18 645.607 1788.74 645.533 1789.31C645.347 1790.75 645.169 1792.21 645 1793.63C644.91 1794.4 644.824 1795.14 644.737 1795.92C644.598 1797.15 644.462 1798.42 644.334 1799.66C644.127 1801.66 643.932 1803.7 643.755 1805.7C643.727 1806.01 643.665 1806.36 643.584 1806.58C643.502 1806.81 643.407 1806.93 643.313 1806.92C643.219 1806.92 643.133 1806.79 643.069 1806.56C643.006 1806.33 642.974 1805.98 642.972 1805.67C642.967 1803.65 642.983 1801.6 643.013 1799.57C643.032 1798.33 643.058 1797.04 643.088 1795.8C643.108 1795.01 643.129 1794.26 643.153 1793.49C643.197 1792.05 643.252 1790.57 643.316 1789.11C643.341 1788.53 643.367 1787.97 643.396 1787.39C643.461 1786.04 643.538 1784.68 643.624 1783.32C643.624 1783.31 643.625 1783.3 643.625 1783.29C643.667 1782.63 643.712 1781.96 643.758 1781.3C643.904 1779.26 644.07 1777.25 644.278 1775.18C644.384 1774.11 644.507 1773 644.641 1771.9C644.715 1771.28 644.794 1770.67 644.875 1770.07C644.92 1769.74 644.967 1769.4 645.016 1769.07C645.505 1765.77 646.067 1762.49 647.136 1759.16C648.796 1754.58 651.294 1750.95 653.733 1747.19C658.048 1740.74 662.669 1734.55 667.289 1728.43C669.879 1725.01 672.473 1721.63 675.098 1718.24C677.217 1715.51 679.409 1712.84 681.647 1710.21C692.95 1697.02 705.163 1684.76 717.737 1672.87C736.037 1655.85 754.823 1639.65 777.574 1626.73C781.88 1624.42 787.917 1622.65 794.07 1624.25C799.434 1625.92 800.794 1629.43 801.833 1631.32C802.813 1633.41 803.316 1635.2 803.76 1636.93C805.616 1644.8 806.101 1651.88 806.822 1658.92C807.488 1665.98 808.092 1672.8 808.887 1679.68C809.13 1681.77 809.392 1683.9 809.686 1686.08Z" fill="#FF6917"></path>
<path d="M344.966 2318.13C338.423 2317.53 333.273 2319.89 325.395 2319.84C317.478 2319.87 316.156 2318.64 307.196 2319.87C298.498 2321.02 288.403 2322.62 287.429 2324.69C287.417 2324.78 287.584 2324.66 287.646 2324.33C287.613 2324.62 287.314 2325.32 287.143 2325.56C285.233 2328.26 283.756 2328.21 280.246 2332.23C276.26 2336.62 273.344 2338.77 269.03 2341.57C264.771 2344.48 251.664 2352.99 247.042 2356.38C245.491 2357.57 243.743 2358.62 241.967 2359.54L242.035 2359.5C238.826 2361.34 235.593 2363.58 232.836 2364.05C231.585 2364.31 230.592 2364.27 229.847 2364.2C229.537 2364.17 229.384 2364.07 229.382 2363.97C229.382 2363.97 229.382 2363.97 229.382 2363.97C229.381 2363.85 229.599 2363.72 229.988 2363.69C231.924 2363.58 234.533 2362.58 236.934 2360.14C238.34 2358.82 239.465 2357.92 240.54 2357.2C240.554 2357.19 240.593 2357.17 240.607 2357.16C243.083 2355.68 245.14 2354.93 250.016 2351.48C256.955 2346.46 260.686 2342.9 268.81 2337.1C275.562 2332 276.919 2328.95 282.643 2322.24L282.106 2323.56C282.709 2320.89 284.219 2320.32 285.205 2319.66C286.325 2319.05 287.352 2318.7 288.551 2318.35C303.216 2315.58 304.334 2313.79 318.725 2312.24C333.131 2310.99 351.254 2312.73 359.811 2313.02C368.29 2313.27 379.564 2313.72 391.492 2315.18C391.713 2315.2 391.934 2315.23 392.154 2315.26C404.238 2316.72 419.236 2317.56 432.439 2318.99C436.73 2319.44 441.583 2319.89 446.391 2319.88C450.959 2319.9 456.722 2319.15 456.762 2316.49C457.33 2311.68 457.622 2307.37 457.84 2304.31C458.452 2295.57 458.354 2293.47 458.387 2284.96C458.421 2283.34 458.522 2281.52 458.883 2279.57C459.334 2277.76 459.572 2275.19 462.235 2274C464.247 2273.37 466.32 2272.97 468.293 2272.91C471.218 2272.97 470.477 2273.37 467.789 2273.96C465.921 2274.43 464.248 2274.98 462.816 2275.56C461.782 2276.03 461.39 2277.62 461.408 2278.65C461.639 2282.76 462.105 2284.5 461.328 2289.85C460.628 2295.25 462.101 2297.82 461.907 2300.99C461.664 2303.93 461.229 2304.07 460.871 2316.8C460.841 2318.35 459.995 2320.33 458.582 2321.52C449.453 2326.94 443.297 2324.95 438.162 2325.4C433.1 2325.36 429.315 2325.15 426.268 2324.99C420.133 2324.69 407.508 2322.72 397.609 2322.01C395.69 2321.87 393.427 2321.68 390.885 2321.46C380.398 2320.5 366.119 2319.49 359.573 2319.6C351.48 2319.71 351.502 2318.78 344.966 2318.13Z" fill="#C7EA2C"></path>
<path d="M119.604 2271.84C120.888 2278.57 124.902 2283.03 126.736 2291.18C128.538 2299.36 127.556 2300.89 130.088 2310.16C130.234 2310.71 130.375 2311.27 130.504 2311.8C131.46 2316.31 132.657 2320.53 131.539 2325.69C130.973 2328.47 128.001 2330.64 126.238 2331.08C124.377 2331.68 123.009 2331.85 121.948 2332.12C119.748 2332.63 118.562 2332.39 117.166 2332.16C115.724 2331.91 114.096 2331.63 111.022 2331.94C105.003 2332.55 101.344 2332.41 96.0626 2331.98C91.3291 2331.6 77.8138 2331.45 70.8723 2332.08C70.0601 2332.15 69.353 2332.23 68.7576 2332.33C63.606 2333.14 57.7468 2332.42 53.7815 2332.75C53.2512 2332.79 52.755 2332.84 52.2993 2332.91C51.0752 2333.08 50.115 2333.24 49.3589 2333.36C49.0398 2333.41 48.863 2333.35 48.8264 2333.25C48.8264 2333.25 48.8264 2333.25 48.8264 2333.25C48.7821 2333.12 48.9557 2332.91 49.3461 2332.76C50.4279 2332.35 51.8654 2331.89 53.5362 2331.42C54.7838 2331.05 56.2086 2330.72 57.7161 2330.37C63.4142 2329.14 64.7517 2329.81 70.7923 2329.48C71.7121 2329.43 72.7827 2329.36 73.9681 2329.27C82.8775 2328.55 88.1963 2327.49 98.6799 2327.84C106.438 2328.08 109.741 2326.69 116.864 2326.25C119.255 2326.04 122.651 2326.16 124.998 2325.57C126.805 2325.53 126.837 2322.01 126.41 2319.72C125.99 2317.27 125.272 2315.26 124.48 2313.14C123.184 2309.72 121.642 2306.08 119.815 2299.77C115.732 2285.71 111.989 2267.42 109.456 2258.9C108.853 2256.88 108.194 2254.7 107.509 2252.38C106.647 2249.47 105.738 2246.4 104.824 2243.1C104.371 2241.47 103.915 2239.78 103.49 2237.99C103.281 2237.09 103.072 2236.16 102.905 2235.12C102.825 2234.59 102.741 2234.04 102.728 2233.24C102.732 2232.84 102.726 2232.36 102.915 2231.6C103.052 2230.91 103.793 2229.49 104.932 2228.86C105.694 2228.41 106.369 2228.32 106.85 2228.29C107.283 2228.28 107.471 2228.31 107.717 2228.34C108.211 2228.42 108.411 2228.49 108.661 2228.56C108.78 2228.6 108.896 2228.64 109.006 2228.68C109.094 2228.71 109.181 2228.75 109.266 2228.78C109.436 2228.85 109.615 2228.92 109.772 2228.99C110.353 2229.25 110.879 2229.52 111.395 2229.79C112.422 2230.32 113.329 2230.82 114.299 2231.36C125.116 2237.54 139.591 2242.03 152.827 2244.08C154.819 2244.4 156.924 2244.68 159.143 2244.88C171.369 2246.07 189.267 2247.29 192.63 2246.32C192.628 2246.28 192.627 2246.24 192.626 2246.19C192.271 2237.15 192.058 2234.92 190.549 2226.32C189.678 2221.37 188.785 2214.52 188.73 2208.6C188.792 2205.61 189.304 2206.29 189.885 2209.15C190.789 2213.37 191.106 2216.93 192.029 2219.05C193.881 2223.28 194.629 2225.11 194.675 2230.8C194.708 2236.49 196.622 2238.95 196.792 2242.27C196.856 2243.59 196.741 2244.4 196.72 2245.95C196.841 2247.01 196.199 2248.34 195.499 2248.91C194.82 2249.5 194.211 2249.75 193.63 2249.96C192.458 2250.36 191.336 2250.53 189.961 2250.71C187.228 2251.03 183.669 2251.22 178.584 2251.38C170.32 2251.62 163.969 2251.51 158.847 2251.45C153.297 2251.36 149.202 2250.84 145.884 2250.35C139.33 2249.52 126.412 2244.84 116.848 2240.4C115.268 2239.71 113.443 2238.84 111.486 2237.86C110.531 2237.39 109.497 2236.86 108.503 2236.37C108.024 2236.13 107.522 2235.89 107.066 2235.69C106.874 2235.61 106.635 2235.51 106.545 2235.48C106.504 2235.47 106.467 2235.47 106.616 2235.5C106.696 2235.51 106.826 2235.53 107.048 2235.53C107.342 2235.53 107.939 2235.51 108.693 2235.06C109.372 2234.7 109.884 2233.77 109.931 2233.48C110.02 2233.14 109.993 2233.11 109.999 2233.13C109.998 2233.2 110.028 2233.53 110.083 2233.86C110.194 2234.54 110.372 2235.34 110.565 2236.15C110.954 2237.78 111.411 2239.48 111.859 2241.11C112.77 2244.42 113.688 2247.61 114.528 2250.43C115.28 2252.95 115.979 2255.16 116.56 2256.83C119.332 2264.8 118.317 2265.12 119.604 2271.84Z" fill="#FF5A00"></path>
<path d="M1210.6 1692.28C1206.9 1679.88 1199.95 1671.95 1191.14 1659.31C1181.81 1646.86 1181.16 1644.12 1167.57 1632.06C1165.66 1630.41 1163.66 1628.71 1161.72 1627.01C1160.79 1626.19 1159.79 1625.31 1158.81 1624.38C1158.6 1624.17 1158.31 1623.9 1158.07 1623.65C1157.8 1623.38 1157.62 1623.19 1157.31 1622.85C1157.18 1622.69 1157.04 1622.53 1156.92 1622.38C1156.85 1622.3 1156.79 1622.22 1156.73 1622.13C1156.65 1622.03 1156.56 1621.91 1156.48 1621.79C1156.32 1621.54 1156.16 1621.28 1156.01 1620.95C1155.81 1620.48 1155.55 1619.78 1155.7 1618.78C1155.84 1617.63 1156.67 1616.46 1157.35 1615.94C1158.04 1615.39 1158.61 1615.14 1159.13 1614.92C1160.15 1614.51 1161.01 1614.31 1161.85 1614.13C1163.52 1613.79 1165.03 1613.6 1166.52 1613.42C1169.49 1613.08 1172.24 1612.86 1174.81 1612.65C1179.93 1612.24 1184.17 1611.9 1187.08 1611.46C1188.91 1611.18 1190.37 1611.06 1191.72 1611.01C1196.19 1610.86 1198.82 1611.63 1207.76 1610.71C1219.35 1609.54 1226.39 1609.34 1236.57 1609.32C1246.75 1609.26 1277.95 1608.17 1289.29 1607.19C1291.57 1606.98 1294.01 1606.85 1296.36 1606.79C1305.71 1606.62 1315.3 1607.14 1321.47 1608.92C1323.93 1609.57 1325.58 1611.39 1325.89 1612.85C1326.08 1613.46 1326.06 1613.77 1325.96 1613.81C1325.96 1613.81 1325.96 1613.81 1325.96 1613.81C1325.82 1613.86 1325.57 1613.47 1325.24 1612.78C1323.67 1609.03 1316.94 1609.28 1310.36 1609.47C1304.05 1609.81 1300.54 1609.88 1296.43 1609.88C1292.38 1609.89 1287.72 1609.88 1279.16 1610.46C1262.03 1611.65 1251.77 1613.14 1231.56 1613.7C1215.15 1614.19 1209.12 1616.18 1192.21 1617.29C1188.25 1617.56 1183.74 1617.78 1178.38 1617.97C1174.06 1618.12 1170.33 1618.35 1167.07 1618.72C1165.46 1618.92 1163.94 1619.14 1162.66 1619.46C1162.03 1619.61 1161.43 1619.81 1161.07 1619.99C1160.9 1620.07 1160.8 1620.17 1160.86 1620.13C1160.91 1620.11 1161.1 1619.81 1161.13 1619.63C1167.43 1623.92 1176.71 1629.64 1190.12 1643.97C1206.73 1661.38 1219.03 1689.26 1221.1 1708.72C1222.27 1713.62 1219.18 1720.04 1215.33 1721.66C1201.87 1727.31 1187.9 1723.05 1172.79 1720.12C1165.3 1718.43 1157.56 1716.66 1149.66 1714.84C1140.83 1712.82 1131.12 1710.84 1121.13 1709.11C1116.1 1708.25 1111.05 1707.46 1105.96 1706.88C1103.43 1706.59 1100.89 1706.36 1098.5 1706.31C1097.28 1706.29 1096.14 1706.32 1095.24 1706.46C1095.03 1706.5 1094.83 1706.54 1094.73 1706.57C1094.61 1706.6 1094.56 1706.65 1094.73 1706.55C1094.82 1706.49 1094.94 1706.41 1095.14 1706.2C1095.33 1705.99 1095.55 1705.65 1095.67 1705.26C1095.79 1704.88 1095.8 1704.45 1095.77 1704.21C1095.74 1703.97 1095.68 1703.8 1095.65 1703.72C1098.34 1710.19 1101 1716.58 1103.5 1722.87C1106.38 1730.15 1109.68 1738.31 1112.64 1746.84C1114.12 1751.14 1115.54 1755.49 1116.46 1760.09C1116.89 1762.4 1117.26 1764.77 1116.98 1767.41C1116.81 1768.75 1116.45 1770.26 1115.35 1771.63C1114.25 1773.01 1112.49 1773.71 1111.07 1773.84C1106.79 1773.86 1104.41 1772.8 1101.63 1772.7C1098.9 1772.52 1097.07 1773.04 1096.58 1774.77C1095.38 1779.01 1095.27 1783.58 1094.71 1787.06C1093.27 1797.56 1090.37 1803.63 1084.96 1807.85C1084.02 1808.57 1082.95 1808.93 1081.93 1809.23C1081.42 1809.38 1080.9 1809.51 1080.44 1809.66C1080.22 1809.73 1080 1809.82 1079.9 1809.89C1079.85 1809.92 1079.85 1809.94 1079.89 1809.89C1079.94 1809.83 1079.97 1809.67 1079.95 1809.64C1080.41 1812.22 1081.79 1815.17 1081.81 1819.37C1081.77 1820.1 1081.66 1820.94 1081.15 1821.8C1080.65 1822.67 1079.54 1823.28 1078.6 1823.35C1074.94 1823.47 1071.93 1822.38 1068.56 1822.11C1065.34 1821.77 1061.6 1822.09 1060.69 1825.17C1059.61 1828.31 1058.75 1831.48 1058.16 1834.56C1057.35 1840.13 1056.78 1838.9 1057.28 1833.1C1057.63 1830.02 1058.27 1827.2 1059 1824.66C1059.63 1822.06 1062.16 1820.49 1064.11 1820.12C1066.12 1819.67 1067.84 1819.71 1069.28 1819.64C1073.1 1819.5 1076.49 1820 1078.2 1819.69C1078.31 1819.64 1078.2 1819.61 1078.07 1819.69C1077.93 1819.77 1077.92 1819.83 1077.95 1819.69C1078.02 1819.41 1078.05 1818.61 1077.95 1817.72C1077.79 1815.82 1077.2 1813.7 1076.68 1810.22C1076.68 1810.2 1076.68 1810.17 1076.67 1810.15C1076.56 1809.55 1076.75 1808.59 1077.16 1808.05C1077.56 1807.49 1077.95 1807.26 1078.23 1807.09C1078.81 1806.77 1079.17 1806.69 1079.51 1806.59C1080.16 1806.41 1080.66 1806.31 1081.12 1806.19C1082.02 1805.96 1082.7 1805.68 1083.06 1805.38C1087.74 1801.43 1087.97 1797.15 1089.2 1792.85C1090.42 1788.44 1090.27 1788.04 1092.54 1773.6C1092.93 1772.12 1094.07 1770.34 1095.77 1769.42C1097.44 1768.47 1099.21 1768.25 1100.88 1768.2C1104.07 1768.08 1108.16 1769.11 1110.45 1769C1110.73 1768.95 1110.92 1768.88 1111.07 1768.81C1112 1768.86 1112.02 1764.52 1111.16 1761.48C1110.37 1758.18 1109.29 1755.11 1108.2 1752.17C1106.01 1746.32 1103.8 1741.2 1101.84 1736.65C1097.87 1727.54 1094.82 1720.73 1092.37 1715.15C1091.33 1712.79 1090.12 1709.91 1088.77 1706.59C1088.54 1706.02 1088.35 1705.42 1088.34 1704.56C1088.31 1703.65 1088.61 1702.61 1089.12 1701.85C1090.24 1700.26 1091.31 1699.95 1092.03 1699.64C1093.56 1699.11 1094.66 1699.05 1095.75 1698.97C1097.92 1698.86 1099.92 1698.99 1102 1699.17C1106.03 1699.54 1110.26 1700.19 1114.44 1700.9C1122.84 1702.33 1131.45 1704.08 1139.18 1705.53C1148.15 1707.22 1161.28 1710.05 1174.4 1712.99C1189.44 1716.48 1206.35 1718.73 1211.67 1715.22C1213 1714.38 1213.3 1713.72 1213.56 1712.88C1213.78 1712.02 1213.77 1710.94 1213.65 1709.9C1212.77 1703.76 1212.96 1700.96 1210.6 1692.28Z" fill="#FF5A00"></path>
</svg>
