<svg width="487" height="65" viewBox="0 0 487 65" fill="none" xmlns="http://www.w3.org/2000/svg">
<path d="M208.69 56.1609C208.392 56.0514 208.098 55.9564 207.807 55.8749C197.103 52.8541 186.512 67.2579 171.306 61.8504C160.323 57.6759 157.128 51.0591 151.663 47.2042C151.275 46.8822 151.345 46.7672 151.625 46.7157C151.899 46.6629 152.034 46.5823 151.736 46.5091C151.147 46.359 149.485 46.3585 147.582 46.5913C144.366 46.9743 140.896 47.0006 137.551 46.8208C126.295 46.2241 116.105 43.3958 110.912 46.0501C104.174 49.4931 103.491 39.035 93.9228 41.3231C86.6558 43.0561 81.5415 42.6673 75.8488 40.8476C73.9697 40.2678 72.0523 39.5311 69.9966 38.6519C63.5502 36.0784 46.5385 32.1599 35.5786 31.7748C31.4254 31.7394 27.4719 31.3183 25.5233 31.9188C24.9384 32.1146 24.4435 32.3496 24.9771 32.5717L30.2307 30.9845C25.6393 37.1597 13.3829 39.1594 7.13156 40.5811C6.8142 40.664 6.49982 40.7365 6.19678 40.7951C6.03895 40.8997 5.51632 41.0397 5.33603 41.0975C4.13034 41.1185 2.64926 40.7536 1.81989 40.1589C0.962246 39.5804 0.516064 38.9571 0.177393 38.396C-0.154201 37.8309 0.0183188 37.1308 0.372166 36.5667C0.372398 36.5664 0.37263 36.566 0.372862 36.5656C0.82071 35.8635 1.55288 35.3708 2.08052 35.5405C2.50419 35.6766 2.94935 35.7541 3.27168 35.6923C3.60098 35.6281 3.76197 35.4714 4.13988 35.2057L3.44537 35.4497C5.3749 33.5917 7.36472 30.7886 9.0571 27.0662C12.2252 20.1129 14.9871 19.5764 20.3452 16.4826C21.3978 15.9231 23.9959 14.8779 25.1792 15.0222C28.5084 15.3156 29.6924 15.9479 31.3471 16.1932C32.9097 16.4704 34.5117 16.5498 36.399 16.2502C36.5572 16.225 36.7114 16.1978 36.869 16.1693C51.8785 14.8051 59.1974 10.3581 74.818 14.2922C75.2568 14.4028 75.6918 14.4973 76.1229 14.5767C91.4773 17.3199 95.7838 2.79348 118.55 11.4529C126.977 14.6534 132.719 14.5915 137.682 13.1094C141.006 12.1268 143.932 10.5067 147.321 8.82942C149.054 7.99737 150.784 7.12802 153.366 6.4279C154.669 6.08991 156.28 5.77183 158.73 5.77814C161.169 5.75448 164.431 6.35108 165.877 6.51863C169.38 6.75832 172.23 7.05532 175.172 7.61106C184.924 9.52074 197.161 13.436 209.417 16.0584C218.978 18.0636 227.776 19.6798 233.729 19.4293C247.59 18.8359 266.225 16.9192 285.759 18.4167C289.121 18.6727 292.61 18.6785 296.161 18.5103C313.388 17.7786 331.817 12.5385 350.899 13.7134C353.41 13.8841 356.061 14.0669 358.816 14.28C373.696 15.3949 390.455 17.7423 403.308 19.8148C409.76 20.8511 415.633 21.593 420.141 22.4151C423.6 23.0417 426.4 23.5954 428.89 24.026C437.016 25.4623 441.552 25.5001 452.199 23.8992C458.062 23.0205 465.561 23.3489 472.798 25.2456C475.413 25.9291 477.998 26.8155 480.453 27.9219C485.124 30.0235 484.081 32.9734 479.385 34.3986C477.042 35.1083 474.867 35.4187 472.832 35.6654C468.936 36.1429 465.687 36.3829 463.36 38.8212C456.334 46.2134 453.362 49.0474 444.447 44.8379C437.312 41.4741 433.263 47.0857 429.4 48.9413C428.419 49.4048 427.481 49.6349 426.465 49.4375C421.931 48.5659 422.075 44.2063 404.03 46.6233C401.295 46.9605 398.249 47.4245 394.778 48.0856C380.427 50.8045 370.109 52.788 362.142 54.4331C355.657 55.7788 350.43 56.8609 346.021 57.8117C336.405 59.9403 314.798 57.3389 298.19 59.6483C297.949 59.6833 297.709 59.7194 297.469 59.7568C280.642 62.4862 246.967 61.1078 233.297 63.8131C219.579 66.5616 219.647 60.1304 208.69 56.1609Z" fill="#C7EA2C"/>
<path d="M283.144 9.63435C294.398 12.2562 303.395 -2.39901 317.401 0.343611C317.843 0.435053 318.275 0.543419 318.719 0.672594C329.453 3.91818 332.698 10.5296 337.783 12.7282C337.332 12.7279 337.487 12.7966 337.588 12.8419C337.715 12.8912 337.914 12.9378 338.139 12.9784C338.587 13.0593 339.131 13.1165 339.727 13.1465C340.899 13.2059 342.283 13.1575 343.804 12.9809C352.472 11.977 361.334 13.839 368.273 14.5962C373.084 15.0598 377.029 15.3625 379.85 14.31C387.45 11.6371 386.844 22.0481 396.568 21.5132C401.895 21.2799 405.79 22.0204 409.048 23.3533C411.694 24.4501 414.306 26.0431 417.422 28.0412C419.539 29.3977 423.217 30.8827 427.485 31.9129C436.491 33.8454 447.807 36.1182 454.206 35.0517C455.798 34.9091 457.15 34.8043 458.306 34.6187C464.675 33.6518 469.55 36.937 472.077 39.1735L471.832 39.1331C475.778 41.198 478.942 43.9045 481.206 44.9898C481.504 45.1326 481.781 45.2736 482.039 45.4113L481.955 45.4056C482.583 45.691 482.741 45.914 482.793 46.1973C482.83 46.4923 483.091 46.7457 483.493 46.6828C483.899 46.6376 484.609 46.6601 485.232 46.9033C485.232 46.9035 485.232 46.9036 485.233 46.9038C485.993 47.1932 486.692 47.8884 486.174 48.8205C485.8 49.4916 484.995 50.2681 484.058 50.6397C483.132 51.0253 482.28 51.1167 481.636 51.2576C481.622 51.2552 481.581 51.2556 481.568 51.253C478.457 51.7384 474.982 52.1936 471.248 53.7093C470.651 53.9487 470.097 54.1574 469.577 54.3372C469.529 54.3245 469.382 54.3117 469.335 54.2975C459.703 55.6281 458.792 50.8083 452.852 50.6227C451.247 50.5899 449.545 50.62 447.628 50.7875C439.057 51.5165 432.929 53.7114 426.105 54.336C421.064 54.6497 415.817 54.0262 409.697 51.6089C407.518 50.7431 405.529 50.2203 403.622 49.9246C391.793 48.1742 386.109 56.9314 370.521 48.3835C369.638 47.933 368.778 47.5514 367.942 47.2325C351.814 42.0015 349.796 50.8141 332.616 54.5685C327.478 55.1079 323.986 55.2769 319.974 54.9876C316.761 54.7464 313.731 54.3136 310.714 53.7997C302.056 52.2941 292.353 50.0667 284.917 49.2166C279.784 49.3394 278.261 48.7837 276.072 48.5006C274.089 48.1722 272.394 47.878 270.843 47.6613C267.75 47.2239 265.221 47.0937 263.223 47.3722C259.69 47.8593 256.08 48.7597 253.107 49.9621C236.669 54.4305 226.903 54.3072 214.015 54.148C210.643 54.0262 207.185 54.1686 203.656 54.4921C191.451 55.6645 176.565 59.4335 161.967 59.5086C158.856 59.4906 155.532 59.441 151.863 59.1576C141.217 58.473 127.289 57.1902 115.397 55.0877C103.658 53.032 92.8274 51.004 86.0061 49.3793C72.4094 46.1387 69.103 45.4046 56.0213 47.397C52.5333 47.9294 48.4042 47.9809 44.1447 47.4606C39.1985 46.8621 34.0918 45.5075 29.405 43.2581C25.0058 41.1417 26.0134 38.1949 30.4317 36.7849C36.0458 34.9959 40.7914 35.7965 44.1447 33.633C44.6383 33.3033 45.114 32.9048 45.5642 32.4179C52.2276 25.0577 55.0741 22.2344 63.4847 26.5157C71.9103 30.796 75.8664 21.0582 80.7719 22.1741C85.6732 23.2848 85.6174 29.0505 110.522 24.5523C112.125 24.257 113.74 23.975 115.238 23.7055C136.404 19.8961 146.287 16.8927 156.87 15.1483C157.633 15.0165 158.468 14.9151 159.373 14.8434C168.614 14.1672 185.197 16.3152 199.969 13.5166C200.359 13.4452 200.746 13.3706 201.127 13.2926C211.321 11.0018 234.374 10.2425 240.864 7.96894C249.006 5.33661 255.666 4.27997 260.164 3.09183C267.28 1.2977 270.861 2.06549 273.7 3.49603C275.112 4.22401 276.344 5.15606 277.589 6.12854C278.218 6.61454 278.826 7.11021 279.399 7.58987C279.926 8.07551 280.57 8.5112 280.307 8.99096C281.212 9.21162 282.149 9.42876 283.144 9.63435Z" fill="#C7EA2C"/>
</svg>
