<svg width="339" height="477" viewBox="0 0 339 477" fill="none" xmlns="http://www.w3.org/2000/svg">
<path d="M0.661926 45.2344H104.813V88.8171H326.289V476.918H0.661926V45.2344Z" fill="#373737"/>
<mask id="path-2-outside-1_1_189" maskUnits="userSpaceOnUse" x="-0.56073" y="46.0229" width="103" height="51" fill="black">
<rect fill="white" x="-0.56073" y="46.0229" width="103" height="51"/>
<path d="M34.6952 56.3577V87.0613H26.1749V64.8779H18.3455V87.0613H9.78682V56.3577H34.6952ZM62.8811 78.0038H46.493V87.0229H37.9343V56.3193H62.8811V78.0038ZM54.3608 64.8396H46.493V69.4451H54.3608V64.8396ZM65.8579 87.0229V56.3193H92.263V87.0229H65.8579ZM83.7427 78.5027V64.8396H74.3781V78.5027H83.7427Z"/>
</mask>
<path d="M34.6952 56.3577V87.0613H26.1749V64.8779H18.3455V87.0613H9.78682V56.3577H34.6952ZM62.8811 78.0038H46.493V87.0229H37.9343V56.3193H62.8811V78.0038ZM54.3608 64.8396H46.493V69.4451H54.3608V64.8396ZM65.8579 87.0229V56.3193H92.263V87.0229H65.8579ZM83.7427 78.5027V64.8396H74.3781V78.5027H83.7427Z" fill="white"/>
<path d="M34.6952 56.3577H44.4819V46.5709H34.6952V56.3577ZM34.6952 87.0613V96.8481H44.4819V87.0613H34.6952ZM26.1749 87.0613H16.3881V96.8481H26.1749V87.0613ZM26.1749 64.8779H35.9617V55.0911H26.1749V64.8779ZM18.3455 64.8779V55.0911H8.55867V64.8779H18.3455ZM18.3455 87.0613V96.8481H28.1323V87.0613H18.3455ZM9.78682 87.0613H2.76566e-05V96.8481H9.78682V87.0613ZM9.78682 56.3577V46.5709H2.76566e-05V56.3577H9.78682ZM34.6952 56.3577H24.9084V87.0613H34.6952H44.4819V56.3577H34.6952ZM34.6952 87.0613V77.2745H26.1749V87.0613V96.8481H34.6952V87.0613ZM26.1749 87.0613H35.9617V64.8779H26.1749H16.3881V87.0613H26.1749ZM26.1749 64.8779V55.0911H18.3455V64.8779V74.6647H26.1749V64.8779ZM18.3455 64.8779H8.55867V87.0613H18.3455H28.1323V64.8779H18.3455ZM18.3455 87.0613V77.2745H9.78682V87.0613V96.8481H18.3455V87.0613ZM9.78682 87.0613H19.5736V56.3577H9.78682H2.76566e-05V87.0613H9.78682ZM9.78682 56.3577V66.1445H34.6952V56.3577V46.5709H9.78682V56.3577ZM62.8811 78.0037V87.7905H72.6678V78.0037H62.8811ZM46.493 78.0037V68.217H36.7062V78.0037H46.493ZM46.493 87.0229V96.8097H56.2798V87.0229H46.493ZM37.9343 87.0229H28.1475V96.8097H37.9343V87.0229ZM37.9343 56.3193V46.5325H28.1475V56.3193H37.9343ZM62.8811 56.3193H72.6678V46.5325H62.8811V56.3193ZM54.3608 64.8396H64.1476V55.0528H54.3608V64.8396ZM46.493 64.8396V55.0528H36.7062V64.8396H46.493ZM46.493 69.4451H36.7062V79.2319H46.493V69.4451ZM54.3608 69.4451V79.2319H64.1476V69.4451H54.3608ZM62.8811 78.0037V68.217H46.493V78.0037V87.7905H62.8811V78.0037ZM46.493 78.0037H36.7062V87.0229H46.493H56.2798V78.0037H46.493ZM46.493 87.0229V77.2362H37.9343V87.0229V96.8097H46.493V87.0229ZM37.9343 87.0229H47.7211V56.3193H37.9343H28.1475V87.0229H37.9343ZM37.9343 56.3193V66.1061H62.8811V56.3193V46.5325H37.9343V56.3193ZM62.8811 56.3193H53.0943V78.0037H62.8811H72.6678V56.3193H62.8811ZM54.3608 64.8396V55.0528H46.493V64.8396V74.6264H54.3608V64.8396ZM46.493 64.8396H36.7062V69.4451H46.493H56.2798V64.8396H46.493ZM46.493 69.4451V79.2319H54.3608V69.4451V59.6583H46.493V69.4451ZM54.3608 69.4451H64.1476V64.8396H54.3608H44.574V69.4451H54.3608ZM65.8579 87.0229H56.0711V96.8097H65.8579V87.0229ZM65.8579 56.3193V46.5325H56.0711V56.3193H65.8579ZM92.263 56.3193H102.05V46.5325H92.263V56.3193ZM92.263 87.0229V96.8097H102.05V87.0229H92.263ZM83.7427 78.5027V88.2895H93.5295V78.5027H83.7427ZM83.7427 64.8396H93.5295V55.0528H83.7427V64.8396ZM74.3781 64.8396V55.0528H64.5913V64.8396H74.3781ZM74.3781 78.5027H64.5913V88.2895H74.3781V78.5027ZM65.8579 87.0229H75.6447V56.3193H65.8579H56.0711V87.0229H65.8579ZM65.8579 56.3193V66.1061H92.263V56.3193V46.5325H65.8579V56.3193ZM92.263 56.3193H82.4762V87.0229H92.263H102.05V56.3193H92.263ZM92.263 87.0229V77.2362H65.8579V87.0229V96.8097H92.263V87.0229ZM83.7427 78.5027H93.5295V64.8396H83.7427H73.956V78.5027H83.7427ZM83.7427 64.8396V55.0528H74.3781V64.8396V74.6264H83.7427V64.8396ZM74.3781 64.8396H64.5913V78.5027H74.3781H84.1649V64.8396H74.3781ZM74.3781 78.5027V88.2895H83.7427V78.5027V68.7159H74.3781V78.5027Z" fill="#373737" mask="url(#path-2-outside-1_1_189)"/>
<g clip-path="url(#clip0_1_189)">
<path d="M322.146 155.434H0.661926V476.919H322.146V155.434Z" fill="#373737"/>
<path d="M27.5975 174.723H19.9514V182.369H27.5975V174.723Z" fill="white"/>
<path d="M35.2438 174.723H27.5977V182.369H35.2438V174.723Z" fill="white"/>
<path d="M42.8891 174.723H35.243V182.369H42.8891V174.723Z" fill="white"/>
<path d="M50.536 174.723H42.8899V182.369H50.536V174.723Z" fill="white"/>
<path d="M58.1824 174.723H50.5363V182.369H58.1824V174.723Z" fill="white"/>
<path d="M65.8276 174.723H58.1815V182.369H65.8276V174.723Z" fill="white"/>
<path d="M73.4741 174.723H65.8279V182.369H73.4741V174.723Z" fill="white"/>
<path d="M88.7662 174.723H81.1201V182.369H88.7662V174.723Z" fill="white"/>
<path d="M96.412 174.723H88.7659V182.369H96.412V174.723Z" fill="white"/>
<path d="M104.058 174.723H96.4117V182.369H104.058V174.723Z" fill="white"/>
<path d="M111.705 174.723H104.059V182.369H111.705V174.723Z" fill="white"/>
<path d="M119.351 174.723H111.705V182.369H119.351V174.723Z" fill="white"/>
<path d="M134.643 174.723H126.997V182.369H134.643V174.723Z" fill="white"/>
<path d="M149.934 174.723H142.288V182.369H149.934V174.723Z" fill="white"/>
<path d="M157.581 174.723H149.935V182.369H157.581V174.723Z" fill="white"/>
<path d="M172.873 174.723H165.227V182.369H172.873V174.723Z" fill="white"/>
<path d="M180.519 174.723H172.873V182.369H180.519V174.723Z" fill="white"/>
<path d="M188.166 174.723H180.52V182.369H188.166V174.723Z" fill="white"/>
<path d="M195.812 174.723H188.166V182.369H195.812V174.723Z" fill="white"/>
<path d="M203.458 174.723H195.812V182.369H203.458V174.723Z" fill="white"/>
<path d="M211.105 174.723H203.459V182.369H211.105V174.723Z" fill="white"/>
<path d="M256.98 174.723H249.334V182.369H256.98V174.723Z" fill="white"/>
<path d="M264.627 174.723H256.981V182.369H264.627V174.723Z" fill="white"/>
<path d="M272.273 174.723H264.627V182.369H272.273V174.723Z" fill="white"/>
<path d="M279.919 174.723H272.273V182.369H279.919V174.723Z" fill="white"/>
<path d="M287.565 174.723H279.919V182.369H287.565V174.723Z" fill="white"/>
<path d="M295.212 174.723H287.566V182.369H295.212V174.723Z" fill="white"/>
<path d="M302.858 174.723H295.211V182.369H302.858V174.723Z" fill="white"/>
<path d="M27.5975 182.369H19.9514V190.015H27.5975V182.369Z" fill="white"/>
<path d="M73.4741 182.369H65.8279V190.015H73.4741V182.369Z" fill="white"/>
<path d="M88.7662 182.369H81.1201V190.015H88.7662V182.369Z" fill="white"/>
<path d="M96.412 182.369H88.7659V190.015H96.412V182.369Z" fill="white"/>
<path d="M119.351 182.369H111.705V190.015H119.351V182.369Z" fill="white"/>
<path d="M126.996 182.369H119.35V190.015H126.996V182.369Z" fill="white"/>
<path d="M134.643 182.369H126.997V190.015H134.643V182.369Z" fill="white"/>
<path d="M142.29 182.369H134.644V190.015H142.29V182.369Z" fill="white"/>
<path d="M157.581 182.369H149.935V190.015H157.581V182.369Z" fill="white"/>
<path d="M172.873 182.369H165.227V190.015H172.873V182.369Z" fill="white"/>
<path d="M211.105 182.369H203.459V190.015H211.105V182.369Z" fill="white"/>
<path d="M218.75 182.369H211.104V190.015H218.75V182.369Z" fill="white"/>
<path d="M226.396 182.369H218.75V190.015H226.396V182.369Z" fill="white"/>
<path d="M234.043 182.369H226.397V190.015H234.043V182.369Z" fill="white"/>
<path d="M241.689 182.369H234.043V190.015H241.689V182.369Z" fill="white"/>
<path d="M256.98 182.369H249.334V190.015H256.98V182.369Z" fill="white"/>
<path d="M302.858 182.369H295.211V190.015H302.858V182.369Z" fill="white"/>
<path d="M27.5975 190.016H19.9514V197.662H27.5975V190.016Z" fill="white"/>
<path d="M42.8891 190.016H35.243V197.662H42.8891V190.016Z" fill="white"/>
<path d="M50.536 190.016H42.8899V197.662H50.536V190.016Z" fill="white"/>
<path d="M58.1824 190.016H50.5363V197.662H58.1824V190.016Z" fill="white"/>
<path d="M73.4741 190.016H65.8279V197.662H73.4741V190.016Z" fill="white"/>
<path d="M88.7662 190.016H81.1201V197.662H88.7662V190.016Z" fill="white"/>
<path d="M104.058 190.016H96.4117V197.662H104.058V190.016Z" fill="white"/>
<path d="M119.351 190.016H111.705V197.662H119.351V190.016Z" fill="white"/>
<path d="M149.934 190.016H142.288V197.662H149.934V190.016Z" fill="white"/>
<path d="M165.228 190.016H157.582V197.662H165.228V190.016Z" fill="white"/>
<path d="M172.873 190.016H165.227V197.662H172.873V190.016Z" fill="white"/>
<path d="M180.519 190.016H172.873V197.662H180.519V190.016Z" fill="white"/>
<path d="M203.458 190.016H195.812V197.662H203.458V190.016Z" fill="white"/>
<path d="M241.689 190.016H234.043V197.662H241.689V190.016Z" fill="white"/>
<path d="M256.98 190.016H249.334V197.662H256.98V190.016Z" fill="white"/>
<path d="M272.273 190.016H264.627V197.662H272.273V190.016Z" fill="white"/>
<path d="M279.919 190.016H272.273V197.662H279.919V190.016Z" fill="white"/>
<path d="M287.565 190.016H279.919V197.662H287.565V190.016Z" fill="white"/>
<path d="M302.858 190.016H295.211V197.662H302.858V190.016Z" fill="white"/>
<path d="M27.5975 197.662H19.9514V205.308H27.5975V197.662Z" fill="white"/>
<path d="M42.8891 197.662H35.243V205.308H42.8891V197.662Z" fill="white"/>
<path d="M50.536 197.662H42.8899V205.308H50.536V197.662Z" fill="white"/>
<path d="M58.1824 197.662H50.5363V205.308H58.1824V197.662Z" fill="white"/>
<path d="M73.4741 197.662H65.8279V205.308H73.4741V197.662Z" fill="white"/>
<path d="M96.412 197.662H88.7659V205.308H96.412V197.662Z" fill="white"/>
<path d="M111.705 197.662H104.059V205.308H111.705V197.662Z" fill="white"/>
<path d="M119.351 197.662H111.705V205.308H119.351V197.662Z" fill="white"/>
<path d="M126.996 197.662H119.35V205.308H126.996V197.662Z" fill="white"/>
<path d="M134.643 197.662H126.997V205.308H134.643V197.662Z" fill="white"/>
<path d="M142.29 197.662H134.644V205.308H142.29V197.662Z" fill="white"/>
<path d="M157.581 197.662H149.935V205.308H157.581V197.662Z" fill="white"/>
<path d="M165.228 197.662H157.582V205.308H165.228V197.662Z" fill="white"/>
<path d="M172.873 197.662H165.227V205.308H172.873V197.662Z" fill="white"/>
<path d="M211.105 197.662H203.459V205.308H211.105V197.662Z" fill="white"/>
<path d="M226.396 197.662H218.75V205.308H226.396V197.662Z" fill="white"/>
<path d="M234.043 197.662H226.397V205.308H234.043V197.662Z" fill="white"/>
<path d="M256.98 197.662H249.334V205.308H256.98V197.662Z" fill="white"/>
<path d="M272.273 197.662H264.627V205.308H272.273V197.662Z" fill="white"/>
<path d="M279.919 197.662H272.273V205.308H279.919V197.662Z" fill="white"/>
<path d="M287.565 197.662H279.919V205.308H287.565V197.662Z" fill="white"/>
<path d="M302.858 197.662H295.211V205.308H302.858V197.662Z" fill="white"/>
<path d="M27.5975 205.308H19.9514V212.954H27.5975V205.308Z" fill="white"/>
<path d="M42.8891 205.308H35.243V212.954H42.8891V205.308Z" fill="white"/>
<path d="M50.536 205.308H42.8899V212.954H50.536V205.308Z" fill="white"/>
<path d="M58.1824 205.308H50.5363V212.954H58.1824V205.308Z" fill="white"/>
<path d="M73.4741 205.308H65.8279V212.954H73.4741V205.308Z" fill="white"/>
<path d="M126.996 205.308H119.35V212.954H126.996V205.308Z" fill="white"/>
<path d="M149.934 205.308H142.288V212.954H149.934V205.308Z" fill="white"/>
<path d="M180.519 205.308H172.873V212.954H180.519V205.308Z" fill="white"/>
<path d="M188.166 205.308H180.52V212.954H188.166V205.308Z" fill="white"/>
<path d="M195.812 205.308H188.166V212.954H195.812V205.308Z" fill="white"/>
<path d="M211.105 205.308H203.459V212.954H211.105V205.308Z" fill="white"/>
<path d="M226.396 205.308H218.75V212.954H226.396V205.308Z" fill="white"/>
<path d="M256.98 205.308H249.334V212.954H256.98V205.308Z" fill="white"/>
<path d="M272.273 205.308H264.627V212.954H272.273V205.308Z" fill="white"/>
<path d="M279.919 205.308H272.273V212.954H279.919V205.308Z" fill="white"/>
<path d="M287.565 205.308H279.919V212.954H287.565V205.308Z" fill="white"/>
<path d="M302.858 205.308H295.211V212.954H302.858V205.308Z" fill="white"/>
<path d="M27.5975 212.954H19.9514V220.6H27.5975V212.954Z" fill="white"/>
<path d="M73.4741 212.954H65.8279V220.6H73.4741V212.954Z" fill="white"/>
<path d="M88.7662 212.954H81.1201V220.6H88.7662V212.954Z" fill="white"/>
<path d="M96.412 212.954H88.7659V220.6H96.412V212.954Z" fill="white"/>
<path d="M104.058 212.954H96.4117V220.6H104.058V212.954Z" fill="white"/>
<path d="M111.705 212.954H104.059V220.6H111.705V212.954Z" fill="white"/>
<path d="M119.351 212.954H111.705V220.6H119.351V212.954Z" fill="white"/>
<path d="M126.996 212.954H119.35V220.6H126.996V212.954Z" fill="white"/>
<path d="M134.643 212.954H126.997V220.6H134.643V212.954Z" fill="white"/>
<path d="M142.29 212.954H134.644V220.6H142.29V212.954Z" fill="white"/>
<path d="M165.228 212.954H157.582V220.6H165.228V212.954Z" fill="white"/>
<path d="M172.873 212.954H165.227V220.6H172.873V212.954Z" fill="white"/>
<path d="M180.519 212.954H172.873V220.6H180.519V212.954Z" fill="white"/>
<path d="M188.166 212.954H180.52V220.6H188.166V212.954Z" fill="white"/>
<path d="M195.812 212.954H188.166V220.6H195.812V212.954Z" fill="white"/>
<path d="M211.105 212.954H203.459V220.6H211.105V212.954Z" fill="white"/>
<path d="M241.689 212.954H234.043V220.6H241.689V212.954Z" fill="white"/>
<path d="M256.98 212.954H249.334V220.6H256.98V212.954Z" fill="white"/>
<path d="M302.858 212.954H295.211V220.6H302.858V212.954Z" fill="white"/>
<path d="M27.5975 220.6H19.9514V228.246H27.5975V220.6Z" fill="white"/>
<path d="M35.2438 220.6H27.5977V228.246H35.2438V220.6Z" fill="white"/>
<path d="M42.8891 220.6H35.243V228.246H42.8891V220.6Z" fill="white"/>
<path d="M50.536 220.6H42.8899V228.246H50.536V220.6Z" fill="white"/>
<path d="M58.1824 220.6H50.5363V228.246H58.1824V220.6Z" fill="white"/>
<path d="M65.8276 220.6H58.1815V228.246H65.8276V220.6Z" fill="white"/>
<path d="M73.4741 220.6H65.8279V228.246H73.4741V220.6Z" fill="white"/>
<path d="M88.7662 220.6H81.1201V228.246H88.7662V220.6Z" fill="white"/>
<path d="M104.058 220.6H96.4117V228.246H104.058V220.6Z" fill="white"/>
<path d="M119.351 220.6H111.705V228.246H119.351V220.6Z" fill="white"/>
<path d="M134.643 220.6H126.997V228.246H134.643V220.6Z" fill="white"/>
<path d="M149.934 220.6H142.288V228.246H149.934V220.6Z" fill="white"/>
<path d="M165.228 220.6H157.582V228.246H165.228V220.6Z" fill="white"/>
<path d="M180.519 220.6H172.873V228.246H180.519V220.6Z" fill="white"/>
<path d="M195.812 220.6H188.166V228.246H195.812V220.6Z" fill="white"/>
<path d="M211.105 220.6H203.459V228.246H211.105V220.6Z" fill="white"/>
<path d="M226.396 220.6H218.75V228.246H226.396V220.6Z" fill="white"/>
<path d="M241.689 220.6H234.043V228.246H241.689V220.6Z" fill="white"/>
<path d="M256.98 220.6H249.334V228.246H256.98V220.6Z" fill="white"/>
<path d="M264.627 220.6H256.981V228.246H264.627V220.6Z" fill="white"/>
<path d="M272.273 220.6H264.627V228.246H272.273V220.6Z" fill="white"/>
<path d="M279.919 220.6H272.273V228.246H279.919V220.6Z" fill="white"/>
<path d="M287.565 220.6H279.919V228.246H287.565V220.6Z" fill="white"/>
<path d="M295.212 220.6H287.566V228.246H295.212V220.6Z" fill="white"/>
<path d="M302.858 220.6H295.211V228.246H302.858V220.6Z" fill="white"/>
<path d="M88.7662 228.246H81.1201V235.892H88.7662V228.246Z" fill="white"/>
<path d="M96.412 228.246H88.7659V235.892H96.412V228.246Z" fill="white"/>
<path d="M104.058 228.246H96.4117V235.892H104.058V228.246Z" fill="white"/>
<path d="M111.705 228.246H104.059V235.892H111.705V228.246Z" fill="white"/>
<path d="M119.351 228.246H111.705V235.892H119.351V228.246Z" fill="white"/>
<path d="M134.643 228.246H126.997V235.892H134.643V228.246Z" fill="white"/>
<path d="M157.581 228.246H149.935V235.892H157.581V228.246Z" fill="white"/>
<path d="M172.873 228.246H165.227V235.892H172.873V228.246Z" fill="white"/>
<path d="M203.458 228.246H195.812V235.892H203.458V228.246Z" fill="white"/>
<path d="M226.396 228.246H218.75V235.892H226.396V228.246Z" fill="white"/>
<path d="M42.8891 235.892H35.243V243.538H42.8891V235.892Z" fill="white"/>
<path d="M50.536 235.892H42.8899V243.538H50.536V235.892Z" fill="white"/>
<path d="M58.1824 235.892H50.5363V243.538H58.1824V235.892Z" fill="white"/>
<path d="M73.4741 235.892H65.8279V243.538H73.4741V235.892Z" fill="white"/>
<path d="M88.7662 235.892H81.1201V243.538H88.7662V235.892Z" fill="white"/>
<path d="M96.412 235.892H88.7659V243.538H96.412V235.892Z" fill="white"/>
<path d="M111.705 235.892H104.059V243.538H111.705V235.892Z" fill="white"/>
<path d="M119.351 235.892H111.705V243.538H119.351V235.892Z" fill="white"/>
<path d="M134.643 235.892H126.997V243.538H134.643V235.892Z" fill="white"/>
<path d="M149.934 235.892H142.288V243.538H149.934V235.892Z" fill="white"/>
<path d="M172.873 235.892H165.227V243.538H172.873V235.892Z" fill="white"/>
<path d="M180.519 235.892H172.873V243.538H180.519V235.892Z" fill="white"/>
<path d="M195.812 235.892H188.166V243.538H195.812V235.892Z" fill="white"/>
<path d="M234.043 235.892H226.397V243.538H234.043V235.892Z" fill="white"/>
<path d="M249.335 235.892H241.689V243.538H249.335V235.892Z" fill="white"/>
<path d="M256.98 235.892H249.334V243.538H256.98V235.892Z" fill="white"/>
<path d="M264.627 235.892H256.981V243.538H264.627V235.892Z" fill="white"/>
<path d="M287.565 235.892H279.919V243.538H287.565V235.892Z" fill="white"/>
<path d="M295.212 235.892H287.566V243.538H295.212V235.892Z" fill="white"/>
<path d="M302.858 235.892H295.211V243.538H302.858V235.892Z" fill="white"/>
<path d="M42.8891 243.538H35.243V251.184H42.8891V243.538Z" fill="white"/>
<path d="M81.121 243.538H73.4749V251.184H81.121V243.538Z" fill="white"/>
<path d="M88.7662 243.538H81.1201V251.184H88.7662V243.538Z" fill="white"/>
<path d="M104.058 243.538H96.4117V251.184H104.058V243.538Z" fill="white"/>
<path d="M119.351 243.538H111.705V251.184H119.351V243.538Z" fill="white"/>
<path d="M149.934 243.538H142.288V251.184H149.934V243.538Z" fill="white"/>
<path d="M165.228 243.538H157.582V251.184H165.228V243.538Z" fill="white"/>
<path d="M172.873 243.538H165.227V251.184H172.873V243.538Z" fill="white"/>
<path d="M180.519 243.538H172.873V251.184H180.519V243.538Z" fill="white"/>
<path d="M195.812 243.538H188.166V251.184H195.812V243.538Z" fill="white"/>
<path d="M211.105 243.538H203.459V251.184H211.105V243.538Z" fill="white"/>
<path d="M226.396 243.538H218.75V251.184H226.396V243.538Z" fill="white"/>
<path d="M234.043 243.538H226.397V251.184H234.043V243.538Z" fill="white"/>
<path d="M241.689 243.538H234.043V251.184H241.689V243.538Z" fill="white"/>
<path d="M256.98 243.538H249.334V251.184H256.98V243.538Z" fill="white"/>
<path d="M27.5975 251.184H19.9514V258.83H27.5975V251.184Z" fill="white"/>
<path d="M50.536 251.184H42.8899V258.83H50.536V251.184Z" fill="white"/>
<path d="M58.1824 251.184H50.5363V258.83H58.1824V251.184Z" fill="white"/>
<path d="M73.4741 251.184H65.8279V258.83H73.4741V251.184Z" fill="white"/>
<path d="M96.412 251.184H88.7659V258.83H96.412V251.184Z" fill="white"/>
<path d="M111.705 251.184H104.059V258.83H111.705V251.184Z" fill="white"/>
<path d="M126.996 251.184H119.35V258.83H126.996V251.184Z" fill="white"/>
<path d="M134.643 251.184H126.997V258.83H134.643V251.184Z" fill="white"/>
<path d="M149.934 251.184H142.288V258.83H149.934V251.184Z" fill="white"/>
<path d="M157.581 251.184H149.935V258.83H157.581V251.184Z" fill="white"/>
<path d="M165.228 251.184H157.582V258.83H165.228V251.184Z" fill="white"/>
<path d="M180.519 251.184H172.873V258.83H180.519V251.184Z" fill="white"/>
<path d="M203.458 251.184H195.812V258.83H203.458V251.184Z" fill="white"/>
<path d="M211.105 251.184H203.459V258.83H211.105V251.184Z" fill="white"/>
<path d="M218.75 251.184H211.104V258.83H218.75V251.184Z" fill="white"/>
<path d="M249.335 251.184H241.689V258.83H249.335V251.184Z" fill="white"/>
<path d="M256.98 251.184H249.334V258.83H256.98V251.184Z" fill="white"/>
<path d="M279.919 251.184H272.273V258.83H279.919V251.184Z" fill="white"/>
<path d="M287.565 251.184H279.919V258.83H287.565V251.184Z" fill="white"/>
<path d="M35.2438 258.831H27.5977V266.477H35.2438V258.831Z" fill="white"/>
<path d="M42.8891 258.831H35.243V266.477H42.8891V258.831Z" fill="white"/>
<path d="M50.536 258.831H42.8899V266.477H50.536V258.831Z" fill="white"/>
<path d="M58.1824 258.831H50.5363V266.477H58.1824V258.831Z" fill="white"/>
<path d="M65.8276 258.831H58.1815V266.477H65.8276V258.831Z" fill="white"/>
<path d="M81.121 258.831H73.4749V266.477H81.121V258.831Z" fill="white"/>
<path d="M104.058 258.831H96.4117V266.477H104.058V258.831Z" fill="white"/>
<path d="M126.996 258.831H119.35V266.477H126.996V258.831Z" fill="white"/>
<path d="M134.643 258.831H126.997V266.477H134.643V258.831Z" fill="white"/>
<path d="M142.29 258.831H134.644V266.477H142.29V258.831Z" fill="white"/>
<path d="M165.228 258.831H157.582V266.477H165.228V258.831Z" fill="white"/>
<path d="M172.873 258.831H165.227V266.477H172.873V258.831Z" fill="white"/>
<path d="M180.519 258.831H172.873V266.477H180.519V258.831Z" fill="white"/>
<path d="M188.166 258.831H180.52V266.477H188.166V258.831Z" fill="white"/>
<path d="M203.458 258.831H195.812V266.477H203.458V258.831Z" fill="white"/>
<path d="M218.75 258.831H211.104V266.477H218.75V258.831Z" fill="white"/>
<path d="M241.689 258.831H234.043V266.477H241.689V258.831Z" fill="white"/>
<path d="M249.335 258.831H241.689V266.477H249.335V258.831Z" fill="white"/>
<path d="M279.919 258.831H272.273V266.477H279.919V258.831Z" fill="white"/>
<path d="M287.565 258.831H279.919V266.477H287.565V258.831Z" fill="white"/>
<path d="M295.212 258.831H287.566V266.477H295.212V258.831Z" fill="white"/>
<path d="M42.8891 266.477H35.243V274.123H42.8891V266.477Z" fill="white"/>
<path d="M50.536 266.477H42.8899V274.123H50.536V266.477Z" fill="white"/>
<path d="M58.1824 266.477H50.5363V274.123H58.1824V266.477Z" fill="white"/>
<path d="M65.8276 266.477H58.1815V274.123H65.8276V266.477Z" fill="white"/>
<path d="M73.4741 266.477H65.8279V274.123H73.4741V266.477Z" fill="white"/>
<path d="M88.7662 266.477H81.1201V274.123H88.7662V266.477Z" fill="white"/>
<path d="M104.058 266.477H96.4117V274.123H104.058V266.477Z" fill="white"/>
<path d="M111.705 266.477H104.059V274.123H111.705V266.477Z" fill="white"/>
<path d="M119.351 266.477H111.705V274.123H119.351V266.477Z" fill="white"/>
<path d="M142.29 266.477H134.644V274.123H142.29V266.477Z" fill="white"/>
<path d="M149.934 266.477H142.288V274.123H149.934V266.477Z" fill="white"/>
<path d="M157.581 266.477H149.935V274.123H157.581V266.477Z" fill="white"/>
<path d="M172.873 266.477H165.227V274.123H172.873V266.477Z" fill="white"/>
<path d="M180.519 266.477H172.873V274.123H180.519V266.477Z" fill="white"/>
<path d="M188.166 266.477H180.52V274.123H188.166V266.477Z" fill="white"/>
<path d="M203.458 266.477H195.812V274.123H203.458V266.477Z" fill="white"/>
<path d="M211.105 266.477H203.459V274.123H211.105V266.477Z" fill="white"/>
<path d="M218.75 266.477H211.104V274.123H218.75V266.477Z" fill="white"/>
<path d="M226.396 266.477H218.75V274.123H226.396V266.477Z" fill="white"/>
<path d="M241.689 266.477H234.043V274.123H241.689V266.477Z" fill="white"/>
<path d="M249.335 266.477H241.689V274.123H249.335V266.477Z" fill="white"/>
<path d="M256.98 266.477H249.334V274.123H256.98V266.477Z" fill="white"/>
<path d="M264.627 266.477H256.981V274.123H264.627V266.477Z" fill="white"/>
<path d="M295.212 266.477H287.566V274.123H295.212V266.477Z" fill="white"/>
<path d="M302.858 266.477H295.211V274.123H302.858V266.477Z" fill="white"/>
<path d="M35.2438 274.123H27.5977V281.769H35.2438V274.123Z" fill="white"/>
<path d="M42.8891 274.123H35.243V281.769H42.8891V274.123Z" fill="white"/>
<path d="M50.536 274.123H42.8899V281.769H50.536V274.123Z" fill="white"/>
<path d="M81.121 274.123H73.4749V281.769H81.121V274.123Z" fill="white"/>
<path d="M88.7662 274.123H81.1201V281.769H88.7662V274.123Z" fill="white"/>
<path d="M134.643 274.123H126.997V281.769H134.643V274.123Z" fill="white"/>
<path d="M157.581 274.123H149.935V281.769H157.581V274.123Z" fill="white"/>
<path d="M180.519 274.123H172.873V281.769H180.519V274.123Z" fill="white"/>
<path d="M203.458 274.123H195.812V281.769H203.458V274.123Z" fill="white"/>
<path d="M211.105 274.123H203.459V281.769H211.105V274.123Z" fill="white"/>
<path d="M226.396 274.123H218.75V281.769H226.396V274.123Z" fill="white"/>
<path d="M234.043 274.123H226.397V281.769H234.043V274.123Z" fill="white"/>
<path d="M256.98 274.123H249.334V281.769H256.98V274.123Z" fill="white"/>
<path d="M264.627 274.123H256.981V281.769H264.627V274.123Z" fill="white"/>
<path d="M279.919 274.123H272.273V281.769H279.919V274.123Z" fill="white"/>
<path d="M295.212 274.123H287.566V281.769H295.212V274.123Z" fill="white"/>
<path d="M27.5975 281.769H19.9514V289.415H27.5975V281.769Z" fill="white"/>
<path d="M42.8891 281.769H35.243V289.415H42.8891V281.769Z" fill="white"/>
<path d="M50.536 281.769H42.8899V289.415H50.536V281.769Z" fill="white"/>
<path d="M73.4741 281.769H65.8279V289.415H73.4741V281.769Z" fill="white"/>
<path d="M88.7662 281.769H81.1201V289.415H88.7662V281.769Z" fill="white"/>
<path d="M96.412 281.769H88.7659V289.415H96.412V281.769Z" fill="white"/>
<path d="M104.058 281.769H96.4117V289.415H104.058V281.769Z" fill="white"/>
<path d="M111.705 281.769H104.059V289.415H111.705V281.769Z" fill="white"/>
<path d="M126.996 281.769H119.35V289.415H126.996V281.769Z" fill="white"/>
<path d="M134.643 281.769H126.997V289.415H134.643V281.769Z" fill="white"/>
<path d="M142.29 281.769H134.644V289.415H142.29V281.769Z" fill="white"/>
<path d="M149.934 281.769H142.288V289.415H149.934V281.769Z" fill="white"/>
<path d="M157.581 281.769H149.935V289.415H157.581V281.769Z" fill="white"/>
<path d="M172.873 281.769H165.227V289.415H172.873V281.769Z" fill="white"/>
<path d="M188.166 281.769H180.52V289.415H188.166V281.769Z" fill="white"/>
<path d="M195.812 281.769H188.166V289.415H195.812V281.769Z" fill="white"/>
<path d="M218.75 281.769H211.104V289.415H218.75V281.769Z" fill="white"/>
<path d="M226.396 281.769H218.75V289.415H226.396V281.769Z" fill="white"/>
<path d="M241.689 281.769H234.043V289.415H241.689V281.769Z" fill="white"/>
<path d="M249.335 281.769H241.689V289.415H249.335V281.769Z" fill="white"/>
<path d="M256.98 281.769H249.334V289.415H256.98V281.769Z" fill="white"/>
<path d="M272.273 281.769H264.627V289.415H272.273V281.769Z" fill="white"/>
<path d="M279.919 281.769H272.273V289.415H279.919V281.769Z" fill="white"/>
<path d="M287.565 281.769H279.919V289.415H287.565V281.769Z" fill="white"/>
<path d="M27.5975 289.415H19.9514V297.061H27.5975V289.415Z" fill="white"/>
<path d="M65.8276 289.415H58.1815V297.061H65.8276V289.415Z" fill="white"/>
<path d="M81.121 289.415H73.4749V297.061H81.121V289.415Z" fill="white"/>
<path d="M96.412 289.415H88.7659V297.061H96.412V289.415Z" fill="white"/>
<path d="M111.705 289.415H104.059V297.061H111.705V289.415Z" fill="white"/>
<path d="M126.996 289.415H119.35V297.061H126.996V289.415Z" fill="white"/>
<path d="M134.643 289.415H126.997V297.061H134.643V289.415Z" fill="white"/>
<path d="M142.29 289.415H134.644V297.061H142.29V289.415Z" fill="white"/>
<path d="M149.934 289.415H142.288V297.061H149.934V289.415Z" fill="white"/>
<path d="M157.581 289.415H149.935V297.061H157.581V289.415Z" fill="white"/>
<path d="M165.228 289.415H157.582V297.061H165.228V289.415Z" fill="white"/>
<path d="M188.166 289.415H180.52V297.061H188.166V289.415Z" fill="white"/>
<path d="M211.105 289.415H203.459V297.061H211.105V289.415Z" fill="white"/>
<path d="M218.75 289.415H211.104V297.061H218.75V289.415Z" fill="white"/>
<path d="M241.689 289.415H234.043V297.061H241.689V289.415Z" fill="white"/>
<path d="M264.627 289.415H256.981V297.061H264.627V289.415Z" fill="white"/>
<path d="M279.919 289.415H272.273V297.061H279.919V289.415Z" fill="white"/>
<path d="M27.5975 297.061H19.9514V304.707H27.5975V297.061Z" fill="white"/>
<path d="M35.2438 297.061H27.5977V304.707H35.2438V297.061Z" fill="white"/>
<path d="M50.536 297.061H42.8899V304.707H50.536V297.061Z" fill="white"/>
<path d="M58.1824 297.061H50.5363V304.707H58.1824V297.061Z" fill="white"/>
<path d="M65.8276 297.061H58.1815V304.707H65.8276V297.061Z" fill="white"/>
<path d="M73.4741 297.061H65.8279V304.707H73.4741V297.061Z" fill="white"/>
<path d="M111.705 297.061H104.059V304.707H111.705V297.061Z" fill="white"/>
<path d="M126.996 297.061H119.35V304.707H126.996V297.061Z" fill="white"/>
<path d="M157.581 297.061H149.935V304.707H157.581V297.061Z" fill="white"/>
<path d="M180.519 297.061H172.873V304.707H180.519V297.061Z" fill="white"/>
<path d="M211.105 297.061H203.459V304.707H211.105V297.061Z" fill="white"/>
<path d="M218.75 297.061H211.104V304.707H218.75V297.061Z" fill="white"/>
<path d="M226.396 297.061H218.75V304.707H226.396V297.061Z" fill="white"/>
<path d="M234.043 297.061H226.397V304.707H234.043V297.061Z" fill="white"/>
<path d="M249.335 297.061H241.689V304.707H249.335V297.061Z" fill="white"/>
<path d="M264.627 297.061H256.981V304.707H264.627V297.061Z" fill="white"/>
<path d="M272.273 297.061H264.627V304.707H272.273V297.061Z" fill="white"/>
<path d="M287.565 297.061H279.919V304.707H287.565V297.061Z" fill="white"/>
<path d="M295.212 297.061H287.566V304.707H295.212V297.061Z" fill="white"/>
<path d="M302.858 297.061H295.211V304.707H302.858V297.061Z" fill="white"/>
<path d="M27.5975 304.707H19.9514V312.353H27.5975V304.707Z" fill="white"/>
<path d="M35.2438 304.707H27.5977V312.353H35.2438V304.707Z" fill="white"/>
<path d="M42.8891 304.707H35.243V312.353H42.8891V304.707Z" fill="white"/>
<path d="M50.536 304.707H42.8899V312.353H50.536V304.707Z" fill="white"/>
<path d="M81.121 304.707H73.4749V312.353H81.121V304.707Z" fill="white"/>
<path d="M88.7662 304.707H81.1201V312.353H88.7662V304.707Z" fill="white"/>
<path d="M104.058 304.707H96.4117V312.353H104.058V304.707Z" fill="white"/>
<path d="M111.705 304.707H104.059V312.353H111.705V304.707Z" fill="white"/>
<path d="M134.643 304.707H126.997V312.353H134.643V304.707Z" fill="white"/>
<path d="M149.934 304.707H142.288V312.353H149.934V304.707Z" fill="white"/>
<path d="M165.228 304.707H157.582V312.353H165.228V304.707Z" fill="white"/>
<path d="M226.396 304.707H218.75V312.353H226.396V304.707Z" fill="white"/>
<path d="M234.043 304.707H226.397V312.353H234.043V304.707Z" fill="white"/>
<path d="M249.335 304.707H241.689V312.353H249.335V304.707Z" fill="white"/>
<path d="M256.98 304.707H249.334V312.353H256.98V304.707Z" fill="white"/>
<path d="M264.627 304.707H256.981V312.353H264.627V304.707Z" fill="white"/>
<path d="M272.273 304.707H264.627V312.353H272.273V304.707Z" fill="white"/>
<path d="M279.919 304.707H272.273V312.353H279.919V304.707Z" fill="white"/>
<path d="M302.858 304.707H295.211V312.353H302.858V304.707Z" fill="white"/>
<path d="M35.2438 312.354H27.5977V320H35.2438V312.354Z" fill="white"/>
<path d="M42.8891 312.354H35.243V320H42.8891V312.354Z" fill="white"/>
<path d="M50.536 312.354H42.8899V320H50.536V312.354Z" fill="white"/>
<path d="M73.4741 312.354H65.8279V320H73.4741V312.354Z" fill="white"/>
<path d="M81.121 312.354H73.4749V320H81.121V312.354Z" fill="white"/>
<path d="M96.412 312.354H88.7659V320H96.412V312.354Z" fill="white"/>
<path d="M111.705 312.354H104.059V320H111.705V312.354Z" fill="white"/>
<path d="M119.351 312.354H111.705V320H119.351V312.354Z" fill="white"/>
<path d="M126.996 312.354H119.35V320H126.996V312.354Z" fill="white"/>
<path d="M134.643 312.354H126.997V320H134.643V312.354Z" fill="white"/>
<path d="M172.873 312.354H165.227V320H172.873V312.354Z" fill="white"/>
<path d="M195.812 312.354H188.166V320H195.812V312.354Z" fill="white"/>
<path d="M226.396 312.354H218.75V320H226.396V312.354Z" fill="white"/>
<path d="M234.043 312.354H226.397V320H234.043V312.354Z" fill="white"/>
<path d="M241.689 312.354H234.043V320H241.689V312.354Z" fill="white"/>
<path d="M249.335 312.354H241.689V320H249.335V312.354Z" fill="white"/>
<path d="M256.98 312.354H249.334V320H256.98V312.354Z" fill="white"/>
<path d="M272.273 312.354H264.627V320H272.273V312.354Z" fill="white"/>
<path d="M279.919 312.354H272.273V320H279.919V312.354Z" fill="white"/>
<path d="M287.565 312.354H279.919V320H287.565V312.354Z" fill="white"/>
<path d="M295.212 312.354H287.566V320H295.212V312.354Z" fill="white"/>
<path d="M302.858 312.354H295.211V320H302.858V312.354Z" fill="white"/>
<path d="M42.8891 320H35.243V327.646H42.8891V320Z" fill="white"/>
<path d="M58.1824 320H50.5363V327.646H58.1824V320Z" fill="white"/>
<path d="M65.8276 320H58.1815V327.646H65.8276V320Z" fill="white"/>
<path d="M81.121 320H73.4749V327.646H81.121V320Z" fill="white"/>
<path d="M111.705 320H104.059V327.646H111.705V320Z" fill="white"/>
<path d="M119.351 320H111.705V327.646H119.351V320Z" fill="white"/>
<path d="M142.29 320H134.644V327.646H142.29V320Z" fill="white"/>
<path d="M157.581 320H149.935V327.646H157.581V320Z" fill="white"/>
<path d="M188.166 320H180.52V327.646H188.166V320Z" fill="white"/>
<path d="M211.105 320H203.459V327.646H211.105V320Z" fill="white"/>
<path d="M218.75 320H211.104V327.646H218.75V320Z" fill="white"/>
<path d="M226.396 320H218.75V327.646H226.396V320Z" fill="white"/>
<path d="M241.689 320H234.043V327.646H241.689V320Z" fill="white"/>
<path d="M264.627 320H256.981V327.646H264.627V320Z" fill="white"/>
<path d="M287.565 320H279.919V327.646H287.565V320Z" fill="white"/>
<path d="M27.5975 327.646H19.9514V335.292H27.5975V327.646Z" fill="white"/>
<path d="M50.536 327.646H42.8899V335.292H50.536V327.646Z" fill="white"/>
<path d="M73.4741 327.646H65.8279V335.292H73.4741V327.646Z" fill="white"/>
<path d="M88.7662 327.646H81.1201V335.292H88.7662V327.646Z" fill="white"/>
<path d="M96.412 327.646H88.7659V335.292H96.412V327.646Z" fill="white"/>
<path d="M111.705 327.646H104.059V335.292H111.705V327.646Z" fill="white"/>
<path d="M119.351 327.646H111.705V335.292H119.351V327.646Z" fill="white"/>
<path d="M126.996 327.646H119.35V335.292H126.996V327.646Z" fill="white"/>
<path d="M134.643 327.646H126.997V335.292H134.643V327.646Z" fill="white"/>
<path d="M142.29 327.646H134.644V335.292H142.29V327.646Z" fill="white"/>
<path d="M149.934 327.646H142.288V335.292H149.934V327.646Z" fill="white"/>
<path d="M180.519 327.646H172.873V335.292H180.519V327.646Z" fill="white"/>
<path d="M203.458 327.646H195.812V335.292H203.458V327.646Z" fill="white"/>
<path d="M218.75 327.646H211.104V335.292H218.75V327.646Z" fill="white"/>
<path d="M226.396 327.646H218.75V335.292H226.396V327.646Z" fill="white"/>
<path d="M234.043 327.646H226.397V335.292H234.043V327.646Z" fill="white"/>
<path d="M241.689 327.646H234.043V335.292H241.689V327.646Z" fill="white"/>
<path d="M249.335 327.646H241.689V335.292H249.335V327.646Z" fill="white"/>
<path d="M279.919 327.646H272.273V335.292H279.919V327.646Z" fill="white"/>
<path d="M287.565 327.646H279.919V335.292H287.565V327.646Z" fill="white"/>
<path d="M35.2438 335.292H27.5977V342.938H35.2438V335.292Z" fill="white"/>
<path d="M42.8891 335.292H35.243V342.938H42.8891V335.292Z" fill="white"/>
<path d="M50.536 335.292H42.8899V342.938H50.536V335.292Z" fill="white"/>
<path d="M58.1824 335.292H50.5363V342.938H58.1824V335.292Z" fill="white"/>
<path d="M119.351 335.292H111.705V342.938H119.351V335.292Z" fill="white"/>
<path d="M134.643 335.292H126.997V342.938H134.643V335.292Z" fill="white"/>
<path d="M149.934 335.292H142.288V342.938H149.934V335.292Z" fill="white"/>
<path d="M172.873 335.292H165.227V342.938H172.873V335.292Z" fill="white"/>
<path d="M195.812 335.292H188.166V342.938H195.812V335.292Z" fill="white"/>
<path d="M211.105 335.292H203.459V342.938H211.105V335.292Z" fill="white"/>
<path d="M218.75 335.292H211.104V342.938H218.75V335.292Z" fill="white"/>
<path d="M226.396 335.292H218.75V342.938H226.396V335.292Z" fill="white"/>
<path d="M264.627 335.292H256.981V342.938H264.627V335.292Z" fill="white"/>
<path d="M295.212 335.292H287.566V342.938H295.212V335.292Z" fill="white"/>
<path d="M302.858 335.292H295.211V342.938H302.858V335.292Z" fill="white"/>
<path d="M42.8891 342.938H35.243V350.584H42.8891V342.938Z" fill="white"/>
<path d="M65.8276 342.938H58.1815V350.584H65.8276V342.938Z" fill="white"/>
<path d="M73.4741 342.938H65.8279V350.584H73.4741V342.938Z" fill="white"/>
<path d="M81.121 342.938H73.4749V350.584H81.121V342.938Z" fill="white"/>
<path d="M96.412 342.938H88.7659V350.584H96.412V342.938Z" fill="white"/>
<path d="M104.058 342.938H96.4117V350.584H104.058V342.938Z" fill="white"/>
<path d="M119.351 342.938H111.705V350.584H119.351V342.938Z" fill="white"/>
<path d="M126.996 342.938H119.35V350.584H126.996V342.938Z" fill="white"/>
<path d="M134.643 342.938H126.997V350.584H134.643V342.938Z" fill="white"/>
<path d="M149.934 342.938H142.288V350.584H149.934V342.938Z" fill="white"/>
<path d="M157.581 342.938H149.935V350.584H157.581V342.938Z" fill="white"/>
<path d="M218.75 342.938H211.104V350.584H218.75V342.938Z" fill="white"/>
<path d="M226.396 342.938H218.75V350.584H226.396V342.938Z" fill="white"/>
<path d="M234.043 342.938H226.397V350.584H234.043V342.938Z" fill="white"/>
<path d="M241.689 342.938H234.043V350.584H241.689V342.938Z" fill="white"/>
<path d="M249.335 342.938H241.689V350.584H249.335V342.938Z" fill="white"/>
<path d="M264.627 342.938H256.981V350.584H264.627V342.938Z" fill="white"/>
<path d="M272.273 342.938H264.627V350.584H272.273V342.938Z" fill="white"/>
<path d="M279.919 342.938H272.273V350.584H279.919V342.938Z" fill="white"/>
<path d="M287.565 342.938H279.919V350.584H287.565V342.938Z" fill="white"/>
<path d="M295.212 342.938H287.566V350.584H295.212V342.938Z" fill="white"/>
<path d="M27.5975 350.584H19.9514V358.23H27.5975V350.584Z" fill="white"/>
<path d="M42.8891 350.584H35.243V358.23H42.8891V350.584Z" fill="white"/>
<path d="M50.536 350.584H42.8899V358.23H50.536V350.584Z" fill="white"/>
<path d="M88.7662 350.584H81.1201V358.23H88.7662V350.584Z" fill="white"/>
<path d="M111.705 350.584H104.059V358.23H111.705V350.584Z" fill="white"/>
<path d="M119.351 350.584H111.705V358.23H119.351V350.584Z" fill="white"/>
<path d="M126.996 350.584H119.35V358.23H126.996V350.584Z" fill="white"/>
<path d="M157.581 350.584H149.935V358.23H157.581V350.584Z" fill="white"/>
<path d="M165.228 350.584H157.582V358.23H165.228V350.584Z" fill="white"/>
<path d="M172.873 350.584H165.227V358.23H172.873V350.584Z" fill="white"/>
<path d="M195.812 350.584H188.166V358.23H195.812V350.584Z" fill="white"/>
<path d="M218.75 350.584H211.104V358.23H218.75V350.584Z" fill="white"/>
<path d="M241.689 350.584H234.043V358.23H241.689V350.584Z" fill="white"/>
<path d="M264.627 350.584H256.981V358.23H264.627V350.584Z" fill="white"/>
<path d="M279.919 350.584H272.273V358.23H279.919V350.584Z" fill="white"/>
<path d="M287.565 350.584H279.919V358.23H287.565V350.584Z" fill="white"/>
<path d="M27.5975 358.23H19.9514V365.876H27.5975V358.23Z" fill="white"/>
<path d="M65.8276 358.23H58.1815V365.876H65.8276V358.23Z" fill="white"/>
<path d="M73.4741 358.23H65.8279V365.876H73.4741V358.23Z" fill="white"/>
<path d="M81.121 358.23H73.4749V365.876H81.121V358.23Z" fill="white"/>
<path d="M88.7662 358.23H81.1201V365.876H88.7662V358.23Z" fill="white"/>
<path d="M104.058 358.23H96.4117V365.876H104.058V358.23Z" fill="white"/>
<path d="M111.705 358.23H104.059V365.876H111.705V358.23Z" fill="white"/>
<path d="M134.643 358.23H126.997V365.876H134.643V358.23Z" fill="white"/>
<path d="M142.29 358.23H134.644V365.876H142.29V358.23Z" fill="white"/>
<path d="M149.934 358.23H142.288V365.876H149.934V358.23Z" fill="white"/>
<path d="M157.581 358.23H149.935V365.876H157.581V358.23Z" fill="white"/>
<path d="M165.228 358.23H157.582V365.876H165.228V358.23Z" fill="white"/>
<path d="M172.873 358.23H165.227V365.876H172.873V358.23Z" fill="white"/>
<path d="M203.458 358.23H195.812V365.876H203.458V358.23Z" fill="white"/>
<path d="M211.105 358.23H203.459V365.876H211.105V358.23Z" fill="white"/>
<path d="M226.396 358.23H218.75V365.876H226.396V358.23Z" fill="white"/>
<path d="M234.043 358.23H226.397V365.876H234.043V358.23Z" fill="white"/>
<path d="M241.689 358.23H234.043V365.876H241.689V358.23Z" fill="white"/>
<path d="M249.335 358.23H241.689V365.876H249.335V358.23Z" fill="white"/>
<path d="M264.627 358.23H256.981V365.876H264.627V358.23Z" fill="white"/>
<path d="M279.919 358.23H272.273V365.876H279.919V358.23Z" fill="white"/>
<path d="M295.212 358.23H287.566V365.876H295.212V358.23Z" fill="white"/>
<path d="M302.858 358.23H295.211V365.876H302.858V358.23Z" fill="white"/>
<path d="M27.5975 365.876H19.9514V373.522H27.5975V365.876Z" fill="white"/>
<path d="M35.2438 365.876H27.5977V373.522H35.2438V365.876Z" fill="white"/>
<path d="M42.8891 365.876H35.243V373.522H42.8891V365.876Z" fill="white"/>
<path d="M50.536 365.876H42.8899V373.522H50.536V365.876Z" fill="white"/>
<path d="M65.8276 365.876H58.1815V373.522H65.8276V365.876Z" fill="white"/>
<path d="M88.7662 365.876H81.1201V373.522H88.7662V365.876Z" fill="white"/>
<path d="M96.412 365.876H88.7659V373.522H96.412V365.876Z" fill="white"/>
<path d="M104.058 365.876H96.4117V373.522H104.058V365.876Z" fill="white"/>
<path d="M119.351 365.876H111.705V373.522H119.351V365.876Z" fill="white"/>
<path d="M126.996 365.876H119.35V373.522H126.996V365.876Z" fill="white"/>
<path d="M134.643 365.876H126.997V373.522H134.643V365.876Z" fill="white"/>
<path d="M149.934 365.876H142.288V373.522H149.934V365.876Z" fill="white"/>
<path d="M172.873 365.876H165.227V373.522H172.873V365.876Z" fill="white"/>
<path d="M180.519 365.876H172.873V373.522H180.519V365.876Z" fill="white"/>
<path d="M234.043 365.876H226.397V373.522H234.043V365.876Z" fill="white"/>
<path d="M256.98 365.876H249.334V373.522H256.98V365.876Z" fill="white"/>
<path d="M272.273 365.876H264.627V373.522H272.273V365.876Z" fill="white"/>
<path d="M295.212 365.876H287.566V373.522H295.212V365.876Z" fill="white"/>
<path d="M302.858 365.876H295.211V373.522H302.858V365.876Z" fill="white"/>
<path d="M27.5975 373.522H19.9514V381.169H27.5975V373.522Z" fill="white"/>
<path d="M50.536 373.522H42.8899V381.169H50.536V373.522Z" fill="white"/>
<path d="M73.4741 373.522H65.8279V381.169H73.4741V373.522Z" fill="white"/>
<path d="M88.7662 373.522H81.1201V381.169H88.7662V373.522Z" fill="white"/>
<path d="M96.412 373.522H88.7659V381.169H96.412V373.522Z" fill="white"/>
<path d="M111.705 373.522H104.059V381.169H111.705V373.522Z" fill="white"/>
<path d="M119.351 373.522H111.705V381.169H119.351V373.522Z" fill="white"/>
<path d="M134.643 373.522H126.997V381.169H134.643V373.522Z" fill="white"/>
<path d="M142.29 373.522H134.644V381.169H142.29V373.522Z" fill="white"/>
<path d="M165.228 373.522H157.582V381.169H165.228V373.522Z" fill="white"/>
<path d="M172.873 373.522H165.227V381.169H172.873V373.522Z" fill="white"/>
<path d="M188.166 373.522H180.52V381.169H188.166V373.522Z" fill="white"/>
<path d="M203.458 373.522H195.812V381.169H203.458V373.522Z" fill="white"/>
<path d="M211.105 373.522H203.459V381.169H211.105V373.522Z" fill="white"/>
<path d="M218.75 373.522H211.104V381.169H218.75V373.522Z" fill="white"/>
<path d="M234.043 373.522H226.397V381.169H234.043V373.522Z" fill="white"/>
<path d="M241.689 373.522H234.043V381.169H241.689V373.522Z" fill="white"/>
<path d="M249.335 373.522H241.689V381.169H249.335V373.522Z" fill="white"/>
<path d="M256.98 373.522H249.334V381.169H256.98V373.522Z" fill="white"/>
<path d="M264.627 373.522H256.981V381.169H264.627V373.522Z" fill="white"/>
<path d="M272.273 373.522H264.627V381.169H272.273V373.522Z" fill="white"/>
<path d="M279.919 373.522H272.273V381.169H279.919V373.522Z" fill="white"/>
<path d="M287.565 373.522H279.919V381.169H287.565V373.522Z" fill="white"/>
<path d="M295.212 373.522H287.566V381.169H295.212V373.522Z" fill="white"/>
<path d="M302.858 373.522H295.211V381.169H302.858V373.522Z" fill="white"/>
<path d="M27.5975 381.168H19.9514V388.815H27.5975V381.168Z" fill="white"/>
<path d="M42.8891 381.168H35.243V388.815H42.8891V381.168Z" fill="white"/>
<path d="M50.536 381.168H42.8899V388.815H50.536V381.168Z" fill="white"/>
<path d="M58.1824 381.168H50.5363V388.815H58.1824V381.168Z" fill="white"/>
<path d="M111.705 381.168H104.059V388.815H111.705V381.168Z" fill="white"/>
<path d="M119.351 381.168H111.705V388.815H119.351V381.168Z" fill="white"/>
<path d="M142.29 381.168H134.644V388.815H142.29V381.168Z" fill="white"/>
<path d="M172.873 381.168H165.227V388.815H172.873V381.168Z" fill="white"/>
<path d="M188.166 381.168H180.52V388.815H188.166V381.168Z" fill="white"/>
<path d="M203.458 381.168H195.812V388.815H203.458V381.168Z" fill="white"/>
<path d="M218.75 381.168H211.104V388.815H218.75V381.168Z" fill="white"/>
<path d="M234.043 381.168H226.397V388.815H234.043V381.168Z" fill="white"/>
<path d="M249.335 381.168H241.689V388.815H249.335V381.168Z" fill="white"/>
<path d="M264.627 381.168H256.981V388.815H264.627V381.168Z" fill="white"/>
<path d="M287.565 381.168H279.919V388.815H287.565V381.168Z" fill="white"/>
<path d="M295.212 381.168H287.566V388.815H295.212V381.168Z" fill="white"/>
<path d="M27.5975 388.814H19.9514V396.461H27.5975V388.814Z" fill="white"/>
<path d="M42.8891 388.814H35.243V396.461H42.8891V388.814Z" fill="white"/>
<path d="M50.536 388.814H42.8899V396.461H50.536V388.814Z" fill="white"/>
<path d="M58.1824 388.814H50.5363V396.461H58.1824V388.814Z" fill="white"/>
<path d="M65.8276 388.814H58.1815V396.461H65.8276V388.814Z" fill="white"/>
<path d="M73.4741 388.814H65.8279V396.461H73.4741V388.814Z" fill="white"/>
<path d="M81.121 388.814H73.4749V396.461H81.121V388.814Z" fill="white"/>
<path d="M96.412 388.814H88.7659V396.461H96.412V388.814Z" fill="white"/>
<path d="M111.705 388.814H104.059V396.461H111.705V388.814Z" fill="white"/>
<path d="M142.29 388.814H134.644V396.461H142.29V388.814Z" fill="white"/>
<path d="M149.934 388.814H142.288V396.461H149.934V388.814Z" fill="white"/>
<path d="M165.228 388.814H157.582V396.461H165.228V388.814Z" fill="white"/>
<path d="M180.519 388.814H172.873V396.461H180.519V388.814Z" fill="white"/>
<path d="M195.812 388.814H188.166V396.461H195.812V388.814Z" fill="white"/>
<path d="M203.458 388.814H195.812V396.461H203.458V388.814Z" fill="white"/>
<path d="M218.75 388.814H211.104V396.461H218.75V388.814Z" fill="white"/>
<path d="M226.396 388.814H218.75V396.461H226.396V388.814Z" fill="white"/>
<path d="M234.043 388.814H226.397V396.461H234.043V388.814Z" fill="white"/>
<path d="M241.689 388.814H234.043V396.461H241.689V388.814Z" fill="white"/>
<path d="M249.335 388.814H241.689V396.461H249.335V388.814Z" fill="white"/>
<path d="M256.98 388.814H249.334V396.461H256.98V388.814Z" fill="white"/>
<path d="M264.627 388.814H256.981V396.461H264.627V388.814Z" fill="white"/>
<path d="M272.273 388.814H264.627V396.461H272.273V388.814Z" fill="white"/>
<path d="M279.919 388.814H272.273V396.461H279.919V388.814Z" fill="white"/>
<path d="M295.212 388.814H287.566V396.461H295.212V388.814Z" fill="white"/>
<path d="M302.858 388.814H295.211V396.461H302.858V388.814Z" fill="white"/>
<path d="M88.7662 396.46H81.1201V404.107H88.7662V396.46Z" fill="white"/>
<path d="M96.412 396.46H88.7659V404.107H96.412V396.46Z" fill="white"/>
<path d="M104.058 396.46H96.4117V404.107H104.058V396.46Z" fill="white"/>
<path d="M119.351 396.46H111.705V404.107H119.351V396.46Z" fill="white"/>
<path d="M134.643 396.46H126.997V404.107H134.643V396.46Z" fill="white"/>
<path d="M142.29 396.46H134.644V404.107H142.29V396.46Z" fill="white"/>
<path d="M157.581 396.46H149.935V404.107H157.581V396.46Z" fill="white"/>
<path d="M172.873 396.46H165.227V404.107H172.873V396.46Z" fill="white"/>
<path d="M188.166 396.46H180.52V404.107H188.166V396.46Z" fill="white"/>
<path d="M211.105 396.46H203.459V404.107H211.105V396.46Z" fill="white"/>
<path d="M226.396 396.46H218.75V404.107H226.396V396.46Z" fill="white"/>
<path d="M241.689 396.46H234.043V404.107H241.689V396.46Z" fill="white"/>
<path d="M272.273 396.46H264.627V404.107H272.273V396.46Z" fill="white"/>
<path d="M27.5975 404.107H19.9514V411.753H27.5975V404.107Z" fill="white"/>
<path d="M35.2438 404.107H27.5977V411.753H35.2438V404.107Z" fill="white"/>
<path d="M42.8891 404.107H35.243V411.753H42.8891V404.107Z" fill="white"/>
<path d="M50.536 404.107H42.8899V411.753H50.536V404.107Z" fill="white"/>
<path d="M58.1824 404.107H50.5363V411.753H58.1824V404.107Z" fill="white"/>
<path d="M65.8276 404.107H58.1815V411.753H65.8276V404.107Z" fill="white"/>
<path d="M73.4741 404.107H65.8279V411.753H73.4741V404.107Z" fill="white"/>
<path d="M96.412 404.107H88.7659V411.753H96.412V404.107Z" fill="white"/>
<path d="M142.29 404.107H134.644V411.753H142.29V404.107Z" fill="white"/>
<path d="M149.934 404.107H142.288V411.753H149.934V404.107Z" fill="white"/>
<path d="M165.228 404.107H157.582V411.753H165.228V404.107Z" fill="white"/>
<path d="M188.166 404.107H180.52V411.753H188.166V404.107Z" fill="white"/>
<path d="M195.812 404.107H188.166V411.753H195.812V404.107Z" fill="white"/>
<path d="M211.105 404.107H203.459V411.753H211.105V404.107Z" fill="white"/>
<path d="M218.75 404.107H211.104V411.753H218.75V404.107Z" fill="white"/>
<path d="M226.396 404.107H218.75V411.753H226.396V404.107Z" fill="white"/>
<path d="M234.043 404.107H226.397V411.753H234.043V404.107Z" fill="white"/>
<path d="M241.689 404.107H234.043V411.753H241.689V404.107Z" fill="white"/>
<path d="M256.98 404.107H249.334V411.753H256.98V404.107Z" fill="white"/>
<path d="M272.273 404.107H264.627V411.753H272.273V404.107Z" fill="white"/>
<path d="M279.919 404.107H272.273V411.753H279.919V404.107Z" fill="white"/>
<path d="M287.565 404.107H279.919V411.753H287.565V404.107Z" fill="white"/>
<path d="M295.212 404.107H287.566V411.753H295.212V404.107Z" fill="white"/>
<path d="M302.858 404.107H295.211V411.753H302.858V404.107Z" fill="white"/>
<path d="M27.5975 411.753H19.9514V419.399H27.5975V411.753Z" fill="white"/>
<path d="M73.4741 411.753H65.8279V419.399H73.4741V411.753Z" fill="white"/>
<path d="M119.351 411.753H111.705V419.399H119.351V411.753Z" fill="white"/>
<path d="M126.996 411.753H119.35V419.399H126.996V411.753Z" fill="white"/>
<path d="M142.29 411.753H134.644V419.399H142.29V411.753Z" fill="white"/>
<path d="M149.934 411.753H142.288V419.399H149.934V411.753Z" fill="white"/>
<path d="M165.228 411.753H157.582V419.399H165.228V411.753Z" fill="white"/>
<path d="M180.519 411.753H172.873V419.399H180.519V411.753Z" fill="white"/>
<path d="M203.458 411.753H195.812V419.399H203.458V411.753Z" fill="white"/>
<path d="M234.043 411.753H226.397V419.399H234.043V411.753Z" fill="white"/>
<path d="M241.689 411.753H234.043V419.399H241.689V411.753Z" fill="white"/>
<path d="M272.273 411.753H264.627V419.399H272.273V411.753Z" fill="white"/>
<path d="M279.919 411.753H272.273V419.399H279.919V411.753Z" fill="white"/>
<path d="M287.565 411.753H279.919V419.399H287.565V411.753Z" fill="white"/>
<path d="M295.212 411.753H287.566V419.399H295.212V411.753Z" fill="white"/>
<path d="M27.5975 419.399H19.9514V427.045H27.5975V419.399Z" fill="white"/>
<path d="M42.8891 419.399H35.243V427.045H42.8891V419.399Z" fill="white"/>
<path d="M50.536 419.399H42.8899V427.045H50.536V419.399Z" fill="white"/>
<path d="M58.1824 419.399H50.5363V427.045H58.1824V419.399Z" fill="white"/>
<path d="M73.4741 419.399H65.8279V427.045H73.4741V419.399Z" fill="white"/>
<path d="M88.7662 419.399H81.1201V427.045H88.7662V419.399Z" fill="white"/>
<path d="M96.412 419.399H88.7659V427.045H96.412V419.399Z" fill="white"/>
<path d="M111.705 419.399H104.059V427.045H111.705V419.399Z" fill="white"/>
<path d="M142.29 419.399H134.644V427.045H142.29V419.399Z" fill="white"/>
<path d="M165.228 419.399H157.582V427.045H165.228V419.399Z" fill="white"/>
<path d="M172.873 419.399H165.227V427.045H172.873V419.399Z" fill="white"/>
<path d="M218.75 419.399H211.104V427.045H218.75V419.399Z" fill="white"/>
<path d="M241.689 419.399H234.043V427.045H241.689V419.399Z" fill="white"/>
<path d="M249.335 419.399H241.689V427.045H249.335V419.399Z" fill="white"/>
<path d="M256.98 419.399H249.334V427.045H256.98V419.399Z" fill="white"/>
<path d="M264.627 419.399H256.981V427.045H264.627V419.399Z" fill="white"/>
<path d="M272.273 419.399H264.627V427.045H272.273V419.399Z" fill="white"/>
<path d="M279.919 419.399H272.273V427.045H279.919V419.399Z" fill="white"/>
<path d="M295.212 419.399H287.566V427.045H295.212V419.399Z" fill="white"/>
<path d="M302.858 419.399H295.211V427.045H302.858V419.399Z" fill="white"/>
<path d="M27.5975 427.045H19.9514V434.691H27.5975V427.045Z" fill="white"/>
<path d="M42.8891 427.045H35.243V434.691H42.8891V427.045Z" fill="white"/>
<path d="M50.536 427.045H42.8899V434.691H50.536V427.045Z" fill="white"/>
<path d="M58.1824 427.045H50.5363V434.691H58.1824V427.045Z" fill="white"/>
<path d="M73.4741 427.045H65.8279V434.691H73.4741V427.045Z" fill="white"/>
<path d="M88.7662 427.045H81.1201V434.691H88.7662V427.045Z" fill="white"/>
<path d="M96.412 427.045H88.7659V434.691H96.412V427.045Z" fill="white"/>
<path d="M111.705 427.045H104.059V434.691H111.705V427.045Z" fill="white"/>
<path d="M149.934 427.045H142.288V434.691H149.934V427.045Z" fill="white"/>
<path d="M188.166 427.045H180.52V434.691H188.166V427.045Z" fill="white"/>
<path d="M195.812 427.045H188.166V434.691H195.812V427.045Z" fill="white"/>
<path d="M211.105 427.045H203.459V434.691H211.105V427.045Z" fill="white"/>
<path d="M234.043 427.045H226.397V434.691H234.043V427.045Z" fill="white"/>
<path d="M241.689 427.045H234.043V434.691H241.689V427.045Z" fill="white"/>
<path d="M256.98 427.045H249.334V434.691H256.98V427.045Z" fill="white"/>
<path d="M295.212 427.045H287.566V434.691H295.212V427.045Z" fill="white"/>
<path d="M302.858 427.045H295.211V434.691H302.858V427.045Z" fill="white"/>
<path d="M27.5975 434.691H19.9514V442.338H27.5975V434.691Z" fill="white"/>
<path d="M42.8891 434.691H35.243V442.338H42.8891V434.691Z" fill="white"/>
<path d="M50.536 434.691H42.8899V442.338H50.536V434.691Z" fill="white"/>
<path d="M58.1824 434.691H50.5363V442.338H58.1824V434.691Z" fill="white"/>
<path d="M73.4741 434.691H65.8279V442.338H73.4741V434.691Z" fill="white"/>
<path d="M88.7662 434.691H81.1201V442.338H88.7662V434.691Z" fill="white"/>
<path d="M111.705 434.691H104.059V442.338H111.705V434.691Z" fill="white"/>
<path d="M119.351 434.691H111.705V442.338H119.351V434.691Z" fill="white"/>
<path d="M126.996 434.691H119.35V442.338H126.996V434.691Z" fill="white"/>
<path d="M134.643 434.691H126.997V442.338H134.643V434.691Z" fill="white"/>
<path d="M157.581 434.691H149.935V442.338H157.581V434.691Z" fill="white"/>
<path d="M165.228 434.691H157.582V442.338H165.228V434.691Z" fill="white"/>
<path d="M195.812 434.691H188.166V442.338H195.812V434.691Z" fill="white"/>
<path d="M218.75 434.691H211.104V442.338H218.75V434.691Z" fill="white"/>
<path d="M226.396 434.691H218.75V442.338H226.396V434.691Z" fill="white"/>
<path d="M256.98 434.691H249.334V442.338H256.98V434.691Z" fill="white"/>
<path d="M264.627 434.691H256.981V442.338H264.627V434.691Z" fill="white"/>
<path d="M279.919 434.691H272.273V442.338H279.919V434.691Z" fill="white"/>
<path d="M287.565 434.691H279.919V442.338H287.565V434.691Z" fill="white"/>
<path d="M302.858 434.691H295.211V442.338H302.858V434.691Z" fill="white"/>
<path d="M27.5975 442.337H19.9514V449.984H27.5975V442.337Z" fill="white"/>
<path d="M73.4741 442.337H65.8279V449.984H73.4741V442.337Z" fill="white"/>
<path d="M96.412 442.337H88.7659V449.984H96.412V442.337Z" fill="white"/>
<path d="M104.058 442.337H96.4117V449.984H104.058V442.337Z" fill="white"/>
<path d="M126.996 442.337H119.35V449.984H126.996V442.337Z" fill="white"/>
<path d="M134.643 442.337H126.997V449.984H134.643V442.337Z" fill="white"/>
<path d="M142.29 442.337H134.644V449.984H142.29V442.337Z" fill="white"/>
<path d="M165.228 442.337H157.582V449.984H165.228V442.337Z" fill="white"/>
<path d="M172.873 442.337H165.227V449.984H172.873V442.337Z" fill="white"/>
<path d="M211.105 442.337H203.459V449.984H211.105V442.337Z" fill="white"/>
<path d="M241.689 442.337H234.043V449.984H241.689V442.337Z" fill="white"/>
<path d="M256.98 442.337H249.334V449.984H256.98V442.337Z" fill="white"/>
<path d="M272.273 442.337H264.627V449.984H272.273V442.337Z" fill="white"/>
<path d="M279.919 442.337H272.273V449.984H279.919V442.337Z" fill="white"/>
<path d="M295.212 442.337H287.566V449.984H295.212V442.337Z" fill="white"/>
<path d="M27.5975 449.983H19.9514V457.63H27.5975V449.983Z" fill="white"/>
<path d="M35.2438 449.983H27.5977V457.63H35.2438V449.983Z" fill="white"/>
<path d="M42.8891 449.983H35.243V457.63H42.8891V449.983Z" fill="white"/>
<path d="M50.536 449.983H42.8899V457.63H50.536V449.983Z" fill="white"/>
<path d="M58.1824 449.983H50.5363V457.63H58.1824V449.983Z" fill="white"/>
<path d="M65.8276 449.983H58.1815V457.63H65.8276V449.983Z" fill="white"/>
<path d="M73.4741 449.983H65.8279V457.63H73.4741V449.983Z" fill="white"/>
<path d="M96.412 449.983H88.7659V457.63H96.412V449.983Z" fill="white"/>
<path d="M119.351 449.983H111.705V457.63H119.351V449.983Z" fill="white"/>
<path d="M134.643 449.983H126.997V457.63H134.643V449.983Z" fill="white"/>
<path d="M142.29 449.983H134.644V457.63H142.29V449.983Z" fill="white"/>
<path d="M157.581 449.983H149.935V457.63H157.581V449.983Z" fill="white"/>
<path d="M165.228 449.983H157.582V457.63H165.228V449.983Z" fill="white"/>
<path d="M188.166 449.983H180.52V457.63H188.166V449.983Z" fill="white"/>
<path d="M211.105 449.983H203.459V457.63H211.105V449.983Z" fill="white"/>
<path d="M218.75 449.983H211.104V457.63H218.75V449.983Z" fill="white"/>
<path d="M226.396 449.983H218.75V457.63H226.396V449.983Z" fill="white"/>
<path d="M241.689 449.983H234.043V457.63H241.689V449.983Z" fill="white"/>
<path d="M264.627 449.983H256.981V457.63H264.627V449.983Z" fill="white"/>
<path d="M287.565 449.983H279.919V457.63H287.565V449.983Z" fill="white"/>
<path d="M295.212 449.983H287.566V457.63H295.212V449.983Z" fill="white"/>
<path d="M302.858 449.983H295.211V457.63H302.858V449.983Z" fill="white"/>
</g>
<mask id="path-722-outside-2_1_189" maskUnits="userSpaceOnUse" x="0.296448" y="89.5142" width="324" height="80" fill="black">
<rect fill="white" x="0.296448" y="89.5142" width="324" height="80"/>
<path d="M41.3817 139.028C41.3817 143.004 40.8656 145.859 39.8333 147.594C38.8011 149.329 37.2308 150.416 35.1224 150.855C33.0359 151.295 29.6976 151.514 25.1074 151.514H9.06374V98.145H36.2425V107.402H22.9661V116.429H25.1074C29.3901 116.429 32.6296 116.681 34.8259 117.187C37.0221 117.692 38.6583 118.812 39.7345 120.547C40.8326 122.26 41.3817 124.961 41.3817 128.651V139.028ZM27.4794 137.414V129.705C27.4794 127.465 27.2488 126.103 26.7876 125.62C26.3483 125.137 25.0745 124.863 22.9661 124.797V142.323C24.7231 142.323 25.909 142.103 26.524 141.664C27.1609 141.203 27.4794 139.786 27.4794 137.414ZM73.7655 98.145L69.977 133.494C69.384 139.072 68.7471 142.993 68.0663 145.255C67.3854 147.495 66.0677 149.098 64.113 150.065C62.1583 151.031 58.9408 151.514 54.4604 151.514H46.3562V144.629H47.1798C49.0027 144.629 50.1228 144.486 50.5401 144.201C50.9794 143.893 51.199 143.432 51.199 142.817C51.199 142.773 50.9354 141.269 50.4083 138.304L43.1277 98.145H55.1852L59.5667 131.352L61.6751 98.145H73.7655ZM91.8517 128.585C88.9307 128.651 87.4702 129.903 87.4702 132.341V146.375C87.4702 148.242 87.2616 149.57 86.8443 150.361C86.4489 151.13 86.1634 151.514 85.9877 151.514H74.5233C75.5116 150.087 76.0057 147.967 76.0057 145.156V133.164C76.0057 130.617 76.7085 128.673 78.1141 127.333C79.5417 125.994 81.9796 125.038 85.4277 124.467V124.401C79.1903 124.072 76.0716 121.173 76.0716 115.704V104.404C76.0716 101.615 75.5775 99.5287 74.5891 98.145H86.0536C86.3831 98.2768 86.7125 98.76 87.0419 99.5946C87.3714 100.407 87.5361 101.615 87.5361 103.218V116.495C87.5361 118.933 88.9746 120.195 91.8517 120.283V98.145H105.754V120.283C108.675 120.195 110.136 118.933 110.136 116.495V103.218C110.136 101.374 110.333 100.067 110.729 99.2981C111.124 98.5294 111.42 98.145 111.618 98.145H123.083C122.094 99.5287 121.6 101.615 121.6 104.404V115.704C121.6 121.173 118.47 124.072 112.211 124.401V124.467C115.659 125.038 118.097 125.994 119.525 127.333C120.952 128.673 121.666 130.617 121.666 133.164V145.156C121.666 147.967 122.16 150.087 123.148 151.514H111.684C111.333 151.36 110.992 150.866 110.663 150.032C110.355 149.197 110.201 147.978 110.201 146.375V132.341C110.201 129.903 108.719 128.651 105.754 128.585V151.514H91.8517V128.585ZM166.14 160.706H156.554V151.514H134.152V160.706H124.598V140.379H127.431C128.925 136.009 130.144 130.265 131.088 123.149C132.054 116.012 132.537 108.215 132.537 99.7593V98.145H163.307V140.313H166.14V160.706ZM149.405 140.313V108.687H145.287V109.082C145.287 119.295 144.189 129.705 141.992 140.313H149.405ZM170.489 98.178H193.615V108.852H184.358V118.966H193.022V129.112H184.358V140.84H194.538V151.514H170.489V98.178ZM230.447 98.178V151.514H216.577V129.112H212.426V151.514H198.557V98.178H212.426V117.253H216.577V98.178H230.447ZM267.014 151.514H255.418V127.235L248.203 151.514H236.047V98.145H247.643V122.227L255.418 98.145H267.014V151.514ZM272.549 98.178H295.676V108.852H286.418V118.966H295.083V129.112H286.418V140.84H296.598V151.514H272.549V98.178ZM314.849 98.178L312.675 138.337H302.396L300.222 98.178H314.849ZM313.762 140.84V151.514H301.309V140.84H313.762Z"/>
</mask>
<path d="M41.3817 139.028C41.3817 143.004 40.8656 145.859 39.8333 147.594C38.8011 149.329 37.2308 150.416 35.1224 150.855C33.0359 151.295 29.6976 151.514 25.1074 151.514H9.06374V98.145H36.2425V107.402H22.9661V116.429H25.1074C29.3901 116.429 32.6296 116.681 34.8259 117.187C37.0221 117.692 38.6583 118.812 39.7345 120.547C40.8326 122.26 41.3817 124.961 41.3817 128.651V139.028ZM27.4794 137.414V129.705C27.4794 127.465 27.2488 126.103 26.7876 125.62C26.3483 125.137 25.0745 124.863 22.9661 124.797V142.323C24.7231 142.323 25.909 142.103 26.524 141.664C27.1609 141.203 27.4794 139.786 27.4794 137.414ZM73.7655 98.145L69.977 133.494C69.384 139.072 68.7471 142.993 68.0663 145.255C67.3854 147.495 66.0677 149.098 64.113 150.065C62.1583 151.031 58.9408 151.514 54.4604 151.514H46.3562V144.629H47.1798C49.0027 144.629 50.1228 144.486 50.5401 144.201C50.9794 143.893 51.199 143.432 51.199 142.817C51.199 142.773 50.9354 141.269 50.4083 138.304L43.1277 98.145H55.1852L59.5667 131.352L61.6751 98.145H73.7655ZM91.8517 128.585C88.9307 128.651 87.4702 129.903 87.4702 132.341V146.375C87.4702 148.242 87.2616 149.57 86.8443 150.361C86.4489 151.13 86.1634 151.514 85.9877 151.514H74.5233C75.5116 150.087 76.0057 147.967 76.0057 145.156V133.164C76.0057 130.617 76.7085 128.673 78.1141 127.333C79.5417 125.994 81.9796 125.038 85.4277 124.467V124.401C79.1903 124.072 76.0716 121.173 76.0716 115.704V104.404C76.0716 101.615 75.5775 99.5287 74.5891 98.145H86.0536C86.3831 98.2768 86.7125 98.76 87.0419 99.5946C87.3714 100.407 87.5361 101.615 87.5361 103.218V116.495C87.5361 118.933 88.9746 120.195 91.8517 120.283V98.145H105.754V120.283C108.675 120.195 110.136 118.933 110.136 116.495V103.218C110.136 101.374 110.333 100.067 110.729 99.2981C111.124 98.5294 111.42 98.145 111.618 98.145H123.083C122.094 99.5287 121.6 101.615 121.6 104.404V115.704C121.6 121.173 118.47 124.072 112.211 124.401V124.467C115.659 125.038 118.097 125.994 119.525 127.333C120.952 128.673 121.666 130.617 121.666 133.164V145.156C121.666 147.967 122.16 150.087 123.148 151.514H111.684C111.333 151.36 110.992 150.866 110.663 150.032C110.355 149.197 110.201 147.978 110.201 146.375V132.341C110.201 129.903 108.719 128.651 105.754 128.585V151.514H91.8517V128.585ZM166.14 160.706H156.554V151.514H134.152V160.706H124.598V140.379H127.431C128.925 136.009 130.144 130.265 131.088 123.149C132.054 116.012 132.537 108.215 132.537 99.7593V98.145H163.307V140.313H166.14V160.706ZM149.405 140.313V108.687H145.287V109.082C145.287 119.295 144.189 129.705 141.992 140.313H149.405ZM170.489 98.178H193.615V108.852H184.358V118.966H193.022V129.112H184.358V140.84H194.538V151.514H170.489V98.178ZM230.447 98.178V151.514H216.577V129.112H212.426V151.514H198.557V98.178H212.426V117.253H216.577V98.178H230.447ZM267.014 151.514H255.418V127.235L248.203 151.514H236.047V98.145H247.643V122.227L255.418 98.145H267.014V151.514ZM272.549 98.178H295.676V108.852H286.418V118.966H295.083V129.112H286.418V140.84H296.598V151.514H272.549V98.178ZM314.849 98.178L312.675 138.337H302.396L300.222 98.178H314.849ZM313.762 140.84V151.514H301.309V140.84H313.762Z" fill="#FF6917"/>
<path d="M35.1224 150.855L33.3987 142.582L33.39 142.583L33.3813 142.585L35.1224 150.855ZM9.06374 151.514H0.612339V159.966H9.06374V151.514ZM9.06374 98.145V89.6936H0.612339V98.145H9.06374ZM36.2425 98.145H44.6938V89.6936H36.2425V98.145ZM36.2425 107.402V115.854H44.6938V107.402H36.2425ZM22.9661 107.402V98.9509H14.5147V107.402H22.9661ZM22.9661 116.429H14.5147V124.88H22.9661V116.429ZM39.7345 120.547L32.5525 125.002L32.5856 125.055L32.6194 125.108L39.7345 120.547ZM26.7876 125.62L20.534 131.305L20.6032 131.381L20.6742 131.456L26.7876 125.62ZM22.9661 124.797L23.23 116.349L14.5147 116.077V124.797H22.9661ZM22.9661 142.323H14.5147V150.774H22.9661V142.323ZM26.524 141.664L31.4363 148.541L31.4586 148.525L31.4808 148.509L26.524 141.664ZM41.3817 139.028H32.9303C32.9303 140.683 32.8204 141.86 32.678 142.648C32.5278 143.479 32.3966 143.564 32.5701 143.273L39.8333 147.594L47.0965 151.915C49.3536 148.121 49.8331 143.31 49.8331 139.028H41.3817ZM39.8333 147.594L32.5701 143.273C32.6376 143.159 32.8031 142.947 33.0708 142.762C33.3271 142.584 33.4866 142.563 33.3987 142.582L35.1224 150.855L36.8461 159.129C41.0993 158.243 44.7653 155.833 47.0965 151.915L39.8333 147.594ZM35.1224 150.855L33.3813 142.585C32.212 142.831 29.6223 143.063 25.1074 143.063V151.514V159.966C29.7729 159.966 33.8598 159.758 36.8634 159.125L35.1224 150.855ZM25.1074 151.514V143.063H9.06374V151.514V159.966H25.1074V151.514ZM9.06374 151.514H17.5151V98.145H9.06374H0.612339V151.514H9.06374ZM9.06374 98.145V106.596H36.2425V98.145V89.6936H9.06374V98.145ZM36.2425 98.145H27.7911V107.402H36.2425H44.6938V98.145H36.2425ZM36.2425 107.402V98.9509H22.9661V107.402V115.854H36.2425V107.402ZM22.9661 107.402H14.5147V116.429H22.9661H31.4175V107.402H22.9661ZM22.9661 116.429V124.88H25.1074V116.429V107.978H22.9661V116.429ZM25.1074 116.429V124.88C29.214 124.88 31.6854 125.136 32.9315 125.423L34.8259 117.187L36.7202 108.95C33.5738 108.227 29.5663 107.978 25.1074 107.978V116.429ZM34.8259 117.187L32.9315 125.423C33.1387 125.471 33.0914 125.492 32.9262 125.379C32.8483 125.326 32.7682 125.259 32.6951 125.182C32.6225 125.105 32.5763 125.04 32.5525 125.002L39.7345 120.547L46.9166 116.092C44.5235 112.234 40.8622 109.903 36.7202 108.95L34.8259 117.187ZM39.7345 120.547L32.6194 125.108C32.4441 124.834 32.5521 124.873 32.6878 125.541C32.8193 126.188 32.9303 127.195 32.9303 128.651H41.3817H49.8331C49.8331 124.479 49.2779 119.774 46.8496 115.986L39.7345 120.547ZM41.3817 128.651H32.9303V139.028H41.3817H49.8331V128.651H41.3817ZM27.4794 137.414H35.9308V129.705H27.4794H19.028V137.414H27.4794ZM27.4794 129.705H35.9308C35.9308 128.365 35.8666 126.936 35.6392 125.593C35.4869 124.694 35.0091 121.993 32.9009 119.785L26.7876 125.62L20.6742 131.456C20.1757 130.933 19.8395 130.432 19.6207 130.051C19.4006 129.668 19.2615 129.34 19.1769 129.115C19.091 128.886 19.0413 128.708 19.0147 128.603C18.9876 128.495 18.9761 128.429 18.9737 128.415C18.9703 128.395 18.9866 128.489 19.002 128.73C19.017 128.964 19.028 129.284 19.028 129.705H27.4794ZM26.7876 125.62L33.0411 119.935C30.9318 117.615 28.2142 116.991 27.2833 116.79C25.9383 116.5 24.5232 116.39 23.23 116.349L22.9661 124.797L22.7021 133.244C23.5173 133.269 23.7933 133.329 23.7222 133.314C23.6787 133.304 23.3547 133.235 22.883 133.026C22.4523 132.836 21.4823 132.348 20.534 131.305L26.7876 125.62ZM22.9661 124.797H14.5147V142.323H22.9661H31.4175V124.797H22.9661ZM22.9661 142.323V150.774C24.1497 150.774 25.4394 150.704 26.7122 150.468C27.8766 150.253 29.6992 149.782 31.4363 148.541L26.524 141.664L21.6117 134.787C22.2166 134.355 22.7446 134.128 23.052 134.015C23.3667 133.9 23.5791 133.858 23.6344 133.848C23.7212 133.832 23.5394 133.871 22.9661 133.871V142.323ZM26.524 141.664L31.4808 148.509C34.3955 146.398 35.2142 143.319 35.4861 142.109C35.8406 140.533 35.9308 138.885 35.9308 137.414H27.4794H19.028C19.028 138.316 18.959 138.562 18.9949 138.402C19.0161 138.308 19.1152 137.885 19.4094 137.307C19.7003 136.735 20.3364 135.71 21.5672 134.819L26.524 141.664ZM73.7655 98.145L82.1688 99.0457L83.1711 89.6936H73.7655V98.145ZM69.977 133.494L61.5737 132.593L61.573 132.601L69.977 133.494ZM68.0663 145.255L76.1524 147.712L76.1558 147.701L76.1591 147.691L68.0663 145.255ZM46.3562 151.514H37.9048V159.966H46.3562V151.514ZM46.3562 144.629V136.177H37.9048V144.629H46.3562ZM50.5401 144.201L55.3125 151.176L55.3497 151.15L55.3867 151.124L50.5401 144.201ZM50.4083 138.304L58.7293 136.824L58.7267 136.81L58.7242 136.796L50.4083 138.304ZM43.1277 98.145V89.6936H33.0064L34.8119 99.6527L43.1277 98.145ZM55.1852 98.145L63.564 97.0395L62.5947 89.6936H55.1852V98.145ZM59.5667 131.352L51.188 132.458L68.0011 131.888L59.5667 131.352ZM61.6751 98.145V89.6936H53.7433L53.2407 97.6095L61.6751 98.145ZM73.7655 98.145L65.3623 97.2444L61.5737 132.593L69.977 133.494L78.3803 134.394L82.1688 99.0457L73.7655 98.145ZM69.977 133.494L61.573 132.601C60.9807 138.172 60.4039 141.389 59.9734 142.819L68.0663 145.255L76.1591 147.691C77.0902 144.597 77.7873 139.973 78.3811 134.387L69.977 133.494ZM68.0663 145.255L59.9801 142.797C59.949 142.899 59.9295 142.933 59.938 142.916C59.9475 142.898 59.9786 142.844 60.0383 142.771C60.0986 142.698 60.1687 142.629 60.2401 142.573C60.3105 142.518 60.3592 142.493 60.3675 142.489L64.113 150.065L67.8585 157.641C72.0709 155.558 74.8491 152.001 76.1524 147.712L68.0663 145.255ZM64.113 150.065L60.3675 142.489C60.4591 142.443 60.1042 142.625 58.9788 142.794C57.9073 142.955 56.4249 143.063 54.4604 143.063V151.514V159.966C59.1488 159.966 64.0487 159.524 67.8585 157.641L64.113 150.065ZM54.4604 151.514V143.063H46.3562V151.514V159.966H54.4604V151.514ZM46.3562 151.514H54.8076V144.629H46.3562H37.9048V151.514H46.3562ZM46.3562 144.629V153.08H47.1798V144.629V136.177H46.3562V144.629ZM47.1798 144.629V153.08C48.2603 153.08 49.3937 153.041 50.4556 152.905C51.0907 152.824 53.2888 152.56 55.3125 151.176L50.5401 144.201L45.7677 137.226C46.2905 136.868 46.7545 136.645 47.0694 136.513C47.3924 136.377 47.6567 136.294 47.8274 136.247C48.0027 136.198 48.1336 136.171 48.205 136.157C48.243 136.15 48.2716 136.145 48.2896 136.142C48.3077 136.14 48.3176 136.138 48.3186 136.138C48.3193 136.138 48.2938 136.141 48.2381 136.146C48.1831 136.151 48.1064 136.156 48.0057 136.161C47.8017 136.171 47.5295 136.177 47.1798 136.177V144.629ZM50.5401 144.201L55.3867 151.124C58.4431 148.985 59.6504 145.722 59.6504 142.817H51.199H42.7476C42.7476 142.12 42.8742 141.103 43.4038 139.991C43.9536 138.836 44.7781 137.918 45.6935 137.277L50.5401 144.201ZM51.199 142.817H59.6504C59.6504 142.411 59.6194 142.091 59.6147 142.04C59.6041 141.925 59.5934 141.834 59.5876 141.787C59.5756 141.689 59.5643 141.61 59.5593 141.575C59.548 141.497 59.5369 141.428 59.5305 141.388C59.5162 141.299 59.4988 141.196 59.4811 141.092C59.4447 140.878 59.3924 140.577 59.3259 140.197C59.1923 139.434 58.9931 138.309 58.7293 136.824L50.4083 138.304L42.0874 139.783C42.3507 141.264 42.5468 142.373 42.6767 143.114C42.742 143.487 42.7886 143.755 42.818 143.928C42.8333 144.018 42.8406 144.063 42.8428 144.076C42.8446 144.087 42.8397 144.057 42.8325 144.008C42.8295 143.988 42.8197 143.92 42.8088 143.831C42.8036 143.787 42.7932 143.7 42.7829 143.588C42.7785 143.539 42.7476 143.222 42.7476 142.817H51.199ZM50.4083 138.304L58.7242 136.796L51.4436 96.6374L43.1277 98.145L34.8119 99.6527L42.0925 139.811L50.4083 138.304ZM43.1277 98.145V106.596H55.1852V98.145V89.6936H43.1277V98.145ZM55.1852 98.145L46.8064 99.2506L51.188 132.458L59.5667 131.352L67.9455 130.247L63.564 97.0395L55.1852 98.145ZM59.5667 131.352L68.0011 131.888L70.1096 98.6806L61.6751 98.145L53.2407 97.6095L51.1323 130.817L59.5667 131.352ZM61.6751 98.145V106.596H73.7655V98.145V89.6936H61.6751V98.145ZM91.8517 128.585H100.303V119.941L91.6612 120.136L91.8517 128.585ZM86.8443 150.361L79.37 146.416L79.3491 146.456L79.3286 146.496L86.8443 150.361ZM74.5233 151.514L67.5746 146.704L58.3932 159.966H74.5233V151.514ZM78.1141 127.333L72.3307 121.171L72.3069 121.193L72.2832 121.216L78.1141 127.333ZM85.4277 124.467L86.8085 132.805L93.8791 131.634V124.467H85.4277ZM85.4277 124.401H93.8791V116.385L85.8734 115.962L85.4277 124.401ZM74.5891 98.145V89.6936H58.1665L67.712 103.057L74.5891 98.145ZM86.0536 98.145L89.1924 90.2981L87.6812 89.6936H86.0536V98.145ZM87.0419 99.5946L79.1808 102.698L79.1951 102.734L79.2097 102.77L87.0419 99.5946ZM91.8517 120.283L91.5938 128.731L100.303 128.997V120.283H91.8517ZM91.8517 98.145V89.6936H83.4004V98.145H91.8517ZM105.754 98.145H114.205V89.6936H105.754V98.145ZM105.754 120.283H97.3027V128.993L106.008 128.731L105.754 120.283ZM123.083 98.145L129.96 103.057L139.505 89.6936H123.083V98.145ZM112.211 124.401L111.767 115.962L103.76 116.383V124.401H112.211ZM112.211 124.467H103.76V131.634L110.83 132.805L112.211 124.467ZM123.148 151.514V159.966H139.279L130.097 146.704L123.148 151.514ZM111.684 151.514L108.296 159.257L109.916 159.966H111.684V151.514ZM110.663 150.032L102.732 152.953L102.766 153.044L102.802 153.135L110.663 150.032ZM105.754 128.585L105.942 120.136L97.3027 119.944V128.585H105.754ZM105.754 151.514V159.966H114.205V151.514H105.754ZM91.8517 151.514H83.4004V159.966H91.8517V151.514ZM91.8517 128.585L91.6612 120.136C89.2173 120.191 85.8758 120.748 83.0655 123.157C79.9821 125.8 79.0188 129.366 79.0188 132.341H87.4702H95.9216C95.9216 132.56 95.89 133.118 95.6022 133.845C95.2957 134.62 94.7771 135.38 94.0657 135.99C92.7159 137.147 91.5652 137.045 92.0423 137.034L91.8517 128.585ZM87.4702 132.341H79.0188V146.375H87.4702H95.9216V132.341H87.4702ZM87.4702 146.375H79.0188C79.0188 146.687 79.01 146.934 78.9977 147.124C78.9852 147.315 78.9706 147.422 78.9646 147.461C78.9581 147.502 78.9666 147.43 79.0128 147.273C79.0369 147.192 79.0741 147.078 79.1297 146.937C79.1851 146.796 79.2628 146.619 79.37 146.416L86.8443 150.361L94.3186 154.306C95.7659 151.564 95.9216 148.43 95.9216 146.375H87.4702ZM86.8443 150.361L79.3286 146.496C79.2028 146.74 79.2805 146.548 79.5493 146.186C79.6709 146.023 80.0627 145.505 80.7296 144.95C81.2095 144.55 83.0721 143.063 85.9877 143.063V151.514V159.966C88.9912 159.966 90.9554 158.431 91.5506 157.935C92.3328 157.283 92.8537 156.621 93.118 156.266C93.6723 155.519 94.0904 154.751 94.36 154.226L86.8443 150.361ZM85.9877 151.514V143.063H74.5233V151.514V159.966H85.9877V151.514ZM74.5233 151.514L81.4719 156.325C83.8752 152.853 84.4571 148.714 84.4571 145.156H76.0057H67.5543C67.5543 146.092 67.4696 146.656 67.4045 146.935C67.34 147.211 67.3313 147.055 67.5746 146.704L74.5233 151.514ZM76.0057 145.156H84.4571V133.164H76.0057H67.5543V145.156H76.0057ZM76.0057 133.164H84.4571C84.4571 132.651 84.5297 132.534 84.4806 132.67C84.4543 132.742 84.4003 132.867 84.3032 133.018C84.2049 133.171 84.0831 133.32 83.9451 133.451L78.1141 127.333L72.2832 121.216C68.7266 124.606 67.5543 129.06 67.5543 133.164H76.0057ZM78.1141 127.333L83.8976 133.496C83.6125 133.764 83.5601 133.691 84.0969 133.481C84.6186 133.276 85.4864 133.024 86.8085 132.805L85.4277 124.467L84.0469 116.129C80.0786 116.787 75.6075 118.096 72.3307 121.171L78.1141 127.333ZM85.4277 124.467H93.8791V124.401H85.4277H76.9763V124.467H85.4277ZM85.4277 124.401L85.8734 115.962C84.9057 115.911 84.35 115.773 84.0912 115.683C83.8562 115.602 83.9529 115.593 84.1647 115.79C84.3962 116.005 84.5288 116.247 84.5756 116.372C84.6069 116.456 84.523 116.283 84.523 115.704H76.0716H67.6202C67.6202 120.08 68.9199 124.696 72.6565 128.17C76.2116 131.475 80.7825 132.619 84.9819 132.841L85.4277 124.401ZM76.0716 115.704H84.523V104.404H76.0716H67.6202V115.704H76.0716ZM76.0716 104.404H84.523C84.523 100.882 83.9469 96.7056 81.4663 93.2328L74.5891 98.145L67.712 103.057C67.4268 102.658 67.4191 102.45 67.4771 102.695C67.5357 102.943 67.6202 103.481 67.6202 104.404H76.0716ZM74.5891 98.145V106.596H86.0536V98.145V89.6936H74.5891V98.145ZM86.0536 98.145L82.9149 105.992C81.8025 105.547 81.019 104.941 80.5342 104.488C80.0483 104.035 79.7365 103.619 79.565 103.367C79.2418 102.893 79.1381 102.589 79.1808 102.698L87.0419 99.5946L94.903 96.4915C94.6163 95.7651 94.1832 94.8025 93.5306 93.8453C92.9739 93.0288 91.6311 91.2736 89.1924 90.2981L86.0536 98.145ZM87.0419 99.5946L79.2097 102.77C79.113 102.531 79.0669 102.36 79.0487 102.286C79.03 102.209 79.0306 102.193 79.0387 102.252C79.0465 102.309 79.0585 102.417 79.0683 102.584C79.078 102.751 79.0847 102.96 79.0847 103.218H87.5361H95.9875C95.9875 101.277 95.8225 98.7585 94.8742 96.4193L87.0419 99.5946ZM87.5361 103.218H79.0847V116.495H87.5361H95.9875V103.218H87.5361ZM87.5361 116.495H79.0847C79.0847 119.433 80.017 122.968 83.0394 125.622C85.8177 128.061 89.1427 128.656 91.5938 128.731L91.8517 120.283L92.1097 111.836C91.6837 111.823 92.8509 111.743 94.1906 112.919C95.7745 114.309 95.9875 115.995 95.9875 116.495H87.5361ZM91.8517 120.283H100.303V98.145H91.8517H83.4004V120.283H91.8517ZM91.8517 98.145V106.596H105.754V98.145V89.6936H91.8517V98.145ZM105.754 98.145H97.3027V120.283H105.754H114.205V98.145H105.754ZM105.754 120.283L106.008 128.731C108.457 128.657 111.78 128.074 114.568 125.663C117.623 123.022 118.587 119.473 118.587 116.495H110.136H101.684C101.684 116.274 101.716 115.721 102 115C102.303 114.234 102.814 113.482 103.512 112.877C104.84 111.73 105.973 111.822 105.5 111.836L105.754 120.283ZM110.136 116.495H118.587V103.218H110.136H101.684V116.495H110.136ZM110.136 103.218H118.587C118.587 102.905 118.595 102.656 118.607 102.465C118.62 102.271 118.634 102.16 118.64 102.119C118.647 102.073 118.64 102.143 118.595 102.297C118.572 102.378 118.536 102.492 118.482 102.634C118.428 102.776 118.351 102.956 118.244 103.163L110.729 99.2981L103.213 95.4329C101.823 98.1345 101.684 101.224 101.684 103.218H110.136ZM110.729 99.2981L118.244 103.163C118.358 102.941 118.257 103.184 117.939 103.595C117.789 103.791 117.36 104.328 116.64 104.888C116.027 105.365 114.265 106.596 111.618 106.596V98.145V89.6936C108.873 89.6936 106.999 90.973 106.263 91.546C105.419 92.2022 104.855 92.8839 104.556 93.2712C103.942 94.067 103.494 94.8861 103.213 95.4329L110.729 99.2981ZM111.618 98.145V106.596H123.083V98.145V89.6936H111.618V98.145ZM123.083 98.145L116.205 93.2328C113.725 96.7056 113.149 100.882 113.149 104.404H121.6H130.051C130.051 103.481 130.136 102.943 130.195 102.695C130.253 102.45 130.245 102.658 129.96 103.057L123.083 98.145ZM121.6 104.404H113.149V115.704H121.6H130.051V104.404H121.6ZM121.6 115.704H113.149C113.149 116.28 113.065 116.45 113.097 116.363C113.146 116.235 113.279 115.993 113.51 115.78C113.72 115.585 113.812 115.597 113.571 115.68C113.305 115.772 112.742 115.91 111.767 115.962L112.211 124.401L112.655 132.841C116.86 132.62 121.435 131.479 124.996 128.18C128.744 124.709 130.051 120.089 130.051 115.704H121.6ZM112.211 124.401H103.76V124.467H112.211H120.662V124.401H112.211ZM112.211 124.467L110.83 132.805C112.152 133.024 113.02 133.276 113.542 133.481C114.079 133.691 114.026 133.764 113.741 133.496L119.525 127.333L125.308 121.171C122.031 118.096 117.56 116.787 113.592 116.129L112.211 124.467ZM119.525 127.333L113.741 133.496C113.606 133.369 113.483 133.222 113.382 133.068C113.283 132.916 113.226 132.788 113.197 132.709C113.143 132.561 113.215 132.664 113.215 133.164H121.666H130.117C130.117 129.023 128.911 124.552 125.308 121.171L119.525 127.333ZM121.666 133.164H113.215V145.156H121.666H130.117V133.164H121.666ZM121.666 145.156H113.215C113.215 148.714 113.797 152.853 116.2 156.325L123.148 151.514L130.097 146.704C130.34 147.055 130.332 147.211 130.267 146.935C130.202 146.656 130.117 146.092 130.117 145.156H121.666ZM123.148 151.514V143.063H111.684V151.514V159.966H123.148V151.514ZM111.684 151.514L115.071 143.771C116.936 144.587 117.864 145.855 118.125 146.234C118.45 146.705 118.557 147.012 118.524 146.929L110.663 150.032L102.802 153.135C103.098 153.886 103.54 154.857 104.205 155.823C104.807 156.696 106.081 158.288 108.296 159.257L111.684 151.514ZM110.663 150.032L118.593 147.11C118.666 147.307 118.697 147.439 118.707 147.482C118.717 147.526 118.712 147.515 118.702 147.434C118.68 147.262 118.653 146.923 118.653 146.375H110.201H101.75C101.75 148.308 101.907 150.714 102.732 152.953L110.663 150.032ZM110.201 146.375H118.653V132.341H110.201H101.75V146.375H110.201ZM110.201 132.341H118.653C118.653 129.325 117.657 125.747 114.542 123.116C111.723 120.736 108.384 120.19 105.942 120.136L105.754 128.585L105.566 137.035C106.089 137.046 104.974 137.159 103.637 136.031C102.926 135.431 102.397 134.672 102.081 133.886C101.785 133.147 101.75 132.574 101.75 132.341H110.201ZM105.754 128.585H97.3027V151.514H105.754H114.205V128.585H105.754ZM105.754 151.514V143.063H91.8517V151.514V159.966H105.754V151.514ZM91.8517 151.514H100.303V128.585H91.8517H83.4004V151.514H91.8517ZM166.14 160.706V169.157H174.592V160.706H166.14ZM156.554 160.706H148.102V169.157H156.554V160.706ZM156.554 151.514H165.005V143.063H156.554V151.514ZM134.152 151.514V143.063H125.7V151.514H134.152ZM134.152 160.706V169.157H142.603V160.706H134.152ZM124.598 160.706H116.147V169.157H124.598V160.706ZM124.598 140.379V131.928H116.147V140.379H124.598ZM127.431 140.379V148.831H133.474L135.429 143.112L127.431 140.379ZM131.088 123.149L122.713 122.016L122.711 122.027L122.71 122.038L131.088 123.149ZM132.537 98.145V89.6936H124.086V98.145H132.537ZM163.307 98.145H171.758V89.6936H163.307V98.145ZM163.307 140.313H154.856V148.765H163.307V140.313ZM166.14 140.313H174.592V131.862H166.14V140.313ZM149.405 140.313V148.765H157.856V140.313H149.405ZM149.405 108.687H157.856V100.236H149.405V108.687ZM145.287 108.687V100.236H136.835V108.687H145.287ZM141.992 140.313L133.716 138.6L131.612 148.765H141.992V140.313ZM166.14 160.706V152.254H156.554V160.706V169.157H166.14V160.706ZM156.554 160.706H165.005V151.514H156.554H148.102V160.706H156.554ZM156.554 151.514V143.063H134.152V151.514V159.966H156.554V151.514ZM134.152 151.514H125.7V160.706H134.152H142.603V151.514H134.152ZM134.152 160.706V152.254H124.598V160.706V169.157H134.152V160.706ZM124.598 160.706H133.049V140.379H124.598H116.147V160.706H124.598ZM124.598 140.379V148.831H127.431V140.379V131.928H124.598V140.379ZM127.431 140.379L135.429 143.112C137.172 138.01 138.484 131.662 139.466 124.261L131.088 123.149L122.71 122.038C121.803 128.869 120.677 134.007 119.434 137.646L127.431 140.379ZM131.088 123.149L139.463 124.283C140.488 116.712 140.989 108.531 140.989 99.7593H132.537H124.086C124.086 107.899 123.621 115.312 122.713 122.016L131.088 123.149ZM132.537 99.7593H140.989V98.145H132.537H124.086V99.7593H132.537ZM132.537 98.145V106.596H163.307V98.145V89.6936H132.537V98.145ZM163.307 98.145H154.856V140.313H163.307H171.758V98.145H163.307ZM163.307 140.313V148.765H166.14V140.313V131.862H163.307V140.313ZM166.14 140.313H157.689V160.706H166.14H174.592V140.313H166.14ZM149.405 140.313H157.856V108.687H149.405H140.953V140.313H149.405ZM149.405 108.687V100.236H145.287V108.687V117.138H149.405V108.687ZM145.287 108.687H136.835V109.082H145.287H153.738V108.687H145.287ZM145.287 109.082H136.835C136.835 118.686 135.803 128.522 133.716 138.6L141.992 140.313L150.268 142.027C152.574 130.889 153.738 119.904 153.738 109.082H145.287ZM141.992 140.313V148.765H149.405V140.313V131.862H141.992V140.313ZM170.489 98.178V89.7266H162.037V98.178H170.489ZM193.615 98.178H202.067V89.7266H193.615V98.178ZM193.615 108.852V117.303H202.067V108.852H193.615ZM184.358 108.852V100.4H175.907V108.852H184.358ZM184.358 118.966H175.907V127.417H184.358V118.966ZM193.022 118.966H201.474V110.514H193.022V118.966ZM193.022 129.112V137.564H201.474V129.112H193.022ZM184.358 129.112V120.661H175.907V129.112H184.358ZM184.358 140.84H175.907V149.292H184.358V140.84ZM194.538 140.84H202.989V132.389H194.538V140.84ZM194.538 151.514V159.966H202.989V151.514H194.538ZM170.489 151.514H162.037V159.966H170.489V151.514ZM170.489 98.178V106.629H193.615V98.178V89.7266H170.489V98.178ZM193.615 98.178H185.164V108.852H193.615H202.067V98.178H193.615ZM193.615 108.852V100.4H184.358V108.852V117.303H193.615V108.852ZM184.358 108.852H175.907V118.966H184.358H192.81V108.852H184.358ZM184.358 118.966V127.417H193.022V118.966V110.514H184.358V118.966ZM193.022 118.966H184.571V129.112H193.022H201.474V118.966H193.022ZM193.022 129.112V120.661H184.358V129.112V137.564H193.022V129.112ZM184.358 129.112H175.907V140.84H184.358H192.81V129.112H184.358ZM184.358 140.84V149.292H194.538V140.84V132.389H184.358V140.84ZM194.538 140.84H186.086V151.514H194.538H202.989V140.84H194.538ZM194.538 151.514V143.063H170.489V151.514V159.966H194.538V151.514ZM170.489 151.514H178.94V98.178H170.489H162.037V151.514H170.489ZM230.447 98.178H238.898V89.7266H230.447V98.178ZM230.447 151.514V159.966H238.898V151.514H230.447ZM216.577 151.514H208.126V159.966H216.577V151.514ZM216.577 129.112H225.029V120.661H216.577V129.112ZM212.426 129.112V120.661H203.975V129.112H212.426ZM212.426 151.514V159.966H220.878V151.514H212.426ZM198.557 151.514H190.106V159.966H198.557V151.514ZM198.557 98.178V89.7266H190.106V98.178H198.557ZM212.426 98.178H220.878V89.7266H212.426V98.178ZM212.426 117.253H203.975V125.704H212.426V117.253ZM216.577 117.253V125.704H225.029V117.253H216.577ZM216.577 98.178V89.7266H208.126V98.178H216.577ZM230.447 98.178H221.995V151.514H230.447H238.898V98.178H230.447ZM230.447 151.514V143.063H216.577V151.514V159.966H230.447V151.514ZM216.577 151.514H225.029V129.112H216.577H208.126V151.514H216.577ZM216.577 129.112V120.661H212.426V129.112V137.564H216.577V129.112ZM212.426 129.112H203.975V151.514H212.426H220.878V129.112H212.426ZM212.426 151.514V143.063H198.557V151.514V159.966H212.426V151.514ZM198.557 151.514H207.008V98.178H198.557H190.106V151.514H198.557ZM198.557 98.178V106.629H212.426V98.178V89.7266H198.557V98.178ZM212.426 98.178H203.975V117.253H212.426H220.878V98.178H212.426ZM212.426 117.253V125.704H216.577V117.253V108.801H212.426V117.253ZM216.577 117.253H225.029V98.178H216.577H208.126V117.253H216.577ZM216.577 98.178V106.629H230.447V98.178V89.7266H216.577V98.178ZM267.014 151.514V159.966H275.466V151.514H267.014ZM255.418 151.514H246.967V159.966H255.418V151.514ZM255.418 127.235H263.87L247.317 124.827L255.418 127.235ZM248.203 151.514V159.966H254.509L256.305 153.921L248.203 151.514ZM236.047 151.514H227.596V159.966H236.047V151.514ZM236.047 98.145V89.6936H227.596V98.145H236.047ZM247.643 98.145H256.095V89.6936H247.643V98.145ZM247.643 122.227H239.192L255.686 124.824L247.643 122.227ZM255.418 98.145V89.6936H249.266L247.376 95.5485L255.418 98.145ZM267.014 98.145H275.466V89.6936H267.014V98.145ZM267.014 151.514V143.063H255.418V151.514V159.966H267.014V151.514ZM255.418 151.514H263.87V127.235H255.418H246.967V151.514H255.418ZM255.418 127.235L247.317 124.827L240.102 149.107L248.203 151.514L256.305 153.921L263.519 129.642L255.418 127.235ZM248.203 151.514V143.063H236.047V151.514V159.966H248.203V151.514ZM236.047 151.514H244.499V98.145H236.047H227.596V151.514H236.047ZM236.047 98.145V106.596H247.643V98.145V89.6936H236.047V98.145ZM247.643 98.145H239.192V122.227H247.643H256.095V98.145H247.643ZM247.643 122.227L255.686 124.824L263.461 100.742L255.418 98.145L247.376 95.5485L239.601 119.631L247.643 122.227ZM255.418 98.145V106.596H267.014V98.145V89.6936H255.418V98.145ZM267.014 98.145H258.563V151.514H267.014H275.466V98.145H267.014ZM272.549 98.178V89.7266H264.098V98.178H272.549ZM295.676 98.178H304.127V89.7266H295.676V98.178ZM295.676 108.852V117.303H304.127V108.852H295.676ZM286.418 108.852V100.4H277.967V108.852H286.418ZM286.418 118.966H277.967V127.417H286.418V118.966ZM295.083 118.966H303.534V110.514H295.083V118.966ZM295.083 129.112V137.564H303.534V129.112H295.083ZM286.418 129.112V120.661H277.967V129.112H286.418ZM286.418 140.84H277.967V149.292H286.418V140.84ZM296.598 140.84H305.049V132.389H296.598V140.84ZM296.598 151.514V159.966H305.049V151.514H296.598ZM272.549 151.514H264.098V159.966H272.549V151.514ZM272.549 98.178V106.629H295.676V98.178V89.7266H272.549V98.178ZM295.676 98.178H287.224V108.852H295.676H304.127V98.178H295.676ZM295.676 108.852V100.4H286.418V108.852V117.303H295.676V108.852ZM286.418 108.852H277.967V118.966H286.418H294.87V108.852H286.418ZM286.418 118.966V127.417H295.083V118.966V110.514H286.418V118.966ZM295.083 118.966H286.631V129.112H295.083H303.534V118.966H295.083ZM295.083 129.112V120.661H286.418V129.112V137.564H295.083V129.112ZM286.418 129.112H277.967V140.84H286.418H294.87V129.112H286.418ZM286.418 140.84V149.292H296.598V140.84V132.389H286.418V140.84ZM296.598 140.84H288.147V151.514H296.598H305.049V140.84H296.598ZM296.598 151.514V143.063H272.549V151.514V159.966H296.598V151.514ZM272.549 151.514H281V98.178H272.549H264.098V151.514H272.549ZM314.849 98.178L323.288 98.6349L323.77 89.7266H314.849V98.178ZM312.675 138.337V146.788H320.681L321.114 138.794L312.675 138.337ZM302.396 138.337L293.957 138.794L294.39 146.788H302.396V138.337ZM300.222 98.178V89.7266H291.301L291.783 98.6349L300.222 98.178ZM313.762 140.84H322.213V132.389H313.762V140.84ZM313.762 151.514V159.966H322.213V151.514H313.762ZM301.309 151.514H292.858V159.966H301.309V151.514ZM301.309 140.84V132.389H292.858V140.84H301.309ZM314.849 98.178L306.41 97.7211L304.236 137.88L312.675 138.337L321.114 138.794L323.288 98.6349L314.849 98.178ZM312.675 138.337V129.885H302.396V138.337V146.788H312.675V138.337ZM302.396 138.337L310.835 137.88L308.661 97.7211L300.222 98.178L291.783 98.6349L293.957 138.794L302.396 138.337ZM300.222 98.178V106.629H314.849V98.178V89.7266H300.222V98.178ZM313.762 140.84H305.31V151.514H313.762H322.213V140.84H313.762ZM313.762 151.514V143.063H301.309V151.514V159.966H313.762V151.514ZM301.309 151.514H309.76V140.84H301.309H292.858V151.514H301.309ZM301.309 140.84V149.292H313.762V140.84V132.389H301.309V140.84Z" fill="#373737" mask="url(#path-722-outside-2_1_189)"/>
<path d="M255.97 53.1055L256.005 53.2773L256.112 53.1377L277.267 25.6201L273.13 60.6982L273.109 60.8799L273.257 60.7725L313.708 31.4688L290.141 74.543L290.062 74.6875L290.225 74.6602L318.356 69.9707L296.836 90.46H193.529L172.321 69.8076L200.06 74.1797L200.219 74.2041L200.143 74.0625L183.462 42.8662L183.461 42.8643L176.04 30.1309L217.106 60.7715L217.255 60.8828L217.234 60.6982L212.938 23.6309L235.133 54.1787L235.243 54.3301L235.277 54.1465L245.146 0.418945L255.97 53.1055Z" fill="#B0CA27" stroke="#373737" stroke-width="0.16039"/>
<path d="M274.373 62.9448L289.028 76.9595L298.398 90.4604H193.029L216.477 62.9438L244.422 55.1763L274.373 62.9448Z" fill="#FF6917" stroke="#373737" stroke-width="0.16039"/>
<path d="M264.12 71.4492L298.244 90.46H193.151L225.607 71.4473L243.94 66.9648L264.12 71.4492Z" fill="white" stroke="#373737" stroke-width="0.16039"/>
<path d="M255.209 70.2441L263.593 77.3496L265.659 90.46H224.304L225.411 82.3066L232.283 70.2402L243.459 67.5264L255.209 70.2441Z" fill="#FF6917" stroke="#373737" stroke-width="0.16039"/>
<path d="M115.152 361.404H113.182V363.481H115.152V361.404Z" fill="white"/>
<defs>
<clipPath id="clip0_1_189">
<rect width="321.484" height="321.484" fill="white" transform="translate(0.662292 155.434)"/>
</clipPath>
</defs>
</svg>
