<svg width="1120" height="264" viewBox="0 0 1120 264" fill="none" xmlns="http://www.w3.org/2000/svg">
<path d="M0 12C0 5.37259 5.37258 0 12 0H385.5H578.25H674.625H722.812H746.906C746.906 12.4264 756.98 22.5 769.406 22.5H771V33V66V132V198V231V247.5H769.5C760.387 247.5 753 254.887 753 264H746.906H722.812H674.625H578.25H385.5H12C5.37258 264 0 258.627 0 252V12Z" fill="white"/>
<path d="M771 22.5C783.127 22.222 792.812 12.1299 792.812 0H814.625H858.25H945.5H1108C1114.63 0 1120 5.37258 1120 12V252C1120 258.627 1114.63 264 1108 264H945.5H858.25H814.625H791.5C791.5 254.887 784.113 247.5 775 247.5H771V198V132V66V33V22.5Z" fill="white"/>
</svg>
