<svg width="297" height="383" viewBox="0 0 297 383" fill="none" xmlns="http://www.w3.org/2000/svg">
<path d="M145.347 205.75C141.918 206.143 138.794 205.529 132.571 208.555C128.79 210.783 127.684 214.071 127.162 215.915C126.645 217.909 126.567 219.405 126.513 220.782C126.444 223.501 126.641 225.713 126.76 227.762C127.86 236.345 131.478 238.729 133.994 242.33C136.711 245.629 139.441 248.624 142.167 251.679C143.345 252.997 144.533 254.302 145.735 255.603C159.056 270.096 174.367 283.19 190.043 294.171C191.947 295.532 193.869 297.025 195.784 298.57C209.207 309.566 221.766 322.908 234.422 336.031C236.441 338.125 238.437 340.522 240.367 342.986C246.777 351.252 252.744 360.334 258.167 369.465C259.602 371.853 260.346 374.419 261.679 378.544C261.916 378.995 261.784 379.623 263.542 381.231C263.782 381.423 264.068 381.622 264.412 381.806C264.602 381.906 264.709 381.962 265.024 382.089C265.329 382.209 265.665 382.31 266.023 382.379C267.474 382.69 269.115 382.25 270.018 381.67C271.831 380.477 272.034 379.519 272.23 379.234C272.581 378.467 272.62 378.163 272.694 377.868C272.764 377.543 272.802 377.27 272.825 377.085C272.845 376.915 272.862 376.751 272.877 376.581C272.891 376.428 272.9 376.309 272.91 376.167C272.947 375.612 272.966 375.134 272.982 374.662C273.012 373.718 273.026 372.773 273.031 371.883C273.042 370.06 273.026 368.265 272.997 366.478C272.937 362.899 272.824 359.339 272.681 355.789C272.29 346.243 271.678 336.774 270.905 327.266C269.906 315.019 268.253 302.857 265.714 290.846C264.76 286.262 263.345 280.647 262.446 277.259L257.449 278.261C262.639 287.579 268.919 294.756 274.939 302.658C277.56 306.002 280.185 309.327 282.817 312.66L282.793 312.626C284.075 314.375 285.324 316.149 286.536 317.95C289.205 321.905 291.671 326 294.074 330.149C294.409 330.725 294.793 331.244 295.147 331.589C295.501 331.933 295.796 332.077 295.971 331.983C296.146 331.889 296.191 331.562 296.101 331.074C296.01 330.587 295.791 329.978 295.496 329.379C293.357 325.032 291.127 320.693 288.668 316.467C287.582 314.596 286.458 312.746 285.298 310.919C285.29 310.908 285.268 310.875 285.26 310.864C283.43 308.196 281.611 305.542 279.788 302.873C278.628 302.672 277.446 302.106 275.943 300.509C275.179 299.698 274.175 298.415 273.606 297.369C273.085 296.416 272.814 295.625 272.556 294.869C272.288 294.08 272.036 293.334 271.532 292.487C270.683 291.059 270.065 289.583 269.422 288.021C269.184 287.447 268.959 286.885 268.703 286.286C266.533 282.851 264.159 279.165 262.805 275.93C261.317 272.563 256.638 273.492 256.605 277.173C256.601 277.419 256.614 277.581 256.627 277.733C256.64 277.87 256.648 277.938 256.66 278.036C256.686 278.235 256.705 278.362 256.728 278.507C256.779 278.82 256.814 279.028 256.862 279.294C256.948 279.774 257.04 280.262 257.126 280.722C257.644 282.655 258.086 284.365 258.361 285.873C258.604 287.207 258.681 288.5 258.697 289.74C258.821 290.538 258.931 291.276 259.046 292.065C259.771 297.048 260.344 302.068 260.785 307.11C261.46 310.973 262.096 315.107 262.584 320.446C262.796 322.777 263.053 325.029 263.282 327.236C263.296 327.375 263.311 327.514 263.325 327.653C263.643 330.768 263.914 333.701 263.905 336.28C263.9 338.099 264.086 339.984 264.264 341.875C264.502 344.39 264.728 346.953 264.466 349.249C264.301 350.691 264.087 352.035 263.885 353.255C263.563 355.223 263.272 356.91 263.263 358.467C263.246 361.361 262.984 363.855 262.735 366.06C262.435 368.712 262.156 370.899 262.325 372.793C262.351 373.057 262.384 373.43 262.423 373.763C262.461 374.156 262.502 374.561 262.534 374.976C262.549 375.197 262.565 375.387 262.575 375.571C262.583 375.644 262.585 375.726 262.609 375.675C262.629 375.637 262.615 375.63 262.766 375.199C262.806 375.09 262.86 374.952 262.956 374.759C263.036 374.605 263.221 374.2 263.692 373.682C264.142 373.19 265.171 372.291 266.86 372.194C267.651 372.139 268.549 372.377 269.025 372.611C269.43 372.798 269.75 373.015 270.002 373.22C270.506 373.635 270.761 373.99 270.941 374.26C271.285 374.803 271.359 375.075 271.429 375.272C270.809 374.006 270.129 371.496 269.15 368.46C268.684 367.029 268.232 365.613 267.671 364.211C267.561 363.914 267.449 363.612 267.333 363.306C266.529 361.157 265.711 359.067 264.38 357.119C264.18 356.825 263.91 356.557 263.666 356.317C263.355 356.01 263.076 355.732 263.037 355.506C262.914 354.831 262.613 353.813 262.276 352.708C262.032 351.899 261.767 351.04 261.542 350.23C258.395 344.962 255.106 339.77 251.447 334.655C249.765 332.312 248.014 329.994 246.05 327.675C245.579 327.344 245.077 326.982 244.595 326.641C243.835 326.128 243.056 325.564 242.296 324.973C240.707 323.734 238.884 321.906 236.518 319.554C234.777 317.824 232.741 315.809 230.278 313.545C225.726 309.353 221.341 304.753 218.578 301.719C217.998 301.08 217.406 300.429 216.779 299.742C214.358 297.137 211.45 293.833 205.078 288.071C202.79 286.028 200.526 284.166 198.283 282.512C194.834 279.967 191.818 277.787 189.373 275.968C187.363 274.475 185.716 273.224 184.469 272.231C182.348 270.544 179.756 268.46 177.208 266.318C173.213 262.973 169.364 259.466 167.285 257.379C166.538 256.634 165.779 255.851 164.958 254.99C162.698 252.61 160.003 249.705 156.422 245.65C155.24 244.307 154.209 243.12 153.272 242.038C151.17 239.612 149.499 237.772 147.824 235.923C146.83 234.824 145.793 234.01 144.766 233.175C143.338 232.016 141.754 230.637 141.039 228.859C140.886 228.464 140.81 228.067 140.814 227.799C140.815 227.559 140.884 227.441 140.934 227.471C140.97 226.696 140.973 225.927 140.922 225.182C140.888 224.678 140.797 224.249 140.711 223.836C140.617 223.383 140.528 222.95 140.533 222.483C140.542 221.614 140.598 220.832 140.688 220.297C140.762 219.766 140.944 219.497 140.752 219.881C140.632 220.117 140.194 220.665 139.585 221.001C139.555 220.992 140.542 220.684 141.133 220.542C142.656 220.131 144.866 220.1 147.239 220.066C149.063 220.036 151.023 220.002 153.084 219.706C154.816 219.433 156.82 219.17 159.486 218.109C161.959 217.281 166.441 213.902 167.103 209.148C167.876 204.903 167.363 201.087 166.591 197.563C166.215 195.899 165.705 194.456 165.089 193.042C164.656 192.096 164.163 190.994 163.59 189.7C162.845 188.016 161.98 186.029 160.86 183.508C160.236 182.11 159.874 180.794 159.54 179.628C159.217 178.517 158.913 177.522 158.385 176.582C157.924 175.764 157.387 175.328 156.898 174.96C156.349 174.543 155.814 174.118 155.422 173.242C155.212 172.773 155.026 172.111 154.83 171.386C154.749 171.093 154.659 170.778 154.556 170.445C154.513 170.488 154.469 170.517 154.435 170.537C154.187 170.67 153.575 169.866 152.966 169.095C152.722 168.785 152.471 168.466 152.255 168.225C151.47 167.351 150.295 165.479 149.389 164.037C149.018 163.445 148.597 162.95 148.093 162.366C147.643 161.844 147.165 161.305 146.573 160.534C146.234 160.094 145.929 159.792 145.683 159.554C145.502 159.378 145.348 159.229 145.227 159.074C145.122 158.939 145.11 158.78 145.095 158.601C145.085 158.472 145.073 158.331 145.024 158.181C144.911 157.826 144.659 157.413 144.454 157.184C144.356 157.075 144.264 156.999 144.172 156.924C144.064 156.836 143.957 156.749 143.839 156.607C143.304 155.961 142.861 155.196 142.447 154.474C141.982 153.668 141.457 152.784 140.736 151.972C140.51 151.717 140.243 151.464 139.981 151.218C139.707 150.96 139.44 150.708 139.237 150.472C138.404 149.502 137.871 148.505 137.325 147.529C136.958 146.876 136.638 146.298 136.263 145.796C135.577 144.88 135.36 144.241 135.2 143.77C135.115 143.524 135.058 143.337 134.947 143.168C134.825 143.033 134.7 142.895 134.576 142.762C134.455 142.645 134.329 142.524 134.229 142.396C134.221 142.386 134.214 142.376 134.207 142.366C133.507 141.627 132.752 140.869 132.059 140.192C130.451 138.612 128.857 137.082 127.345 135.251C127.01 134.847 126.756 134.418 126.48 133.964C126.144 133.411 125.794 132.842 125.33 132.352C125.04 132.045 124.739 131.743 124.43 131.444C123.542 130.582 122.596 129.778 121.651 129.005C119.723 127.428 117.807 125.987 116.334 124.344C115.851 123.804 115.406 123.23 114.965 122.664C114.718 122.347 114.468 122.029 114.207 121.717C114.187 121.873 114.142 121.997 114.1 122.112C114.013 122.35 113.939 122.554 114.118 122.933C114.542 123.827 114.942 124.921 114.586 125.157C114.49 125.221 114.428 125.331 114.366 125.443C114.211 125.724 114.053 126.009 113.334 125.58C112.851 125.291 111.62 124.542 111.077 123.784C110.958 123.618 110.932 123.462 110.901 123.288C110.846 122.975 110.782 122.604 110.149 122.019C110.043 121.92 109.926 121.814 109.804 121.706C109.318 121.274 108.774 120.797 108.663 120.497C108.535 120.153 108.723 120.022 108.943 119.869C109.23 119.671 109.571 119.435 109.332 118.641C109.285 118.484 109.103 118.301 108.966 118.162C108.869 118.065 108.795 117.989 108.804 117.961C108.815 117.928 108.891 117.901 108.988 117.867C109.327 117.749 109.926 117.542 108.81 116.649C108.51 116.409 108.147 116.161 107.819 115.939C107.336 115.611 106.937 115.344 106.938 115.236C106.939 115.195 106.946 115.157 106.957 115.119C106.584 114.849 106.208 114.578 105.833 114.31C105.302 114.04 104.637 113.533 103.819 112.914C103.62 112.763 103.409 112.604 103.189 112.44C102.448 111.922 101.706 111.406 100.966 110.895C100.365 110.512 99.7051 110.122 98.9935 109.748C97.5595 108.993 96.2162 108.491 94.9034 108.001C94.3477 107.793 93.8029 107.592 93.2559 107.372C93.4273 107.516 93.579 107.649 93.6885 107.762C94.4372 108.532 94.5693 109.088 94.6848 109.596C94.7627 109.935 94.8338 110.253 95.0851 110.605C95.5428 111.249 95.3063 111.448 95.1328 111.596C95.0427 111.673 94.9702 111.737 95.0181 111.841C95.0569 111.924 95.1945 112.048 95.3362 112.177C95.4597 112.289 95.5871 112.405 95.6546 112.498C96.4827 113.635 96.0067 113.607 95.3171 113.567C94.9354 113.544 94.493 113.522 94.1634 113.686C93.8425 113.88 93.8242 113.991 94.3081 114.508C93.7693 114.33 93.2303 114.153 92.6889 113.974C92.5219 113.841 92.4521 113.66 92.3716 113.384C92.2286 112.893 91.2184 112.029 90.4339 111.357C90.0697 111.046 89.7502 110.773 89.589 110.598C88.7251 109.664 89.2278 109.582 89.6716 109.512C89.9157 109.472 90.1407 109.436 90.11 109.262C90.0971 109.187 90.1901 109.189 90.2841 109.191C90.3569 109.192 90.4313 109.193 90.4584 109.16C90.6544 108.913 90.191 108.296 89.758 107.72C89.5109 107.391 89.278 107.078 89.1829 106.855C89.154 106.788 89.136 106.727 89.1199 106.669C89.0963 106.584 89.0727 106.502 89.014 106.405C88.8805 106.183 88.5197 105.839 88.1299 105.467C87.9293 105.275 87.7195 105.075 87.5263 104.878C87.276 104.622 87.2453 104.447 87.2121 104.263C87.1892 104.133 87.1644 103.999 87.0627 103.83C86.8784 103.524 86.3692 103.094 85.8951 102.693C85.6903 102.52 85.4927 102.352 85.3311 102.202C85.2654 102.141 85.2434 102.099 85.253 102.07C84.49 101.395 83.7732 100.749 83.0723 100.114C80.9349 98.1743 78.9955 96.3865 76.6886 94.4985C75.202 93.2816 73.562 92.0346 71.6342 90.6787C70.699 90.0208 69.7465 89.2531 68.8108 88.4427C65.6568 86.0729 62.5583 83.6408 59.5635 81.1273C58.7941 80.8171 57.9362 80.3603 56.9819 79.7295C55.1927 78.5458 53.5712 77.0956 51.7023 75.3331C50.323 74.0308 48.8055 72.5541 47.0033 70.8622C43.981 68.0212 41.0149 64.9302 37.9823 61.1703C35.6178 58.2448 33.1397 54.842 31.1856 51.9102C30.6258 51.072 30.1081 50.2913 29.6419 49.5828C28.4956 47.8423 27.0045 45.984 25.7115 44.3904C23.8129 42.0244 22.158 39.9492 21.67 38.3553C21.5195 37.8547 21.4574 37.3034 21.3895 36.7548C21.3432 36.3673 21.298 35.9885 21.2232 35.6399C20.7137 34.89 20.2503 34.2111 19.725 33.4301C18.6415 32.2191 17.0865 30.2671 16.149 28.0858C15.6282 27.2969 15.1253 26.5323 14.6511 25.8125C13.5648 24.1479 12.5399 22.5657 11.5243 20.9722C11.1788 20.4284 10.8405 19.8936 10.5115 19.372C10.5084 19.3671 10.5052 19.3622 10.5021 19.3572C9.81353 18.2604 9.16096 17.213 8.48557 16.1051C8.20449 15.645 7.93686 15.2061 7.6476 14.7231C6.94335 13.5517 6.25677 12.3877 5.56887 11.1806C5.22857 10.5888 4.84839 9.90515 4.5177 9.30627C3.9354 8.24042 3.41003 7.25436 2.87594 6.17566C2.04813 4.48538 1.23607 2.76297 0.79744 1.03351C0.728001 0.742767 0.651021 0.499207 0.56582 0.300537C0.481429 0.116791 0.392965 -0.0038147 0.29876 9.15527e-05C0.205474 -0.00415039 0.111229 0.121643 0.052331 0.336029C-0.00537445 0.565247 -0.0177556 0.856018 0.0272143 1.17853C0.31925 3.08997 0.985553 4.91058 1.66627 6.71344C2.10956 7.85922 2.54355 8.90991 3.03589 10.0395C3.31129 10.6781 3.6365 11.3994 3.92194 12.0302C4.50636 13.31 5.09104 14.5476 5.69397 15.7911C5.94352 16.3031 6.1701 16.7685 6.41137 17.2573C6.99483 18.435 7.55606 19.551 8.15301 20.7146C8.15647 20.7213 8.15993 20.7281 8.16339 20.7348C8.44457 21.2851 8.73547 21.8489 9.03346 22.4211C9.9112 24.1117 10.8002 25.7912 11.753 27.5532C12.2138 28.4143 12.7171 29.3389 13.2364 30.2846C13.5062 30.7791 13.7813 31.2807 14.0568 31.7811C14.2077 32.0545 14.3626 32.3338 14.5201 32.617C18.0331 38.9633 21.6941 45.2988 25.3815 51.541C25.9574 52.5164 26.5473 53.51 27.1514 54.5223C30.3338 59.8619 33.8361 65.0355 37.648 69.9704C42.1852 75.8494 47.1677 81.3812 52.4906 86.5582C58.2769 92.202 64.4703 97.4048 70.6383 102.411C86.0939 115.157 103.3 125.87 115.623 139.622C127.565 153.205 138.768 167.567 145.75 183.18C147.894 187.926 149.235 192.436 151.301 198.36C151.618 199.225 151.895 200.08 152.124 200.912C152.793 203.27 152.991 205.587 152.731 206.742C152.763 206.358 153.089 205.576 153.461 205.174C153.828 204.753 154.022 204.7 153.888 204.747C153.627 204.87 152.433 205.176 151.063 205.329C149.465 205.524 147.522 205.626 145.347 205.75Z" fill="#C7EA2C"/>
</svg>
