<svg width="154" height="241" viewBox="0 0 154 241" fill="none" xmlns="http://www.w3.org/2000/svg">
<path d="M100.632 43.1258C111.453 39.8433 122.423 38.3757 134.494 37.6576C137.292 37.51 140.169 37.4902 142.906 37.5636C144.627 37.6569 147.096 37.8826 149.737 39.9233C152.428 42.0255 153.368 45.2169 153.62 46.9567C153.883 49.1753 153.63 50.0358 153.498 51.0208C153.333 51.9639 153.15 52.7024 152.963 53.4074C152.58 54.8247 152.171 56.0593 151.744 57.2768C150.901 59.6676 149.993 61.9249 149.063 64.1201C147.193 68.5157 145.188 72.7252 143.008 76.82C139.384 83.6111 135.675 90.3122 131.952 97.0132C129.172 101.981 126.93 106.937 125.344 112.218C121.783 124.19 120.922 137.98 119.557 151.564C119.227 155.094 118.897 158.634 118.559 162.206L118.486 161.141C119.865 171.042 121.708 180.963 123.811 190.838C125.742 199.877 127.911 208.955 130.305 217.896C131.379 221.851 132.443 225.766 133.72 229.59C133.777 229.753 133.828 229.897 133.873 230.022C133.876 230.03 133.885 230.053 133.889 230.061C134.814 232.858 135.36 235.819 135.445 238.738C135.46 239.167 135.393 239.584 135.261 239.892C135.127 240.2 134.942 240.378 134.743 240.386C134.544 240.395 134.344 240.234 134.178 239.951C134.012 239.667 133.892 239.281 133.834 238.876C133.448 236.106 132.665 233.498 131.518 230.966L131.546 231.035C131.465 230.873 131.378 230.691 131.284 230.487C129.828 227.296 128.583 224.147 127.314 220.918C127.925 220.167 128.271 219.244 128.109 217.864C128.023 217.15 127.762 216.15 127.388 215.479C127.048 214.863 126.663 214.452 126.297 214.062C125.914 213.654 125.544 213.243 125.283 212.679C124.842 211.73 124.205 210.843 123.553 209.955C123.314 209.626 123.07 209.288 122.828 208.933C121.72 205.848 120.642 202.755 119.592 199.65C119.33 198.406 119.087 197.274 118.791 196.325C118.528 195.487 118.147 194.749 117.727 194.02C117.57 193.538 117.415 193.058 117.259 192.574C116.256 189.451 115.283 186.31 114.345 183.159C113.946 180.623 113.524 177.958 112.85 174.533C112.559 173.055 112.358 171.579 112.172 170.158C111.898 168.061 111.66 166.088 111.213 164.399C111.057 163.81 110.952 163.195 110.872 162.569C110.85 162.42 110.809 161.985 110.822 161.835C110.884 161.254 110.966 160.673 111.049 160.099C111.279 158.516 111.512 156.862 111.266 155.413C111.112 154.488 110.914 153.605 110.729 152.822C110.432 151.595 110.178 150.432 110.205 149.465C110.257 147.6 110.079 146.008 109.928 144.549C109.743 142.852 109.595 141.365 109.915 140.14C109.964 139.948 110.027 139.729 110.098 139.484C110.476 138.198 111.074 136.178 111.034 133.149C111.02 132.07 110.856 131.055 110.703 130.044C110.479 128.574 110.274 127.136 110.581 125.652C110.627 125.426 110.747 125.2 110.856 124.995C110.994 124.734 111.116 124.509 111.049 124.36C110.852 123.932 110.663 123.225 110.461 122.475C110.312 121.927 110.159 121.333 109.993 120.778C110.398 116.803 111.001 112.734 111.944 108.668C112.374 106.807 112.875 104.95 113.444 103.114C114.108 102.304 114.759 101.473 115.365 100.591C116.162 99.4249 116.909 97.8417 117.961 95.8472C118.694 94.4574 119.563 92.8978 120.696 91.161C120.759 91.0653 120.823 90.969 120.887 90.8723C123.061 87.6093 124.821 84.0208 125.797 81.6456C126.005 81.1404 126.205 80.6436 126.425 80.0983C127.25 78.0425 128.287 75.4789 130.393 70.7072C132.387 66.1869 134.154 62.4582 135.441 59.6306C136.091 58.2022 136.619 57.006 136.982 56.0988C137.606 54.5392 138.378 52.6128 138.968 50.8374C139.226 50.0631 139.454 49.2878 139.574 48.7195C139.634 48.443 139.668 48.2032 139.664 48.1235C139.671 48.0637 139.578 48.0906 139.651 48.8887C139.616 48.8066 139.609 49.103 139.855 49.6197C140.089 50.1351 140.599 50.7277 141.003 51.0369C141.692 51.5793 142.167 51.6861 142.183 51.757C142.192 51.7751 142.179 51.7901 142.144 51.8056C140.235 51.8738 138.082 51.984 135.207 52.2441C131.862 52.5636 129.753 52.7758 127.487 52.9225C126.578 52.9847 125.722 52.8147 124.826 52.6498C123.564 52.4154 122.228 52.188 120.561 52.69C120.18 52.8057 119.775 52.9699 119.345 53.1458C118.581 53.4626 117.725 53.8196 116.826 53.9654C116.509 54.0168 116.201 54.0046 115.918 53.9885C115.604 53.9715 115.294 53.9565 114.96 54.0345C113.717 54.3259 112.52 54.6597 111.466 54.9614C110.092 55.3542 108.93 55.6996 108.212 55.8253C106.896 56.0589 105.532 56.5763 104.158 57.11C103.671 57.2994 103.175 57.4931 102.672 57.6788C102.113 57.8861 101.541 58.083 100.958 58.2506C97.9077 59.1266 93.7626 60.6415 89.5604 62.3507C87.9642 62.9991 86.5254 63.2487 84.6738 63.5727C83.5252 63.7733 82.2095 64.0045 80.6179 64.3743C79.7092 64.5861 79.0144 64.988 78.3702 65.3603C77.7761 65.7035 77.2224 66.0225 76.5947 66.1425C76.0389 66.249 75.6112 66.0815 75.2049 65.9225C74.7519 65.7459 74.328 65.5791 73.7819 65.8131C73.4912 65.9376 73.1707 66.1925 72.7889 66.4958C72.638 66.6158 72.476 66.7434 72.3043 66.8735C72.2962 66.8144 72.2826 66.7636 72.2706 66.7256C72.1853 66.4578 71.5658 66.5012 70.957 66.5446C70.7139 66.5619 70.4718 66.5797 70.2674 66.5769C69.514 66.567 68.2191 66.9431 67.2403 67.271C66.8264 67.4095 66.4233 67.4482 65.9529 67.4933C65.5352 67.5335 65.0652 67.5785 64.4863 67.7037C64.1561 67.7752 63.8854 67.7773 63.6615 67.7784C63.4994 67.7792 63.3614 67.7797 63.2421 67.8068C63.1388 67.8303 63.0827 67.9332 63.0196 68.0491C62.9743 68.1325 62.9249 68.2229 62.8518 68.2952C62.6768 68.4681 62.4196 68.5866 62.2192 68.6144C62.1269 68.6272 62.0482 68.6198 61.9702 68.6123C61.8792 68.6036 61.7887 68.5946 61.6755 68.6179C61.1563 68.7249 60.6982 68.9706 60.2232 69.2257C59.7007 69.5062 59.1518 69.7998 58.4826 69.9327C58.2719 69.9745 58.0379 69.9891 57.8114 70.0031C57.5754 70.0175 57.3422 70.0331 57.1563 70.0778C56.3993 70.2598 55.7743 70.6759 55.1968 71.0598C54.8105 71.3158 54.4473 71.5567 54.0859 71.7033C53.4235 71.9718 53.1388 72.3195 52.923 72.578C52.8122 72.7117 52.722 72.8211 52.61 72.8822C52.4985 72.9118 52.3853 72.9407 52.2743 72.968C52.1693 72.9839 52.0609 73.0003 51.9665 73.0376C51.9594 73.0404 51.9525 73.0438 51.9454 73.0466C51.323 73.19 50.7023 73.3074 50.0821 73.4251C48.6998 73.6859 47.324 73.9478 45.9732 74.5061C45.6796 74.6272 45.4061 74.8232 45.1293 75.022C44.7884 75.2662 44.4519 75.5121 44.0462 75.6378C43.0892 75.9341 42.1022 76.091 41.1062 76.2542C39.6344 76.491 38.1848 76.7284 36.9933 77.4074C36.6015 77.631 36.26 77.8983 35.8878 78.1775C35.684 78.3318 35.4807 78.4868 35.274 78.6322C35.2801 78.4907 35.2662 78.3646 35.2533 78.2469C35.2266 78.0044 35.2037 77.7969 35.3705 77.5574C35.7719 76.9887 36.1718 76.2585 35.9762 75.891C35.9227 75.7915 35.8972 75.669 35.8728 75.5453C35.8118 75.2348 35.7475 74.9182 35.2213 74.9437C34.8619 74.9625 33.9356 75.0405 33.4878 75.4467C33.3897 75.5354 33.3534 75.6572 33.3131 75.7926C33.2365 76.0373 33.1412 76.3286 32.6515 76.5564C32.5692 76.5947 32.4792 76.6346 32.3864 76.6749C32.1417 76.7811 31.8804 76.8947 31.7026 77.0202C31.607 77.0861 31.534 77.1549 31.4972 77.2272C31.3727 77.4725 31.4841 77.6662 31.6135 77.8922C31.7826 78.1864 31.9815 78.5365 31.7373 79.1248C31.6889 79.2411 31.5493 79.3233 31.4446 79.3853C31.3708 79.4289 31.3149 79.4629 31.318 79.4918C31.3219 79.5249 31.3691 79.5804 31.4293 79.6504C31.6428 79.897 32.0071 80.3307 31.198 80.6333C30.9858 80.7128 30.7059 80.7828 30.4694 80.8404C30.1171 80.9267 29.8298 80.9967 29.8207 81.0915C29.8175 81.1273 29.8192 81.1644 29.823 81.2021C29.5546 81.2839 29.2821 81.3672 29.003 81.4528C28.6146 81.4781 28.1476 81.6492 27.5357 81.8733C27.3865 81.9279 27.23 81.9847 27.0683 82.0423C26.5306 82.2058 25.9852 82.372 25.4383 82.5375C25.0041 82.641 24.5218 82.7316 24.0016 82.7903C22.9764 82.9018 22.011 82.8346 21.0517 82.7692C20.6556 82.739 20.2641 82.7076 19.8598 82.6932C19.9932 82.6314 20.1132 82.5706 20.2022 82.5119C20.7904 82.1165 20.9283 81.6734 21.0622 81.2639C21.1526 80.9909 21.2306 80.7359 21.4281 80.5214C21.7934 80.1272 21.6542 79.8576 21.5493 79.6591C21.4951 79.5561 21.4518 79.4713 21.4939 79.3979C21.5279 79.3391 21.6332 79.2811 21.7428 79.2207C21.8383 79.1681 21.9377 79.1132 21.9939 79.0559C22.6417 78.3709 22.3216 78.2109 21.8568 77.9779C21.6063 77.8474 21.2917 77.701 21.0838 77.4277C20.8832 77.1317 20.88 77.0265 21.2619 76.7513C20.8745 76.7035 20.4895 76.6544 20.1139 76.6016C19.991 76.6548 19.9319 76.7871 19.8532 77.0002C19.6933 77.3875 18.9659 77.7531 18.3521 78.0489C18.0753 78.1836 17.8409 78.2979 17.7179 78.3885C17.0292 78.8804 17.3621 79.1495 17.6541 79.3878C17.8155 79.5186 17.9661 79.6391 17.9251 79.7821C17.9078 79.8432 17.9717 79.8778 18.0366 79.9132C18.0867 79.9406 18.1382 79.9682 18.153 80.0089C18.2597 80.3047 17.8662 80.6768 17.5168 81.0135C17.3235 81.2044 17.1088 81.3956 17.0188 81.5545C16.9904 81.6032 16.9704 81.6501 16.9521 81.6953C16.9253 81.7613 16.8989 81.8245 16.8468 81.8875C16.7279 82.0312 16.4474 82.1888 16.1169 82.3647C15.9508 82.4539 15.7795 82.5456 15.6219 82.6401C15.4163 82.7628 15.3571 82.9082 15.3052 83.0575C15.2671 83.1633 15.2266 83.2727 15.1272 83.3806C14.9524 83.5746 14.5132 83.7451 14.1027 83.8953C13.9267 83.9603 13.7538 84.0229 13.5999 84.086C13.5385 84.1113 13.5129 84.1391 13.5127 84.1693C12.8325 84.4272 12.1215 84.6737 11.3715 84.8815C9.85757 85.2199 8.16079 85.8547 5.10814 84.7542C3.60569 84.1846 2.059 82.7642 1.32159 81.3983C0.550241 80.0334 0.283016 78.8397 0.125365 77.7871C-0.0285506 76.6853 -0.0251923 75.6941 0.0519814 74.7099C0.126521 73.7844 0.178085 72.875 0.218071 71.9736C0.626419 69.135 1.21198 66.5794 1.79442 64.0424C2.16323 63.5906 2.50907 63.0174 2.82545 62.3265C3.41865 61.0329 3.74999 59.6594 4.13045 58.0455C4.41131 56.8525 4.72015 55.526 5.171 54.005C5.92672 51.4481 6.60509 48.8038 7.07368 45.7905C7.24722 44.6703 7.40342 43.4895 7.52755 42.321C7.74125 40.2893 7.92526 38.3311 8.05275 36.7664C8.16424 35.3985 8.5101 33.9765 8.82875 32.669C9.27907 30.799 9.67744 29.1265 9.307 28.0876C9.189 27.7494 8.96935 27.4099 8.75542 27.0871C8.60309 26.8565 8.45431 26.6307 8.3463 26.4131C8.41541 25.8641 8.48581 25.278 8.55507 24.7173C8.89742 23.7454 9.29135 22.1874 9.05057 20.6481C9.11972 20.0814 9.19018 19.4751 9.25812 18.9186C9.40302 17.6995 9.54636 16.4842 9.68727 15.2774C9.73298 14.8976 9.78063 14.47 9.82659 14.076C9.82708 14.0723 9.82758 14.0685 9.82807 14.0647C9.92031 13.2782 10.0137 12.4462 10.1047 11.6445C10.1439 11.2961 10.1821 10.9622 10.2204 10.6226C10.3185 9.73488 10.4144 8.86477 10.5087 8.00658C10.5594 7.53564 10.6079 7.10212 10.658 6.62276C10.7374 5.89786 10.8175 5.11399 10.8947 4.37135C11.0195 3.16926 11.1418 1.93891 11.2542 0.738149C11.273 0.525943 11.3235 0.337672 11.3975 0.211108C11.472 0.0580311 11.5633 -0.0127915 11.657 0.00195317C11.7509 -0.0126411 11.8418 0.0633437 11.9121 0.21884C11.9826 0.348954 12.0266 0.539397 12.0378 0.752651C12.107 1.96265 12.1646 3.20211 12.2179 4.41407C12.2507 5.16316 12.2809 5.95114 12.3102 6.68275C12.3272 7.16644 12.3446 7.60249 12.3605 8.07786C12.3913 8.94303 12.4197 9.82205 12.4448 10.7181C12.4553 11.06 12.4656 11.3976 12.4752 11.7492C12.4981 12.5594 12.5176 13.4033 12.5377 14.1985C12.5378 14.2034 12.5379 14.2083 12.5381 14.2132C12.5478 14.6082 12.5557 15.038 12.5654 15.418C12.592 16.6377 12.6148 17.866 12.6341 19.098C12.6458 19.7364 12.6536 20.4184 12.6627 21.0717C12.6675 21.4395 12.6718 21.8167 12.6762 22.1813C12.6786 22.3755 12.6806 22.5735 12.6825 22.7739C12.7315 27.4208 12.7418 32.007 12.7129 36.6474C12.7001 38.6633 12.6826 40.6502 12.6556 42.6823C12.6172 45.3749 12.4614 48.0545 12.2357 50.709C11.8364 55.4137 11.2032 60.0512 10.6092 64.6005C10.0869 68.7941 9.39229 73.6995 9.92585 76.3222C9.9953 76.6271 10.1014 76.802 10.0796 76.6776C10.0789 76.5712 9.75768 76.0794 9.37853 75.8524C9.00538 75.6175 8.87916 75.6293 9.02055 75.6056C9.15082 75.5885 9.47604 75.5513 9.85201 75.4743C11.4284 75.159 13.6337 74.3941 15.7113 73.6238C19.9583 72.0364 24.3753 70.2384 28.7883 68.5288C43.313 62.8977 57.9408 57.5789 72.6421 52.4551C76.6121 51.0731 80.6971 49.6758 84.6912 48.3313C88.7359 46.9713 92.7081 45.6564 96.7778 44.3475C97.3478 44.1641 97.9144 43.9826 98.4764 43.8032C99.1966 43.5741 99.9152 43.3482 100.632 43.1258Z" fill="#C7EA2C"/>
</svg>
